G04 #@! TF.GenerationSoftware,KiCad,Pcbnew,5.0.2+dfsg1-1+build2*
G04 #@! TF.CreationDate,2019-10-28T22:55:23-04:00*
G04 #@! TF.ProjectId,shaped_pcb,73686170-6564-45f7-9063-622e6b696361,rev?*
G04 #@! TF.SameCoordinates,Original*
G04 #@! TF.FileFunction,Profile,NP*
%FSLAX46Y46*%
G04 Gerber Fmt 4.6, Leading zero omitted, Abs format (unit mm)*
G04 Created by KiCad (PCBNEW 5.0.2+dfsg1-1+build2) date Mon 28 Oct 2019 10:55:23 PM EDT*
%MOMM*%
%LPD*%
G01*
G04 APERTURE LIST*
%ADD10C,0.150000*%
G04 APERTURE END LIST*
D10*
X179070000Y-57150000D02*
X181610000Y-53340000D01*
X175260000Y-63500000D02*
X179070000Y-57150000D01*
X173990000Y-66040000D02*
X175260000Y-63500000D01*
X172720000Y-66040000D02*
X173990000Y-66040000D01*
X171450000Y-64770000D02*
X172720000Y-66040000D01*
X165100000Y-54610000D02*
X171450000Y-64770000D01*
X163830000Y-54610000D02*
X165100000Y-54610000D01*
X162560000Y-55880000D02*
X163830000Y-54610000D01*
X162560000Y-57150000D02*
X162560000Y-55880000D01*
X171450000Y-69850000D02*
X162560000Y-57150000D01*
X173990000Y-71120000D02*
X171450000Y-69850000D01*
X175260000Y-69850000D02*
X173990000Y-71120000D01*
X182880000Y-55880000D02*
X175260000Y-69850000D01*
X182880000Y-54610000D02*
X182880000Y-55880000D01*
X181610000Y-53340000D02*
X182880000Y-54610000D01*
X157480000Y-52070000D02*
X162560000Y-50800000D01*
X152400000Y-54610000D02*
X157480000Y-52070000D01*
X148590000Y-60960000D02*
X152400000Y-54610000D01*
X149860000Y-68580000D02*
X148590000Y-60960000D01*
X153670000Y-76200000D02*
X149860000Y-68580000D01*
X160020000Y-81280000D02*
X153670000Y-76200000D01*
X168910000Y-82550000D02*
X160020000Y-81280000D01*
X175260000Y-80010000D02*
X168910000Y-82550000D01*
X182880000Y-74930000D02*
X175260000Y-80010000D01*
X189230000Y-73660000D02*
X182880000Y-74930000D01*
X193040000Y-71120000D02*
X189230000Y-73660000D01*
X194310000Y-62230000D02*
X193040000Y-71120000D01*
X193040000Y-55880000D02*
X194310000Y-62230000D01*
X189230000Y-50800000D02*
X193040000Y-55880000D01*
X184150000Y-48260000D02*
X189230000Y-50800000D01*
X162560000Y-50800000D02*
X184150000Y-48260000D01*
M02*
