M48
; DRILL file {KiCad 5.1.9} date Sat Jan 16 07:41:27 2021
; FORMAT={-:-/ absolute / metric / decimal}
; #@! TF.CreationDate,2021-01-16T07:41:27+00:00
; #@! TF.GenerationSoftware,Kicad,Pcbnew,5.1.9
; #@! TF.FileFunction,Plated,1,2,PTH
FMAT,2
METRIC
T1C0.800
T2C1.000
%
G90
G05
T1
X109.22Y-161.1
X109.22Y-163.1
X109.22Y-165.1
X109.22Y-167.1
T2
X97.865Y-153.265
X97.865Y-155.805
X97.865Y-158.345
X97.865Y-160.885
X97.865Y-163.425
X97.865Y-165.965
X97.865Y-168.505
X97.865Y-171.045
X120.725Y-153.265
X120.725Y-155.805
X120.725Y-158.345
X120.725Y-160.885
X120.725Y-163.425
X120.725Y-165.965
X120.725Y-168.505
X120.725Y-171.045
T0
M30
