%TF.GenerationSoftware,KiCad,Pcbnew,6.0.7+dfsg-1+b1*%
%TF.CreationDate,2022-09-19T16:07:30+02:00*%
%TF.ProjectId,project-controller,70726f6a-6563-4742-9d63-6f6e74726f6c,rev?*%
%TF.SameCoordinates,PX5e69ec0PY69618a0*%
%TF.FileFunction,Copper,L2,Bot*%
%TF.FilePolarity,Positive*%
%FSLAX46Y46*%
G04 Gerber Fmt 4.6, Leading zero omitted, Abs format (unit mm)*
G04 Created by KiCad (PCBNEW 6.0.7+dfsg-1+b1) date 2022-09-19 16:07:30*
%MOMM*%
%LPD*%
G01*
G04 APERTURE LIST*
G04 Aperture macros list*
%AMRoundRect*
0 Rectangle with rounded corners*
0 $1 Rounding radius*
0 $2 $3 $4 $5 $6 $7 $8 $9 X,Y pos of 4 corners*
0 Add a 4 corners polygon primitive as box body*
4,1,4,$2,$3,$4,$5,$6,$7,$8,$9,$2,$3,0*
0 Add four circle primitives for the rounded corners*
1,1,$1+$1,$2,$3*
1,1,$1+$1,$4,$5*
1,1,$1+$1,$6,$7*
1,1,$1+$1,$8,$9*
0 Add four rect primitives between the rounded corners*
20,1,$1+$1,$2,$3,$4,$5,0*
20,1,$1+$1,$4,$5,$6,$7,0*
20,1,$1+$1,$6,$7,$8,$9,0*
20,1,$1+$1,$8,$9,$2,$3,0*%
G04 Aperture macros list end*
%TA.AperFunction,ComponentPad*%
%ADD10R,1.700000X1.700000*%
%TD*%
%TA.AperFunction,ComponentPad*%
%ADD11O,1.700000X1.700000*%
%TD*%
%TA.AperFunction,ComponentPad*%
%ADD12C,1.600000*%
%TD*%
%TA.AperFunction,ComponentPad*%
%ADD13C,2.000000*%
%TD*%
%TA.AperFunction,ComponentPad*%
%ADD14R,1.600000X1.600000*%
%TD*%
%TA.AperFunction,ComponentPad*%
%ADD15O,1.600000X1.600000*%
%TD*%
%TA.AperFunction,SMDPad,CuDef*%
%ADD16RoundRect,0.250000X-0.450000X0.350000X-0.450000X-0.350000X0.450000X-0.350000X0.450000X0.350000X0*%
%TD*%
%TA.AperFunction,SMDPad,CuDef*%
%ADD17RoundRect,0.250000X0.412500X0.650000X-0.412500X0.650000X-0.412500X-0.650000X0.412500X-0.650000X0*%
%TD*%
%TA.AperFunction,SMDPad,CuDef*%
%ADD18RoundRect,0.250000X-0.625000X0.400000X-0.625000X-0.400000X0.625000X-0.400000X0.625000X0.400000X0*%
%TD*%
%TA.AperFunction,SMDPad,CuDef*%
%ADD19RoundRect,0.250000X-0.400000X-0.625000X0.400000X-0.625000X0.400000X0.625000X-0.400000X0.625000X0*%
%TD*%
%TA.AperFunction,SMDPad,CuDef*%
%ADD20RoundRect,0.250000X-1.025000X0.875000X-1.025000X-0.875000X1.025000X-0.875000X1.025000X0.875000X0*%
%TD*%
%TA.AperFunction,SMDPad,CuDef*%
%ADD21RoundRect,0.150000X0.587500X0.150000X-0.587500X0.150000X-0.587500X-0.150000X0.587500X-0.150000X0*%
%TD*%
%TA.AperFunction,SMDPad,CuDef*%
%ADD22RoundRect,0.250000X0.625000X-0.400000X0.625000X0.400000X-0.625000X0.400000X-0.625000X-0.400000X0*%
%TD*%
%TA.AperFunction,SMDPad,CuDef*%
%ADD23RoundRect,0.237500X-0.237500X0.250000X-0.237500X-0.250000X0.237500X-0.250000X0.237500X0.250000X0*%
%TD*%
%TA.AperFunction,SMDPad,CuDef*%
%ADD24RoundRect,0.250000X0.400000X0.625000X-0.400000X0.625000X-0.400000X-0.625000X0.400000X-0.625000X0*%
%TD*%
%TA.AperFunction,SMDPad,CuDef*%
%ADD25RoundRect,0.237500X0.237500X-0.250000X0.237500X0.250000X-0.237500X0.250000X-0.237500X-0.250000X0*%
%TD*%
%TA.AperFunction,SMDPad,CuDef*%
%ADD26RoundRect,0.150000X-0.150000X0.587500X-0.150000X-0.587500X0.150000X-0.587500X0.150000X0.587500X0*%
%TD*%
%TA.AperFunction,SMDPad,CuDef*%
%ADD27R,0.600000X0.450000*%
%TD*%
%TA.AperFunction,SMDPad,CuDef*%
%ADD28RoundRect,0.250000X0.650000X-0.412500X0.650000X0.412500X-0.650000X0.412500X-0.650000X-0.412500X0*%
%TD*%
%TA.AperFunction,SMDPad,CuDef*%
%ADD29RoundRect,0.150000X0.150000X-0.587500X0.150000X0.587500X-0.150000X0.587500X-0.150000X-0.587500X0*%
%TD*%
%TA.AperFunction,SMDPad,CuDef*%
%ADD30RoundRect,0.150000X-0.150000X0.875000X-0.150000X-0.875000X0.150000X-0.875000X0.150000X0.875000X0*%
%TD*%
%TA.AperFunction,SMDPad,CuDef*%
%ADD31RoundRect,0.237500X-0.250000X-0.237500X0.250000X-0.237500X0.250000X0.237500X-0.250000X0.237500X0*%
%TD*%
%TA.AperFunction,SMDPad,CuDef*%
%ADD32R,1.200000X2.200000*%
%TD*%
%TA.AperFunction,SMDPad,CuDef*%
%ADD33R,5.800000X6.400000*%
%TD*%
%TA.AperFunction,SMDPad,CuDef*%
%ADD34RoundRect,0.237500X-0.300000X-0.237500X0.300000X-0.237500X0.300000X0.237500X-0.300000X0.237500X0*%
%TD*%
%TA.AperFunction,SMDPad,CuDef*%
%ADD35RoundRect,0.250000X0.337500X0.475000X-0.337500X0.475000X-0.337500X-0.475000X0.337500X-0.475000X0*%
%TD*%
%TA.AperFunction,SMDPad,CuDef*%
%ADD36RoundRect,0.250000X0.475000X-0.337500X0.475000X0.337500X-0.475000X0.337500X-0.475000X-0.337500X0*%
%TD*%
%TA.AperFunction,ViaPad*%
%ADD37C,1.600000*%
%TD*%
%TA.AperFunction,ViaPad*%
%ADD38C,2.000000*%
%TD*%
%TA.AperFunction,Conductor*%
%ADD39C,0.600000*%
%TD*%
%TA.AperFunction,Conductor*%
%ADD40C,1.000000*%
%TD*%
G04 APERTURE END LIST*
D10*
%TO.P,J102,1,Pin_1*%
%TO.N,/MCU_RST*%
X58300000Y15500000D03*
D11*
%TO.P,J102,2,Pin_2*%
%TO.N,/MCU_SWCLK*%
X55760000Y15500000D03*
%TO.P,J102,3,Pin_3*%
%TO.N,/MCU_SWDIO*%
X53220000Y15500000D03*
%TO.P,J102,4,Pin_4*%
%TO.N,GND*%
X50680000Y15500000D03*
%TD*%
D23*
%TO.P,R113,1*%
%TO.N,/MCU_SWDIO*%
X54750000Y12412500D03*
%TO.P,R113,2*%
%TO.N,+3.3V*%
X54750000Y10587500D03*
%TD*%
D24*
%TO.P,R110,1*%
%TO.N,+3.3V*%
X63800000Y17250000D03*
%TO.P,R110,2*%
%TO.N,/TX_CE*%
X60700000Y17250000D03*
%TD*%
D31*
%TO.P,R107,1*%
%TO.N,GND*%
X58087500Y8000000D03*
%TO.P,R107,2*%
%TO.N,/TX_CS*%
X59912500Y8000000D03*
%TD*%
D23*
%TO.P,R115,1*%
%TO.N,/MCU_RST*%
X58500000Y12412500D03*
%TO.P,R115,2*%
%TO.N,+3.3V*%
X58500000Y10587500D03*
%TD*%
D25*
%TO.P,R408,1*%
%TO.N,+5V*%
%TO.P,R408,2*%
%TO.N,Net-(Q405-Pad2)*%
%TD*%
D18*
%TO.P,R108,1*%
%TO.N,/MCU_AUX0*%
X60250000Y24550000D03*
%TO.P,R108,2*%
%TO.N,/TX_CE*%
X60250000Y21450000D03*
%TD*%
D23*
%TO.P,R112,1*%
%TO.N,/MCU_SWCLK*%
X56500000Y12412500D03*
%TO.P,R112,2*%
%TO.N,+3.3V*%
X56500000Y10587500D03*
%TD*%
D35*
%TO.P,C301,2*%
%TO.N,+3.3V*%
X64212500Y20750000D03*
%TD*%
D38*
X61750000Y48500000D03*
%TO.N,+3.3V*%
X60500000Y11000000D03*
D37*
X53000000Y9000000D03*
%TO.N,/MCU_SWCLK*%
X54750000Y21500000D03*
X54799500Y33353271D03*
%TO.N,/TX_CE*%
X70000000Y14000000D03*
X61000000Y14000000D03*
%TD*%
%TO.N,+3.3V*%
D40*
X54750000Y10587500D02*
X56500000Y10587500D01*
D40*
X60087500Y10587500D02*
X58500000Y10587500D01*
X56500000Y10587500D02*
X58500000Y10587500D01*
D40*
X54587500Y10587500D02*
X53000000Y9000000D01*
D39*
%TO.N,Net-(C202-Pad2)*%
%TO.N,/MCU_SWCLK*%
X50500000Y20250000D02*
X52250000Y20250000D01*
X54799500Y33353271D02*
X52396729Y33353271D01*
X55760000Y15500000D02*
X55760000Y14490000D01*
X49945000Y22350000D02*
X49945000Y20805000D01*
X54750000Y17750000D02*
X55760000Y16740000D01*
X55760000Y14490000D02*
X56500000Y13750000D01*
X52250000Y20250000D02*
X53500000Y21500000D01*
X55760000Y16740000D02*
X55760000Y15500000D01*
X56500000Y13750000D02*
X56500000Y12412500D01*
X49945000Y20805000D02*
X50500000Y20250000D01*
X54750000Y21500000D02*
X54750000Y17750000D01*
%TO.N,/MCU_RST*%
X58300000Y21300000D02*
X56300000Y23300000D01*
X58300000Y13950000D02*
X58500000Y13750000D01*
X56300000Y23300000D02*
X53050000Y23300000D01*
X58500000Y13750000D02*
X58500000Y12412500D01*
X53050000Y23300000D02*
X52100000Y22350000D01*
X52100000Y22350000D02*
X51215000Y22350000D01*
X58300000Y15500000D02*
X58300000Y21300000D01*
X58300000Y15500000D02*
X58300000Y13950000D01*
%TO.N,/MCU_SWDIO*%
X53220000Y15500000D02*
X53220000Y18280000D01*
X57000000Y25000000D02*
X57000000Y25900500D01*
X48675000Y20377944D02*
X48675000Y22350000D01*
X48675000Y22350000D02*
X48675000Y23589924D01*
X53220000Y14530000D02*
X54750000Y13000000D01*
X53220000Y15500000D02*
X53220000Y14530000D01*
X48675000Y23589924D02*
X49585076Y24500000D01*
X52450000Y19050000D02*
X50002944Y19050000D01*
X49585076Y24500000D02*
X56500000Y24500000D01*
X56500000Y24500000D02*
X57000000Y25000000D01*
X50002944Y19050000D02*
X48675000Y20377944D01*
X53220000Y18280000D02*
X52450000Y19050000D01*
X54750000Y13000000D02*
X54750000Y12412500D01*
%TO.N,/TX_CE*%
X70000000Y12750000D02*
X70500000Y12250000D01*
X70000000Y15250000D02*
X73850000Y19100000D01*
X60700000Y18800000D02*
X60700000Y17250000D01*
X71790000Y25960000D02*
X67275000Y25960000D01*
X60250000Y19250000D02*
X60700000Y18800000D01*
X60250000Y21450000D02*
X60250000Y19250000D01*
X70000000Y14000000D02*
X70000000Y15250000D01*
X70000000Y14000000D02*
X70000000Y12750000D01*
X60700000Y14300000D02*
X60700000Y17250000D01*
X73850000Y23900000D02*
X71790000Y25960000D01*
X70500000Y12250000D02*
X70500000Y11412500D01*
X61000000Y14000000D02*
X60700000Y14300000D01*
X73850000Y19100000D02*
X73850000Y23900000D01*
%TO.N,/TX_CS*%
X62700000Y15497056D02*
X62700000Y6450000D01*
X59900000Y5400000D02*
X50100000Y5400000D01*
X62700000Y6450000D02*
X61650000Y5400000D01*
X64735000Y25960000D02*
X63460000Y25960000D01*
X61650000Y5400000D02*
X59900000Y5400000D01*
X50100000Y5400000D02*
X48900000Y6600000D01*
X48900000Y6600000D02*
X48900000Y18455888D01*
X48900000Y18455888D02*
X47405000Y19950888D01*
X47405000Y19950888D02*
X47405000Y22350000D01*
X59912500Y5412500D02*
X59900000Y5400000D01*
X62250000Y24750000D02*
X62250000Y15947056D01*
X63460000Y25960000D02*
X62250000Y24750000D01*
X59912500Y8000000D02*
X59912500Y5412500D01*
X62250000Y15947056D02*
X62700000Y15497056D01*
%TO.N,/TX_MISO*%
X49300000Y4200000D02*
X62950000Y4200000D01*
X62950000Y4200000D02*
X66500000Y7750000D01*
X66500000Y11968503D02*
X65949500Y12519003D01*
X65949500Y12519003D02*
X65949500Y17670000D01*
X47700000Y17958832D02*
X47700000Y5800000D01*
X66500000Y7750000D02*
X66500000Y11968503D01*
X65949500Y17670000D02*
X70000000Y21720500D01*
X47700000Y5800000D02*
X49300000Y4200000D01*
X46135000Y22350000D02*
X46135000Y19523832D01*
X46135000Y19523832D02*
X47700000Y17958832D01*
%TD*%
%TA.AperFunction,Conductor*%
%TO.N,GND*%
G36*
X62861162Y51579309D02*
G01*
G37*
%TD.AperFunction*%
%TA.AperFunction,Conductor*%
G36*
X10015154Y52879309D02*
G01*
G37*
%TD.AperFunction*%
%TA.AperFunction,Conductor*%
G36*
X52061162Y18129309D02*
G01*
X52154586Y18071464D01*
X52164576Y18061925D01*
X52231925Y17994576D01*
X52294023Y17903923D01*
X52319181Y17796960D01*
X52319500Y17783151D01*
X52319500Y16777174D01*
X52299309Y16669163D01*
X52236667Y16570601D01*
X52177654Y16508847D01*
X52113728Y16441952D01*
X52088887Y16415958D01*
X51954475Y16218918D01*
X51854051Y16002572D01*
X51850772Y15990750D01*
X51850771Y15990746D01*
X51831952Y15922888D01*
X51790309Y15772728D01*
X51789005Y15760524D01*
X51789004Y15760520D01*
X51768171Y15565576D01*
X51764963Y15535560D01*
X51778694Y15297438D01*
X51791389Y15241107D01*
X51828434Y15076720D01*
X51828436Y15076713D01*
X51831131Y15064755D01*
X51835745Y15053392D01*
X51835746Y15053389D01*
X51850885Y15016107D01*
X51920867Y14843761D01*
X52045493Y14640391D01*
X52201660Y14460106D01*
X52211096Y14452272D01*
X52211098Y14452270D01*
X52263249Y14408973D01*
X52333455Y14324444D01*
X52361067Y14256313D01*
X52370622Y14220654D01*
X52370624Y14220648D01*
X52374680Y14205512D01*
X52381797Y14191545D01*
X52384697Y14183989D01*
X52387979Y14176617D01*
X52392821Y14161716D01*
X52400656Y14148146D01*
X52400656Y14148145D01*
X52424441Y14106948D01*
X52431895Y14093220D01*
X52460617Y14036851D01*
X52470482Y14024668D01*
X52474886Y14017887D01*
X52479631Y14011356D01*
X52487467Y13997784D01*
X52497950Y13986142D01*
X52497954Y13986136D01*
X52529793Y13950775D01*
X52539953Y13938881D01*
X52549881Y13926620D01*
X52561043Y13915458D01*
X52571817Y13904104D01*
X52614129Y13857112D01*
X52626809Y13847900D01*
X52638451Y13837417D01*
X52637916Y13836823D01*
X52650001Y13826500D01*
X53586925Y12889575D01*
X53649023Y12798922D01*
X53674181Y12691959D01*
X53674500Y12678151D01*
X53674501Y12381855D01*
X53674501Y12090024D01*
X53674847Y12084949D01*
X53674847Y12084944D01*
X53675205Y12079696D01*
X53677358Y12048100D01*
X53680548Y12035305D01*
X53680549Y12035300D01*
X53696978Y11969410D01*
X53721406Y11871434D01*
X53802362Y11708348D01*
X53811017Y11697583D01*
X53851675Y11597007D01*
X53853276Y11487136D01*
X53815079Y11384107D01*
X53770023Y11326365D01*
X52904648Y10460990D01*
X52813995Y10398892D01*
X52738452Y10376856D01*
X52686461Y10368900D01*
X52686450Y10368897D01*
X52674325Y10367042D01*
X52455424Y10295494D01*
X52424256Y10279269D01*
X52262036Y10194823D01*
X52262031Y10194820D01*
X52251149Y10189155D01*
X52066984Y10050881D01*
X51907877Y9884384D01*
X51900964Y9874250D01*
X51900960Y9874245D01*
X51844616Y9791647D01*
X51778099Y9694137D01*
X51737127Y9605871D01*
X51688919Y9502014D01*
X51681136Y9485248D01*
X51659981Y9408964D01*
X51628408Y9295115D01*
X51619592Y9263327D01*
X51614490Y9215588D01*
X51598434Y9065349D01*
X51595119Y9034335D01*
X51608376Y8804420D01*
X51611072Y8792459D01*
X51611072Y8792456D01*
X51653683Y8603380D01*
X51659006Y8579758D01*
X51663620Y8568395D01*
X51663621Y8568392D01*
X51735619Y8391084D01*
X51745649Y8366382D01*
X51752059Y8355921D01*
X51752060Y8355920D01*
X51807010Y8266250D01*
X51865979Y8170022D01*
X51874015Y8160745D01*
X51999995Y8015310D01*
X52016763Y7995952D01*
X52193953Y7848846D01*
X52259680Y7810438D01*
X52382188Y7738850D01*
X52382191Y7738849D01*
X52392790Y7732655D01*
X52607934Y7650499D01*
X52833607Y7604586D01*
X52845865Y7604137D01*
X52845869Y7604136D01*
X53051492Y7596596D01*
X53051497Y7596596D01*
X53063749Y7596147D01*
X53292178Y7625409D01*
X53419762Y7663686D01*
X53501009Y7688061D01*
X53501012Y7688062D01*
X53512761Y7691587D01*
X53648688Y7758177D01*
X53708552Y7787504D01*
X53708555Y7787506D01*
X53719574Y7792904D01*
X53907062Y7926637D01*
X53915753Y7935298D01*
X53915758Y7935302D01*
X54016229Y8035424D01*
X54070190Y8089197D01*
X54080525Y8103579D01*
X54197415Y8266250D01*
X54197419Y8266256D01*
X54204577Y8276217D01*
X54306615Y8482675D01*
X54373563Y8703025D01*
X54377628Y8733903D01*
X54411743Y8838355D01*
X54462645Y8906303D01*
X54955767Y9399425D01*
X55046420Y9461523D01*
X55153383Y9486681D01*
X55167192Y9487000D01*
X59032472Y9487000D01*
X59140483Y9466809D01*
X59233907Y9408964D01*
X59300126Y9321276D01*
X59330197Y9215588D01*
X59320058Y9106175D01*
X59271079Y9007812D01*
X59207359Y8948868D01*
X59208348Y8947638D01*
X59066451Y8833549D01*
X59056301Y8820925D01*
X58971294Y8715198D01*
X58952362Y8691652D01*
X58871406Y8528566D01*
X58827358Y8351900D01*
X58826461Y8338749D01*
X58826461Y8338746D01*
X58825559Y8325508D01*
X58824500Y8309977D01*
X58824501Y7690024D01*
X58824847Y7684949D01*
X58824847Y7684944D01*
X58826461Y7661260D01*
X58827358Y7648100D01*
X58830548Y7635305D01*
X58830549Y7635300D01*
X58846992Y7569351D01*
X58871406Y7471434D01*
X58952362Y7308348D01*
X58962508Y7295729D01*
X58964894Y7291998D01*
X59006077Y7190125D01*
X59012000Y7130907D01*
X59012000Y6599500D01*
X58991809Y6491489D01*
X58933964Y6398065D01*
X58846276Y6331846D01*
X58740588Y6301775D01*
X58713000Y6300500D01*
X50596849Y6300500D01*
X50488838Y6320691D01*
X50395414Y6378536D01*
X50385424Y6388075D01*
X49888075Y6885424D01*
X49825977Y6976077D01*
X49800819Y7083040D01*
X49800500Y7096849D01*
X49800500Y17850500D01*
X49820691Y17958511D01*
X49878536Y18051935D01*
X49966224Y18118154D01*
X50071912Y18148225D01*
X50099500Y18149500D01*
X51953151Y18149500D01*
X52061162Y18129309D01*
G37*
%TD.AperFunction*%
%TA.AperFunction,Conductor*%
G36*
X15391683Y49854940D02*
G01*
G37*
%TD.AperFunction*%
%TD*%
M02*
