M48
; DRILL file {KiCad 6.0.7+dfsg-1+b1} date Mo 19 Sep 2022 16:07:38 CEST
; FORMAT={-:-/ absolute / metric / decimal}
; #@! TF.CreationDate,2022-09-19T16:07:38+02:00
; #@! TF.GenerationSoftware,Kicad,Pcbnew,6.0.7+dfsg-1+b1
; #@! TF.FileFunction,MixedPlating,1,2
FMAT,2
METRIC
; #@! TA.AperFunction,Plated,PTH,ViaDrill
T1C0.600
; #@! TA.AperFunction,Plated,PTH,ComponentDrill
T2C0.800
; #@! TA.AperFunction,Plated,PTH,ViaDrill
T3C1.000
; #@! TA.AperFunction,Plated,PTH,ComponentDrill
T4C1.000
%
G90
G05
T1
X3.75Y38.0
X8.5Y6.399
X8.5Y1.5
X9.5Y16.5
X29.749Y16.5
X31.5Y26.0
X31.5Y18.75
X39.5Y35.75
X39.5Y12.024
X41.75Y38.0
X42.0Y43.25
X42.0Y41.0
X43.299Y9.0
X46.0Y12.199
X47.25Y43.25
X47.25Y41.0
X50.599Y12.199
X51.0Y42.0
X53.0Y35.25
X53.0Y27.0
X53.0Y9.0
X54.75Y21.5
X54.799Y33.353
X55.0Y7.5
X55.0Y2.5
X57.0Y30.5
X57.0Y25.9
X60.5Y42.0
X61.0Y14.0
X63.0Y41.5
X70.0Y31.0
X70.0Y21.72
X70.0Y14.0
X76.75Y6.0
X76.75Y1.3
X78.0Y41.5
T2
X7.5Y14.0
X7.5Y9.0
X12.385Y26.3
X12.385Y18.68
X13.5Y30.25
X14.925Y26.3
X14.925Y18.68
X17.465Y26.3
X17.465Y18.68
X18.5Y30.25
X20.005Y26.3
X20.005Y18.68
X22.545Y26.3
X22.545Y18.68
X25.085Y26.3
X25.085Y18.68
X27.625Y26.3
X27.625Y18.68
X28.0Y34.0
X28.0Y29.0
X30.5Y13.0
X30.5Y8.0
T3
X3.0Y46.25
X9.05Y35.75
X13.665Y35.728
X13.75Y46.25
X16.0Y46.25
X18.75Y39.899
X20.25Y46.25
X26.25Y5.5
X28.25Y43.5
X33.75Y40.0
X36.25Y43.5
X37.5Y46.25
X44.0Y5.5
X59.75Y46.25
X60.5Y11.0
X61.75Y48.5
X64.6Y11.0
X67.5Y48.5
X82.5Y17.0
X82.5Y2.5
T4
X13.0Y3.5
X14.75Y8.5
X15.0Y43.0
X16.25Y35.25
X17.175Y49.125
X19.715Y49.125
X22.25Y8.5
X22.255Y49.125
X23.0Y3.5
X23.75Y35.25
X24.795Y49.125
X25.0Y43.0
X27.335Y49.125
X29.875Y49.125
X32.415Y49.125
X34.955Y49.125
X37.495Y49.125
X40.035Y49.125
X42.575Y49.125
X45.115Y49.125
X47.655Y49.125
X50.195Y49.125
X50.68Y15.5
X52.735Y49.125
X53.22Y15.5
X55.275Y49.125
X55.76Y15.5
X57.815Y49.125
X58.3Y15.5
X64.735Y31.04
X64.735Y28.5
X64.735Y25.96
X64.735Y23.42
X67.275Y31.04
X67.275Y28.5
X67.275Y25.96
X67.275Y23.42
X73.0Y13.0
X73.0Y3.0
T0
M30
