G90
M72
M48
T0C0.006
T1C0.012
T3C0.020
T4C0.024
T5C0.028
T6C0.031
T7C0.035
T8C0.039
T9C0.043
T10C0.047
T14C0.063
T16C0.071
T18C0.079
T19C0.083
T20C0.087
T21C0.091
T23C0.098
T25C0.110
T27C0.126
%
G90
M72
M48
%
T5
X69724Y10689
X43740
X23268
T4
X55450Y34065
X56450
X55450Y34565
X56450
X55450Y35065
X56450
X55450Y35565
X56450
X55450Y36065
X56450
X55450Y36565
X56450
X55450Y37065
X56450
X55450Y37565
X56450
X55450Y38065
X56450
X55450Y38565
X56450
X55450Y39065
X56450
X55450Y39565
X56450
X55450Y40065
X56450
X55450Y40565
X56450
X55450Y41065
X56450
T3
X19764Y12795
Y12303
Y11811
T5
X18339Y14209
Y15209
X18858Y38248
Y37264
X19843Y38248
Y37264
T20
X39400Y46400
X23589
T7
X21792Y45160
X20808Y46440
X19205Y34587
X20205Y34087
X19205Y33587
X20205Y33087
X19205Y32587
X20205Y32087
X19205Y31587
X20205Y31087
T14
X17906Y35886
Y29783
T8
X15106Y35264
Y34264
Y31406
Y30406
T4
X77402Y31260
Y32047
Y32835
Y33622
Y34409
Y35197
Y35984
Y36772
Y37559
Y38346
Y39134
Y39921
Y40709
Y41496
Y42283
Y43071
Y43858
Y44646
Y45433
Y46220
Y47008
Y47795
X76614Y31260
Y32047
Y32835
Y33622
Y34409
Y35197
Y35984
Y36772
Y37559
Y38346
Y39134
Y39921
Y40709
Y41496
Y42283
Y43071
Y43858
Y44646
Y45433
Y46220
Y47008
Y47795
X75827Y31260
Y32047
Y32835
Y33622
Y34409
Y35197
Y35984
Y36772
Y37559
Y38346
Y39134
Y39921
Y40709
Y41496
Y42283
Y43071
Y43858
Y44646
Y45433
Y46220
Y47008
Y47795
X75039Y31260
Y32047
Y32835
Y33622
Y34409
Y35197
Y35984
Y36772
Y37559
Y38346
Y39134
Y39921
Y40709
Y41496
Y42283
Y43071
Y43858
Y44646
Y45433
Y46220
Y47008
Y47795
X74252Y31260
Y32047
Y32835
Y33622
Y34409
Y35197
Y35984
Y36772
Y37559
Y38346
Y39134
Y39921
Y40709
Y41496
Y42283
Y43071
Y43858
Y44646
Y45433
Y46220
Y47008
Y47795
X73465Y31260
Y32047
Y32835
Y33622
Y34409
Y35197
Y35984
Y36772
Y37559
Y38346
Y39134
Y39921
Y40709
Y41496
Y42283
Y43071
Y43858
Y44646
Y45433
Y46220
Y47008
Y47795
T5
X70827Y39803
Y41772
X68858Y37874
X66890
T25
X16406Y12165
T7
X50189Y13386
X49189
X48189
X47189
X46189
X45189
X44189
X43189
T8
X18138Y43661
Y42677
Y41890
Y40906
T23
X17071Y44870
Y39697
T4
X77402Y11575
Y12362
Y13150
Y13937
Y14724
Y15512
Y16299
Y17087
Y17874
Y18661
Y19449
Y22598
Y23386
Y24173
Y24961
Y25748
Y26535
Y27323
Y28110
Y28898
Y29685
Y30472
X76614Y11575
Y12362
Y13150
Y13937
Y14724
Y15512
Y16299
Y17087
Y17874
Y18661
Y19449
Y22598
Y23386
Y24173
Y24961
Y25748
Y26535
Y27323
Y28110
Y28898
Y29685
Y30472
X75827Y11575
Y12362
Y13150
Y13937
Y14724
Y15512
Y16299
Y17087
Y17874
Y18661
Y19449
Y22598
Y23386
Y24173
Y24961
Y25748
Y26535
Y27323
Y28110
Y28898
Y29685
Y30472
X75039Y11575
Y12362
Y13150
Y13937
Y14724
Y15512
Y16299
Y17087
Y17874
Y18661
Y19449
Y22598
Y23386
Y24173
Y24961
Y25748
Y26535
Y27323
Y28110
Y28898
Y29685
Y30472
X74252Y11575
Y12362
Y13150
Y13937
Y14724
Y15512
Y16299
Y17087
Y17874
Y18661
Y19449
Y22598
Y23386
Y24173
Y24961
Y25748
Y26535
Y27323
Y28110
Y28898
Y29685
Y30472
X73465Y11575
Y12362
Y13150
Y13937
Y14724
Y15512
Y16299
Y17087
Y17874
Y18661
Y19449
Y20236
Y21024
Y21811
Y22598
Y23386
Y24173
Y24961
Y25748
Y26535
Y27323
Y28110
Y28898
Y29685
Y30472
T7
X43700Y39850
Y38850
Y37850
X21378Y39488
Y40488
T5
X47350Y46445
X48350
X49350
X50350
X51350
X52350
X53350
X54350
X55350
X56350
X57350
X58350
X59350
X60350
X61350
X62350
X63350
X64350
X46850Y45945
X47850
X48850
X49850
X50850
X51850
X52850
X53850
X54850
X55850
X56850
X57850
X58850
X59850
X60850
X61850
X62850
X63850
X46350Y45445
X47350
X48350
X49350
X50350
X51350
X52350
X53350
X54350
X55350
X56350
X57350
X58350
X59350
X60350
X61350
X62350
X63350
X64350
X46850Y44945
X47850
X48850
X49850
X50850
X51850
X52850
X53850
X54850
X55850
X56850
X57850
X58850
X59850
X60850
X61850
X62850
X63850
X46350Y44445
X47350
X48350
X49350
X50350
X51350
X52350
X53350
X54350
X55350
X56350
X57350
X58350
X59350
X60350
X61350
X62350
X63350
X64350
X46850Y43945
X47850
X48850
X49850
X50850
X51850
X52850
X53850
X54850
X55850
X56850
X57850
X58850
X59850
X60850
X61850
X62850
X63850
X46350Y43445
X47350
X48350
X62350
X63350
X64350
X46850Y42945
X47850
X48850
X61850
X62850
X63850
X46350Y42445
X47350
X48350
X62350
X63350
X64350
X46850Y41945
X47850
X48850
X61850
X62850
X63850
X46350Y41445
X47350
X48350
X62350
X63350
X64350
X46850Y40945
X47850
X48850
X61850
X62850
X63850
X46350Y40445
X47350
X48350
X62350
X63350
X64350
X46850Y39945
X47850
X48850
X61850
X62850
X63850
X46350Y39445
X47350
X48350
X62350
X63350
X64350
X46850Y38945
X47850
X48850
X61850
X62850
X63850
X46350Y38445
X47350
X48350
X62350
X63350
X64350
X46850Y37945
X47850
X48850
X61850
X62850
X63850
X46350Y37445
X47350
X48350
X62350
X63350
X64350
X46850Y36945
X47850
X48850
X61850
X62850
X63850
X46350Y36445
X47350
X48350
X62350
X63350
X64350
X46850Y35945
X47850
X48850
X61850
X62850
X63850
X46350Y35445
X47350
X48350
X62350
X63350
X64350
X46850Y34945
X47850
X48850
X61850
X62850
X63850
X46350Y34445
X47350
X48350
X62350
X63350
X64350
X46850Y33945
X47850
X48850
X61850
X62850
X63850
X46350Y33445
X47350
X48350
X62350
X63350
X64350
X46850Y32945
X47850
X48850
X61850
X62850
X63850
X46350Y32445
X47350
X48350
X62350
X63350
X64350
X46850Y31945
X47850
X48850
X61850
X62850
X63850
X46350Y31445
X47350
X48350
X62350
X63350
X64350
X46850Y30945
X47850
X48850
X49850
X50850
X51850
X52850
X53850
X54850
X55850
X56850
X57850
X58850
X59850
X60850
X61850
X62850
X63850
X46350Y30445
X47350
X48350
X49350
X50350
X51350
X52350
X53350
X54350
X55350
X56350
X57350
X58350
X59350
X60350
X61350
X62350
X63350
X64350
X46850Y29945
X47850
X48850
X49850
X50850
X51850
X52850
X53850
X54850
X55850
X56850
X57850
X58850
X59850
X60850
X61850
X62850
X63850
X46350Y29445
X47350
X48350
X49350
X50350
X51350
X52350
X53350
X54350
X55350
X56350
X57350
X58350
X59350
X60350
X61350
X62350
X63350
X64350
X46850Y28945
X47850
X48850
X49850
X50850
X51850
X52850
X53850
X54850
X55850
X56850
X57850
X58850
X59850
X60850
X61850
X62850
X63850
X47350Y28445
X48350
X49350
X50350
X51350
X52350
X53350
X54350
X55350
X56350
X57350
X58350
X59350
X60350
X61350
X62350
X63350
X64350
X16063Y16693
Y17480
X16850Y16693
Y17480
X17638Y16693
Y17480
X18425Y16693
Y17480
X19213Y16693
Y17480
X15276Y16299
Y17874
T18
Y17087
T6
X17303Y27323
Y26142
X16516Y27323
Y26142
X15728Y27323
Y26142
X17303Y22598
Y21417
X16516Y22598
Y21417
X15728Y22598
Y21417
T5
X41400Y28000
X43320
X57520Y25433
X55551
T25
X16406Y47205
T7
X18543Y47795
X19543
T5
X70827Y35945
Y33976
X65827Y25433
X63858
X61654
X59685
T1
X32350Y29050
X21310Y30100
X33600Y28470
X71040Y13521
X25370Y14270
X32780Y12390
X70890Y12380
X29470Y35850
X68250Y14860
X30200Y26360
X72578Y28822
X72670Y26179
X32760Y26840
X70510Y27220
X71090Y24540
X59210Y17900
X40790Y26880
X69250Y23860
X71040Y13001
Y27944
X68250Y24400
X71190Y19880
X41260Y38480
X43040Y31960
X26010Y24270
X56200Y19600
X16460Y18170
X21880Y12430
X31620Y36410
X43050Y30460
X40100Y29080
X40960Y29030
X30430Y34940
X37250Y22470
X54100Y12890
X40690Y29170
X23960Y25880
X40580Y21610
X29050Y34400
X43880Y15630
X33500Y33870
X59750Y15360
X72578Y14491
X27350Y17520
X21180Y34830
X25640Y18160
X69250Y16860
X27450Y35060
X60210Y18900
X25180Y18410
X64210Y14360
X23120Y25070
X25300Y30470
X34210Y26400
X71040Y30621
X24670Y16120
X71190Y26227
X29310Y12430
X62750Y13900
X30290Y17350
X71090Y25100
X24690Y16610
X43650Y34150
X32020Y42130
X32790Y26390
X23150Y14130
X70250Y14400
X46820Y15720
X31230Y30460
X30070Y34950
X35910Y37960
X18780Y18480
X70250Y15860
X28750Y28340
X57171Y21280
X43030Y36650
X39180Y20920
X31960Y34870
X30270Y17800
X71040Y30101
X44010Y22030
X65710Y13400
X71190Y39101
Y18943
X68250Y13400
X71190Y27684
X17730Y25470
X64750Y14360
X26280Y33870
X27110Y12370
X36480Y35410
X29720Y18800
X70250Y14860
X61200Y16640
X71040Y23053
X26000Y26580
X39250Y19470
X66710Y13860
X71190Y22793
X33220Y48490
X36120Y46160
X67250Y24400
X60370Y10660
X29850Y30390
X69250Y15860
X31980Y38370
X63750Y13360
X30030Y39450
X28230Y17260
X32460Y12380
X36070Y15650
X38300Y19380
X29490Y39010
X34250Y37980
X29650Y34920
X54644Y23240
X22730Y35470
X50330Y12360
X39410Y36230
X56811Y21280
X68710Y15400
X65710Y13860
X72740Y12340
X29190Y18830
X28550Y37580
X59740Y40105
X24610Y26370
X34260Y28270
X66250Y14860
X59750Y19900
X35600Y44460
X39550Y35580
X34910Y33400
X32430Y42380
X72670Y20352
X27060Y37730
X40370Y40680
X68710Y14400
X57630Y34985
X27100Y33040
X57900Y17450
X35900Y34400
X31460Y32860
X36750Y19350
X26380Y37700
X67710Y23400
X28230Y20870
X71190Y21336
X52180Y36995
X59210Y16900
X34040Y12410
X29270Y18240
X71040Y33534
X18250Y25400
X43100Y12350
X26930Y23870
X43250Y15630
X38260Y20350
X23540Y31140
X35900Y33410
X71190Y18423
X29940Y35310
X32770Y18380
X70740Y27440
X32500Y46460
X24720Y35070
X36140Y25240
X34430Y32860
X32880Y37190
X29620Y46270
X36370Y46650
X71040Y32077
X59750Y21360
X65150Y11450
X32480Y34860
X49240Y22010
X39950Y36050
X46040Y21590
X42940Y15630
X36740Y27330
X24110Y28850
X30050Y39950
X45680Y36690
X60670Y36735
X28150Y45310
X72670Y18899
X69250Y17860
X66250Y13400
X72670Y13305
X27420Y31880
X30840Y17940
X34280Y26900
X59210Y19900
X70250Y17400
X66560Y42200
X39960Y30930
X37520Y12410
X69710Y14400
X36280Y29670
X30250Y41300
X36920Y34900
X25140Y42650
X30970Y34850
X20400Y45830
X70970Y34590
X71040Y45188
X31300Y18000
X28220Y17800
X48040Y20140
X71040Y17227
X46145Y20140
X28760Y18310
X58790Y36895
X43020Y32650
X31760Y24860
X69710Y13400
X30410Y26870
X37400Y36070
X41260Y31970
X24090Y19910
X43400Y12330
X37700Y19400
X35480Y40850
X28060Y33130
X28740Y17270
X41840Y12370
X71190Y44407
X33940Y28860
X36960Y32860
X24730Y28730
Y14620
X55930Y19600
X71040Y33014
X31510Y16670
X71040Y16290
X38060Y36130
X23110Y33890
X39870Y17810
X69710Y15400
X60750Y22360
X34910Y34400
X35910Y34970
X35450Y33860
X34980Y32860
X60210Y15360
X68710Y14860
X30980Y30290
X24280Y24820
X27860Y31580
X59210Y18900
X60210Y16900
X70250Y23860
X43350Y33560
X21270Y20830
X26720Y32260
X36980Y33960
X29520Y39960
X28760Y20850
X22120Y22490
X24550Y25930
X71190Y31297
X72670Y31773
Y39053
X56050Y18620
X48350Y20140
X60210Y16360
X27870Y31150
X33930Y33430
X28220Y37790
X71190Y21857
Y27163
X39790Y38300
X67710Y23860
X66250Y24400
X59210Y19360
X24810Y24820
X25630Y16250
X64951Y15940
X62750Y14360
X29710Y25850
X59420Y36765
X32770Y16480
X43250Y26910
X33410Y12420
X31740Y32310
X24580Y23110
X34230Y32050
X63750Y14360
X25610Y30530
X32440Y38940
X54981Y19600
X24400Y20240
X72670Y40513
X27460Y33100
X29940Y32860
X20860Y22520
X67250Y23400
X36950Y33410
X26660Y33490
X61210Y14900
X25000Y28990
X63210Y14900
X35120Y32050
X60750Y15360
X59750Y20360
X24700Y31140
X25700Y28670
X60210Y19900
X29220Y26820
X60750Y17360
X31440Y33400
X26710Y23110
X71190Y33274
X64750Y13360
X32090Y36220
X71040Y15770
X38210Y18820
X71040Y23573
X52840Y34745
X36470Y34410
X59750Y19360
X30620Y27860
X32930Y33390
X37480Y34860
X60210Y22360
X17770Y37446
X34460Y33860
X25470Y31910
X32530Y16290
X60210Y19360
X59210Y18360
X72670Y24726
X42310Y15600
X34510Y28450
X34400Y34840
X26720Y30690
X28740Y19330
X60750Y21360
X26710Y22480
X63590Y15410
X30670Y26430
X68710Y19400
X23140Y14620
X27430Y31510
X32880Y34420
X37920Y34450
X19990Y22220
X37480Y33920
X30300Y28780
X30470Y36400
X36410Y40910
X31120Y46730
X26180Y14350
X59750Y17360
X68250Y23400
X28730Y19830
X38160Y44900
X23540Y31530
X31970Y33860
X38200Y36840
X18940Y22500
X66710Y23860
X59210Y22360
X18090Y37760
X35410Y33400
X23120Y32720
X30270Y18240
X32190Y27820
X31090Y41650
X71190Y37124
X27120Y46230
X22010Y19160
X31220Y26420
X26720Y32690
X24710Y31540
X29540Y36430
X43310Y32780
X24580Y23450
X25250Y39380
X51730Y25660
X69710Y14860
X27420Y32260
X22740Y31530
X31400Y34420
X25890Y31940
X27450Y30740
X32050Y15820
X71040Y20140
X33720Y12680
X33610Y46710
X37470Y33400
X33510Y33430
X26170Y30670
X59210Y15360
X72670Y41967
X37450Y32850
X28820Y37790
X30510Y34430
X29230Y19870
X30450Y38380
X64210Y13360
X71190Y32754
X29470Y29280
X60750Y18360
X72670Y27639
X23760Y30640
X72670Y34687
X69367Y12310
X23150Y11930
X32290Y16040
X65740Y43650
X26700Y22800
X31610Y24600
X70250Y18860
X40370Y40270
X67250Y22860
X16920Y18260
X71200Y24820
X71190Y24250
X32860Y39390
X34980Y12340
X69250Y16400
X70250Y24400
X30830Y18920
X64210Y13900
X70970Y35130
X71040Y43731
X27320Y37500
X30970Y38380
X35710Y23420
X35250Y26970
X28750Y26360
X70250Y19400
X25110Y43450
X49295Y15652
X35230Y37650
X24810Y37760
X30570Y22970
X70250Y15400
X71040Y35430
X29250Y27350
X44350Y12330
X71430Y41260
X30800Y25830
X23290Y24050
X24700Y17120
X70250Y16860
X41360Y15600
X25580Y12140
X71040Y38841
X22810Y26600
X26670Y34300
X33790Y26330
X41680Y15610
X32910Y28820
X30600Y28550
X71040Y37384
X34410Y14230
X29960Y35850
X71180Y40850
X23260Y12770
X31760Y25160
X31500Y25010
X55970Y19160
X31920Y28520
X26720Y31910
X33500Y16840
X31210Y28690
X43690Y32180
X58570Y17450
X31960Y32960
X24270Y26390
X29690Y41080
X55220Y19160
X37030Y35530
X26500Y14140
X27090Y35470
X33240Y26270
X30070Y28410
X50490Y14470
X59360Y34475
X71190Y44928
X23970Y39550
X27430Y31090
X41200Y12370
X21860Y12830
X33350Y25860
X27870Y46690
X29770Y19860
X24940Y26390
X38740Y20350
X35470Y40400
X71190Y17487
X67250Y14860
X36230Y26350
X72578Y15121
X34230Y16970
X70940Y39270
X68250Y23860
X23350Y39630
X34160Y45380
X20840Y23090
X29390Y36690
X61820Y27870
X36960Y39380
X27740Y12400
X59210Y17360
X68500Y12310
X71190Y25706
X31130Y32420
X59750Y15900
X26910Y24620
X26290Y31520
Y31140
X34690Y32050
X58030Y23240
X71190Y43471
X23070Y39340
X69250Y17400
X72670Y30313
X28120Y46110
X38670Y12350
X69710Y17400
X68710Y23860
X70250Y21400
X71130Y34870
X35420Y35540
X72670Y44880
X32290Y26820
X31840Y18430
X35000Y33830
X38790Y39300
X29920Y37400
X69710Y15860
X26730Y23420
X68710Y16400
X24330Y32310
X62360Y13400
X72578Y29131
X72670Y36140
Y21813
X28130Y45680
X37700Y18880
X71040Y27424
Y26487
X27460Y34280
X32020Y32170
X60210Y22900
X21660Y20820
X40080Y17590
X71190Y20400
X71180Y12190
X34410Y33440
X38160Y35840
X31120Y41990
X38510Y14160
X71410Y35440
X26040Y23930
X72578Y28501
X58250Y17450
X70250Y18400
X59750Y18900
X72670Y15986
X30920Y32200
X34250Y27360
X66060Y12310
X67710Y24400
X30950Y36840
X31460Y38950
X72578Y14800
X37350Y38960
X31260Y26870
X28250Y27840
X39980Y34650
X68250Y22860
X71190Y15510
X35940Y32860
X70250Y20400
X34420Y34420
X29540Y40460
X67710Y13860
X71200Y34280
X35910Y35890
X72670Y33226
X32020Y41650
X72578Y14170
X69710Y17860
X71040Y19203
X23500Y26170
X43560Y15630
X32900Y33900
X68710Y17400
X71170Y42440
X71190Y36440
X35870Y46420
X36430Y33870
X68230Y16930
X71040Y44668
X71190Y38580
X38540Y15590
X23270Y18300
X33100Y12420
X70250Y16400
X29230Y21340
X33540Y34420
X36440Y32860
X19310Y45880
X29730Y17260
X29770Y20860
X71190Y16966
X27420Y12360
X72670Y17439
X43340Y33860
X59210Y15900
X71190Y42120
X27090Y33890
X25120Y35470
X38720Y19930
X71040Y41120
X72670Y37600
X37960Y39120
X18680Y23480
X58810Y34425
X30550Y39460
X32780Y29610
X27710Y20320
X35220Y15640
X46460Y20140
X32760Y16820
X28930Y46670
X29450Y40890
X34870Y45620
X33870Y34890
X35880Y36970
X35460Y39970
X71040Y18683
X34760Y28280
X35310Y27840
X60210Y18360
X27770Y17800
X41990Y15610
X71040Y21597
X20270Y19150
X37670Y20920
X25840Y37730
X69250Y13400
X31030Y28450
X71040Y25967
X67250Y13400
X71190Y16030
X20260Y28410
X71150Y41410
X23140Y13120
X36620Y46290
X35730Y24360
X28180Y34770
X37670Y19940
X25320Y37760
X70250Y23400
X29720Y17800
X33800Y27300
X60210Y14900
X25960Y12880
X39440Y38160
X33810Y17890
X63210Y13900
X29270Y17240
X33960Y34420
X40040Y31220
X24440Y25300
X24710Y15120
X34720Y14200
X59210Y14900
Y16360
X23600Y39340
X22730Y39620
X52860Y35465
X39960Y30440
X66710Y23400
X63210Y14360
X34380Y45610
X31750Y27260
X35300Y27370
X72670Y23266
X24410Y29030
X34750Y26450
X37910Y34010
X28680Y12380
X24490Y24410
X70900Y12070
X39800Y37870
X55251Y19600
X24710Y17620
X26290Y31920
X55300Y18620
X25550Y37420
X58640Y12690
X32460Y38150
X66710Y13400
X38550Y44570
X32870Y32930
X32770Y17950
X28710Y39520
X22770Y22490
X30530Y30310
X71190Y29840
X35370Y45950
X48740Y15720
X35530Y15660
X30550Y39950
X44910Y18710
X32450Y33900
X32670Y37880
X61260Y17910
X27700Y19800
X30270Y18800
X33970Y32800
X24760Y12100
X27450Y33890
X42660Y38520
X28290Y28590
X24590Y23780
X70250Y20860
X70830Y45600
X71190Y13261
X59750Y22360
X32770Y27330
X59750Y14360
X32310Y22390
X24720Y13120
X39240Y20350
X25090Y37190
X22230Y44250
X35450Y34400
X70885Y11296
X36980Y34410
X29510Y37420
X31300Y21840
X72670Y43427
X26740Y37430
X35910Y35480
X59210Y21900
X68710Y21400
X24780Y24220
X21810Y25920
X41510Y12370
X71040Y22117
X21190Y34310
X26720Y35060
X37120Y46380
X27640Y37210
X35950Y33840
X35970Y40430
X24680Y15620
X59210Y20360
X71040Y37904
X38170Y20920
X27100Y33470
X71190Y13782
X67710Y14400
X70250Y17860
X71100Y46810
X36460Y33410
X22190Y25920
X68710Y23400
X25030Y23440
X28210Y19820
X43590Y20140
X60210Y21900
X26150Y37420
X32780Y28390
X69250Y14400
X71190Y42950
X39380Y37710
X60750Y20360
X60210Y17360
X24460Y19610
X43730Y12330
X58580Y33255
X25870Y31520
X37430Y34400
X59210Y21360
X26620Y46660
X35060Y39910
X18320Y27710
X34350Y12410
X39650Y18020
X61130Y18360
X71260Y36790
X59750Y21900
X41050Y13160
X33670Y29190
X70250Y22860
X68250Y14400
X26670Y33880
X35800Y15800
X60750Y19360
X71040Y20660
X67250Y13860
X25220Y28570
X29750Y28350
X30610Y32190
X71040Y40580
X59210Y22900
X27610Y46230
X34860Y37910
X71150Y40300
X24470Y25640
X70250Y19860
X25550Y29120
X30470Y36840
X28990Y34710
X26310Y35100
X30120Y46270
X71040Y17747
X59210Y23360
X46860Y12690
X58760Y15900
X56451Y21280
X63750Y13900
X71190Y23313
X37930Y37180
X36980Y40480
X71190Y30361
X36470Y36400
X23110Y31140
X28050Y32290
X71040Y31557
X71190Y37644
X31050Y39460
X64210Y14900
X71040Y43211
X24710Y14120
X48690Y13870
X32450Y32920
X25990Y26940
X52620Y11460
X23560Y33880
X59750Y13900
X42990Y29180
X42960Y34940
X33940Y36700
X67040Y42820
X72440Y47640
X52840Y41885
X68710Y20860
X59360Y20800
X19030Y23120
X38750Y44240
X53780Y32585
X24350Y32650
X69910Y45920
X25140Y33450
X24680Y30480
X25140Y32360
X23565Y34657
X37990Y41340
X63750Y22900
X40660Y28160
X32860Y46590
X54700Y41525
X67200Y29910
X38170Y21930
X34180Y21420
X20510Y17360
X39240Y22600
X21780Y27860
X36480Y34850
X27780Y18870
X62960Y26340
X32260Y20400
X61750Y22900
X68987Y36206
X49070Y47170
X24630Y27900
X23860Y22430
X62400Y25600
X52150Y26050
X21680Y14660
X60250Y38105
X58800Y42245
X47715Y15637
X19500Y42220
X26580Y41190
X34330Y19430
X35770Y21410
X43800Y32700
X34130Y30350
X60190Y36645
X67260Y24730
X47047Y23496
X34130Y24670
X38760Y18930
X24540Y36380
X37980Y37720
X26720Y31110
X71188Y46337
X68849Y25640
X67710Y24750
X30930Y37470
X60750Y15900
X59280Y39545
X67710Y14860
X72578Y29452
X37990Y40060
X23970Y29820
X30920Y36400
X68000Y48500
X69100Y40050
X64500Y26200
X34220Y22880
X43190Y47800
X28830Y44650
X59750Y27690
X41260Y31370
X41916Y23390
X24950Y22840
X59790Y34725
X26990Y26710
X59480Y35655
X71890Y28890
X67220Y28770
X25980Y26230
X56180Y32315
X23810Y24740
X27330Y36570
X27360Y40100
X33470Y39430
X47010Y28060
X44666Y23536
X69250Y20860
X24380Y33070
X51880Y34785
X19910Y27800
X49980Y39995
X67810Y25650
X60750Y19900
X64750Y23360
X38040Y12350
X19260Y38960
X22800Y20950
X47003Y21080
X49250Y27690
X23270Y20960
X42806Y21080
X50180Y14460
X39380Y31100
X32150Y12350
X32060Y37200
X24850Y36260
X39930Y35460
X57680Y33005
X66560Y48490
X56584Y12655
X20180Y40450
X57300Y41875
X29020Y43010
X42341Y23536
X56597Y13802
X32510Y40890
X68710Y18860
X69587Y11617
X62400Y25200
X43540Y34860
X20610Y41420
X38910Y29200
X65760Y39430
X24380Y33440
X49050Y19050
X63700Y24800
X45020Y12380
X69390Y26980
X50440Y17400
X61351Y20768
X40100Y14460
X60210Y21360
X27140Y32680
X20800Y24280
X52160Y36435
X25500Y35480
X58316Y22228
X60750Y16900
X30869Y48442
X54010Y21280
X33440Y36020
X28980Y35050
X19700Y13980
X17380Y25070
X59430Y41305
X25080Y41170
X39970Y32520
X69760Y43230
X28920Y36280
X20930Y18340
X24720Y32630
X25560Y35040
X54370Y21280
X27780Y35790
X38770Y30390
X59470Y33005
X17810Y19180
X50880Y34335
X31260Y18870
X60750Y20900
X50910Y33225
X69500Y48880
X63750Y23900
X42233Y21080
X29300Y39290
X24353Y33870
X60500Y24800
X68500Y34710
X61750Y23360
X42410Y31120
X46870Y12350
X34160Y22440
X59470Y32585
X28120Y32710
X49480Y24480
X27070Y20120
X44666Y22291
X53490Y36505
X26290Y32270
X69710Y16860
X28720Y27320
X34660Y22440
X63310Y16540
X32680Y23420
X19350Y46470
X20300Y22220
X20870Y25850
X62400Y24800
X61231Y34200
X52530Y17718
X23510Y26800
X39970Y33230
X72670Y11852
X56000Y47210
X29940Y12330
X33680Y21420
X29100Y16710
X67600Y28770
X52040Y12130
X24330Y35070
X62800Y24800
X45947Y23496
X20150Y14670
X29550Y32100
X55420Y32585
X42210Y16250
X59460Y37765
X24970Y27900
X41220Y33180
X60280Y12160
X49920Y34785
X50490Y33225
X27670Y16790
X63220Y47800
X23910Y33910
X23050Y23560
X45947Y22252
X49980Y39095
X69587Y11296
X66720Y25730
X44192Y22291
X38680Y31120
X43770Y35090
X58760Y41505
X60990Y31540
X27640Y14410
X34720Y21880
X60220Y34705
X58316Y22560
X66440Y36810
X38750Y41870
X23180Y35780
X67000Y48500
X21020Y28960
X24450Y29800
X34450Y36700
X33450Y36720
X30250Y21350
X69250Y13860
X33260Y30350
X41080Y40720
X50910Y35575
X63200Y25600
X60570Y32965
X51090Y40905
X67190Y30300
X41930Y47800
X29730Y18380
X45590Y40500
X45473Y22252
X31330Y37440
X19900Y23350
X62140Y21090
X54930Y22560
X65710Y14400
X41220Y35310
X33630Y37940
X32360Y46730
X43790Y34420
X25510Y35820
X60750Y14900
X18520Y44730
X53650Y21890
X22360Y27880
X35550Y14080
X49389Y23536
X36670Y19930
X68730Y45570
X66130Y47180
X71900Y14110
X30250Y20360
X46390Y12450
X66710Y14860
X20130Y13320
X30260Y21840
X37440Y11900
X25150Y34620
X59750Y16900
X69550Y47170
X45140Y11210
X44318Y26880
X70490Y48500
X65707Y32700
X43770Y31420
X48000Y23650
X65700Y32300
X52550Y18300
X53900Y42265
X33720Y12340
X34220Y21880
X29369Y48442
X68650Y29900
X22130Y21840
X41720Y26880
X69710Y18400
X25870Y34290
X18610Y26250
X45930Y12330
X29060Y45320
X30640Y25440
X70420Y47180
X50910Y36525
X56251Y22228
X19010Y25500
X65910Y37690
X38170Y25430
X38720Y41380
X29290Y46570
X66560Y48890
X30930Y25350
X66230Y16940
X58550Y19100
X61000Y25600
X66207Y30300
X59750Y17900
X68157Y32700
X69060Y42170
X42816Y23536
X29400Y44790
X34930Y40430
X68987Y36806
X68000Y46430
X53150Y21890
X28960Y48470
X26640Y34680
X66230Y17440
X25900Y33510
X68710Y17860
X33850Y16360
X67610Y29550
X66720Y27020
X27880Y27840
X55304Y13802
X33920Y36040
X42513Y21080
X32270Y19830
X42400Y31660
X24350Y34640
X66910Y36490
X38750Y31690
X33930Y33860
X67000Y47180
X36210Y17890
X43760Y30570
X66277Y12070
X56290Y42335
X30890Y12340
X43590Y31690
X24680Y13620
X22800Y22120
X36270Y24110
X36330Y24930
X18540Y18760
X26290Y34300
X68987Y37406
X36230Y18310
X17880Y28200
X20320Y21830
X68710Y19860
X22600Y29650
X35520Y24590
X60750Y16360
X60210Y15900
X51240Y21280
X57360Y12630
X68520Y37410
X44200Y14460
X67500Y48500
X71270Y47640
X36930Y39930
X37940Y38460
X26840Y43040
X69710Y13860
X67350Y36490
X57036Y21890
X52530Y16970
X33720Y22880
X20130Y20940
X33680Y23780
X31320Y27280
X28990Y34100
X28760Y22840
X25850Y29790
X67257Y32700
X24720Y33450
X28730Y45320
X27250Y44340
X57580Y18750
X62750Y22900
X48003Y21080
X43810Y33420
X66710Y29910
X35330Y25390
X50010Y12340
X21870Y17120
X45600Y43870
X32630Y48480
X52200Y18650
X32470Y33400
X23565Y35025
X52530Y16222
X30100Y14430
X36320Y24390
X61000Y24800
X45590Y29500
X36970Y44160
X70600Y32300
X60500Y25600
X28010Y38910
X31920Y33400
X40890Y12340
X19060Y23500
X35830Y19430
X26730Y31470
X39940Y12340
X34800Y43080
X28750Y27850
X69250Y19400
X56304Y12655
X69710Y21400
X23320Y21840
X53690Y41885
X27040Y25550
X29740Y26860
X60720Y39545
X38990Y36080
X26360Y29780
X71348Y29063
X23910Y34280
X66440Y36490
X68987Y36506
X69710Y24400
X63410Y11410
X69700Y29900
X32210Y25300
X60750Y17900
X29970Y40440
X31190Y29690
X35620Y26880
X51620Y21280
X24790Y22480
X31480Y34850
X66440Y36190
X62210Y13900
X21190Y43590
X62750Y14900
X52520Y32625
X25880Y32720
X25370Y46750
X21870Y16620
X24720Y34237
X31590Y31380
X41210Y26880
X29010Y35370
X31480Y25330
X30890Y34430
X18640Y46480
X19730Y20940
X28700Y38920
X21870Y17620
X40010Y33830
X58700Y17950
X68240Y20390
X31620Y46760
X69030Y47180
X42520Y19750
X32750Y17350
X23900Y34680
X41050Y14450
X33660Y22440
X26100Y37090
X37170Y17430
X38210Y14450
X38410Y41860
X25030Y23140
X60210Y20900
X38170Y23480
X41220Y34670
X68710Y24400
X29210Y20320
X18250Y19200
X20917Y47673
X66900Y36810
X52865Y22560
X33830Y18930
X50490Y36525
X27570Y27840
X26830Y42280
X41220Y32400
X64100Y24800
X68500Y48880
X46430Y22227
X68294Y16162
X16980Y17880
X27480Y32680
X32720Y22880
X52400Y22550
X33710Y31390
X58550Y18750
X51050Y41645
X43556Y26880
X65250Y11880
X69700Y28650
X47710Y21080
X67757Y31450
X30480Y45380
X33790Y26850
X44192Y23536
X34180Y23420
X70180Y25690
X27430Y38920
X26470Y11890
X68500Y42130
X51880Y38035
X36450Y37970
X60210Y13360
X52865Y22228
X23540Y32310
X66707Y32700
X63629Y26340
X52865Y22890
X23330Y36370
X33220Y22880
X28370Y12370
X24353Y34237
X65710Y14860
X60500Y25200
X22020Y28900
X52110Y12770
X58300Y17950
X59210Y13360
X19290Y19290
X68370Y25650
X58700Y18400
X61351Y20334
X25140Y33870
X23120Y34690
X68294Y15728
X51750Y33515
X24800Y12618
X61452Y12160
X66250Y14400
X16770Y20250
X36590Y31910
X69710Y23860
X53600Y19100
X19980Y22920
X63750Y14900
X25990Y25340
X47723Y22227
X30670Y23430
X53918Y12630
X33900Y15790
X30369Y48442
X20910Y12450
X24710Y34630
X18520Y45100
X36270Y18930
X32510Y36210
X60750Y23360
X69200Y31050
X34830Y19430
X57536Y23210
X70000Y47180
X31950Y38960
X28040Y40130
X56536Y21890
X64500Y25000
X30510Y16660
X28960Y36580
X70613Y31850
X36010Y31540
X51750Y32075
X21890Y13450
X24180Y26810
X32240Y21090
X31730Y17850
X34450Y37190
X49863Y22291
X46340Y24940
X39170Y16930
X56251Y22560
X59210Y13900
X22780Y34630
X23770Y20610
X30090Y34430
X21870Y15120
X25870Y34670
X21640Y11570
X33880Y14380
X67250Y23860
X68290Y12070
X28750Y21340
X23565Y34237
X53050Y38195
X67250Y31050
X24720Y32295
X38190Y29200
X29869Y48442
X31990Y48470
X66250Y13860
X52500Y47210
X21240Y42180
X70490Y48880
X34720Y22880
X23900Y31930
X66207Y29900
X29770Y27320
X41806Y21080
X67500Y48880
X59750Y14900
X41526Y22227
X34619Y48442
X30620Y46760
X66277Y11770
X42460Y12350
X68520Y37100
X54600Y33535
X25050Y20910
X58500Y34445
X26120Y36510
X66207Y32700
X21870Y15620
X67410Y37370
X24820Y25310
X44040Y12330
X25460Y30790
X69250Y15400
X67230Y39810
X18510Y45480
X70000Y48500
X36780Y45670
X40210Y22437
X60750Y21900
X33180Y23420
X66130Y46430
X59710Y43600
X30480Y44983
X52550Y18650
X35295Y12340
X67763Y31850
X69587Y12005
X34410Y36040
X55420Y33005
X69250Y18400
X25140Y33083
X69250Y18860
X19020Y24130
X25230Y16440
X25500Y33900
X45590Y33050
X25550Y15890
X67810Y26930
X57900Y17950
X68290Y11473
X60370Y31500
X52910Y34045
X59750Y23900
X59000Y35965
X34680Y23420
X65710Y22860
X67000Y46430
X38240Y17360
X69700Y30300
X67620
X56877Y13802
X28750Y17850
X27270Y44650
X56536Y23210
X68650Y30300
X48600Y14460
X41960Y39510
X28530Y14430
X69200Y32300
X70607Y32700
X55730Y18620
X51850Y18650
X30470Y37400
X43800Y35920
X53600Y18650
X51420Y39095
X57834Y12630
X30210Y19310
X30500Y43280
X32660Y22440
X39740Y29180
X61000Y25200
X32760Y30330
X25040Y23990
X23630Y25890
X67757Y32700
X23910Y33110
X51500Y18650
X34720Y26020
X66707Y30300
X69343Y25640
X58150Y34445
X42526Y22227
X32680Y21420
X24130Y20930
X56920Y32315
X57700Y33895
X22760Y33110
X21040Y28180
X28710Y43020
X53918Y11386
X25910Y32270
X58380Y38470
X71860Y14650
X71360Y14070
X51420Y39995
X23900Y35070
X26300Y32710
X68520Y36500
X30750Y17350
X44993Y17400
X67520Y41890
X43903Y16250
X67260Y25670
X56290Y41955
X47500Y13989
X38640Y32350
X57580Y19100
X19500Y41560
X67610Y29910
X66200Y32300
X36750Y42210
X33720Y21880
X21483Y47727
X25920Y35050
X48600Y19050
X38670Y17430
X26290Y34680
X20910Y17560
X18600Y26570
X62788Y16100
X34190Y18280
X35440Y21370
X59210Y23900
X23560Y32650
X70600Y31050
X50870Y21280
X68987Y37106
X33160Y22440
X19040Y24450
X23040Y23110
X67260Y26940
X53150Y23210
X64586Y22310
X46723Y22227
X46430Y21080
X34920Y29780
X33310Y46700
X45590Y37000
X17290Y37060
X60540Y33595
X23910Y33450
X72670Y46340
X37630Y48480
X70520Y26920
X34890Y17380
X59780Y35815
X41260Y31670
X30960Y35850
X33420Y37190
X67750Y31050
X58270Y31285
X51850Y18300
X37670Y27270
X70250Y13400
X67750Y32300
X28230Y26340
X33180Y21420
X30030Y31630
X25140Y34237
X54500Y26050
X60210Y14360
X69250Y22860
X35920Y32320
X69250Y14860
X21880Y18120
X48450Y12330
X57290Y42325
X42950Y35630
X64750Y14900
X21540Y22110
X70000Y48880
X54150Y23210
X38470Y30390
X21170Y35180
X20360Y38870
X59750Y20900
X65020Y22310
X24860Y26810
X53444Y11386
X60160Y41325
X28190Y35370
X45770Y47170
X59750Y23360
X25490Y31140
X27610Y26810
X50650Y12340
X39320Y28110
X49389Y22291
X37510Y40480
X18770Y19150
X64400Y47800
X41470Y23390
X52750Y27690
X68520Y36800
X61875Y11410
X37670Y21930
X64905Y12300
X59210Y14360
X34680Y21420
X31369Y48442
X59750Y13360
X51500Y18300
X57834Y11386
X59750Y18360
X66120Y48500
X23850Y21870
X52910Y42305
X67500Y47180
X63370Y12300
X61750Y14900
X38660Y20920
X53650Y23210
X36330Y21430
X50490Y35575
X30710Y19310
X28190Y35070
X64750Y22900
X43890Y28350
X67250Y32300
X70607Y31450
X29340Y42310
X36250Y25970
X57036Y23210
X66910Y36180
X71890Y28433
X69000Y48500
X41806Y22227
X61500Y24800
X20200Y46190
X20390Y27900
X60210Y13900
X38430Y44220
X43550Y29180
X60210Y17900
X55877Y12655
X16890Y23810
X62800Y25200
X39090Y39330
X65700Y31050
X45855Y24942
X26980Y27840
X19020Y20920
X40810Y41870
X66710Y22860
X22240Y30440
X52700Y19100
X26030Y24720
X57680Y32585
X61210Y13360
X23960Y36380
X72930Y31320
X66200Y31050
X23910Y32650
X23565Y33450
X24700Y35450
X22610Y28940
X69500Y48500
X28530Y48490
X31450Y38380
X64500Y25400
X56251Y22890
X41220Y33850
X71890Y29520
X42970Y34280
X39090Y36580
X59440Y41855
X54150Y21890
X33950Y37190
X21190Y36410
X67710Y22860
X60210Y20360
X66230Y15940
X64500Y25800
X39200Y34150
X63210Y22900
X47040Y14460
X37880Y31280
X28220Y31990
X38050Y45290
X66700Y31050
X68510Y36206
X68650Y28650
X23910Y31150
X28750Y28850
X63200Y25200
X25010Y22250
X59750Y38105
X46573Y23496
X69250Y24400
X36330Y19430
X54930Y22228
X36330Y20930
X69250Y22400
X68000Y48880
X25560Y34250
X34040Y19860
X67360Y36180
X32970Y40950
X56877Y12655
X42806Y22227
X69207Y32700
X41233Y21080
X38550Y33670
X19370Y21560
X57360Y11386
X66120Y48880
X68240Y20712
X67340Y36810
X66570Y47180
X62210Y22900
X68150Y31050
X59750Y24360
X66570Y46430
X21880Y16120
X30670Y24430
X67610Y29170
X46350Y19050
X56304Y13802
X25890Y33080
X34100Y48480
X35050Y38960
X68500Y46430
X42233Y22227
X52400Y22200
X37670Y18430
X21900Y30090
X50810Y14390
X67530Y17750
X68500Y48500
X19020Y24840
X22250Y24270
X54930Y22890
X41513Y21080
X60790Y37325
X23370Y13620
X67000Y48880
X31050Y14460
X69920Y44330
X52060Y42305
X61950Y24800
X24720Y33870
X26250Y18620
X68540Y42720
X29230Y22330
X66710Y28760
X24720Y33083
X59500Y47210
X56250Y27690
X23030Y21800
X30340Y46570
X49920Y38035
X45473Y23496
X57536Y21890
X70250Y21860
X59410Y42355
X23740Y20950
X27030Y25220
X52400Y22900
X65000Y25400
X35480Y35870
X30670Y24930
X49863Y23536
X33220Y21880
X61310Y33650
X53490Y37500
X32820Y36220
X17840Y27780
X27180Y29790
X55584Y12655
X28610Y16690
X29210Y27790
X25810Y42270
X35830Y25390
X29920Y36400
X55304Y12655
X29980Y36840
X34820Y25390
X31730Y19830
X55877Y13802
X66700Y32300
X30470Y35850
X55597Y13802
X28240Y26850
X31850Y35960
X34780Y24300
X34340Y19900
X31210Y19380
X69710Y16400
X68370Y26950
X32310Y14460
X36670Y23430
X28250Y19340
X35330Y19430
X29270Y17840
X32660Y25320
X34330Y25370
X21300Y16790
X36880Y30270
X48003Y22227
X48150Y19050
X47250
X46800
X47710Y20140
X26080Y41180
X68290Y11770
X47430Y21080
X47933Y13989
X56450Y26050
X56000
X22650Y19150
X49450Y19050
X47550Y23650
X20140Y46510
X66210Y28750
X53444Y12630
X30670Y23930
X47430Y22227
X47700Y19050
X26890Y40630
X68849Y26958
X54730Y21280
X31770Y19370
X32320Y25920
X38270Y38440
X31910Y39490
X32930Y34860
X63200Y24800
X40210Y23390
X68500Y47180
X68000
X52520Y33365
X35960Y38960
X68710Y15860
X35450Y34850
X21190Y33640
X60750Y18900
X30730Y19840
X46710Y21080
X50090Y24340
X53780Y33005
X38120Y19930
X62800Y25600
X47003Y22227
X34990Y20300
X42630Y14460
X38310Y41340
X19780Y15620
X23565Y33083
X22720Y36310
X22770Y33490
X39810Y31760
X25800Y43110
X68150Y32300
X39070Y30410
X45140Y14450
X38310Y40060
X51410Y15100
X60750Y14360
X66590Y26580
X67250Y14400
X58316Y22890
X27860Y48480
X25560Y34640
X52200Y18300
X18960Y22190
X27060Y34670
X68710Y16860
Y21860
X59750Y22900
X69000Y48880
X20930Y26760
X41233Y22227
X66277Y11473
X56900Y26050
X42470Y28690
X21870Y13810
X64750Y24360
X65710Y24400
X67500Y46430
X46090Y14450
X40656Y22437
X70250Y13860
X40656Y23390
X32720Y21880
X58772Y16616
M30
