M48
;DRILL file {KiCad 4.0.4+e1-6308~48~ubuntu14.04.1-stable} date Thu Nov 10 21:17:09 2016
;FORMAT={-:-/ absolute / metric / decimal}
FMAT,2
METRIC,TZ
T1C0.800
T2C2.001
%
G90
G05
M71
T1
X86.36Y-72.39
X86.36Y-80.55
X86.36Y-82.55
X86.36Y-84.55
X88.86Y-72.39
X113.07Y-72.39
X114.3Y-80.55
X114.3Y-82.55
X114.3Y-84.55
X115.57Y-72.39
T2
X82.55Y-64.77
X82.55Y-74.93
X92.71Y-64.77
X92.71Y-74.93
X95.25Y-83.82
X97.79Y-83.82
X102.87Y-83.82
X105.41Y-83.82
X109.22Y-64.77
X109.22Y-74.93
X119.38Y-64.77
X119.38Y-74.93
T1
X96.901Y-65.701G85X96.901Y-67.7
G05
T2
X102.599Y-63.701G85X100.601Y-63.701
G05
X102.599Y-69.7G85X100.601Y-69.7
G05
T0
M30
