G04 #@! TF.GenerationSoftware,KiCad,Pcbnew,5.0.2+dfsg1-1+build2*
G04 #@! TF.CreationDate,2019-11-06T00:19:19-05:00*
G04 #@! TF.ProjectId,overlapping_edge_cuts,6f766572-6c61-4707-9069-6e675f656467,rev?*
G04 #@! TF.SameCoordinates,Original*
G04 #@! TF.FileFunction,Profile,NP*
%FSLAX46Y46*%
G04 Gerber Fmt 4.6, Leading zero omitted, Abs format (unit mm)*
G04 Created by KiCad (PCBNEW 5.0.2+dfsg1-1+build2) date Wed 06 Nov 2019 12:19:19 AM EST*
%MOMM*%
%LPD*%
G01*
G04 APERTURE LIST*
%ADD10C,1.100000*%
%ADD11C,0.150000*%
%ADD12C,1.500000*%
G04 APERTURE END LIST*
D10*
X161725797Y-87630000D02*
G75*
G02X173989999Y-82550001I7184203J0D01*
G01*
D11*
X138430000Y-101600000D02*
X138430000Y-97790000D01*
X152400000Y-101600000D02*
X138430000Y-101600000D01*
X152400000Y-107950000D02*
X152400000Y-101600000D01*
X143510000Y-107950000D02*
X152400000Y-107950000D01*
X143510000Y-97790000D02*
X143510000Y-107950000D01*
X138430000Y-97790000D02*
X143510000Y-97790000D01*
D12*
X158750000Y-85090000D02*
X142240000Y-85090000D01*
X158750000Y-95250000D02*
X158750000Y-85090000D01*
X147320000Y-95250000D02*
X158750000Y-95250000D01*
X147320000Y-80010000D02*
X147320000Y-95250000D01*
D11*
X149860000Y-68580000D02*
X149860000Y-66040000D01*
X140970000Y-68580000D02*
X149860000Y-68580000D01*
X140970000Y-80010000D02*
X140970000Y-68580000D01*
X138430000Y-80010000D02*
X140970000Y-80010000D01*
X138430000Y-66040000D02*
X138430000Y-80010000D01*
X149860000Y-66040000D02*
X138430000Y-66040000D01*
X160020000Y-76200000D02*
X160020000Y-68580000D01*
X152400000Y-76200000D02*
X160020000Y-76200000D01*
X152400000Y-68580000D02*
X152400000Y-76200000D01*
X160020000Y-68580000D02*
X152400000Y-68580000D01*
X165100000Y-63500000D02*
X127000000Y-63500000D01*
X165100000Y-114300000D02*
X165100000Y-63500000D01*
X127000000Y-114300000D02*
X165100000Y-114300000D01*
X127000000Y-63500000D02*
X127000000Y-114300000D01*
M02*
