M48
;DRILL file {KiCad 4.0.6-e0-6349~53~ubuntu14.04.1} date Wed May 24 15:43:58 2017
;FORMAT={-:-/ absolute / metric / decimal}
FMAT,2
METRIC,TZ
T1C0.800
T2C1.000
T3C1.001
%
G90
G05
M71
T1
X86.36Y-74.93
X86.36Y-80.01
X86.36Y-82.55
X86.36Y-85.09
X88.86Y-74.93
X109.26Y-74.93
X111.76Y-74.93
X111.76Y-80.01
X111.76Y-82.55
X111.76Y-85.09
T2
X99.06Y-66.04
X99.06Y-68.58
T3
X82.55Y-64.77
X82.55Y-74.93
X92.71Y-64.77
X92.71Y-74.93
X93.98Y-83.82
X96.52Y-83.82
X101.6Y-83.82
X104.14Y-83.82
X105.41Y-64.77
X105.41Y-74.93
X115.57Y-64.77
X115.57Y-74.93
T0
M30
