M48
;DRILL file {KiCad 4.0.7+dfsg1-1} date Sat May 26 19:26:16 2018
;FORMAT={-:-/ absolute / inch / decimal}
FMAT,2
INCH,TZ
T1C0.016
T2C0.039
T3C0.118
T4C0.157
%
G90
G05
M72
T1
X3.4Y-2.95
X3.4Y-3.2
X3.4Y-3.3
X3.4Y-3.4
X3.4984Y-2.95
X4.4516Y-2.95
X4.55Y-2.95
X4.55Y-3.2
X4.55Y-3.3
X4.55Y-3.4
T2
X3.25Y-2.55
X3.25Y-2.95
X3.65Y-2.55
X3.65Y-2.95
X3.75Y-3.3
X3.85Y-3.3
X4.05Y-3.3
X4.15Y-3.3
X4.3Y-2.55
X4.3Y-2.95
X4.7Y-2.55
X4.7Y-2.95
T2
X3.815Y-2.5867G85X3.815Y-2.6654
G05
X4.0393Y-2.5079G85X3.9606Y-2.5079
G05
T3
X4.0393Y-2.7441G85X3.9606Y-2.7441
G05
T0
M30
