%FSLAX25Y25*%
%MOIN*%
G70*
G01*
G75*
G04 Layer_Physical_Order=1*
G04 Layer_Color=255*
%ADD10C,0.03937*%
%ADD11C,0.01000*%
%ADD12C,0.01969*%
%ADD13C,0.00787*%
%ADD14C,0.04724*%
%ADD15R,0.04724X0.04724*%
%ADD16R,0.06000X0.06000*%
%ADD17C,0.06000*%
%ADD18R,0.05906X0.05906*%
%ADD19C,0.05906*%
%ADD20R,0.05906X0.05906*%
%ADD21C,0.07087*%
%ADD22C,0.03543*%
%ADD23C,0.19685*%
D10*
X110000Y140000D02*
X120000Y150000D01*
X90000Y140000D02*
X110000D01*
X215000Y127500D02*
X220000Y122500D01*
Y120000D02*
Y122500D01*
X191563Y113563D02*
X205500Y127500D01*
X215000D01*
X190000Y113563D02*
X191563D01*
D11*
X50000Y142500D02*
X57500D01*
X70000Y115000D02*
X114000D01*
X45000Y140000D02*
X70000Y115000D01*
X45000Y140000D02*
Y150000D01*
X57500Y142500D02*
X75000Y125000D01*
X105000D01*
X110000Y120000D01*
X105000Y135000D02*
X110000Y130000D01*
X70000Y135000D02*
X105000D01*
X55000Y150000D02*
X70000Y135000D01*
X225000Y5000D02*
X230000Y10000D01*
X47500Y5000D02*
X225000D01*
X45000Y7500D02*
X47500Y5000D01*
X45000Y7500D02*
Y15000D01*
X40000Y20000D02*
X45000Y15000D01*
X55000D02*
X236811D01*
X45000Y25000D02*
X55000Y15000D01*
X25000Y25000D02*
X45000D01*
X20000Y30000D02*
X25000Y25000D01*
X12500Y30000D02*
X20000D01*
X25000Y70000D02*
X30000D01*
X15000Y60000D02*
X25000Y70000D01*
X15000Y70000D02*
X25000Y80000D01*
X30000D01*
X10000Y60000D02*
X15000Y65000D01*
Y70000D01*
X10000Y80000D02*
X30000Y100000D01*
X10000Y70000D02*
X30000Y90000D01*
X15000Y55000D02*
Y60000D01*
X10000Y50000D02*
X15000Y55000D01*
X102500Y85000D02*
X172500D01*
X67500Y75000D02*
X85000Y92500D01*
Y102500D01*
X87500Y105000D01*
X92500D01*
X102500Y95000D01*
X172500D01*
X25000Y75000D02*
X67500D01*
X70000Y70000D02*
X85000Y85000D01*
X30000Y70000D02*
X70000D01*
X122500Y65000D02*
X195000D01*
X112500Y55000D02*
X122500Y65000D01*
X105000Y55000D02*
X112500D01*
X122500Y75000D02*
X177500D01*
X112500Y65000D02*
X122500Y75000D01*
X107500Y65000D02*
X112500D01*
X120000Y55000D02*
X172500D01*
X177500Y60000D01*
X192500D01*
X177500Y75000D02*
X185000Y67500D01*
X177500Y47500D02*
Y52500D01*
X185000Y67500D02*
X200000D01*
X202500Y65000D01*
X175000Y45000D02*
X177500Y47500D01*
X195000Y65000D02*
X197500Y62500D01*
X202500Y72500D02*
X207500Y67500D01*
X187500Y72500D02*
X202500D01*
X172500Y85000D02*
X175000Y82500D01*
X187500D01*
X172500Y95000D02*
X177500Y90000D01*
Y87500D02*
Y90000D01*
X105000Y45000D02*
X175000D01*
X90000Y30000D02*
X105000Y45000D01*
X90000Y40000D02*
X105000Y55000D01*
X92500Y50000D02*
X107500Y65000D01*
X87500Y55000D02*
X92500D01*
X90000Y50000D02*
X92500D01*
Y55000D02*
X97500Y60000D01*
X201654Y20000D02*
X208858Y27205D01*
X92500Y20000D02*
X201654D01*
X229016Y27205D02*
X230000Y28189D01*
X208858Y27205D02*
X229016D01*
X229311Y17500D02*
X240000Y28189D01*
X57500Y17500D02*
X229311D01*
X85000Y27500D02*
X92500Y20000D01*
X35000Y40000D02*
X57500Y17500D01*
X236811Y15000D02*
X250000Y28189D01*
X75000Y40000D02*
Y42500D01*
X87500Y55000D01*
X97500Y60000D02*
Y92500D01*
X90000Y100000D02*
X97500Y92500D01*
X65000Y40000D02*
Y47500D01*
X82500Y65000D01*
X92500D01*
X95000Y67500D01*
Y85000D01*
X90000Y90000D02*
X95000Y85000D01*
X47500Y42500D02*
X85000Y80000D01*
X90000D01*
X52500Y40000D02*
X82500Y70000D01*
X90000D01*
X35000Y40000D02*
Y42500D01*
X32500Y45000D02*
X35000Y42500D01*
X40000Y40000D02*
X45000Y35000D01*
X40000Y40000D02*
Y45000D01*
X27500D02*
X32500D01*
X25000Y47500D02*
X27500Y45000D01*
X25000Y47500D02*
Y55000D01*
X30000Y60000D01*
X35000Y50000D02*
X40000Y45000D01*
X45000Y35000D02*
X82500D01*
X30000Y50000D02*
X35000D01*
X85000Y27500D02*
Y32500D01*
X82500Y35000D02*
X85000Y32500D01*
X270000Y40000D02*
X277500Y47500D01*
X270000Y50000D02*
X275000Y55000D01*
X117500Y117500D02*
X157500Y157500D01*
X157828Y155000D02*
X225000D01*
X122500Y119672D02*
X157828Y155000D01*
X122500Y112500D02*
Y119672D01*
X277500Y47500D02*
Y106035D01*
X275000Y55000D02*
Y105000D01*
X226036Y157500D02*
X277500Y106035D01*
X157500Y157500D02*
X226036D01*
X225000Y155000D02*
X275000Y105000D01*
X114000Y115000D02*
X122000Y107000D01*
X240000Y51811D02*
Y117172D01*
X217172Y140000D02*
X240000Y117172D01*
X195000Y140000D02*
X217172D01*
X190000Y145000D02*
X195000Y140000D01*
X250000Y51811D02*
Y110000D01*
X215000Y145000D02*
X250000Y110000D01*
D12*
X65000Y110000D02*
X90000D01*
X40000Y135000D02*
X65000Y110000D01*
X35000Y10000D02*
X40000D01*
X10000Y25000D02*
X20000D01*
X2500Y32500D02*
X10000Y25000D01*
X20000D02*
X35000Y10000D01*
X182500Y25000D02*
Y30000D01*
X197500Y45000D01*
X100000Y110000D02*
X105000Y105000D01*
X90000Y110000D02*
X100000D01*
X105000Y105000D02*
X115000D01*
X197500Y45000D02*
X217500D01*
X43000Y156000D02*
X59000D01*
X40000Y153000D02*
X43000Y156000D01*
X40000Y135000D02*
Y153000D01*
X25000Y135000D02*
X40000D01*
X59000Y156000D02*
X65000Y150000D01*
X230000Y51811D02*
Y57500D01*
X223189Y64311D02*
X230000Y57500D01*
X217500Y64311D02*
X223189D01*
X217500Y45000D02*
X227500Y35000D01*
X217500Y45000D02*
Y64311D01*
X181811Y100000D02*
X217500Y64311D01*
X265000Y35000D02*
X270000Y30000D01*
X227500Y35000D02*
X265000D01*
X170000Y100000D02*
X181811D01*
X2500Y112500D02*
X10000Y120000D01*
X2500Y97500D02*
Y112500D01*
Y97500D02*
X10000Y90000D01*
X2500Y82500D02*
X10000Y90000D01*
X2500Y32500D02*
Y82500D01*
X10000Y120000D02*
X25000Y135000D01*
X115000Y105000D02*
X120000Y100000D01*
X170000D01*
D13*
X106299Y-12599D02*
Y-15748D01*
X108398D01*
X109973Y-13649D02*
X111022D01*
X111547Y-14174D01*
Y-15748D01*
X109973D01*
X109448Y-15223D01*
X109973Y-14698D01*
X111547D01*
X112596Y-13649D02*
Y-15223D01*
X113121Y-15748D01*
X114696D01*
Y-16273D01*
X114171Y-16798D01*
X113646D01*
X114696Y-15748D02*
Y-13649D01*
X117319Y-15748D02*
X116270D01*
X115745Y-15223D01*
Y-14174D01*
X116270Y-13649D01*
X117319D01*
X117844Y-14174D01*
Y-14698D01*
X115745D01*
X118894Y-13649D02*
Y-15748D01*
Y-14698D01*
X119418Y-14174D01*
X119943Y-13649D01*
X120468D01*
X125191Y-15748D02*
Y-12599D01*
X127290Y-15748D01*
Y-12599D01*
X128864Y-13649D02*
X129914D01*
X130438Y-14174D01*
Y-15748D01*
X128864D01*
X128339Y-15223D01*
X128864Y-14698D01*
X130438D01*
X131488Y-15748D02*
Y-13649D01*
X132013D01*
X132537Y-14174D01*
Y-15748D01*
Y-14174D01*
X133062Y-13649D01*
X133587Y-14174D01*
Y-15748D01*
X136211D02*
X135161D01*
X134636Y-15223D01*
Y-14174D01*
X135161Y-13649D01*
X136211D01*
X136736Y-14174D01*
Y-14698D01*
X134636D01*
X137785Y-13649D02*
X138310D01*
Y-14174D01*
X137785D01*
Y-13649D01*
Y-15223D02*
X138310D01*
Y-15748D01*
X137785D01*
Y-15223D01*
X106299Y-23622D02*
Y-20473D01*
X107873D01*
X108398Y-20998D01*
Y-22048D01*
X107873Y-22572D01*
X106299D01*
X107349D02*
X108398Y-23622D01*
X111022D02*
X109973D01*
X109448Y-23097D01*
Y-22048D01*
X109973Y-21523D01*
X111022D01*
X111547Y-22048D01*
Y-22572D01*
X109448D01*
X112596Y-21523D02*
X113646Y-23622D01*
X114696Y-21523D01*
X115745Y-23622D02*
X116795D01*
X116270D01*
Y-21523D01*
X115745D01*
X118369Y-23622D02*
X119943D01*
X120468Y-23097D01*
X119943Y-22572D01*
X118894D01*
X118369Y-22048D01*
X118894Y-21523D01*
X120468D01*
X121517Y-23622D02*
X122567D01*
X122042D01*
Y-21523D01*
X121517D01*
X124666Y-23622D02*
X125715D01*
X126240Y-23097D01*
Y-22048D01*
X125715Y-21523D01*
X124666D01*
X124141Y-22048D01*
Y-23097D01*
X124666Y-23622D01*
X127290D02*
Y-21523D01*
X128864D01*
X129389Y-22048D01*
Y-23622D01*
X130438Y-21523D02*
X130963D01*
Y-22048D01*
X130438D01*
Y-21523D01*
Y-23097D02*
X130963D01*
Y-23622D01*
X130438D01*
Y-23097D01*
X106299Y-31496D02*
Y-28348D01*
X107873D01*
X108398Y-28872D01*
Y-29922D01*
X107873Y-30446D01*
X106299D01*
X109448Y-29397D02*
Y-31496D01*
Y-30446D01*
X109973Y-29922D01*
X110497Y-29397D01*
X111022D01*
X112596Y-31496D02*
X113646D01*
X113121D01*
Y-29397D01*
X112596D01*
X115220Y-31496D02*
Y-29397D01*
X116795D01*
X117319Y-29922D01*
Y-31496D01*
X118894Y-28872D02*
Y-29397D01*
X118369D01*
X119418D01*
X118894D01*
Y-30971D01*
X119418Y-31496D01*
X124141Y-28348D02*
Y-31496D01*
X125715D01*
X126240Y-30971D01*
Y-28872D01*
X125715Y-28348D01*
X124141D01*
X127815Y-29397D02*
X128864D01*
X129389Y-29922D01*
Y-31496D01*
X127815D01*
X127290Y-30971D01*
X127815Y-30446D01*
X129389D01*
X130963Y-28872D02*
Y-29397D01*
X130438D01*
X131488D01*
X130963D01*
Y-30971D01*
X131488Y-31496D01*
X134636D02*
X133587D01*
X133062Y-30971D01*
Y-29922D01*
X133587Y-29397D01*
X134636D01*
X135161Y-29922D01*
Y-30446D01*
X133062D01*
X136211Y-29397D02*
X136736D01*
Y-29922D01*
X136211D01*
Y-29397D01*
Y-30971D02*
X136736D01*
Y-31496D01*
X136211D01*
Y-30971D01*
X145669Y-31496D02*
X146719D01*
X146194D01*
Y-28348D01*
X145669Y-28872D01*
X148293D02*
X148818Y-28348D01*
X149867D01*
X150392Y-28872D01*
Y-29397D01*
X149867Y-29922D01*
X150392Y-30446D01*
Y-30971D01*
X149867Y-31496D01*
X148818D01*
X148293Y-30971D01*
Y-30446D01*
X148818Y-29922D01*
X148293Y-29397D01*
Y-28872D01*
X148818Y-29922D02*
X149867D01*
X151442Y-31496D02*
X153541Y-29397D01*
X154590Y-28872D02*
X155115Y-28348D01*
X156165D01*
X156689Y-28872D01*
Y-30971D01*
X156165Y-31496D01*
X155115D01*
X154590Y-30971D01*
Y-28872D01*
X159838Y-31496D02*
X157739D01*
X159838Y-29397D01*
Y-28872D01*
X159313Y-28348D01*
X158264D01*
X157739Y-28872D01*
X160888Y-31496D02*
X162987Y-29397D01*
X166135Y-31496D02*
X164036D01*
X166135Y-29397D01*
Y-28872D01*
X165610Y-28348D01*
X164561D01*
X164036Y-28872D01*
X167185D02*
X167709Y-28348D01*
X168759D01*
X169284Y-28872D01*
Y-30971D01*
X168759Y-31496D01*
X167709D01*
X167185Y-30971D01*
Y-28872D01*
X170333Y-31496D02*
X171383D01*
X170858D01*
Y-28348D01*
X170333Y-28872D01*
X172957D02*
X173482Y-28348D01*
X174531D01*
X175056Y-28872D01*
Y-29397D01*
X174531Y-29922D01*
X175056Y-30446D01*
Y-30971D01*
X174531Y-31496D01*
X173482D01*
X172957Y-30971D01*
Y-30446D01*
X173482Y-29922D01*
X172957Y-29397D01*
Y-28872D01*
X173482Y-29922D02*
X174531D01*
X145669Y-20998D02*
X146194Y-20473D01*
X147244D01*
X147768Y-20998D01*
Y-23097D01*
X147244Y-23622D01*
X146194D01*
X145669Y-23097D01*
Y-20998D01*
X148818Y-23622D02*
X149867D01*
X149343D01*
Y-20473D01*
X148818Y-20998D01*
X151442Y-23622D02*
Y-23097D01*
X151967D01*
Y-23622D01*
X151442D01*
X154066Y-20998D02*
X154590Y-20473D01*
X155640D01*
X156165Y-20998D01*
Y-23097D01*
X155640Y-23622D01*
X154590D01*
X154066Y-23097D01*
Y-20998D01*
X159313Y-23622D02*
X157214D01*
X159313Y-21523D01*
Y-20998D01*
X158788Y-20473D01*
X157739D01*
X157214Y-20998D01*
X145669Y-12599D02*
X147768D01*
X146719D01*
Y-15748D01*
X149343D02*
X150392D01*
X150917Y-15223D01*
Y-14174D01*
X150392Y-13649D01*
X149343D01*
X148818Y-14174D01*
Y-15223D01*
X149343Y-15748D01*
X151967Y-16798D02*
Y-13649D01*
X153541D01*
X154066Y-14174D01*
Y-15223D01*
X153541Y-15748D01*
X151967D01*
X158264Y-12599D02*
Y-15748D01*
X160363D01*
X161937Y-13649D02*
X162987D01*
X163511Y-14174D01*
Y-15748D01*
X161937D01*
X161412Y-15223D01*
X161937Y-14698D01*
X163511D01*
X164561Y-13649D02*
Y-15223D01*
X165086Y-15748D01*
X166660D01*
Y-16273D01*
X166135Y-16798D01*
X165610D01*
X166660Y-15748D02*
Y-13649D01*
X169284Y-15748D02*
X168234D01*
X167709Y-15223D01*
Y-14174D01*
X168234Y-13649D01*
X169284D01*
X169808Y-14174D01*
Y-14698D01*
X167709D01*
X170858Y-13649D02*
Y-15748D01*
Y-14698D01*
X171383Y-14174D01*
X171907Y-13649D01*
X172432D01*
D14*
X190000Y121437D02*
D03*
X230000Y28189D02*
D03*
Y51811D02*
D03*
X240000D02*
D03*
Y28189D02*
D03*
X250000Y51811D02*
D03*
Y28189D02*
D03*
D15*
X190000Y113563D02*
D03*
D16*
X190000Y145000D02*
D03*
X215000D02*
D03*
D17*
X200000D02*
D03*
X225000D02*
D03*
D18*
X120000Y150000D02*
D03*
X250000D02*
D03*
X190000Y10000D02*
D03*
X40000D02*
D03*
X170000Y50000D02*
D03*
D19*
X110000Y150000D02*
D03*
X240000D02*
D03*
X10000Y80000D02*
D03*
Y70000D02*
D03*
Y60000D02*
D03*
Y50000D02*
D03*
Y40000D02*
D03*
Y110000D02*
D03*
X200000Y10000D02*
D03*
X210000D02*
D03*
X220000D02*
D03*
X230000D02*
D03*
X240000D02*
D03*
X50000D02*
D03*
X60000D02*
D03*
X70000D02*
D03*
X80000D02*
D03*
X90000D02*
D03*
X270000Y40000D02*
D03*
Y50000D02*
D03*
Y60000D02*
D03*
X187500Y72500D02*
D03*
X85000Y150000D02*
D03*
X75000D02*
D03*
X65000D02*
D03*
X55000D02*
D03*
X45000D02*
D03*
X35000D02*
D03*
X30000Y30000D02*
D03*
Y40000D02*
D03*
Y50000D02*
D03*
Y60000D02*
D03*
Y70000D02*
D03*
Y80000D02*
D03*
Y90000D02*
D03*
Y100000D02*
D03*
Y110000D02*
D03*
Y120000D02*
D03*
Y130000D02*
D03*
X90000D02*
D03*
Y120000D02*
D03*
Y110000D02*
D03*
Y100000D02*
D03*
Y90000D02*
D03*
Y80000D02*
D03*
Y70000D02*
D03*
Y60000D02*
D03*
Y50000D02*
D03*
Y40000D02*
D03*
Y30000D02*
D03*
X80000Y105000D02*
D03*
Y95000D02*
D03*
X70000Y30000D02*
D03*
X80000D02*
D03*
X60000D02*
D03*
X220000Y120000D02*
D03*
X210000Y110000D02*
D03*
X220000D02*
D03*
X210000Y100000D02*
D03*
X220000D02*
D03*
X210000Y90000D02*
D03*
X220000D02*
D03*
X170000Y130000D02*
D03*
X110000D02*
D03*
X170000Y120000D02*
D03*
Y110000D02*
D03*
Y100000D02*
D03*
Y90000D02*
D03*
Y80000D02*
D03*
Y70000D02*
D03*
Y60000D02*
D03*
X110000Y120000D02*
D03*
Y110000D02*
D03*
Y100000D02*
D03*
Y90000D02*
D03*
Y80000D02*
D03*
Y70000D02*
D03*
Y60000D02*
D03*
Y50000D02*
D03*
D20*
X10000Y90000D02*
D03*
Y120000D02*
D03*
X270000Y30000D02*
D03*
X187500Y82500D02*
D03*
X30000Y140000D02*
D03*
X90000D02*
D03*
X210000Y120000D02*
D03*
D21*
X208858Y52795D02*
D03*
Y27205D02*
D03*
X191142D02*
D03*
Y52795D02*
D03*
D22*
X50000Y142500D02*
D03*
X40000Y20000D02*
D03*
X12500Y30000D02*
D03*
X182500Y25000D02*
D03*
X25000Y75000D02*
D03*
X85000Y85000D02*
D03*
X102500D02*
D03*
X120000Y55000D02*
D03*
X177500Y52500D02*
D03*
X207500Y67500D02*
D03*
X202500Y65000D02*
D03*
X197500Y62500D02*
D03*
X192500Y60000D02*
D03*
X177500Y87500D02*
D03*
X75000Y40000D02*
D03*
X65000D02*
D03*
X52500D02*
D03*
X47500Y42500D02*
D03*
X117500Y117500D02*
D03*
X122500Y112500D02*
D03*
X122000Y107000D02*
D03*
D23*
X268189Y11811D02*
D03*
Y148189D02*
D03*
X11811D02*
D03*
Y11811D02*
D03*
M02*
