%FSLAX25Y25*%
%MOIN*%
G70*
G01*
G75*
G04 Layer_Physical_Order=2*
G04 Layer_Color=16711680*
%ADD10C,0.03937*%
%ADD11C,0.01000*%
%ADD12C,0.01969*%
%ADD13C,0.00787*%
%ADD14C,0.04724*%
%ADD15R,0.04724X0.04724*%
%ADD16R,0.06000X0.06000*%
%ADD17C,0.06000*%
%ADD18R,0.05906X0.05906*%
%ADD19C,0.05906*%
%ADD20R,0.05906X0.05906*%
%ADD21C,0.07087*%
%ADD22C,0.03543*%
%ADD23C,0.19685*%
G36*
X280000Y160000D02*
Y0D01*
X0D01*
Y160000D01*
X0Y160000D01*
D01*
D01*
D01*
X0Y160000D01*
X280000D01*
X280000Y160000D01*
D02*
G37*
%LPC*%
G36*
X93921Y129500D02*
X90500D01*
Y126079D01*
X91032Y126149D01*
X91993Y126547D01*
X92819Y127181D01*
X93453Y128007D01*
X93851Y128968D01*
X93921Y129500D01*
D02*
G37*
G36*
X89500Y133921D02*
X88968Y133851D01*
X88007Y133453D01*
X87181Y132819D01*
X86547Y131993D01*
X86149Y131032D01*
X86079Y130500D01*
X89500D01*
Y133921D01*
D02*
G37*
G36*
X173921Y129500D02*
X170500D01*
Y126079D01*
X171032Y126149D01*
X171993Y126547D01*
X172819Y127181D01*
X173453Y128007D01*
X173851Y128968D01*
X173921Y129500D01*
D02*
G37*
G36*
X169500D02*
X166079D01*
X166149Y128968D01*
X166547Y128007D01*
X167181Y127181D01*
X168007Y126547D01*
X168968Y126149D01*
X169500Y126079D01*
Y129500D01*
D02*
G37*
G36*
X30000Y133987D02*
X28968Y133851D01*
X28007Y133453D01*
X27181Y132819D01*
X26547Y131993D01*
X26149Y131032D01*
X26013Y130000D01*
X26149Y128968D01*
X26547Y128007D01*
X27181Y127181D01*
X28007Y126547D01*
X28968Y126149D01*
X30000Y126013D01*
X31032Y126149D01*
X31993Y126547D01*
X32819Y127181D01*
X33453Y128007D01*
X33851Y128968D01*
X33987Y130000D01*
X33851Y131032D01*
X33453Y131993D01*
X32819Y132819D01*
X31993Y133453D01*
X31032Y133851D01*
X30000Y133987D01*
D02*
G37*
G36*
X253953Y153953D02*
X246047D01*
Y148908D01*
X220995Y123856D01*
X220000Y123987D01*
X218968Y123851D01*
X218007Y123453D01*
X217181Y122819D01*
X216547Y121993D01*
X216149Y121032D01*
X216013Y120000D01*
X216149Y118968D01*
X216547Y118007D01*
X217181Y117181D01*
X218007Y116547D01*
X218968Y116149D01*
X220000Y116013D01*
X221032Y116149D01*
X221993Y116547D01*
X222819Y117181D01*
X223453Y118007D01*
X223851Y118968D01*
X223987Y120000D01*
X223856Y120995D01*
X248908Y146047D01*
X253953D01*
Y153953D01*
D02*
G37*
G36*
X190500Y124762D02*
Y121937D01*
X193325D01*
X193276Y122315D01*
X192937Y123133D01*
X192398Y123835D01*
X191696Y124374D01*
X190878Y124713D01*
X190500Y124762D01*
D02*
G37*
G36*
X110000Y133987D02*
X108968Y133851D01*
X108007Y133453D01*
X107181Y132819D01*
X106547Y131993D01*
X106149Y131032D01*
X106013Y130000D01*
X106149Y128968D01*
X106547Y128007D01*
X107181Y127181D01*
X108007Y126547D01*
X108968Y126149D01*
X110000Y126013D01*
X111032Y126149D01*
X111993Y126547D01*
X112819Y127181D01*
X113453Y128007D01*
X113851Y128968D01*
X113987Y130000D01*
X113851Y131032D01*
X113453Y131993D01*
X112819Y132819D01*
X111993Y133453D01*
X111032Y133851D01*
X110000Y133987D01*
D02*
G37*
G36*
X33953Y143953D02*
X26047D01*
Y136047D01*
X33953D01*
Y143953D01*
D02*
G37*
G36*
X89500Y129500D02*
X86079D01*
X86149Y128968D01*
X86547Y128007D01*
X87181Y127181D01*
X88007Y126547D01*
X88968Y126149D01*
X89500Y126079D01*
Y129500D01*
D02*
G37*
%LPD*%
G36*
X107413Y112997D02*
X107181Y112819D01*
X106547Y111993D01*
X106149Y111032D01*
X106013Y110000D01*
X106149Y108968D01*
X106547Y108007D01*
X107181Y107181D01*
X107413Y107003D01*
X107252Y106529D01*
X92748D01*
X92587Y107003D01*
X92819Y107181D01*
X93453Y108007D01*
X93851Y108968D01*
X93987Y110000D01*
X93851Y111032D01*
X93453Y111993D01*
X92819Y112819D01*
X92587Y112997D01*
X92748Y113471D01*
X107252D01*
X107413Y112997D01*
D02*
G37*
G36*
X211005Y14332D02*
X210784Y13884D01*
X210000Y13987D01*
X208968Y13851D01*
X208504Y13659D01*
X201529Y20633D01*
Y23154D01*
X201991Y23346D01*
X211005Y14332D01*
D02*
G37*
G36*
X206116Y90784D02*
X206013Y90000D01*
X206149Y88968D01*
X206341Y88504D01*
X201419Y83581D01*
X201087Y83085D01*
X200971Y82500D01*
Y67320D01*
X200523Y66977D01*
X200079Y66398D01*
X199800Y65724D01*
X199704Y65000D01*
X199721Y64871D01*
X199462Y64722D01*
X199029Y64972D01*
Y84367D01*
X205668Y91005D01*
X206116Y90784D01*
D02*
G37*
G36*
X206547Y98007D02*
X207181Y97181D01*
X207440Y96982D01*
X207327Y96495D01*
X206915Y96413D01*
X206419Y96081D01*
X196419Y86081D01*
X196087Y85585D01*
X195971Y85000D01*
Y64820D01*
X195523Y64477D01*
X195079Y63898D01*
X194800Y63224D01*
X194704Y62500D01*
X194721Y62371D01*
X194462Y62222D01*
X194029Y62472D01*
Y86866D01*
X205633Y98471D01*
X206355D01*
X206547Y98007D01*
D02*
G37*
G36*
X193810Y90973D02*
X191419Y88581D01*
X191087Y88085D01*
X190971Y87500D01*
Y86453D01*
X184269D01*
X184078Y86915D01*
X188134Y90971D01*
X192500D01*
X193085Y91087D01*
X193493Y91359D01*
X193810Y90973D01*
D02*
G37*
G36*
X49721Y40129D02*
X49704Y40000D01*
X49778Y39441D01*
X48919Y38581D01*
X48587Y38085D01*
X48471Y37500D01*
Y13645D01*
X48007Y13453D01*
X47525Y13083D01*
X47077Y13304D01*
Y39381D01*
X47453Y39711D01*
X47500Y39704D01*
X48224Y39800D01*
X48898Y40079D01*
X49288Y40379D01*
X49721Y40129D01*
D02*
G37*
D10*
X170000Y90000D02*
X190000Y110000D01*
Y113563D01*
D11*
X42500Y142500D02*
X50000D01*
X35000Y150000D02*
X42500Y142500D01*
X35000Y25000D02*
X40000Y20000D01*
X35000Y25000D02*
Y35000D01*
X5000Y30000D02*
X12500D01*
X25000Y35000D02*
Y75000D01*
X85000Y85000D02*
X102500D01*
X95000Y55000D02*
X120000D01*
X90000Y60000D02*
X95000Y55000D01*
X177500Y52500D02*
Y80000D01*
X197500Y62500D02*
Y85000D01*
Y60000D02*
Y62500D01*
X202500Y65000D02*
Y82500D01*
Y25000D02*
Y65000D01*
X207500Y67500D02*
Y77500D01*
X197500Y60000D02*
X200000Y57500D01*
Y20000D02*
Y57500D01*
X192500Y60000D02*
Y87500D01*
Y60000D02*
X197500Y55000D01*
Y12500D02*
Y55000D01*
X207500Y77500D02*
X220000Y90000D01*
X177500Y80000D02*
X182500Y85000D01*
Y87500D01*
X187500Y92500D01*
X192500D01*
X185000Y95000D02*
X190000D01*
X177500Y87500D02*
X185000Y95000D01*
X75000Y15000D02*
Y40000D01*
Y15000D02*
X80000Y10000D01*
X65000Y15000D02*
Y40000D01*
X45547Y40547D02*
X47500Y42500D01*
X50000Y37500D02*
X52500Y40000D01*
X50000Y10000D02*
Y37500D01*
X2500Y32500D02*
X5000Y30000D01*
X2500Y32500D02*
Y72500D01*
X10000Y80000D01*
X190000Y95000D02*
X205000Y110000D01*
X210000D01*
X192500Y92500D02*
X205000Y105000D01*
X215000D01*
X220000Y110000D01*
X205000Y100000D02*
X210000D01*
X192500Y87500D02*
X205000Y100000D01*
X215000Y95000D02*
X220000Y100000D01*
X207500Y95000D02*
X215000D01*
X197500Y85000D02*
X207500Y95000D01*
X202500Y82500D02*
X210000Y90000D01*
X202500Y25000D02*
X217500Y10000D01*
X220000D01*
X200000Y20000D02*
X210000Y10000D01*
X197500Y12500D02*
X200000Y10000D01*
X115000Y115000D02*
X117500Y117500D01*
X87500Y115000D02*
X115000D01*
X80000Y107500D02*
X87500Y115000D01*
X80000Y105000D02*
Y107500D01*
X115000Y105000D02*
X122500Y112500D01*
X87500Y105000D02*
X115000D01*
X80000Y97500D02*
X87500Y105000D01*
X80000Y95000D02*
Y97500D01*
X48703Y5000D02*
X55000D01*
X45547Y8156D02*
Y40547D01*
Y8156D02*
X48703Y5000D01*
X30000Y40000D02*
X35000Y35000D01*
X25000D02*
X30000Y30000D01*
X65000Y15000D02*
X70000Y10000D01*
X55000Y5000D02*
X60000Y10000D01*
X122000Y102000D02*
Y107000D01*
X110000Y90000D02*
X122000Y102000D01*
D12*
X182500Y17500D02*
Y25000D01*
Y17500D02*
X190000Y10000D01*
X220000Y120000D02*
X250000Y150000D01*
D13*
X106299Y-12599D02*
Y-15748D01*
X108398D01*
X109973Y-13649D02*
X111022D01*
X111547Y-14174D01*
Y-15748D01*
X109973D01*
X109448Y-15223D01*
X109973Y-14698D01*
X111547D01*
X112596Y-13649D02*
Y-15223D01*
X113121Y-15748D01*
X114696D01*
Y-16273D01*
X114171Y-16798D01*
X113646D01*
X114696Y-15748D02*
Y-13649D01*
X117319Y-15748D02*
X116270D01*
X115745Y-15223D01*
Y-14174D01*
X116270Y-13649D01*
X117319D01*
X117844Y-14174D01*
Y-14698D01*
X115745D01*
X118894Y-13649D02*
Y-15748D01*
Y-14698D01*
X119418Y-14174D01*
X119943Y-13649D01*
X120468D01*
X125191Y-15748D02*
Y-12599D01*
X127290Y-15748D01*
Y-12599D01*
X128864Y-13649D02*
X129914D01*
X130438Y-14174D01*
Y-15748D01*
X128864D01*
X128339Y-15223D01*
X128864Y-14698D01*
X130438D01*
X131488Y-15748D02*
Y-13649D01*
X132013D01*
X132537Y-14174D01*
Y-15748D01*
Y-14174D01*
X133062Y-13649D01*
X133587Y-14174D01*
Y-15748D01*
X136211D02*
X135161D01*
X134636Y-15223D01*
Y-14174D01*
X135161Y-13649D01*
X136211D01*
X136736Y-14174D01*
Y-14698D01*
X134636D01*
X137785Y-13649D02*
X138310D01*
Y-14174D01*
X137785D01*
Y-13649D01*
Y-15223D02*
X138310D01*
Y-15748D01*
X137785D01*
Y-15223D01*
X106299Y-23622D02*
Y-20473D01*
X107873D01*
X108398Y-20998D01*
Y-22048D01*
X107873Y-22572D01*
X106299D01*
X107349D02*
X108398Y-23622D01*
X111022D02*
X109973D01*
X109448Y-23097D01*
Y-22048D01*
X109973Y-21523D01*
X111022D01*
X111547Y-22048D01*
Y-22572D01*
X109448D01*
X112596Y-21523D02*
X113646Y-23622D01*
X114696Y-21523D01*
X115745Y-23622D02*
X116795D01*
X116270D01*
Y-21523D01*
X115745D01*
X118369Y-23622D02*
X119943D01*
X120468Y-23097D01*
X119943Y-22572D01*
X118894D01*
X118369Y-22048D01*
X118894Y-21523D01*
X120468D01*
X121517Y-23622D02*
X122567D01*
X122042D01*
Y-21523D01*
X121517D01*
X124666Y-23622D02*
X125715D01*
X126240Y-23097D01*
Y-22048D01*
X125715Y-21523D01*
X124666D01*
X124141Y-22048D01*
Y-23097D01*
X124666Y-23622D01*
X127290D02*
Y-21523D01*
X128864D01*
X129389Y-22048D01*
Y-23622D01*
X130438Y-21523D02*
X130963D01*
Y-22048D01*
X130438D01*
Y-21523D01*
Y-23097D02*
X130963D01*
Y-23622D01*
X130438D01*
Y-23097D01*
X106299Y-31496D02*
Y-28348D01*
X107873D01*
X108398Y-28872D01*
Y-29922D01*
X107873Y-30446D01*
X106299D01*
X109448Y-29397D02*
Y-31496D01*
Y-30446D01*
X109973Y-29922D01*
X110497Y-29397D01*
X111022D01*
X112596Y-31496D02*
X113646D01*
X113121D01*
Y-29397D01*
X112596D01*
X115220Y-31496D02*
Y-29397D01*
X116795D01*
X117319Y-29922D01*
Y-31496D01*
X118894Y-28872D02*
Y-29397D01*
X118369D01*
X119418D01*
X118894D01*
Y-30971D01*
X119418Y-31496D01*
X124141Y-28348D02*
Y-31496D01*
X125715D01*
X126240Y-30971D01*
Y-28872D01*
X125715Y-28348D01*
X124141D01*
X127815Y-29397D02*
X128864D01*
X129389Y-29922D01*
Y-31496D01*
X127815D01*
X127290Y-30971D01*
X127815Y-30446D01*
X129389D01*
X130963Y-28872D02*
Y-29397D01*
X130438D01*
X131488D01*
X130963D01*
Y-30971D01*
X131488Y-31496D01*
X134636D02*
X133587D01*
X133062Y-30971D01*
Y-29922D01*
X133587Y-29397D01*
X134636D01*
X135161Y-29922D01*
Y-30446D01*
X133062D01*
X136211Y-29397D02*
X136736D01*
Y-29922D01*
X136211D01*
Y-29397D01*
Y-30971D02*
X136736D01*
Y-31496D01*
X136211D01*
Y-30971D01*
X145669Y-31496D02*
X146719D01*
X146194D01*
Y-28348D01*
X145669Y-28872D01*
X148293D02*
X148818Y-28348D01*
X149867D01*
X150392Y-28872D01*
Y-29397D01*
X149867Y-29922D01*
X150392Y-30446D01*
Y-30971D01*
X149867Y-31496D01*
X148818D01*
X148293Y-30971D01*
Y-30446D01*
X148818Y-29922D01*
X148293Y-29397D01*
Y-28872D01*
X148818Y-29922D02*
X149867D01*
X151442Y-31496D02*
X153541Y-29397D01*
X154590Y-28872D02*
X155115Y-28348D01*
X156165D01*
X156689Y-28872D01*
Y-30971D01*
X156165Y-31496D01*
X155115D01*
X154590Y-30971D01*
Y-28872D01*
X159838Y-31496D02*
X157739D01*
X159838Y-29397D01*
Y-28872D01*
X159313Y-28348D01*
X158264D01*
X157739Y-28872D01*
X160888Y-31496D02*
X162987Y-29397D01*
X166135Y-31496D02*
X164036D01*
X166135Y-29397D01*
Y-28872D01*
X165610Y-28348D01*
X164561D01*
X164036Y-28872D01*
X167185D02*
X167709Y-28348D01*
X168759D01*
X169284Y-28872D01*
Y-30971D01*
X168759Y-31496D01*
X167709D01*
X167185Y-30971D01*
Y-28872D01*
X170333Y-31496D02*
X171383D01*
X170858D01*
Y-28348D01*
X170333Y-28872D01*
X172957D02*
X173482Y-28348D01*
X174531D01*
X175056Y-28872D01*
Y-29397D01*
X174531Y-29922D01*
X175056Y-30446D01*
Y-30971D01*
X174531Y-31496D01*
X173482D01*
X172957Y-30971D01*
Y-30446D01*
X173482Y-29922D01*
X172957Y-29397D01*
Y-28872D01*
X173482Y-29922D02*
X174531D01*
X145669Y-20998D02*
X146194Y-20473D01*
X147244D01*
X147768Y-20998D01*
Y-23097D01*
X147244Y-23622D01*
X146194D01*
X145669Y-23097D01*
Y-20998D01*
X148818Y-23622D02*
X149867D01*
X149343D01*
Y-20473D01*
X148818Y-20998D01*
X151442Y-23622D02*
Y-23097D01*
X151967D01*
Y-23622D01*
X151442D01*
X154066Y-20998D02*
X154590Y-20473D01*
X155640D01*
X156165Y-20998D01*
Y-23097D01*
X155640Y-23622D01*
X154590D01*
X154066Y-23097D01*
Y-20998D01*
X159313Y-23622D02*
X157214D01*
X159313Y-21523D01*
Y-20998D01*
X158788Y-20473D01*
X157739D01*
X157214Y-20998D01*
X145669Y-12599D02*
Y-15748D01*
X147244D01*
X147768Y-15223D01*
Y-14698D01*
X147244Y-14174D01*
X145669D01*
X147244D01*
X147768Y-13649D01*
Y-13124D01*
X147244Y-12599D01*
X145669D01*
X149343Y-15748D02*
X150392D01*
X150917Y-15223D01*
Y-14174D01*
X150392Y-13649D01*
X149343D01*
X148818Y-14174D01*
Y-15223D01*
X149343Y-15748D01*
X152491Y-13124D02*
Y-13649D01*
X151967D01*
X153016D01*
X152491D01*
Y-15223D01*
X153016Y-15748D01*
X155115Y-13124D02*
Y-13649D01*
X154590D01*
X155640D01*
X155115D01*
Y-15223D01*
X155640Y-15748D01*
X157739D02*
X158788D01*
X159313Y-15223D01*
Y-14174D01*
X158788Y-13649D01*
X157739D01*
X157214Y-14174D01*
Y-15223D01*
X157739Y-15748D01*
X160363D02*
Y-13649D01*
X160888D01*
X161412Y-14174D01*
Y-15748D01*
Y-14174D01*
X161937Y-13649D01*
X162462Y-14174D01*
Y-15748D01*
X166660Y-12599D02*
Y-15748D01*
X168759D01*
X170333Y-13649D02*
X171383D01*
X171907Y-14174D01*
Y-15748D01*
X170333D01*
X169808Y-15223D01*
X170333Y-14698D01*
X171907D01*
X172957Y-13649D02*
Y-15223D01*
X173482Y-15748D01*
X175056D01*
Y-16273D01*
X174531Y-16798D01*
X174007D01*
X175056Y-15748D02*
Y-13649D01*
X177680Y-15748D02*
X176630D01*
X176106Y-15223D01*
Y-14174D01*
X176630Y-13649D01*
X177680D01*
X178205Y-14174D01*
Y-14698D01*
X176106D01*
X179254Y-13649D02*
Y-15748D01*
Y-14698D01*
X179779Y-14174D01*
X180304Y-13649D01*
X180829D01*
D14*
X190000Y121437D02*
D03*
X230000Y28189D02*
D03*
Y51811D02*
D03*
X240000D02*
D03*
Y28189D02*
D03*
X250000Y51811D02*
D03*
Y28189D02*
D03*
D15*
X190000Y113563D02*
D03*
D16*
X190000Y145000D02*
D03*
X215000D02*
D03*
D17*
X200000D02*
D03*
X225000D02*
D03*
D18*
X120000Y150000D02*
D03*
X250000D02*
D03*
X190000Y10000D02*
D03*
X40000D02*
D03*
X170000Y50000D02*
D03*
D19*
X110000Y150000D02*
D03*
X240000D02*
D03*
X10000Y80000D02*
D03*
Y70000D02*
D03*
Y60000D02*
D03*
Y50000D02*
D03*
Y40000D02*
D03*
Y110000D02*
D03*
X200000Y10000D02*
D03*
X210000D02*
D03*
X220000D02*
D03*
X230000D02*
D03*
X240000D02*
D03*
X50000D02*
D03*
X60000D02*
D03*
X70000D02*
D03*
X80000D02*
D03*
X90000D02*
D03*
X270000Y40000D02*
D03*
Y50000D02*
D03*
Y60000D02*
D03*
X187500Y72500D02*
D03*
X85000Y150000D02*
D03*
X75000D02*
D03*
X65000D02*
D03*
X55000D02*
D03*
X45000D02*
D03*
X35000D02*
D03*
X30000Y30000D02*
D03*
Y40000D02*
D03*
Y50000D02*
D03*
Y60000D02*
D03*
Y70000D02*
D03*
Y80000D02*
D03*
Y90000D02*
D03*
Y100000D02*
D03*
Y110000D02*
D03*
Y120000D02*
D03*
Y130000D02*
D03*
X90000D02*
D03*
Y120000D02*
D03*
Y110000D02*
D03*
Y100000D02*
D03*
Y90000D02*
D03*
Y80000D02*
D03*
Y70000D02*
D03*
Y60000D02*
D03*
Y50000D02*
D03*
Y40000D02*
D03*
Y30000D02*
D03*
X80000Y105000D02*
D03*
Y95000D02*
D03*
X70000Y30000D02*
D03*
X80000D02*
D03*
X60000D02*
D03*
X220000Y120000D02*
D03*
X210000Y110000D02*
D03*
X220000D02*
D03*
X210000Y100000D02*
D03*
X220000D02*
D03*
X210000Y90000D02*
D03*
X220000D02*
D03*
X170000Y130000D02*
D03*
X110000D02*
D03*
X170000Y120000D02*
D03*
Y110000D02*
D03*
Y100000D02*
D03*
Y90000D02*
D03*
Y80000D02*
D03*
Y70000D02*
D03*
Y60000D02*
D03*
X110000Y120000D02*
D03*
Y110000D02*
D03*
Y100000D02*
D03*
Y90000D02*
D03*
Y80000D02*
D03*
Y70000D02*
D03*
Y60000D02*
D03*
Y50000D02*
D03*
D20*
X10000Y90000D02*
D03*
Y120000D02*
D03*
X270000Y30000D02*
D03*
X187500Y82500D02*
D03*
X30000Y140000D02*
D03*
X90000D02*
D03*
X210000Y120000D02*
D03*
D21*
X208858Y52795D02*
D03*
Y27205D02*
D03*
X191142D02*
D03*
Y52795D02*
D03*
D22*
X50000Y142500D02*
D03*
X40000Y20000D02*
D03*
X12500Y30000D02*
D03*
X182500Y25000D02*
D03*
X25000Y75000D02*
D03*
X85000Y85000D02*
D03*
X102500D02*
D03*
X120000Y55000D02*
D03*
X177500Y52500D02*
D03*
X207500Y67500D02*
D03*
X202500Y65000D02*
D03*
X197500Y62500D02*
D03*
X192500Y60000D02*
D03*
X177500Y87500D02*
D03*
X75000Y40000D02*
D03*
X65000D02*
D03*
X52500D02*
D03*
X47500Y42500D02*
D03*
X117500Y117500D02*
D03*
X122500Y112500D02*
D03*
X122000Y107000D02*
D03*
D23*
X268189Y11811D02*
D03*
Y148189D02*
D03*
X11811D02*
D03*
Y11811D02*
D03*
M02*
