G04 Layer: TopLayer*
G04 EasyEDA v6.4.7, 2020-09-29T11:03:38+03:00*
G04 9486de1159244eee9c784153b90ba1e7,e225996ff9fb4a0db64c6d6541834e49,10*
G04 Gerber Generator version 0.2*
G04 Scale: 100 percent, Rotated: No, Reflected: No *
G04 Dimensions in millimeters *
G04 leading zeros omitted , absolute positions ,3 integer and 3 decimal *
%FSLAX33Y33*%
%MOMM*%
G90*
D02*

%ADD11C,0.499999*%
%ADD12C,1.470000*%
%ADD13C,0.799998*%
%ADD14C,1.159993*%
%ADD15C,0.110007*%
%ADD16C,0.839978*%
%ADD17C,0.639978*%
%ADD18R,4.064000X1.524000*%
%ADD20R,1.160018X1.450010*%
%ADD21R,1.469898X1.160018*%
%ADD22R,1.399540X1.300480*%
%ADD23R,0.999998X0.551180*%
%ADD24R,1.470000X1.160018*%
%ADD25R,1.160018X1.470000*%
%ADD28R,1.800860X1.998980*%
%ADD29R,0.999998X0.550012*%
%ADD30R,0.999998X0.799998*%
%ADD33C,3.499866*%
%ADD34C,1.699997*%
%ADD35R,1.699997X1.699997*%
%ADD36C,2.999994*%
%ADD37C,2.499995*%
%ADD38C,1.799996*%

%LPD*%
G36*
G01X44983Y46733D02*
G01X358Y46733D01*
G01X343Y46732D01*
G01X329Y46729D01*
G01X315Y46724D01*
G01X303Y46717D01*
G01X291Y46708D01*
G01X281Y46698D01*
G01X272Y46686D01*
G01X265Y46674D01*
G01X260Y46660D01*
G01X257Y46646D01*
G01X256Y46631D01*
G01X256Y23215D01*
G01X257Y23201D01*
G01X260Y23186D01*
G01X265Y23173D01*
G01X272Y23160D01*
G01X281Y23149D01*
G01X291Y23138D01*
G01X303Y23130D01*
G01X315Y23123D01*
G01X329Y23118D01*
G01X343Y23115D01*
G01X358Y23114D01*
G01X477Y23114D01*
G01X508Y23116D01*
G01X1460Y23116D01*
G01X1460Y22542D01*
G01X609Y22542D01*
G01X595Y22541D01*
G01X580Y22538D01*
G01X567Y22533D01*
G01X554Y22526D01*
G01X543Y22517D01*
G01X532Y22507D01*
G01X524Y22495D01*
G01X517Y22483D01*
G01X512Y22469D01*
G01X509Y22455D01*
G01X508Y22440D01*
G01X508Y21755D01*
G01X509Y21740D01*
G01X512Y21726D01*
G01X517Y21712D01*
G01X524Y21700D01*
G01X532Y21688D01*
G01X543Y21678D01*
G01X554Y21669D01*
G01X567Y21662D01*
G01X580Y21657D01*
G01X595Y21654D01*
G01X609Y21653D01*
G01X1460Y21653D01*
G01X1460Y21079D01*
G01X508Y21079D01*
G01X477Y21081D01*
G01X465Y21082D01*
G01X358Y21082D01*
G01X343Y21080D01*
G01X329Y21077D01*
G01X315Y21072D01*
G01X303Y21065D01*
G01X291Y21057D01*
G01X281Y21046D01*
G01X272Y21035D01*
G01X265Y21022D01*
G01X260Y21009D01*
G01X257Y20994D01*
G01X256Y20980D01*
G01X256Y12803D01*
G01X257Y12788D01*
G01X260Y12774D01*
G01X265Y12760D01*
G01X272Y12748D01*
G01X281Y12736D01*
G01X291Y12726D01*
G01X303Y12717D01*
G01X315Y12710D01*
G01X329Y12705D01*
G01X343Y12702D01*
G01X358Y12701D01*
G01X1905Y12701D01*
G01X1928Y12700D01*
G01X1952Y12697D01*
G01X1975Y12691D01*
G01X1997Y12684D01*
G01X2018Y12675D01*
G01X2039Y12663D01*
G01X2058Y12650D01*
G01X2076Y12635D01*
G01X2093Y12619D01*
G01X2108Y12601D01*
G01X2122Y12582D01*
G01X2133Y12561D01*
G01X2143Y12540D01*
G01X2151Y12518D01*
G01X2156Y12504D01*
G01X2163Y12492D01*
G01X2172Y12480D01*
G01X2182Y12470D01*
G01X2193Y12462D01*
G01X2206Y12455D01*
G01X2220Y12450D01*
G01X2234Y12447D01*
G01X2248Y12446D01*
G01X2296Y12446D01*
G01X2312Y12447D01*
G01X2327Y12451D01*
G01X2355Y12458D01*
G01X2383Y12463D01*
G01X2412Y12464D01*
G01X3364Y12464D01*
G01X3364Y11874D01*
G01X2514Y11874D01*
G01X2500Y11873D01*
G01X2485Y11870D01*
G01X2472Y11865D01*
G01X2459Y11858D01*
G01X2448Y11849D01*
G01X2437Y11839D01*
G01X2429Y11827D01*
G01X2422Y11815D01*
G01X2417Y11801D01*
G01X2414Y11787D01*
G01X2413Y11772D01*
G01X2413Y11087D01*
G01X2414Y11072D01*
G01X2417Y11058D01*
G01X2422Y11044D01*
G01X2429Y11032D01*
G01X2437Y11020D01*
G01X2448Y11010D01*
G01X2459Y11001D01*
G01X2472Y10994D01*
G01X2485Y10989D01*
G01X2500Y10986D01*
G01X2514Y10985D01*
G01X3364Y10985D01*
G01X3364Y10395D01*
G01X2514Y10395D01*
G01X2500Y10394D01*
G01X2485Y10391D01*
G01X2472Y10386D01*
G01X2459Y10379D01*
G01X2448Y10370D01*
G01X2437Y10360D01*
G01X2429Y10348D01*
G01X2422Y10336D01*
G01X2417Y10322D01*
G01X2414Y10308D01*
G01X2413Y10293D01*
G01X2413Y10026D01*
G01X2414Y10011D01*
G01X2417Y9997D01*
G01X2422Y9983D01*
G01X2429Y9971D01*
G01X2437Y9959D01*
G01X2448Y9949D01*
G01X2459Y9940D01*
G01X2472Y9933D01*
G01X2485Y9928D01*
G01X2500Y9925D01*
G01X2514Y9924D01*
G01X6476Y9924D01*
G01X6502Y9923D01*
G01X6528Y9919D01*
G01X6553Y9913D01*
G01X6578Y9904D01*
G01X6597Y9899D01*
G01X6616Y9897D01*
G01X36449Y9897D01*
G01X36479Y9896D01*
G01X36505Y9896D01*
G01X36547Y9897D01*
G01X36588Y9900D01*
G01X36630Y9905D01*
G01X36671Y9912D01*
G01X36712Y9922D01*
G01X36752Y9933D01*
G01X36791Y9946D01*
G01X36830Y9961D01*
G01X36868Y9978D01*
G01X36905Y9997D01*
G01X36942Y10018D01*
G01X36977Y10040D01*
G01X37011Y10065D01*
G01X37044Y10090D01*
G01X37075Y10118D01*
G01X37105Y10147D01*
G01X37133Y10177D01*
G01X37160Y10209D01*
G01X37186Y10242D01*
G01X37210Y10277D01*
G01X37232Y10312D01*
G01X37252Y10348D01*
G01X37270Y10386D01*
G01X37287Y10424D01*
G01X37301Y10463D01*
G01X37314Y10503D01*
G01X37324Y10543D01*
G01X37333Y10584D01*
G01X37335Y10603D01*
G01X37334Y10617D01*
G01X37331Y10631D01*
G01X37326Y10645D01*
G01X37319Y10658D01*
G01X37310Y10669D01*
G01X37300Y10680D01*
G01X37288Y10688D01*
G01X37275Y10695D01*
G01X37262Y10700D01*
G01X37248Y10703D01*
G01X37233Y10704D01*
G01X35079Y10704D01*
G01X35055Y10705D01*
G01X35031Y10708D01*
G01X35008Y10713D01*
G01X34985Y10720D01*
G01X34963Y10729D01*
G01X34942Y10740D01*
G01X34922Y10753D01*
G01X34903Y10768D01*
G01X34886Y10784D01*
G01X34870Y10801D01*
G01X34855Y10820D01*
G01X34842Y10840D01*
G01X34831Y10861D01*
G01X34822Y10883D01*
G01X34815Y10906D01*
G01X34810Y10929D01*
G01X34807Y10953D01*
G01X34806Y10976D01*
G01X34806Y14169D01*
G01X34807Y14192D01*
G01X34810Y14216D01*
G01X34815Y14239D01*
G01X34822Y14262D01*
G01X34831Y14284D01*
G01X34842Y14305D01*
G01X34855Y14325D01*
G01X34870Y14344D01*
G01X34886Y14361D01*
G01X34903Y14377D01*
G01X34922Y14392D01*
G01X34942Y14405D01*
G01X34963Y14416D01*
G01X34985Y14425D01*
G01X35008Y14432D01*
G01X35031Y14437D01*
G01X35055Y14440D01*
G01X35079Y14441D01*
G01X37244Y14441D01*
G01X37259Y14442D01*
G01X37273Y14446D01*
G01X37286Y14451D01*
G01X37299Y14458D01*
G01X37311Y14466D01*
G01X37321Y14477D01*
G01X37330Y14488D01*
G01X37337Y14501D01*
G01X37342Y14514D01*
G01X37345Y14529D01*
G01X37346Y14543D01*
G01X37346Y18675D01*
G01X37345Y18690D01*
G01X37342Y18704D01*
G01X37337Y18718D01*
G01X37330Y18730D01*
G01X37321Y18742D01*
G01X37311Y18752D01*
G01X37299Y18761D01*
G01X37287Y18768D01*
G01X37273Y18773D01*
G01X37259Y18776D01*
G01X37244Y18777D01*
G01X37211Y18777D01*
G01X37187Y18778D01*
G01X37163Y18781D01*
G01X37140Y18786D01*
G01X37117Y18793D01*
G01X37095Y18802D01*
G01X37074Y18813D01*
G01X37054Y18826D01*
G01X37035Y18841D01*
G01X37018Y18857D01*
G01X37002Y18874D01*
G01X36987Y18893D01*
G01X36974Y18913D01*
G01X36963Y18934D01*
G01X36954Y18956D01*
G01X36947Y18979D01*
G01X36942Y19002D01*
G01X36939Y19026D01*
G01X36938Y19050D01*
G01X36938Y22098D01*
G01X36939Y22121D01*
G01X36942Y22145D01*
G01X36947Y22168D01*
G01X36954Y22191D01*
G01X36963Y22213D01*
G01X36974Y22234D01*
G01X36987Y22254D01*
G01X37002Y22273D01*
G01X37018Y22290D01*
G01X37035Y22306D01*
G01X37054Y22321D01*
G01X37074Y22334D01*
G01X37095Y22345D01*
G01X37117Y22354D01*
G01X37140Y22361D01*
G01X37163Y22366D01*
G01X37187Y22369D01*
G01X37211Y22370D01*
G01X42037Y22370D01*
G01X42060Y22369D01*
G01X42084Y22366D01*
G01X42107Y22361D01*
G01X42130Y22354D01*
G01X42152Y22345D01*
G01X42173Y22334D01*
G01X42193Y22321D01*
G01X42212Y22306D01*
G01X42229Y22290D01*
G01X42245Y22273D01*
G01X42260Y22254D01*
G01X42267Y22242D01*
G01X42275Y22229D01*
G01X42280Y22220D01*
G01X42286Y22206D01*
G01X42290Y22197D01*
G01X42298Y22173D01*
G01X42302Y22158D01*
G01X42304Y22148D01*
G01X42307Y22132D01*
G01X42308Y22123D01*
G01X42309Y22098D01*
G01X42309Y21683D01*
G01X42310Y21668D01*
G01X42313Y21654D01*
G01X42318Y21640D01*
G01X42325Y21628D01*
G01X42334Y21616D01*
G01X42344Y21606D01*
G01X42356Y21597D01*
G01X42368Y21590D01*
G01X42382Y21585D01*
G01X42396Y21582D01*
G01X42411Y21581D01*
G01X55730Y21581D01*
G01X55843Y21583D01*
G01X55920Y21582D01*
G01X55996Y21579D01*
G01X56073Y21574D01*
G01X56150Y21567D01*
G01X56226Y21557D01*
G01X56302Y21546D01*
G01X56377Y21532D01*
G01X56453Y21517D01*
G01X56528Y21499D01*
G01X56602Y21479D01*
G01X56676Y21458D01*
G01X56749Y21434D01*
G01X56821Y21408D01*
G01X56893Y21381D01*
G01X56964Y21351D01*
G01X57034Y21320D01*
G01X57103Y21286D01*
G01X57171Y21251D01*
G01X57239Y21214D01*
G01X57305Y21175D01*
G01X57370Y21135D01*
G01X57434Y21092D01*
G01X57497Y21048D01*
G01X57559Y21002D01*
G01X57619Y20955D01*
G01X57678Y20905D01*
G01X57736Y20855D01*
G01X57792Y20802D01*
G01X57847Y20749D01*
G01X57900Y20693D01*
G01X57952Y20637D01*
G01X58002Y20578D01*
G01X58051Y20519D01*
G01X58098Y20458D01*
G01X58143Y20396D01*
G01X58187Y20333D01*
G01X58229Y20269D01*
G01X58269Y20203D01*
G01X58307Y20137D01*
G01X58344Y20069D01*
G01X58379Y20000D01*
G01X58411Y19931D01*
G01X58442Y19861D01*
G01X58471Y19789D01*
G01X58498Y19717D01*
G01X58523Y19645D01*
G01X58546Y19572D01*
G01X58568Y19498D01*
G01X58587Y19423D01*
G01X58604Y19348D01*
G01X58619Y19273D01*
G01X58631Y19197D01*
G01X58642Y19121D01*
G01X58651Y19045D01*
G01X58658Y18968D01*
G01X58662Y18892D01*
G01X58665Y18815D01*
G01X58665Y18796D01*
G01X58664Y18752D01*
G01X58664Y18743D01*
G01X58665Y18700D01*
G01X58665Y6111D01*
G01X58668Y6064D01*
G01X58673Y6016D01*
G01X58681Y5969D01*
G01X58690Y5923D01*
G01X58701Y5877D01*
G01X58715Y5831D01*
G01X58730Y5786D01*
G01X58747Y5742D01*
G01X58766Y5698D01*
G01X58787Y5656D01*
G01X58810Y5614D01*
G01X58835Y5574D01*
G01X58861Y5534D01*
G01X58889Y5496D01*
G01X58919Y5459D01*
G01X58950Y5423D01*
G01X58983Y5389D01*
G01X59017Y5356D01*
G01X59053Y5325D01*
G01X59090Y5295D01*
G01X59129Y5267D01*
G01X59168Y5241D01*
G01X59209Y5216D01*
G01X59250Y5193D01*
G01X59293Y5172D01*
G01X59336Y5153D01*
G01X59381Y5136D01*
G01X59426Y5120D01*
G01X59471Y5107D01*
G01X59517Y5096D01*
G01X59564Y5087D01*
G01X59611Y5079D01*
G01X59658Y5074D01*
G01X59705Y5071D01*
G01X59753Y5070D01*
G01X59786Y5071D01*
G01X64366Y5071D01*
G01X64414Y5074D01*
G01X64461Y5079D01*
G01X64508Y5086D01*
G01X64555Y5095D01*
G01X64602Y5106D01*
G01X64648Y5119D01*
G01X64693Y5134D01*
G01X64737Y5151D01*
G01X64781Y5170D01*
G01X64824Y5191D01*
G01X64866Y5214D01*
G01X64907Y5238D01*
G01X64946Y5265D01*
G01X64985Y5293D01*
G01X65022Y5323D01*
G01X65058Y5354D01*
G01X65093Y5387D01*
G01X65126Y5421D01*
G01X65158Y5457D01*
G01X65187Y5494D01*
G01X65216Y5532D01*
G01X65242Y5572D01*
G01X65267Y5613D01*
G01X65290Y5654D01*
G01X65311Y5697D01*
G01X65331Y5741D01*
G01X65348Y5785D01*
G01X65363Y5830D01*
G01X65377Y5876D01*
G01X65388Y5922D01*
G01X65397Y5969D01*
G01X65405Y6016D01*
G01X65410Y6064D01*
G01X65413Y6111D01*
G01X65414Y6159D01*
G01X65414Y6192D01*
G01X65413Y6223D01*
G01X65413Y18655D01*
G01X65411Y18759D01*
G01X65412Y18836D01*
G01X65415Y18912D01*
G01X65420Y18989D01*
G01X65427Y19066D01*
G01X65437Y19142D01*
G01X65448Y19218D01*
G01X65462Y19293D01*
G01X65477Y19369D01*
G01X65495Y19444D01*
G01X65515Y19518D01*
G01X65536Y19592D01*
G01X65560Y19665D01*
G01X65586Y19737D01*
G01X65613Y19809D01*
G01X65643Y19880D01*
G01X65674Y19950D01*
G01X65708Y20019D01*
G01X65743Y20087D01*
G01X65780Y20155D01*
G01X65819Y20221D01*
G01X65859Y20286D01*
G01X65902Y20350D01*
G01X65946Y20413D01*
G01X65992Y20475D01*
G01X66040Y20535D01*
G01X66089Y20594D01*
G01X66139Y20652D01*
G01X66192Y20708D01*
G01X66245Y20763D01*
G01X66301Y20816D01*
G01X66357Y20868D01*
G01X66416Y20918D01*
G01X66475Y20967D01*
G01X66536Y21014D01*
G01X66598Y21059D01*
G01X66661Y21103D01*
G01X66725Y21145D01*
G01X66791Y21185D01*
G01X66857Y21223D01*
G01X66925Y21260D01*
G01X66994Y21295D01*
G01X67063Y21327D01*
G01X67133Y21358D01*
G01X67205Y21387D01*
G01X67277Y21414D01*
G01X67349Y21439D01*
G01X67422Y21462D01*
G01X67496Y21484D01*
G01X67571Y21503D01*
G01X67646Y21520D01*
G01X67721Y21535D01*
G01X67797Y21547D01*
G01X67873Y21558D01*
G01X67949Y21567D01*
G01X68026Y21574D01*
G01X68102Y21578D01*
G01X68179Y21581D01*
G01X72886Y21581D01*
G01X72906Y21583D01*
G01X72924Y21588D01*
G01X72949Y21597D01*
G01X72974Y21603D01*
G01X73000Y21607D01*
G01X73026Y21608D01*
G01X76987Y21608D01*
G01X77001Y21609D01*
G01X77016Y21612D01*
G01X77029Y21617D01*
G01X77042Y21624D01*
G01X77053Y21633D01*
G01X77064Y21643D01*
G01X77072Y21655D01*
G01X77079Y21667D01*
G01X77084Y21681D01*
G01X77087Y21695D01*
G01X77089Y21710D01*
G01X77089Y21977D01*
G01X77087Y21992D01*
G01X77084Y22006D01*
G01X77079Y22020D01*
G01X77072Y22032D01*
G01X77064Y22044D01*
G01X77053Y22054D01*
G01X77042Y22063D01*
G01X77029Y22070D01*
G01X77016Y22075D01*
G01X77001Y22078D01*
G01X76987Y22079D01*
G01X76137Y22079D01*
G01X76137Y22669D01*
G01X76987Y22669D01*
G01X77001Y22670D01*
G01X77016Y22673D01*
G01X77029Y22678D01*
G01X77042Y22685D01*
G01X77053Y22694D01*
G01X77064Y22704D01*
G01X77072Y22716D01*
G01X77079Y22728D01*
G01X77084Y22742D01*
G01X77087Y22756D01*
G01X77089Y22771D01*
G01X77089Y23456D01*
G01X77087Y23471D01*
G01X77084Y23485D01*
G01X77079Y23499D01*
G01X77072Y23511D01*
G01X77064Y23523D01*
G01X77053Y23533D01*
G01X77042Y23542D01*
G01X77029Y23549D01*
G01X77016Y23554D01*
G01X77001Y23557D01*
G01X76987Y23558D01*
G01X76137Y23558D01*
G01X76137Y24148D01*
G01X77090Y24148D01*
G01X77118Y24147D01*
G01X77147Y24142D01*
G01X77175Y24135D01*
G01X77190Y24131D01*
G01X77206Y24130D01*
G01X77254Y24130D01*
G01X77268Y24131D01*
G01X77282Y24134D01*
G01X77296Y24139D01*
G01X77309Y24146D01*
G01X77320Y24154D01*
G01X77330Y24165D01*
G01X77339Y24176D01*
G01X77346Y24189D01*
G01X77351Y24203D01*
G01X77359Y24225D01*
G01X77368Y24246D01*
G01X77380Y24267D01*
G01X77393Y24286D01*
G01X77409Y24304D01*
G01X77425Y24321D01*
G01X77444Y24336D01*
G01X77463Y24349D01*
G01X77484Y24361D01*
G01X77505Y24370D01*
G01X77528Y24377D01*
G01X77551Y24383D01*
G01X77574Y24386D01*
G01X77597Y24387D01*
G01X79144Y24387D01*
G01X79159Y24388D01*
G01X79173Y24391D01*
G01X79186Y24396D01*
G01X79199Y24403D01*
G01X79211Y24412D01*
G01X79221Y24422D01*
G01X79230Y24434D01*
G01X79237Y24446D01*
G01X79242Y24460D01*
G01X79245Y24474D01*
G01X79246Y24489D01*
G01X79246Y25298D01*
G01X79245Y25312D01*
G01X79242Y25327D01*
G01X79238Y25336D01*
G01X79242Y25345D01*
G01X79245Y25360D01*
G01X79246Y25374D01*
G01X79246Y26311D01*
G01X79245Y26326D01*
G01X79242Y26340D01*
G01X79237Y26354D01*
G01X79230Y26366D01*
G01X79221Y26378D01*
G01X79211Y26388D01*
G01X79199Y26397D01*
G01X79186Y26404D01*
G01X79173Y26409D01*
G01X79159Y26412D01*
G01X79144Y26413D01*
G01X45974Y26413D01*
G01X45950Y26414D01*
G01X45927Y26417D01*
G01X45905Y26422D01*
G01X45883Y26430D01*
G01X45861Y26439D01*
G01X45841Y26450D01*
G01X45822Y26463D01*
G01X43917Y27860D01*
G01X43898Y27875D01*
G01X43881Y27892D01*
G01X43865Y27910D01*
G01X43852Y27930D01*
G01X43840Y27951D01*
G01X43830Y27972D01*
G01X43822Y27995D01*
G01X43816Y28019D01*
G01X43813Y28042D01*
G01X43812Y28067D01*
G01X43812Y38588D01*
G01X43811Y38603D01*
G01X43808Y38617D01*
G01X43803Y38631D01*
G01X43795Y38644D01*
G01X43786Y38655D01*
G01X43776Y38666D01*
G01X43758Y38682D01*
G01X43741Y38701D01*
G01X43727Y38721D01*
G01X43714Y38742D01*
G01X43704Y38765D01*
G01X43696Y38788D01*
G01X43690Y38812D01*
G01X43686Y38837D01*
G01X43685Y38862D01*
G01X43685Y38992D01*
G01X43684Y39007D01*
G01X43681Y39021D01*
G01X43676Y39034D01*
G01X43669Y39047D01*
G01X43660Y39059D01*
G01X43650Y39069D01*
G01X43638Y39078D01*
G01X43626Y39085D01*
G01X43612Y39090D01*
G01X43598Y39093D01*
G01X43583Y39094D01*
G01X43366Y39094D01*
G01X43341Y39095D01*
G01X43317Y39098D01*
G01X43293Y39104D01*
G01X43270Y39112D01*
G01X43248Y39122D01*
G01X43227Y39134D01*
G01X43207Y39149D01*
G01X43189Y39165D01*
G01X43172Y39182D01*
G01X43157Y39201D01*
G01X43146Y39214D01*
G01X43134Y39224D01*
G01X43120Y39233D01*
G01X43106Y39239D01*
G01X43090Y39243D01*
G01X43074Y39244D01*
G01X42796Y39244D01*
G01X42781Y39243D01*
G01X42765Y39239D01*
G01X42750Y39233D01*
G01X42737Y39225D01*
G01X42725Y39214D01*
G01X40745Y37235D01*
G01X40721Y37212D01*
G01X40695Y37191D01*
G01X40668Y37172D01*
G01X40640Y37154D01*
G01X40611Y37138D01*
G01X40581Y37125D01*
G01X40550Y37113D01*
G01X40518Y37103D01*
G01X40486Y37096D01*
G01X40453Y37091D01*
G01X40420Y37087D01*
G01X40387Y37086D01*
G01X29877Y37086D01*
G01X29845Y37085D01*
G01X28463Y37085D01*
G01X28448Y37084D01*
G01X28433Y37080D01*
G01X28419Y37075D01*
G01X28406Y37067D01*
G01X28394Y37058D01*
G01X28384Y37047D01*
G01X28375Y37034D01*
G01X28368Y37021D01*
G01X28364Y37006D01*
G01X28362Y36991D01*
G01X28359Y36968D01*
G01X28353Y36944D01*
G01X28346Y36922D01*
G01X28337Y36900D01*
G01X28325Y36879D01*
G01X28312Y36859D01*
G01X28297Y36840D01*
G01X28280Y36823D01*
G01X28262Y36808D01*
G01X28242Y36794D01*
G01X28221Y36782D01*
G01X28199Y36773D01*
G01X28177Y36765D01*
G01X28153Y36760D01*
G01X28130Y36756D01*
G01X28106Y36755D01*
G01X27979Y36755D01*
G01X27964Y36754D01*
G01X27950Y36751D01*
G01X27936Y36746D01*
G01X27924Y36739D01*
G01X27912Y36730D01*
G01X27902Y36720D01*
G01X27893Y36708D01*
G01X27886Y36696D01*
G01X27881Y36682D01*
G01X27878Y36668D01*
G01X27877Y36653D01*
G01X27877Y34163D01*
G01X27876Y34129D01*
G01X27873Y34096D01*
G01X27867Y34064D01*
G01X27860Y34031D01*
G01X27850Y34000D01*
G01X27838Y33969D01*
G01X27825Y33938D01*
G01X27809Y33909D01*
G01X27792Y33881D01*
G01X27772Y33854D01*
G01X27751Y33829D01*
G01X27729Y33804D01*
G01X26865Y32941D01*
G01X26841Y32918D01*
G01X26815Y32897D01*
G01X26788Y32878D01*
G01X26760Y32860D01*
G01X26731Y32845D01*
G01X26701Y32831D01*
G01X26670Y32819D01*
G01X26638Y32810D01*
G01X26606Y32802D01*
G01X26573Y32797D01*
G01X26540Y32793D01*
G01X26507Y32792D01*
G01X26049Y32792D01*
G01X26034Y32791D01*
G01X26019Y32788D01*
G01X26005Y32782D01*
G01X25992Y32775D01*
G01X25980Y32765D01*
G01X25970Y32754D01*
G01X25961Y32742D01*
G01X25954Y32728D01*
G01X25950Y32714D01*
G01X25948Y32699D01*
G01X25945Y32675D01*
G01X25939Y32652D01*
G01X25932Y32629D01*
G01X25923Y32607D01*
G01X25911Y32586D01*
G01X25898Y32566D01*
G01X25883Y32548D01*
G01X25866Y32531D01*
G01X25848Y32515D01*
G01X25828Y32502D01*
G01X25807Y32490D01*
G01X25785Y32480D01*
G01X25763Y32472D01*
G01X25739Y32467D01*
G01X25716Y32464D01*
G01X25692Y32462D01*
G01X24222Y32462D01*
G01X24198Y32464D01*
G01X24174Y32467D01*
G01X24151Y32472D01*
G01X24129Y32480D01*
G01X24107Y32490D01*
G01X24086Y32502D01*
G01X24066Y32515D01*
G01X24048Y32531D01*
G01X24031Y32548D01*
G01X24016Y32566D01*
G01X24003Y32586D01*
G01X23991Y32607D01*
G01X23982Y32629D01*
G01X23974Y32652D01*
G01X23969Y32675D01*
G01X23966Y32699D01*
G01X23964Y32714D01*
G01X23959Y32728D01*
G01X23953Y32742D01*
G01X23944Y32754D01*
G01X23934Y32765D01*
G01X23922Y32775D01*
G01X23909Y32782D01*
G01X23895Y32788D01*
G01X23880Y32791D01*
G01X23865Y32792D01*
G01X23405Y32792D01*
G01X23386Y32791D01*
G01X23344Y32777D01*
G01X23321Y32771D01*
G01X23297Y32768D01*
G01X23272Y32767D01*
G01X22272Y32767D01*
G01X22248Y32768D01*
G01X22224Y32771D01*
G01X22200Y32777D01*
G01X22177Y32785D01*
G01X22158Y32791D01*
G01X22139Y32792D01*
G01X21884Y32792D01*
G01X21851Y32793D01*
G01X21818Y32797D01*
G01X21785Y32802D01*
G01X21753Y32810D01*
G01X21721Y32819D01*
G01X21690Y32831D01*
G01X21660Y32845D01*
G01X21631Y32860D01*
G01X21603Y32878D01*
G01X21576Y32897D01*
G01X21550Y32918D01*
G01X21526Y32941D01*
G01X21297Y33169D01*
G01X21275Y33194D01*
G01X21254Y33219D01*
G01X21234Y33246D01*
G01X21217Y33274D01*
G01X21201Y33303D01*
G01X21188Y33334D01*
G01X21176Y33365D01*
G01X21166Y33396D01*
G01X21159Y33429D01*
G01X21153Y33461D01*
G01X21150Y33494D01*
G01X21149Y33528D01*
G01X21149Y34925D01*
G01X21150Y34958D01*
G01X21153Y34991D01*
G01X21159Y35023D01*
G01X21166Y35056D01*
G01X21176Y35087D01*
G01X21188Y35118D01*
G01X21201Y35149D01*
G01X21217Y35178D01*
G01X21234Y35206D01*
G01X21254Y35233D01*
G01X21275Y35258D01*
G01X21297Y35283D01*
G01X21551Y35537D01*
G01X21576Y35559D01*
G01X21601Y35580D01*
G01X21628Y35600D01*
G01X21656Y35617D01*
G01X21685Y35633D01*
G01X21716Y35646D01*
G01X21747Y35658D01*
G01X21778Y35668D01*
G01X21811Y35675D01*
G01X21843Y35681D01*
G01X21876Y35684D01*
G01X21910Y35685D01*
G01X22139Y35685D01*
G01X22159Y35687D01*
G01X22177Y35692D01*
G01X22200Y35700D01*
G01X22224Y35706D01*
G01X22248Y35709D01*
G01X22272Y35711D01*
G01X23272Y35711D01*
G01X23296Y35709D01*
G01X23319Y35706D01*
G01X23342Y35701D01*
G01X23365Y35693D01*
G01X23386Y35684D01*
G01X23407Y35672D01*
G01X23427Y35659D01*
G01X23445Y35644D01*
G01X23462Y35627D01*
G01X23477Y35609D01*
G01X23490Y35589D01*
G01X23502Y35568D01*
G01X23511Y35547D01*
G01X23519Y35524D01*
G01X23524Y35501D01*
G01X23528Y35478D01*
G01X23529Y35454D01*
G01X23529Y34903D01*
G01X23528Y34879D01*
G01X23526Y34871D01*
G01X23524Y34855D01*
G01X23522Y34844D01*
G01X23519Y34832D01*
G01X23515Y34821D01*
G01X23511Y34809D01*
G01X23506Y34799D01*
G01X23501Y34787D01*
G01X23496Y34777D01*
G01X23489Y34766D01*
G01X23477Y34748D01*
G01X23462Y34730D01*
G01X23445Y34713D01*
G01X23427Y34698D01*
G01X23407Y34685D01*
G01X23386Y34673D01*
G01X23365Y34664D01*
G01X23342Y34656D01*
G01X23319Y34651D01*
G01X23296Y34647D01*
G01X23272Y34646D01*
G01X22265Y34646D01*
G01X22251Y34645D01*
G01X22236Y34642D01*
G01X22223Y34637D01*
G01X22210Y34630D01*
G01X22199Y34622D01*
G01X22188Y34611D01*
G01X22180Y34600D01*
G01X22173Y34587D01*
G01X22168Y34573D01*
G01X22165Y34559D01*
G01X22164Y34545D01*
G01X22164Y34355D01*
G01X22163Y34353D01*
G01X22162Y34338D01*
G01X22162Y34139D01*
G01X22163Y34124D01*
G01X22164Y34122D01*
G01X22164Y33932D01*
G01X22165Y33918D01*
G01X22168Y33904D01*
G01X22173Y33890D01*
G01X22180Y33878D01*
G01X22188Y33866D01*
G01X22199Y33856D01*
G01X22210Y33847D01*
G01X22223Y33840D01*
G01X22236Y33835D01*
G01X22251Y33832D01*
G01X22265Y33831D01*
G01X23272Y33831D01*
G01X23296Y33830D01*
G01X23320Y33826D01*
G01X23344Y33821D01*
G01X23367Y33813D01*
G01X23386Y33807D01*
G01X23405Y33805D01*
G01X23865Y33805D01*
G01X23880Y33807D01*
G01X23895Y33810D01*
G01X23909Y33815D01*
G01X23922Y33823D01*
G01X23934Y33832D01*
G01X23944Y33844D01*
G01X23953Y33856D01*
G01X23959Y33870D01*
G01X23964Y33884D01*
G01X23966Y33899D01*
G01X23969Y33923D01*
G01X23974Y33946D01*
G01X23982Y33969D01*
G01X23991Y33991D01*
G01X24003Y34012D01*
G01X24016Y34032D01*
G01X24031Y34050D01*
G01X24048Y34067D01*
G01X24066Y34083D01*
G01X24086Y34096D01*
G01X24107Y34108D01*
G01X24128Y34118D01*
G01X24151Y34126D01*
G01X24174Y34131D01*
G01X24198Y34134D01*
G01X24222Y34136D01*
G01X25692Y34136D01*
G01X25716Y34134D01*
G01X25739Y34131D01*
G01X25763Y34126D01*
G01X25785Y34118D01*
G01X25807Y34108D01*
G01X25828Y34096D01*
G01X25848Y34083D01*
G01X25866Y34067D01*
G01X25883Y34050D01*
G01X25898Y34032D01*
G01X25911Y34012D01*
G01X25923Y33991D01*
G01X25932Y33969D01*
G01X25939Y33946D01*
G01X25945Y33923D01*
G01X25948Y33899D01*
G01X25950Y33884D01*
G01X25954Y33870D01*
G01X25961Y33856D01*
G01X25970Y33844D01*
G01X25980Y33832D01*
G01X25992Y33823D01*
G01X26005Y33815D01*
G01X26019Y33810D01*
G01X26034Y33807D01*
G01X26049Y33805D01*
G01X26255Y33805D01*
G01X26271Y33807D01*
G01X26286Y33810D01*
G01X26301Y33817D01*
G01X26315Y33825D01*
G01X26327Y33835D01*
G01X26834Y34343D01*
G01X26845Y34355D01*
G01X26853Y34368D01*
G01X26859Y34383D01*
G01X26863Y34399D01*
G01X26864Y34414D01*
G01X26864Y36653D01*
G01X26863Y36668D01*
G01X26860Y36682D01*
G01X26855Y36696D01*
G01X26848Y36708D01*
G01X26839Y36720D01*
G01X26829Y36730D01*
G01X26817Y36739D01*
G01X26805Y36746D01*
G01X26791Y36751D01*
G01X26777Y36754D01*
G01X26762Y36755D01*
G01X26636Y36755D01*
G01X26612Y36756D01*
G01X26588Y36760D01*
G01X26565Y36765D01*
G01X26543Y36773D01*
G01X26521Y36782D01*
G01X26500Y36794D01*
G01X26480Y36808D01*
G01X26462Y36823D01*
G01X26445Y36840D01*
G01X26430Y36859D01*
G01X26417Y36879D01*
G01X26405Y36900D01*
G01X26396Y36922D01*
G01X26388Y36944D01*
G01X26383Y36968D01*
G01X26380Y36991D01*
G01X26378Y37006D01*
G01X26373Y37021D01*
G01X26367Y37034D01*
G01X26358Y37047D01*
G01X26348Y37058D01*
G01X26336Y37067D01*
G01X26323Y37075D01*
G01X26309Y37080D01*
G01X26294Y37084D01*
G01X26279Y37085D01*
G01X26049Y37085D01*
G01X26034Y37084D01*
G01X26019Y37080D01*
G01X26005Y37075D01*
G01X25992Y37067D01*
G01X25980Y37058D01*
G01X25970Y37047D01*
G01X25961Y37034D01*
G01X25955Y37021D01*
G01X25950Y37006D01*
G01X25948Y36991D01*
G01X25945Y36968D01*
G01X25940Y36944D01*
G01X25932Y36922D01*
G01X25923Y36900D01*
G01X25911Y36879D01*
G01X25898Y36859D01*
G01X25883Y36840D01*
G01X25866Y36823D01*
G01X25848Y36808D01*
G01X25828Y36794D01*
G01X25807Y36782D01*
G01X25786Y36773D01*
G01X25763Y36765D01*
G01X25740Y36760D01*
G01X25716Y36756D01*
G01X25692Y36755D01*
G01X24222Y36755D01*
G01X24198Y36756D01*
G01X24175Y36760D01*
G01X24151Y36765D01*
G01X24129Y36773D01*
G01X24107Y36782D01*
G01X24086Y36794D01*
G01X24066Y36808D01*
G01X24048Y36823D01*
G01X24031Y36840D01*
G01X24016Y36859D01*
G01X24003Y36879D01*
G01X23991Y36900D01*
G01X23982Y36922D01*
G01X23975Y36944D01*
G01X23969Y36968D01*
G01X23967Y36991D01*
G01X23964Y37006D01*
G01X23960Y37021D01*
G01X23953Y37034D01*
G01X23944Y37047D01*
G01X23934Y37058D01*
G01X23922Y37067D01*
G01X23909Y37075D01*
G01X23895Y37080D01*
G01X23880Y37084D01*
G01X23865Y37085D01*
G01X23406Y37085D01*
G01X23386Y37083D01*
G01X23368Y37078D01*
G01X23345Y37070D01*
G01X23321Y37064D01*
G01X23297Y37060D01*
G01X23272Y37059D01*
G01X22272Y37059D01*
G01X22248Y37060D01*
G01X22224Y37064D01*
G01X22200Y37070D01*
G01X22177Y37078D01*
G01X22158Y37083D01*
G01X22139Y37085D01*
G01X21909Y37085D01*
G01X21876Y37086D01*
G01X21843Y37089D01*
G01X21810Y37095D01*
G01X21778Y37102D01*
G01X21746Y37112D01*
G01X21715Y37124D01*
G01X21685Y37137D01*
G01X21656Y37153D01*
G01X21627Y37170D01*
G01X21600Y37190D01*
G01X21575Y37211D01*
G01X21551Y37233D01*
G01X21297Y37487D01*
G01X21274Y37512D01*
G01X21253Y37537D01*
G01X21234Y37564D01*
G01X21216Y37592D01*
G01X21200Y37621D01*
G01X21187Y37652D01*
G01X21175Y37683D01*
G01X21165Y37714D01*
G01X21158Y37747D01*
G01X21153Y37779D01*
G01X21149Y37812D01*
G01X21148Y37846D01*
G01X21148Y39243D01*
G01X21149Y39276D01*
G01X21153Y39309D01*
G01X21158Y39341D01*
G01X21165Y39374D01*
G01X21175Y39405D01*
G01X21187Y39436D01*
G01X21200Y39467D01*
G01X21216Y39496D01*
G01X21234Y39524D01*
G01X21253Y39551D01*
G01X21274Y39576D01*
G01X21297Y39601D01*
G01X21525Y39829D01*
G01X21549Y39852D01*
G01X21575Y39873D01*
G01X21602Y39892D01*
G01X21630Y39910D01*
G01X21659Y39925D01*
G01X21690Y39939D01*
G01X21721Y39951D01*
G01X21752Y39960D01*
G01X21785Y39968D01*
G01X21817Y39973D01*
G01X21850Y39977D01*
G01X21883Y39978D01*
G01X22140Y39978D01*
G01X22159Y39979D01*
G01X22177Y39985D01*
G01X22200Y39993D01*
G01X22224Y39999D01*
G01X22248Y40002D01*
G01X22272Y40003D01*
G01X23272Y40003D01*
G01X23296Y40002D01*
G01X23320Y39999D01*
G01X23343Y39993D01*
G01X23365Y39986D01*
G01X23387Y39976D01*
G01X23407Y39965D01*
G01X23427Y39951D01*
G01X23445Y39936D01*
G01X23462Y39919D01*
G01X23477Y39901D01*
G01X23490Y39882D01*
G01X23502Y39861D01*
G01X23512Y39839D01*
G01X23519Y39817D01*
G01X23525Y39794D01*
G01X23528Y39770D01*
G01X23529Y39747D01*
G01X23529Y39195D01*
G01X23528Y39171D01*
G01X23527Y39163D01*
G01X23524Y39147D01*
G01X23522Y39137D01*
G01X23519Y39124D01*
G01X23515Y39113D01*
G01X23511Y39101D01*
G01X23507Y39092D01*
G01X23501Y39079D01*
G01X23496Y39070D01*
G01X23489Y39058D01*
G01X23477Y39041D01*
G01X23462Y39023D01*
G01X23445Y39006D01*
G01X23427Y38991D01*
G01X23407Y38977D01*
G01X23387Y38966D01*
G01X23365Y38956D01*
G01X23343Y38949D01*
G01X23320Y38943D01*
G01X23296Y38940D01*
G01X23272Y38939D01*
G01X22265Y38939D01*
G01X22251Y38938D01*
G01X22236Y38935D01*
G01X22223Y38930D01*
G01X22210Y38923D01*
G01X22199Y38914D01*
G01X22188Y38904D01*
G01X22180Y38892D01*
G01X22173Y38880D01*
G01X22168Y38866D01*
G01X22165Y38852D01*
G01X22164Y38837D01*
G01X22164Y38651D01*
G01X22162Y38645D01*
G01X22161Y38631D01*
G01X22161Y38431D01*
G01X22162Y38417D01*
G01X22164Y38412D01*
G01X22164Y38225D01*
G01X22165Y38211D01*
G01X22168Y38196D01*
G01X22173Y38183D01*
G01X22180Y38170D01*
G01X22188Y38159D01*
G01X22199Y38148D01*
G01X22210Y38140D01*
G01X22223Y38133D01*
G01X22236Y38128D01*
G01X22251Y38124D01*
G01X22265Y38123D01*
G01X22267Y38123D01*
G01X22272Y38124D01*
G01X23272Y38124D01*
G01X23296Y38122D01*
G01X23319Y38119D01*
G01X23342Y38114D01*
G01X23365Y38106D01*
G01X23383Y38101D01*
G01X23401Y38100D01*
G01X23610Y38100D01*
G01X23612Y38099D01*
G01X23626Y38098D01*
G01X23865Y38098D01*
G01X23880Y38099D01*
G01X23895Y38103D01*
G01X23909Y38108D01*
G01X23922Y38116D01*
G01X23934Y38125D01*
G01X23944Y38136D01*
G01X23953Y38149D01*
G01X23960Y38162D01*
G01X23964Y38177D01*
G01X23966Y38192D01*
G01X23969Y38215D01*
G01X23975Y38239D01*
G01X23982Y38262D01*
G01X23991Y38284D01*
G01X24003Y38305D01*
G01X24016Y38324D01*
G01X24031Y38343D01*
G01X24048Y38360D01*
G01X24066Y38375D01*
G01X24086Y38389D01*
G01X24107Y38401D01*
G01X24129Y38411D01*
G01X24151Y38418D01*
G01X24175Y38424D01*
G01X24198Y38427D01*
G01X24222Y38428D01*
G01X25692Y38428D01*
G01X25716Y38427D01*
G01X25740Y38424D01*
G01X25763Y38418D01*
G01X25786Y38411D01*
G01X25808Y38401D01*
G01X25828Y38389D01*
G01X25848Y38375D01*
G01X25866Y38360D01*
G01X25883Y38343D01*
G01X25898Y38324D01*
G01X25912Y38305D01*
G01X25923Y38284D01*
G01X25932Y38262D01*
G01X25940Y38239D01*
G01X25945Y38215D01*
G01X25948Y38192D01*
G01X25950Y38177D01*
G01X25955Y38162D01*
G01X25961Y38149D01*
G01X25970Y38136D01*
G01X25980Y38125D01*
G01X25992Y38116D01*
G01X26005Y38108D01*
G01X26019Y38103D01*
G01X26034Y38099D01*
G01X26049Y38098D01*
G01X26279Y38098D01*
G01X26294Y38099D01*
G01X26309Y38103D01*
G01X26323Y38108D01*
G01X26336Y38116D01*
G01X26348Y38125D01*
G01X26358Y38136D01*
G01X26367Y38149D01*
G01X26373Y38162D01*
G01X26378Y38177D01*
G01X26380Y38192D01*
G01X26383Y38215D01*
G01X26388Y38239D01*
G01X26396Y38262D01*
G01X26405Y38284D01*
G01X26417Y38305D01*
G01X26430Y38324D01*
G01X26445Y38343D01*
G01X26462Y38360D01*
G01X26480Y38375D01*
G01X26500Y38389D01*
G01X26521Y38401D01*
G01X26542Y38411D01*
G01X26565Y38418D01*
G01X26588Y38424D01*
G01X26612Y38427D01*
G01X26636Y38428D01*
G01X28106Y38428D01*
G01X28130Y38427D01*
G01X28153Y38424D01*
G01X28177Y38418D01*
G01X28199Y38411D01*
G01X28221Y38401D01*
G01X28242Y38389D01*
G01X28262Y38375D01*
G01X28280Y38360D01*
G01X28297Y38343D01*
G01X28312Y38324D01*
G01X28325Y38305D01*
G01X28337Y38284D01*
G01X28346Y38262D01*
G01X28353Y38239D01*
G01X28359Y38215D01*
G01X28362Y38192D01*
G01X28364Y38177D01*
G01X28368Y38162D01*
G01X28375Y38149D01*
G01X28384Y38136D01*
G01X28394Y38125D01*
G01X28406Y38116D01*
G01X28419Y38108D01*
G01X28433Y38103D01*
G01X28448Y38099D01*
G01X28463Y38098D01*
G01X29813Y38098D01*
G01X29846Y38099D01*
G01X31799Y38099D01*
G01X31814Y38100D01*
G01X31828Y38103D01*
G01X31842Y38108D01*
G01X31854Y38115D01*
G01X31866Y38124D01*
G01X31876Y38134D01*
G01X31885Y38146D01*
G01X31892Y38159D01*
G01X31897Y38172D01*
G01X31900Y38186D01*
G01X31901Y38201D01*
G01X31901Y40894D01*
G01X31902Y40912D01*
G01X31902Y41060D01*
G01X31903Y41084D01*
G01X31906Y41107D01*
G01X31912Y41130D01*
G01X31919Y41153D01*
G01X31929Y41174D01*
G01X31940Y41195D01*
G01X31954Y41214D01*
G01X31969Y41233D01*
G01X31986Y41249D01*
G01X32004Y41265D01*
G01X32023Y41278D01*
G01X32044Y41290D01*
G01X32066Y41299D01*
G01X32088Y41307D01*
G01X32111Y41312D01*
G01X32135Y41315D01*
G01X32158Y41316D01*
G01X33627Y41316D01*
G01X33650Y41315D01*
G01X33674Y41312D01*
G01X33697Y41306D01*
G01X33720Y41299D01*
G01X33742Y41289D01*
G01X33763Y41277D01*
G01X33782Y41264D01*
G01X33801Y41248D01*
G01X33818Y41231D01*
G01X33833Y41213D01*
G01X33846Y41193D01*
G01X33857Y41172D01*
G01X33867Y41150D01*
G01X33874Y41127D01*
G01X33879Y41104D01*
G01X33882Y41080D01*
G01X33885Y41065D01*
G01X33889Y41050D01*
G01X33896Y41037D01*
G01X33904Y41024D01*
G01X33915Y41013D01*
G01X33926Y41004D01*
G01X33940Y40996D01*
G01X33954Y40991D01*
G01X33968Y40987D01*
G01X33984Y40986D01*
G01X34249Y40986D01*
G01X34263Y40987D01*
G01X34277Y40990D01*
G01X34291Y40995D01*
G01X34303Y41002D01*
G01X34315Y41011D01*
G01X34325Y41021D01*
G01X34334Y41033D01*
G01X34341Y41045D01*
G01X34346Y41059D01*
G01X34349Y41073D01*
G01X34350Y41088D01*
G01X34350Y41130D01*
G01X34351Y41154D01*
G01X34354Y41177D01*
G01X34360Y41200D01*
G01X34367Y41223D01*
G01X34377Y41244D01*
G01X34389Y41265D01*
G01X34402Y41285D01*
G01X34417Y41303D01*
G01X34434Y41320D01*
G01X34452Y41335D01*
G01X34472Y41348D01*
G01X34492Y41360D01*
G01X34514Y41369D01*
G01X34536Y41377D01*
G01X34560Y41382D01*
G01X34583Y41386D01*
G01X34607Y41387D01*
G01X36006Y41387D01*
G01X36030Y41386D01*
G01X36054Y41382D01*
G01X36077Y41377D01*
G01X36100Y41369D01*
G01X36122Y41359D01*
G01X36142Y41348D01*
G01X36162Y41334D01*
G01X36180Y41319D01*
G01X36197Y41302D01*
G01X36212Y41283D01*
G01X36226Y41263D01*
G01X36237Y41242D01*
G01X36246Y41220D01*
G01X36253Y41206D01*
G01X36261Y41193D01*
G01X36272Y41182D01*
G01X36284Y41172D01*
G01X36297Y41165D01*
G01X36311Y41159D01*
G01X36326Y41155D01*
G01X36342Y41154D01*
G01X36358Y41156D01*
G01X36373Y41159D01*
G01X36388Y41166D01*
G01X36402Y41174D01*
G01X36428Y41192D01*
G01X36456Y41209D01*
G01X36485Y41224D01*
G01X36514Y41237D01*
G01X36544Y41248D01*
G01X36575Y41257D01*
G01X36607Y41264D01*
G01X36638Y41269D01*
G01X36670Y41272D01*
G01X36703Y41273D01*
G01X36998Y41273D01*
G01X37014Y41274D01*
G01X37029Y41278D01*
G01X37043Y41283D01*
G01X37056Y41291D01*
G01X37068Y41301D01*
G01X37079Y41313D01*
G01X37087Y41326D01*
G01X37112Y41368D01*
G01X37138Y41410D01*
G01X37167Y41450D01*
G01X37197Y41489D01*
G01X37228Y41527D01*
G01X37262Y41564D01*
G01X37296Y41599D01*
G01X37332Y41632D01*
G01X37370Y41664D01*
G01X37409Y41694D01*
G01X37449Y41723D01*
G01X37491Y41750D01*
G01X37533Y41775D01*
G01X37577Y41798D01*
G01X37621Y41819D01*
G01X37666Y41839D01*
G01X37712Y41856D01*
G01X37759Y41872D01*
G01X37807Y41885D01*
G01X37855Y41897D01*
G01X37903Y41906D01*
G01X37952Y41914D01*
G01X38001Y41919D01*
G01X38050Y41922D01*
G01X38100Y41923D01*
G01X38149Y41922D01*
G01X38198Y41919D01*
G01X38246Y41914D01*
G01X38295Y41906D01*
G01X38343Y41897D01*
G01X38391Y41886D01*
G01X38438Y41872D01*
G01X38485Y41857D01*
G01X38531Y41840D01*
G01X38576Y41820D01*
G01X38620Y41799D01*
G01X38664Y41776D01*
G01X38706Y41751D01*
G01X38747Y41725D01*
G01X38787Y41696D01*
G01X38826Y41666D01*
G01X38864Y41635D01*
G01X38900Y41601D01*
G01X38934Y41567D01*
G01X38968Y41531D01*
G01X38999Y41493D01*
G01X39029Y41454D01*
G01X39058Y41414D01*
G01X39084Y41373D01*
G01X39109Y41331D01*
G01X39132Y41287D01*
G01X39153Y41243D01*
G01X39173Y41198D01*
G01X39190Y41152D01*
G01X39205Y41105D01*
G01X39219Y41058D01*
G01X39230Y41010D01*
G01X39239Y40962D01*
G01X39247Y40913D01*
G01X39252Y40865D01*
G01X39255Y40816D01*
G01X39256Y40767D01*
G01X39255Y40717D01*
G01X39252Y40668D01*
G01X39247Y40620D01*
G01X39239Y40571D01*
G01X39230Y40523D01*
G01X39219Y40475D01*
G01X39205Y40428D01*
G01X39190Y40381D01*
G01X39173Y40335D01*
G01X39153Y40290D01*
G01X39132Y40246D01*
G01X39109Y40202D01*
G01X39084Y40160D01*
G01X39058Y40119D01*
G01X39029Y40079D01*
G01X38999Y40040D01*
G01X38968Y40002D01*
G01X38934Y39966D01*
G01X38900Y39932D01*
G01X38864Y39898D01*
G01X38826Y39867D01*
G01X38787Y39837D01*
G01X38747Y39808D01*
G01X38706Y39782D01*
G01X38664Y39757D01*
G01X38620Y39734D01*
G01X38576Y39713D01*
G01X38531Y39693D01*
G01X38485Y39676D01*
G01X38438Y39661D01*
G01X38391Y39647D01*
G01X38343Y39636D01*
G01X38295Y39627D01*
G01X38246Y39619D01*
G01X38198Y39614D01*
G01X38149Y39611D01*
G01X38100Y39610D01*
G01X38050Y39611D01*
G01X38001Y39614D01*
G01X37952Y39619D01*
G01X37903Y39627D01*
G01X37855Y39636D01*
G01X37807Y39648D01*
G01X37759Y39661D01*
G01X37712Y39677D01*
G01X37666Y39694D01*
G01X37621Y39714D01*
G01X37577Y39735D01*
G01X37533Y39758D01*
G01X37491Y39783D01*
G01X37449Y39810D01*
G01X37409Y39839D01*
G01X37370Y39869D01*
G01X37332Y39901D01*
G01X37296Y39934D01*
G01X37262Y39969D01*
G01X37228Y40006D01*
G01X37197Y40044D01*
G01X37167Y40083D01*
G01X37138Y40123D01*
G01X37112Y40165D01*
G01X37087Y40207D01*
G01X37079Y40220D01*
G01X37068Y40232D01*
G01X37056Y40242D01*
G01X37043Y40250D01*
G01X37029Y40255D01*
G01X37014Y40259D01*
G01X36998Y40260D01*
G01X36954Y40260D01*
G01X36939Y40259D01*
G01X36923Y40255D01*
G01X36908Y40249D01*
G01X36895Y40241D01*
G01X36883Y40230D01*
G01X36774Y40121D01*
G01X36749Y40099D01*
G01X36724Y40078D01*
G01X36697Y40058D01*
G01X36669Y40041D01*
G01X36640Y40025D01*
G01X36609Y40012D01*
G01X36578Y40000D01*
G01X36547Y39990D01*
G01X36514Y39983D01*
G01X36482Y39977D01*
G01X36449Y39974D01*
G01X36415Y39973D01*
G01X36364Y39973D01*
G01X36350Y39972D01*
G01X36336Y39969D01*
G01X36322Y39964D01*
G01X36309Y39957D01*
G01X36298Y39948D01*
G01X36288Y39938D01*
G01X36279Y39926D01*
G01X36272Y39914D01*
G01X36267Y39900D01*
G01X36264Y39886D01*
G01X36263Y39871D01*
G01X36263Y39830D01*
G01X36262Y39806D01*
G01X36258Y39782D01*
G01X36253Y39759D01*
G01X36245Y39737D01*
G01X36236Y39715D01*
G01X36224Y39695D01*
G01X36211Y39675D01*
G01X36196Y39657D01*
G01X36179Y39640D01*
G01X36161Y39625D01*
G01X36141Y39612D01*
G01X36121Y39600D01*
G01X36099Y39590D01*
G01X36076Y39583D01*
G01X36053Y39577D01*
G01X36030Y39574D01*
G01X36006Y39573D01*
G01X34607Y39573D01*
G01X34583Y39574D01*
G01X34560Y39577D01*
G01X34536Y39583D01*
G01X34514Y39590D01*
G01X34492Y39600D01*
G01X34472Y39612D01*
G01X34452Y39625D01*
G01X34434Y39640D01*
G01X34417Y39657D01*
G01X34402Y39675D01*
G01X34389Y39695D01*
G01X34377Y39715D01*
G01X34367Y39737D01*
G01X34360Y39759D01*
G01X34354Y39782D01*
G01X34351Y39806D01*
G01X34350Y39830D01*
G01X34350Y39871D01*
G01X34349Y39886D01*
G01X34346Y39900D01*
G01X34341Y39914D01*
G01X34334Y39926D01*
G01X34325Y39938D01*
G01X34315Y39948D01*
G01X34303Y39957D01*
G01X34291Y39964D01*
G01X34277Y39969D01*
G01X34263Y39972D01*
G01X34249Y39973D01*
G01X33986Y39973D01*
G01X33971Y39972D01*
G01X33957Y39969D01*
G01X33943Y39964D01*
G01X33931Y39957D01*
G01X33919Y39948D01*
G01X33909Y39938D01*
G01X33900Y39926D01*
G01X33893Y39914D01*
G01X33888Y39900D01*
G01X33885Y39886D01*
G01X33884Y39871D01*
G01X33884Y38201D01*
G01X33885Y38186D01*
G01X33888Y38172D01*
G01X33893Y38159D01*
G01X33900Y38146D01*
G01X33909Y38134D01*
G01X33919Y38124D01*
G01X33931Y38115D01*
G01X33943Y38108D01*
G01X33957Y38103D01*
G01X33971Y38100D01*
G01X33986Y38099D01*
G01X40135Y38099D01*
G01X40151Y38101D01*
G01X40166Y38104D01*
G01X40181Y38110D01*
G01X40195Y38119D01*
G01X40207Y38129D01*
G01X42186Y40109D01*
G01X42211Y40131D01*
G01X42236Y40152D01*
G01X42263Y40172D01*
G01X42291Y40189D01*
G01X42320Y40205D01*
G01X42351Y40218D01*
G01X42382Y40230D01*
G01X42413Y40240D01*
G01X42446Y40247D01*
G01X42478Y40253D01*
G01X42511Y40256D01*
G01X42545Y40257D01*
G01X43074Y40257D01*
G01X43090Y40258D01*
G01X43106Y40262D01*
G01X43121Y40268D01*
G01X43134Y40277D01*
G01X43146Y40287D01*
G01X43157Y40300D01*
G01X43172Y40319D01*
G01X43189Y40336D01*
G01X43207Y40352D01*
G01X43227Y40366D01*
G01X43248Y40378D01*
G01X43270Y40389D01*
G01X43293Y40396D01*
G01X43317Y40402D01*
G01X43341Y40406D01*
G01X43366Y40407D01*
G01X43583Y40407D01*
G01X43598Y40408D01*
G01X43612Y40411D01*
G01X43626Y40416D01*
G01X43638Y40423D01*
G01X43650Y40432D01*
G01X43660Y40442D01*
G01X43669Y40453D01*
G01X43676Y40466D01*
G01X43681Y40480D01*
G01X43684Y40494D01*
G01X43685Y40508D01*
G01X43685Y40640D01*
G01X43686Y40663D01*
G01X43689Y40687D01*
G01X43695Y40710D01*
G01X43702Y40732D01*
G01X43712Y40754D01*
G01X43723Y40775D01*
G01X43737Y40794D01*
G01X43752Y40812D01*
G01X43769Y40829D01*
G01X43787Y40844D01*
G01X43806Y40858D01*
G01X43827Y40869D01*
G01X43849Y40879D01*
G01X43871Y40886D01*
G01X43894Y40892D01*
G01X43918Y40895D01*
G01X43942Y40896D01*
G01X46990Y40896D01*
G01X47013Y40895D01*
G01X47037Y40892D01*
G01X47060Y40886D01*
G01X47082Y40879D01*
G01X47104Y40869D01*
G01X47125Y40858D01*
G01X47144Y40844D01*
G01X47162Y40829D01*
G01X47179Y40812D01*
G01X47194Y40794D01*
G01X47208Y40775D01*
G01X47219Y40754D01*
G01X47229Y40732D01*
G01X47236Y40710D01*
G01X47242Y40687D01*
G01X47245Y40663D01*
G01X47246Y40640D01*
G01X47246Y40509D01*
G01X47247Y40494D01*
G01X47250Y40480D01*
G01X47255Y40467D01*
G01X47262Y40454D01*
G01X47271Y40442D01*
G01X47281Y40432D01*
G01X47293Y40423D01*
G01X47305Y40416D01*
G01X47319Y40411D01*
G01X47333Y40408D01*
G01X47348Y40407D01*
G01X47565Y40407D01*
G01X47590Y40406D01*
G01X47614Y40403D01*
G01X47638Y40397D01*
G01X47661Y40389D01*
G01X47683Y40379D01*
G01X47704Y40367D01*
G01X47724Y40352D01*
G01X47742Y40336D01*
G01X47759Y40319D01*
G01X47774Y40300D01*
G01X47785Y40287D01*
G01X47797Y40277D01*
G01X47811Y40268D01*
G01X47825Y40262D01*
G01X47841Y40258D01*
G01X47857Y40257D01*
G01X48514Y40257D01*
G01X48547Y40256D01*
G01X48580Y40253D01*
G01X48612Y40247D01*
G01X48645Y40240D01*
G01X48676Y40230D01*
G01X48707Y40218D01*
G01X48738Y40205D01*
G01X48767Y40189D01*
G01X48795Y40172D01*
G01X48822Y40152D01*
G01X48847Y40131D01*
G01X48872Y40109D01*
G01X50523Y38458D01*
G01X50545Y38433D01*
G01X50566Y38408D01*
G01X50586Y38381D01*
G01X50603Y38353D01*
G01X50619Y38324D01*
G01X50632Y38293D01*
G01X50644Y38262D01*
G01X50654Y38231D01*
G01X50661Y38198D01*
G01X50667Y38166D01*
G01X50670Y38133D01*
G01X50671Y38100D01*
G01X50671Y32240D01*
G01X50672Y32225D01*
G01X50676Y32209D01*
G01X50682Y32195D01*
G01X50690Y32181D01*
G01X50700Y32169D01*
G01X50712Y32159D01*
G01X50725Y32151D01*
G01X50739Y32144D01*
G01X50796Y32124D01*
G01X50852Y32101D01*
G01X50907Y32076D01*
G01X50961Y32050D01*
G01X51015Y32022D01*
G01X51067Y31991D01*
G01X51118Y31960D01*
G01X51168Y31926D01*
G01X51217Y31890D01*
G01X51265Y31853D01*
G01X51311Y31815D01*
G01X51356Y31775D01*
G01X51400Y31733D01*
G01X51442Y31690D01*
G01X51483Y31645D01*
G01X51522Y31599D01*
G01X51559Y31552D01*
G01X51595Y31503D01*
G01X51629Y31453D01*
G01X51662Y31403D01*
G01X51693Y31351D01*
G01X51721Y31298D01*
G01X51748Y31244D01*
G01X51774Y31189D01*
G01X51797Y31133D01*
G01X51818Y31076D01*
G01X51837Y31019D01*
G01X51855Y30961D01*
G01X51870Y30903D01*
G01X51884Y30844D01*
G01X51895Y30785D01*
G01X51904Y30725D01*
G01X51912Y30665D01*
G01X51917Y30605D01*
G01X51920Y30545D01*
G01X51921Y30485D01*
G01X51920Y30425D01*
G01X51917Y30365D01*
G01X51912Y30305D01*
G01X51905Y30245D01*
G01X51895Y30186D01*
G01X51884Y30127D01*
G01X51871Y30069D01*
G01X51856Y30011D01*
G01X51839Y29953D01*
G01X51819Y29896D01*
G01X51798Y29840D01*
G01X51775Y29785D01*
G01X51751Y29730D01*
G01X51724Y29676D01*
G01X51695Y29624D01*
G01X51665Y29572D01*
G01X51633Y29521D01*
G01X51599Y29472D01*
G01X51564Y29423D01*
G01X51527Y29376D01*
G01X51488Y29330D01*
G01X51448Y29286D01*
G01X51406Y29243D01*
G01X51363Y29201D01*
G01X51319Y29161D01*
G01X51273Y29122D01*
G01X51226Y29085D01*
G01X51177Y29050D01*
G01X51128Y29016D01*
G01X51077Y28984D01*
G01X51025Y28953D01*
G01X50972Y28925D01*
G01X50919Y28898D01*
G01X50864Y28873D01*
G01X50809Y28851D01*
G01X50753Y28829D01*
G01X50696Y28810D01*
G01X50638Y28793D01*
G01X50580Y28778D01*
G01X50522Y28765D01*
G01X50463Y28754D01*
G01X50404Y28744D01*
G01X50344Y28737D01*
G01X50284Y28732D01*
G01X50224Y28729D01*
G01X50164Y28728D01*
G01X50104Y28729D01*
G01X50044Y28732D01*
G01X49985Y28737D01*
G01X49925Y28744D01*
G01X49866Y28754D01*
G01X49807Y28765D01*
G01X49748Y28778D01*
G01X49690Y28793D01*
G01X49633Y28810D01*
G01X49576Y28829D01*
G01X49520Y28851D01*
G01X49465Y28873D01*
G01X49410Y28898D01*
G01X49356Y28925D01*
G01X49303Y28953D01*
G01X49252Y28984D01*
G01X49201Y29016D01*
G01X49151Y29050D01*
G01X49103Y29085D01*
G01X49056Y29122D01*
G01X49010Y29161D01*
G01X48965Y29201D01*
G01X48922Y29243D01*
G01X48881Y29286D01*
G01X48840Y29330D01*
G01X48802Y29376D01*
G01X48765Y29423D01*
G01X48729Y29472D01*
G01X48696Y29521D01*
G01X48664Y29572D01*
G01X48633Y29624D01*
G01X48605Y29676D01*
G01X48578Y29730D01*
G01X48553Y29785D01*
G01X48530Y29840D01*
G01X48509Y29896D01*
G01X48490Y29953D01*
G01X48473Y30011D01*
G01X48458Y30069D01*
G01X48445Y30127D01*
G01X48433Y30186D01*
G01X48424Y30245D01*
G01X48417Y30305D01*
G01X48412Y30365D01*
G01X48409Y30425D01*
G01X48408Y30485D01*
G01X48409Y30545D01*
G01X48412Y30605D01*
G01X48417Y30665D01*
G01X48424Y30725D01*
G01X48434Y30785D01*
G01X48445Y30844D01*
G01X48458Y30903D01*
G01X48474Y30962D01*
G01X48491Y31019D01*
G01X48511Y31077D01*
G01X48532Y31133D01*
G01X48555Y31189D01*
G01X48580Y31244D01*
G01X48607Y31298D01*
G01X48636Y31351D01*
G01X48667Y31403D01*
G01X48699Y31454D01*
G01X48733Y31503D01*
G01X48769Y31552D01*
G01X48807Y31599D01*
G01X48846Y31645D01*
G01X48887Y31690D01*
G01X48929Y31733D01*
G01X48972Y31775D01*
G01X49017Y31815D01*
G01X49064Y31854D01*
G01X49112Y31891D01*
G01X49160Y31926D01*
G01X49211Y31960D01*
G01X49262Y31992D01*
G01X49314Y32022D01*
G01X49368Y32050D01*
G01X49422Y32076D01*
G01X49477Y32101D01*
G01X49533Y32124D01*
G01X49590Y32144D01*
G01X49604Y32151D01*
G01X49617Y32159D01*
G01X49629Y32169D01*
G01X49639Y32182D01*
G01X49647Y32195D01*
G01X49653Y32210D01*
G01X49657Y32225D01*
G01X49658Y32240D01*
G01X49658Y37848D01*
G01X49657Y37863D01*
G01X49653Y37879D01*
G01X49647Y37894D01*
G01X49639Y37907D01*
G01X49628Y37919D01*
G01X48333Y39214D01*
G01X48321Y39225D01*
G01X48308Y39233D01*
G01X48293Y39239D01*
G01X48277Y39243D01*
G01X48262Y39244D01*
G01X47857Y39244D01*
G01X47841Y39243D01*
G01X47825Y39239D01*
G01X47810Y39233D01*
G01X47797Y39224D01*
G01X47785Y39214D01*
G01X47774Y39201D01*
G01X47759Y39182D01*
G01X47742Y39165D01*
G01X47724Y39149D01*
G01X47704Y39135D01*
G01X47683Y39123D01*
G01X47661Y39112D01*
G01X47638Y39105D01*
G01X47614Y39099D01*
G01X47590Y39095D01*
G01X47565Y39094D01*
G01X47348Y39094D01*
G01X47333Y39093D01*
G01X47319Y39090D01*
G01X47305Y39085D01*
G01X47293Y39078D01*
G01X47281Y39069D01*
G01X47271Y39059D01*
G01X47262Y39048D01*
G01X47255Y39035D01*
G01X47250Y39021D01*
G01X47247Y39007D01*
G01X47246Y38993D01*
G01X47246Y38862D01*
G01X47245Y38838D01*
G01X47242Y38814D01*
G01X47236Y38791D01*
G01X47229Y38769D01*
G01X47219Y38747D01*
G01X47208Y38726D01*
G01X47194Y38707D01*
G01X47179Y38689D01*
G01X47162Y38672D01*
G01X47144Y38657D01*
G01X47125Y38643D01*
G01X47104Y38632D01*
G01X47082Y38622D01*
G01X47060Y38615D01*
G01X47037Y38609D01*
G01X47013Y38606D01*
G01X46990Y38605D01*
G01X44554Y38605D01*
G01X44539Y38604D01*
G01X44525Y38601D01*
G01X44511Y38596D01*
G01X44499Y38589D01*
G01X44487Y38580D01*
G01X44477Y38570D01*
G01X44468Y38558D01*
G01X44461Y38546D01*
G01X44456Y38532D01*
G01X44453Y38518D01*
G01X44452Y38503D01*
G01X44452Y28251D01*
G01X44453Y28235D01*
G01X44457Y28219D01*
G01X44463Y28204D01*
G01X44472Y28191D01*
G01X44482Y28178D01*
G01X44495Y28168D01*
G01X46029Y27072D01*
G01X46043Y27064D01*
G01X46057Y27058D01*
G01X46073Y27054D01*
G01X46088Y27053D01*
G01X77241Y27053D01*
G01X77255Y27054D01*
G01X77270Y27057D01*
G01X77283Y27062D01*
G01X77296Y27069D01*
G01X77307Y27078D01*
G01X77318Y27088D01*
G01X77326Y27100D01*
G01X77333Y27112D01*
G01X77338Y27126D01*
G01X77341Y27140D01*
G01X77343Y27155D01*
G01X77343Y44729D01*
G01X77341Y44743D01*
G01X77338Y44758D01*
G01X77333Y44771D01*
G01X77326Y44784D01*
G01X77318Y44795D01*
G01X77307Y44806D01*
G01X77296Y44814D01*
G01X77283Y44821D01*
G01X77270Y44826D01*
G01X77255Y44829D01*
G01X77241Y44831D01*
G01X45085Y44831D01*
G01X45085Y46631D01*
G01X45083Y46646D01*
G01X45080Y46660D01*
G01X45075Y46674D01*
G01X45068Y46686D01*
G01X45060Y46698D01*
G01X45049Y46708D01*
G01X45038Y46717D01*
G01X45025Y46724D01*
G01X45012Y46729D01*
G01X44997Y46732D01*
G01X44983Y46733D01*
G37*

%LPC*%
G36*
G01X13782Y43182D02*
G01X8702Y43182D01*
G01X8702Y40678D01*
G01X8700Y40663D01*
G01X8697Y40649D01*
G01X8692Y40635D01*
G01X8685Y40623D01*
G01X8677Y40611D01*
G01X8666Y40601D01*
G01X8655Y40592D01*
G01X8642Y40585D01*
G01X8629Y40580D01*
G01X8614Y40577D01*
G01X8600Y40576D01*
G01X6286Y40576D01*
G01X6286Y38198D01*
G01X6285Y38183D01*
G01X6281Y38168D01*
G01X6276Y38154D01*
G01X6268Y38141D01*
G01X6258Y38129D01*
G01X6247Y38119D01*
G01X6234Y38110D01*
G01X6221Y38104D01*
G01X6206Y38099D01*
G01X6191Y38097D01*
G01X6158Y38094D01*
G01X6125Y38089D01*
G01X6092Y38081D01*
G01X6060Y38071D01*
G01X6029Y38060D01*
G01X5999Y38046D01*
G01X5970Y38030D01*
G01X5941Y38013D01*
G01X5914Y37994D01*
G01X5864Y37950D01*
G01X5229Y37315D01*
G01X5207Y37290D01*
G01X5186Y37265D01*
G01X5166Y37238D01*
G01X5149Y37210D01*
G01X5133Y37181D01*
G01X5120Y37150D01*
G01X5108Y37119D01*
G01X5098Y37088D01*
G01X5091Y37055D01*
G01X5085Y37023D01*
G01X5082Y36990D01*
G01X5081Y36957D01*
G01X5081Y35228D01*
G01X5080Y35213D01*
G01X5077Y35199D01*
G01X5072Y35185D01*
G01X5065Y35173D01*
G01X5056Y35161D01*
G01X5046Y35151D01*
G01X5034Y35142D01*
G01X5022Y35135D01*
G01X5008Y35130D01*
G01X4994Y35127D01*
G01X4979Y35126D01*
G01X4853Y35126D01*
G01X4829Y35125D01*
G01X4805Y35122D01*
G01X4782Y35116D01*
G01X4760Y35109D01*
G01X4738Y35099D01*
G01X4717Y35088D01*
G01X4698Y35074D01*
G01X4680Y35059D01*
G01X4663Y35042D01*
G01X4648Y35024D01*
G01X4634Y35005D01*
G01X4623Y34984D01*
G01X4613Y34962D01*
G01X4606Y34940D01*
G01X4600Y34917D01*
G01X4597Y34893D01*
G01X4596Y34870D01*
G01X4596Y31677D01*
G01X4597Y31654D01*
G01X4600Y31630D01*
G01X4606Y31607D01*
G01X4613Y31585D01*
G01X4623Y31563D01*
G01X4634Y31542D01*
G01X4648Y31523D01*
G01X4663Y31505D01*
G01X4680Y31488D01*
G01X4698Y31473D01*
G01X4717Y31459D01*
G01X4738Y31448D01*
G01X4760Y31438D01*
G01X4782Y31431D01*
G01X4805Y31425D01*
G01X4829Y31422D01*
G01X4853Y31421D01*
G01X4979Y31421D01*
G01X4994Y31420D01*
G01X5008Y31417D01*
G01X5022Y31412D01*
G01X5034Y31405D01*
G01X5046Y31396D01*
G01X5056Y31386D01*
G01X5065Y31374D01*
G01X5072Y31362D01*
G01X5077Y31348D01*
G01X5080Y31334D01*
G01X5081Y31319D01*
G01X5081Y30861D01*
G01X5082Y30827D01*
G01X5085Y30794D01*
G01X5091Y30762D01*
G01X5098Y30729D01*
G01X5108Y30698D01*
G01X5120Y30667D01*
G01X5133Y30636D01*
G01X5149Y30607D01*
G01X5166Y30579D01*
G01X5186Y30552D01*
G01X5207Y30527D01*
G01X5229Y30502D01*
G01X5803Y29928D01*
G01X5828Y29906D01*
G01X5853Y29885D01*
G01X5880Y29865D01*
G01X5908Y29848D01*
G01X5938Y29832D01*
G01X5968Y29818D01*
G01X5999Y29807D01*
G01X6030Y29797D01*
G01X6063Y29790D01*
G01X6095Y29784D01*
G01X6128Y29781D01*
G01X6162Y29780D01*
G01X7078Y29780D01*
G01X7097Y29778D01*
G01X7115Y29773D01*
G01X7138Y29765D01*
G01X7162Y29759D01*
G01X7186Y29756D01*
G01X7210Y29755D01*
G01X8210Y29755D01*
G01X8233Y29756D01*
G01X8255Y29759D01*
G01X8278Y29764D01*
G01X8300Y29771D01*
G01X8321Y29780D01*
G01X8341Y29791D01*
G01X8360Y29804D01*
G01X8378Y29818D01*
G01X8395Y29834D01*
G01X8410Y29851D01*
G01X8423Y29869D01*
G01X8435Y29889D01*
G01X8438Y29895D01*
G01X8446Y29913D01*
G01X8455Y29937D01*
G01X8461Y29961D01*
G01X8465Y29986D01*
G01X8466Y30011D01*
G01X8466Y30561D01*
G01X8465Y30585D01*
G01X8462Y30609D01*
G01X8460Y30628D01*
G01X8461Y30643D01*
G01X8464Y30657D01*
G01X8469Y30670D01*
G01X8476Y30683D01*
G01X8485Y30695D01*
G01X8495Y30705D01*
G01X8507Y30714D01*
G01X8519Y30721D01*
G01X8533Y30726D01*
G01X8547Y30729D01*
G01X8562Y30730D01*
G01X10078Y30730D01*
G01X10097Y30728D01*
G01X10116Y30723D01*
G01X10138Y30715D01*
G01X10162Y30709D01*
G01X10186Y30706D01*
G01X10210Y30705D01*
G01X11210Y30705D01*
G01X11233Y30706D01*
G01X11257Y30709D01*
G01X11280Y30715D01*
G01X11302Y30722D01*
G01X11324Y30732D01*
G01X11345Y30743D01*
G01X11364Y30757D01*
G01X11382Y30772D01*
G01X11399Y30789D01*
G01X11414Y30807D01*
G01X11428Y30826D01*
G01X11439Y30847D01*
G01X11449Y30869D01*
G01X11456Y30891D01*
G01X11462Y30914D01*
G01X11465Y30938D01*
G01X11466Y30961D01*
G01X11466Y31511D01*
G01X11465Y31535D01*
G01X11462Y31558D01*
G01X11457Y31580D01*
G01X11450Y31602D01*
G01X11440Y31623D01*
G01X11429Y31644D01*
G01X11417Y31663D01*
G01X11402Y31681D01*
G01X11386Y31698D01*
G01X11369Y31713D01*
G01X11350Y31726D01*
G01X11330Y31738D01*
G01X11309Y31748D01*
G01X11287Y31756D01*
G01X11272Y31762D01*
G01X11259Y31770D01*
G01X11246Y31781D01*
G01X11236Y31793D01*
G01X11227Y31806D01*
G01X11221Y31821D01*
G01X11217Y31837D01*
G01X11216Y31853D01*
G01X11216Y32187D01*
G01X11217Y32202D01*
G01X11221Y32217D01*
G01X11227Y32232D01*
G01X11235Y32245D01*
G01X11244Y32257D01*
G01X11256Y32268D01*
G01X11269Y32276D01*
G01X11283Y32282D01*
G01X11298Y32287D01*
G01X11321Y32292D01*
G01X11343Y32300D01*
G01X11364Y32310D01*
G01X11385Y32321D01*
G01X11404Y32335D01*
G01X11422Y32350D01*
G01X11438Y32367D01*
G01X11453Y32385D01*
G01X11466Y32404D01*
G01X11478Y32425D01*
G01X11487Y32446D01*
G01X11495Y32469D01*
G01X11500Y32491D01*
G01X11503Y32515D01*
G01X11504Y32538D01*
G01X11504Y32669D01*
G01X11505Y32683D01*
G01X11508Y32697D01*
G01X11513Y32711D01*
G01X11520Y32724D01*
G01X11529Y32735D01*
G01X11539Y32745D01*
G01X11551Y32754D01*
G01X11563Y32761D01*
G01X11577Y32766D01*
G01X11591Y32769D01*
G01X11605Y32770D01*
G01X16626Y32788D01*
G01X16627Y32788D01*
G01X16642Y32787D01*
G01X16656Y32784D01*
G01X16670Y32779D01*
G01X16683Y32771D01*
G01X16695Y32762D01*
G01X16706Y32751D01*
G01X16714Y32738D01*
G01X16721Y32725D01*
G01X16725Y32711D01*
G01X16728Y32696D01*
G01X16731Y32672D01*
G01X16736Y32649D01*
G01X16744Y32627D01*
G01X16753Y32605D01*
G01X16765Y32584D01*
G01X16778Y32564D01*
G01X16793Y32546D01*
G01X16810Y32529D01*
G01X16828Y32514D01*
G01X16848Y32500D01*
G01X16869Y32489D01*
G01X16891Y32479D01*
G01X16913Y32472D01*
G01X16936Y32466D01*
G01X16960Y32463D01*
G01X16983Y32462D01*
G01X18453Y32462D01*
G01X18477Y32463D01*
G01X18501Y32466D01*
G01X18524Y32472D01*
G01X18547Y32479D01*
G01X18569Y32489D01*
G01X18590Y32501D01*
G01X18609Y32515D01*
G01X18628Y32530D01*
G01X18644Y32547D01*
G01X18660Y32566D01*
G01X18673Y32586D01*
G01X18684Y32607D01*
G01X18694Y32629D01*
G01X18701Y32651D01*
G01X18706Y32675D01*
G01X18709Y32699D01*
G01X18711Y32714D01*
G01X18716Y32728D01*
G01X18723Y32742D01*
G01X18731Y32754D01*
G01X18741Y32765D01*
G01X18753Y32775D01*
G01X18766Y32782D01*
G01X18781Y32788D01*
G01X18795Y32791D01*
G01X18810Y32792D01*
G01X19243Y32792D01*
G01X19263Y32791D01*
G01X19281Y32785D01*
G01X19304Y32777D01*
G01X19328Y32771D01*
G01X19352Y32768D01*
G01X19377Y32767D01*
G01X20377Y32767D01*
G01X20400Y32768D01*
G01X20424Y32771D01*
G01X20447Y32776D01*
G01X20469Y32784D01*
G01X20491Y32794D01*
G01X20512Y32805D01*
G01X20531Y32818D01*
G01X20549Y32834D01*
G01X20566Y32850D01*
G01X20581Y32869D01*
G01X20595Y32888D01*
G01X20606Y32909D01*
G01X20616Y32930D01*
G01X20623Y32953D01*
G01X20629Y32976D01*
G01X20632Y33000D01*
G01X20633Y33023D01*
G01X20633Y33574D01*
G01X20632Y33598D01*
G01X20629Y33622D01*
G01X20623Y33645D01*
G01X20616Y33667D01*
G01X20606Y33689D01*
G01X20595Y33709D01*
G01X20581Y33729D01*
G01X20566Y33747D01*
G01X20549Y33764D01*
G01X20531Y33779D01*
G01X20512Y33792D01*
G01X20491Y33804D01*
G01X20469Y33814D01*
G01X20447Y33821D01*
G01X20424Y33827D01*
G01X20400Y33830D01*
G01X20377Y33831D01*
G01X19377Y33831D01*
G01X19352Y33830D01*
G01X19328Y33826D01*
G01X19305Y33821D01*
G01X19282Y33813D01*
G01X19263Y33807D01*
G01X19244Y33805D01*
G01X18810Y33805D01*
G01X18795Y33807D01*
G01X18781Y33810D01*
G01X18766Y33815D01*
G01X18753Y33823D01*
G01X18741Y33832D01*
G01X18731Y33843D01*
G01X18723Y33856D01*
G01X18716Y33870D01*
G01X18711Y33884D01*
G01X18709Y33899D01*
G01X18706Y33923D01*
G01X18701Y33946D01*
G01X18693Y33969D01*
G01X18684Y33991D01*
G01X18673Y34012D01*
G01X18659Y34031D01*
G01X18644Y34050D01*
G01X18627Y34067D01*
G01X18609Y34082D01*
G01X18589Y34096D01*
G01X18569Y34108D01*
G01X18547Y34117D01*
G01X18524Y34125D01*
G01X18501Y34130D01*
G01X18477Y34134D01*
G01X18453Y34135D01*
G01X16983Y34135D01*
G01X16959Y34134D01*
G01X16936Y34130D01*
G01X16912Y34125D01*
G01X16889Y34117D01*
G01X16867Y34107D01*
G01X16847Y34095D01*
G01X16827Y34082D01*
G01X16808Y34066D01*
G01X16792Y34049D01*
G01X16777Y34030D01*
G01X16763Y34010D01*
G01X16752Y33989D01*
G01X16743Y33967D01*
G01X16735Y33944D01*
G01X16730Y33920D01*
G01X16728Y33896D01*
G01X16725Y33881D01*
G01X16721Y33866D01*
G01X16714Y33853D01*
G01X16706Y33840D01*
G01X16696Y33829D01*
G01X16684Y33819D01*
G01X16671Y33812D01*
G01X16657Y33806D01*
G01X16642Y33803D01*
G01X16627Y33802D01*
G01X11606Y33783D01*
G01X11591Y33784D01*
G01X11577Y33788D01*
G01X11564Y33793D01*
G01X11551Y33800D01*
G01X11539Y33808D01*
G01X11529Y33818D01*
G01X11520Y33830D01*
G01X11513Y33843D01*
G01X11508Y33856D01*
G01X11505Y33871D01*
G01X11504Y33885D01*
G01X11504Y34008D01*
G01X11503Y34032D01*
G01X11500Y34055D01*
G01X11494Y34078D01*
G01X11487Y34101D01*
G01X11477Y34122D01*
G01X11466Y34143D01*
G01X11452Y34163D01*
G01X11437Y34181D01*
G01X11420Y34198D01*
G01X11402Y34213D01*
G01X11383Y34226D01*
G01X11362Y34238D01*
G01X11340Y34247D01*
G01X11318Y34255D01*
G01X11295Y34260D01*
G01X11271Y34264D01*
G01X11248Y34265D01*
G01X10088Y34265D01*
G01X10064Y34264D01*
G01X10040Y34260D01*
G01X10017Y34255D01*
G01X9995Y34247D01*
G01X9973Y34238D01*
G01X9953Y34226D01*
G01X9933Y34213D01*
G01X9915Y34198D01*
G01X9898Y34181D01*
G01X9883Y34163D01*
G01X9870Y34143D01*
G01X9858Y34122D01*
G01X9848Y34101D01*
G01X9841Y34078D01*
G01X9835Y34055D01*
G01X9832Y34032D01*
G01X9831Y34008D01*
G01X9831Y32538D01*
G01X9832Y32514D01*
G01X9835Y32491D01*
G01X9841Y32468D01*
G01X9848Y32445D01*
G01X9858Y32424D01*
G01X9870Y32403D01*
G01X9883Y32384D01*
G01X9898Y32365D01*
G01X9915Y32349D01*
G01X9933Y32333D01*
G01X9953Y32320D01*
G01X9973Y32309D01*
G01X9995Y32299D01*
G01X10017Y32291D01*
G01X10040Y32286D01*
G01X10064Y32283D01*
G01X10088Y32282D01*
G01X10102Y32282D01*
G01X10116Y32281D01*
G01X10130Y32278D01*
G01X10144Y32272D01*
G01X10156Y32266D01*
G01X10168Y32257D01*
G01X10178Y32247D01*
G01X10187Y32235D01*
G01X10194Y32222D01*
G01X10199Y32209D01*
G01X10202Y32194D01*
G01X10203Y32180D01*
G01X10203Y31853D01*
G01X10202Y31837D01*
G01X10198Y31821D01*
G01X10192Y31806D01*
G01X10184Y31793D01*
G01X10173Y31781D01*
G01X10161Y31770D01*
G01X10147Y31762D01*
G01X10132Y31756D01*
G01X10115Y31750D01*
G01X10097Y31745D01*
G01X10078Y31743D01*
G01X8341Y31743D01*
G01X8322Y31745D01*
G01X8304Y31750D01*
G01X8281Y31758D01*
G01X8258Y31763D01*
G01X8234Y31767D01*
G01X8210Y31768D01*
G01X7210Y31768D01*
G01X7186Y31767D01*
G01X7163Y31764D01*
G01X7139Y31758D01*
G01X7117Y31751D01*
G01X7095Y31741D01*
G01X7075Y31730D01*
G01X7055Y31716D01*
G01X7037Y31701D01*
G01X7020Y31684D01*
G01X7005Y31666D01*
G01X6992Y31647D01*
G01X6980Y31626D01*
G01X6970Y31604D01*
G01X6963Y31582D01*
G01X6957Y31559D01*
G01X6954Y31535D01*
G01X6953Y31511D01*
G01X6953Y30961D01*
G01X6954Y30937D01*
G01X6958Y30914D01*
G01X6959Y30895D01*
G01X6958Y30880D01*
G01X6955Y30866D01*
G01X6950Y30852D01*
G01X6943Y30840D01*
G01X6935Y30828D01*
G01X6924Y30818D01*
G01X6913Y30809D01*
G01X6900Y30802D01*
G01X6886Y30797D01*
G01X6872Y30794D01*
G01X6858Y30793D01*
G01X6413Y30793D01*
G01X6398Y30794D01*
G01X6382Y30798D01*
G01X6367Y30804D01*
G01X6354Y30812D01*
G01X6342Y30823D01*
G01X6124Y31041D01*
G01X6113Y31053D01*
G01X6105Y31066D01*
G01X6099Y31081D01*
G01X6095Y31097D01*
G01X6094Y31112D01*
G01X6094Y31319D01*
G01X6095Y31334D01*
G01X6098Y31348D01*
G01X6103Y31362D01*
G01X6110Y31374D01*
G01X6119Y31386D01*
G01X6129Y31396D01*
G01X6141Y31405D01*
G01X6153Y31412D01*
G01X6167Y31417D01*
G01X6181Y31420D01*
G01X6196Y31421D01*
G01X6322Y31421D01*
G01X6346Y31422D01*
G01X6370Y31425D01*
G01X6393Y31431D01*
G01X6415Y31438D01*
G01X6437Y31448D01*
G01X6458Y31459D01*
G01X6477Y31473D01*
G01X6495Y31488D01*
G01X6512Y31505D01*
G01X6527Y31523D01*
G01X6541Y31542D01*
G01X6552Y31563D01*
G01X6562Y31585D01*
G01X6569Y31607D01*
G01X6575Y31630D01*
G01X6578Y31654D01*
G01X6579Y31677D01*
G01X6579Y34870D01*
G01X6578Y34893D01*
G01X6575Y34917D01*
G01X6569Y34940D01*
G01X6562Y34962D01*
G01X6552Y34984D01*
G01X6541Y35005D01*
G01X6527Y35024D01*
G01X6512Y35042D01*
G01X6495Y35059D01*
G01X6477Y35074D01*
G01X6458Y35088D01*
G01X6437Y35099D01*
G01X6415Y35109D01*
G01X6393Y35116D01*
G01X6370Y35122D01*
G01X6346Y35125D01*
G01X6322Y35126D01*
G01X6196Y35126D01*
G01X6181Y35127D01*
G01X6167Y35130D01*
G01X6153Y35135D01*
G01X6141Y35142D01*
G01X6129Y35151D01*
G01X6119Y35161D01*
G01X6110Y35173D01*
G01X6103Y35185D01*
G01X6098Y35199D01*
G01X6095Y35213D01*
G01X6094Y35228D01*
G01X6094Y36359D01*
G01X6095Y36374D01*
G01X6098Y36388D01*
G01X6103Y36402D01*
G01X6110Y36414D01*
G01X6119Y36426D01*
G01X6129Y36436D01*
G01X6141Y36445D01*
G01X6153Y36452D01*
G01X6167Y36457D01*
G01X6181Y36460D01*
G01X6196Y36461D01*
G01X6210Y36460D01*
G01X6225Y36457D01*
G01X6239Y36451D01*
G01X6252Y36444D01*
G01X6264Y36435D01*
G01X6274Y36424D01*
G01X6283Y36412D01*
G01X6289Y36399D01*
G01X6294Y36385D01*
G01X6301Y36362D01*
G01X6310Y36339D01*
G01X6322Y36318D01*
G01X6335Y36298D01*
G01X6350Y36279D01*
G01X6367Y36261D01*
G01X6385Y36246D01*
G01X6405Y36232D01*
G01X6426Y36220D01*
G01X6448Y36210D01*
G01X6471Y36202D01*
G01X6494Y36197D01*
G01X6518Y36193D01*
G01X6543Y36192D01*
G01X13782Y36192D01*
G01X13805Y36193D01*
G01X13829Y36196D01*
G01X13852Y36202D01*
G01X13874Y36209D01*
G01X13896Y36219D01*
G01X13917Y36230D01*
G01X13936Y36244D01*
G01X13954Y36259D01*
G01X13971Y36276D01*
G01X13986Y36294D01*
G01X14000Y36313D01*
G01X14011Y36334D01*
G01X14021Y36356D01*
G01X14028Y36378D01*
G01X14034Y36401D01*
G01X14037Y36425D01*
G01X14038Y36449D01*
G01X14038Y36983D01*
G01X14039Y36998D01*
G01X14042Y37012D01*
G01X14047Y37026D01*
G01X14054Y37038D01*
G01X14063Y37050D01*
G01X14073Y37060D01*
G01X14085Y37069D01*
G01X14097Y37076D01*
G01X14111Y37081D01*
G01X14125Y37084D01*
G01X14140Y37085D01*
G01X14265Y37085D01*
G01X14280Y37084D01*
G01X14295Y37080D01*
G01X14309Y37075D01*
G01X14322Y37067D01*
G01X14334Y37058D01*
G01X14344Y37047D01*
G01X14353Y37034D01*
G01X14359Y37021D01*
G01X14364Y37006D01*
G01X14366Y36991D01*
G01X14369Y36968D01*
G01X14374Y36944D01*
G01X14381Y36922D01*
G01X14391Y36900D01*
G01X14402Y36879D01*
G01X14416Y36859D01*
G01X14431Y36840D01*
G01X14448Y36823D01*
G01X14466Y36808D01*
G01X14486Y36794D01*
G01X14506Y36782D01*
G01X14528Y36773D01*
G01X14551Y36765D01*
G01X14574Y36760D01*
G01X14598Y36756D01*
G01X14622Y36755D01*
G01X16092Y36755D01*
G01X16115Y36756D01*
G01X16139Y36760D01*
G01X16162Y36765D01*
G01X16185Y36773D01*
G01X16207Y36782D01*
G01X16228Y36794D01*
G01X16247Y36808D01*
G01X16266Y36823D01*
G01X16282Y36840D01*
G01X16298Y36859D01*
G01X16311Y36879D01*
G01X16322Y36900D01*
G01X16332Y36922D01*
G01X16339Y36944D01*
G01X16344Y36968D01*
G01X16347Y36991D01*
G01X16350Y37006D01*
G01X16354Y37021D01*
G01X16361Y37034D01*
G01X16369Y37047D01*
G01X16380Y37058D01*
G01X16392Y37067D01*
G01X16405Y37075D01*
G01X16419Y37080D01*
G01X16434Y37084D01*
G01X16449Y37085D01*
G01X16626Y37085D01*
G01X16641Y37084D01*
G01X16656Y37080D01*
G01X16670Y37075D01*
G01X16684Y37067D01*
G01X16695Y37058D01*
G01X16706Y37047D01*
G01X16714Y37034D01*
G01X16721Y37021D01*
G01X16725Y37006D01*
G01X16728Y36991D01*
G01X16731Y36967D01*
G01X16736Y36944D01*
G01X16743Y36921D01*
G01X16753Y36899D01*
G01X16764Y36878D01*
G01X16777Y36858D01*
G01X16792Y36840D01*
G01X16809Y36823D01*
G01X16828Y36807D01*
G01X16847Y36794D01*
G01X16868Y36782D01*
G01X16890Y36772D01*
G01X16913Y36765D01*
G01X16936Y36759D01*
G01X16960Y36756D01*
G01X16983Y36755D01*
G01X18453Y36755D01*
G01X18477Y36756D01*
G01X18501Y36759D01*
G01X18524Y36765D01*
G01X18547Y36772D01*
G01X18569Y36782D01*
G01X18590Y36794D01*
G01X18609Y36807D01*
G01X18628Y36823D01*
G01X18644Y36840D01*
G01X18659Y36858D01*
G01X18673Y36878D01*
G01X18684Y36899D01*
G01X18694Y36921D01*
G01X18701Y36944D01*
G01X18706Y36967D01*
G01X18709Y36991D01*
G01X18711Y37006D01*
G01X18716Y37021D01*
G01X18723Y37034D01*
G01X18731Y37047D01*
G01X18741Y37058D01*
G01X18753Y37067D01*
G01X18766Y37075D01*
G01X18781Y37080D01*
G01X18795Y37084D01*
G01X18810Y37085D01*
G01X19244Y37085D01*
G01X19263Y37083D01*
G01X19281Y37078D01*
G01X19304Y37070D01*
G01X19328Y37064D01*
G01X19352Y37060D01*
G01X19377Y37059D01*
G01X20377Y37059D01*
G01X20400Y37060D01*
G01X20424Y37064D01*
G01X20447Y37069D01*
G01X20469Y37077D01*
G01X20491Y37086D01*
G01X20512Y37098D01*
G01X20531Y37111D01*
G01X20550Y37126D01*
G01X20566Y37143D01*
G01X20582Y37161D01*
G01X20595Y37181D01*
G01X20606Y37201D01*
G01X20616Y37223D01*
G01X20624Y37246D01*
G01X20629Y37269D01*
G01X20632Y37292D01*
G01X20633Y37316D01*
G01X20633Y37867D01*
G01X20632Y37891D01*
G01X20629Y37914D01*
G01X20624Y37937D01*
G01X20616Y37960D01*
G01X20606Y37981D01*
G01X20595Y38002D01*
G01X20582Y38022D01*
G01X20566Y38040D01*
G01X20550Y38057D01*
G01X20531Y38072D01*
G01X20512Y38085D01*
G01X20491Y38097D01*
G01X20469Y38106D01*
G01X20447Y38114D01*
G01X20424Y38119D01*
G01X20400Y38122D01*
G01X20377Y38124D01*
G01X19377Y38124D01*
G01X19352Y38122D01*
G01X19328Y38119D01*
G01X19305Y38113D01*
G01X19282Y38105D01*
G01X19263Y38100D01*
G01X19244Y38098D01*
G01X18810Y38098D01*
G01X18795Y38099D01*
G01X18780Y38103D01*
G01X18766Y38108D01*
G01X18753Y38116D01*
G01X18741Y38125D01*
G01X18731Y38136D01*
G01X18723Y38149D01*
G01X18716Y38162D01*
G01X18711Y38177D01*
G01X18709Y38192D01*
G01X18706Y38215D01*
G01X18701Y38239D01*
G01X18693Y38261D01*
G01X18684Y38283D01*
G01X18673Y38304D01*
G01X18659Y38324D01*
G01X18644Y38343D01*
G01X18627Y38360D01*
G01X18609Y38375D01*
G01X18589Y38389D01*
G01X18569Y38400D01*
G01X18547Y38410D01*
G01X18524Y38418D01*
G01X18501Y38423D01*
G01X18477Y38427D01*
G01X18453Y38428D01*
G01X16983Y38428D01*
G01X16960Y38427D01*
G01X16936Y38423D01*
G01X16913Y38418D01*
G01X16890Y38410D01*
G01X16868Y38400D01*
G01X16847Y38389D01*
G01X16828Y38375D01*
G01X16809Y38360D01*
G01X16793Y38343D01*
G01X16777Y38324D01*
G01X16764Y38304D01*
G01X16753Y38283D01*
G01X16743Y38261D01*
G01X16736Y38239D01*
G01X16731Y38215D01*
G01X16728Y38192D01*
G01X16725Y38177D01*
G01X16721Y38162D01*
G01X16714Y38149D01*
G01X16706Y38136D01*
G01X16695Y38125D01*
G01X16684Y38116D01*
G01X16670Y38108D01*
G01X16656Y38103D01*
G01X16642Y38099D01*
G01X16626Y38098D01*
G01X16449Y38098D01*
G01X16434Y38099D01*
G01X16419Y38103D01*
G01X16405Y38108D01*
G01X16392Y38116D01*
G01X16380Y38125D01*
G01X16369Y38136D01*
G01X16361Y38149D01*
G01X16354Y38162D01*
G01X16350Y38177D01*
G01X16347Y38192D01*
G01X16344Y38215D01*
G01X16339Y38239D01*
G01X16332Y38262D01*
G01X16322Y38284D01*
G01X16311Y38305D01*
G01X16298Y38324D01*
G01X16283Y38343D01*
G01X16266Y38360D01*
G01X16247Y38375D01*
G01X16228Y38389D01*
G01X16207Y38401D01*
G01X16185Y38411D01*
G01X16162Y38418D01*
G01X16139Y38424D01*
G01X16115Y38427D01*
G01X16092Y38428D01*
G01X15965Y38428D01*
G01X15950Y38429D01*
G01X15936Y38432D01*
G01X15922Y38437D01*
G01X15910Y38444D01*
G01X15898Y38453D01*
G01X15888Y38463D01*
G01X15879Y38475D01*
G01X15872Y38488D01*
G01X15867Y38501D01*
G01X15864Y38515D01*
G01X15863Y38530D01*
G01X15863Y38812D01*
G01X15864Y38827D01*
G01X15867Y38841D01*
G01X15872Y38855D01*
G01X15879Y38867D01*
G01X15888Y38879D01*
G01X15898Y38889D01*
G01X15910Y38898D01*
G01X15922Y38905D01*
G01X15936Y38910D01*
G01X15950Y38913D01*
G01X15965Y38914D01*
G01X16092Y38914D01*
G01X16115Y38915D01*
G01X16139Y38918D01*
G01X16162Y38924D01*
G01X16184Y38931D01*
G01X16206Y38941D01*
G01X16227Y38953D01*
G01X16246Y38966D01*
G01X16264Y38981D01*
G01X16281Y38998D01*
G01X16296Y39016D01*
G01X16310Y39036D01*
G01X16321Y39056D01*
G01X16331Y39078D01*
G01X16338Y39100D01*
G01X16344Y39123D01*
G01X16347Y39147D01*
G01X16348Y39171D01*
G01X16348Y39260D01*
G01X16349Y39273D01*
G01X16351Y39306D01*
G01X16348Y42153D01*
G01X16348Y42363D01*
G01X16347Y42386D01*
G01X16344Y42410D01*
G01X16338Y42433D01*
G01X16331Y42455D01*
G01X16321Y42477D01*
G01X16310Y42498D01*
G01X16296Y42517D01*
G01X16281Y42535D01*
G01X16264Y42552D01*
G01X16246Y42567D01*
G01X16227Y42581D01*
G01X16206Y42592D01*
G01X16184Y42602D01*
G01X16162Y42609D01*
G01X16139Y42615D01*
G01X16115Y42618D01*
G01X16092Y42619D01*
G01X14622Y42619D01*
G01X14598Y42618D01*
G01X14574Y42615D01*
G01X14551Y42609D01*
G01X14528Y42602D01*
G01X14506Y42592D01*
G01X14486Y42580D01*
G01X14466Y42566D01*
G01X14448Y42551D01*
G01X14431Y42534D01*
G01X14416Y42515D01*
G01X14402Y42496D01*
G01X14391Y42475D01*
G01X14381Y42453D01*
G01X14374Y42430D01*
G01X14369Y42406D01*
G01X14366Y42383D01*
G01X14364Y42368D01*
G01X14359Y42353D01*
G01X14353Y42340D01*
G01X14344Y42327D01*
G01X14334Y42316D01*
G01X14322Y42307D01*
G01X14309Y42299D01*
G01X14295Y42294D01*
G01X14280Y42290D01*
G01X14265Y42289D01*
G01X14140Y42289D01*
G01X14125Y42290D01*
G01X14111Y42293D01*
G01X14097Y42298D01*
G01X14085Y42305D01*
G01X14073Y42314D01*
G01X14063Y42324D01*
G01X14054Y42336D01*
G01X14047Y42348D01*
G01X14042Y42362D01*
G01X14039Y42376D01*
G01X14038Y42391D01*
G01X14038Y42926D01*
G01X14037Y42949D01*
G01X14034Y42973D01*
G01X14028Y42996D01*
G01X14021Y43018D01*
G01X14011Y43040D01*
G01X14000Y43061D01*
G01X13986Y43080D01*
G01X13971Y43098D01*
G01X13954Y43115D01*
G01X13936Y43130D01*
G01X13917Y43144D01*
G01X13896Y43155D01*
G01X13874Y43165D01*
G01X13852Y43172D01*
G01X13829Y43178D01*
G01X13805Y43181D01*
G01X13782Y43182D01*
G37*
G36*
G01X34088Y30344D02*
G01X10710Y30344D01*
G01X10663Y30343D01*
G01X10617Y30340D01*
G01X10570Y30334D01*
G01X10525Y30327D01*
G01X10479Y30317D01*
G01X10434Y30306D01*
G01X10389Y30292D01*
G01X10346Y30276D01*
G01X10303Y30258D01*
G01X10261Y30238D01*
G01X10219Y30217D01*
G01X10179Y30193D01*
G01X10140Y30168D01*
G01X10102Y30141D01*
G01X10066Y30112D01*
G01X10031Y30081D01*
G01X9997Y30049D01*
G01X9965Y30015D01*
G01X9935Y29980D01*
G01X9906Y29944D01*
G01X9878Y29906D01*
G01X9853Y29867D01*
G01X9829Y29827D01*
G01X9808Y29786D01*
G01X9788Y29743D01*
G01X9770Y29700D01*
G01X9754Y29657D01*
G01X9741Y29612D01*
G01X9729Y29567D01*
G01X9719Y29522D01*
G01X9712Y29476D01*
G01X9706Y29429D01*
G01X9703Y29383D01*
G01X9702Y29337D01*
G01X9703Y29290D01*
G01X9706Y29244D01*
G01X9712Y29197D01*
G01X9719Y29151D01*
G01X9729Y29106D01*
G01X9741Y29061D01*
G01X9754Y29016D01*
G01X9770Y28973D01*
G01X9788Y28930D01*
G01X9808Y28887D01*
G01X9829Y28846D01*
G01X9853Y28806D01*
G01X9878Y28767D01*
G01X9906Y28729D01*
G01X9935Y28693D01*
G01X9965Y28658D01*
G01X9997Y28624D01*
G01X10031Y28592D01*
G01X10066Y28561D01*
G01X10102Y28532D01*
G01X10140Y28505D01*
G01X10179Y28480D01*
G01X10219Y28456D01*
G01X10261Y28435D01*
G01X10303Y28415D01*
G01X10346Y28397D01*
G01X10389Y28381D01*
G01X10434Y28367D01*
G01X10479Y28356D01*
G01X10524Y28346D01*
G01X10570Y28339D01*
G01X10617Y28333D01*
G01X10663Y28330D01*
G01X10710Y28329D01*
G01X34088Y28329D01*
G01X34127Y28328D01*
G01X34166Y28325D01*
G01X34204Y28320D01*
G01X34243Y28313D01*
G01X34280Y28303D01*
G01X34317Y28292D01*
G01X34354Y28278D01*
G01X34390Y28263D01*
G01X34425Y28246D01*
G01X34458Y28227D01*
G01X34491Y28206D01*
G01X34523Y28183D01*
G01X34553Y28159D01*
G01X34582Y28133D01*
G01X34610Y28105D01*
G01X34636Y28076D01*
G01X34660Y28046D01*
G01X34683Y28014D01*
G01X34704Y27981D01*
G01X34723Y27948D01*
G01X34740Y27913D01*
G01X34755Y27877D01*
G01X34756Y27876D01*
G01X34756Y27875D01*
G01X34761Y27862D01*
G01X34769Y27840D01*
G01X34769Y27839D01*
G01X34775Y27819D01*
G01X34780Y27803D01*
G01X34781Y27802D01*
G01X34790Y27766D01*
G01X34790Y27764D01*
G01X34793Y27748D01*
G01X34797Y27727D01*
G01X34798Y27719D01*
G01X34802Y27688D01*
G01X34804Y27664D01*
G01X34805Y27650D01*
G01X34806Y27611D01*
G01X34806Y27552D01*
G01X34805Y27537D01*
G01X34801Y27523D01*
G01X34796Y27509D01*
G01X34789Y27497D01*
G01X34781Y27485D01*
G01X34771Y27475D01*
G01X34759Y27466D01*
G01X34746Y27459D01*
G01X34733Y27454D01*
G01X34718Y27451D01*
G01X34704Y27450D01*
G01X34671Y27450D01*
G01X34646Y27449D01*
G01X34639Y27448D01*
G01X34622Y27446D01*
G01X34613Y27444D01*
G01X34599Y27440D01*
G01X34588Y27437D01*
G01X34575Y27433D01*
G01X34565Y27429D01*
G01X34531Y27412D01*
G01X34522Y27406D01*
G01X34511Y27398D01*
G01X34502Y27392D01*
G01X34492Y27383D01*
G01X34474Y27367D01*
G01X34466Y27358D01*
G01X34458Y27348D01*
G01X34447Y27334D01*
G01X34434Y27314D01*
G01X34423Y27293D01*
G01X34414Y27271D01*
G01X34407Y27248D01*
G01X34402Y27225D01*
G01X34399Y27201D01*
G01X34398Y27178D01*
G01X34398Y24130D01*
G01X34399Y24106D01*
G01X34402Y24082D01*
G01X34407Y24059D01*
G01X34414Y24036D01*
G01X34423Y24014D01*
G01X34434Y23993D01*
G01X34447Y23973D01*
G01X34462Y23954D01*
G01X34478Y23937D01*
G01X34495Y23921D01*
G01X34514Y23906D01*
G01X34534Y23893D01*
G01X34555Y23882D01*
G01X34577Y23873D01*
G01X34600Y23866D01*
G01X34623Y23861D01*
G01X34647Y23858D01*
G01X34671Y23857D01*
G01X36957Y23857D01*
G01X36980Y23858D01*
G01X37004Y23861D01*
G01X37027Y23866D01*
G01X37050Y23873D01*
G01X37072Y23882D01*
G01X37093Y23893D01*
G01X37113Y23906D01*
G01X37132Y23921D01*
G01X37149Y23937D01*
G01X37165Y23954D01*
G01X37180Y23973D01*
G01X37193Y23993D01*
G01X37204Y24014D01*
G01X37213Y24036D01*
G01X37220Y24059D01*
G01X37225Y24082D01*
G01X37228Y24106D01*
G01X37229Y24130D01*
G01X37229Y27178D01*
G01X37228Y27201D01*
G01X37225Y27225D01*
G01X37220Y27248D01*
G01X37213Y27271D01*
G01X37204Y27293D01*
G01X37193Y27314D01*
G01X37180Y27334D01*
G01X37169Y27348D01*
G01X37161Y27358D01*
G01X37153Y27367D01*
G01X37135Y27383D01*
G01X37125Y27392D01*
G01X37116Y27398D01*
G01X37105Y27406D01*
G01X37096Y27412D01*
G01X37062Y27429D01*
G01X37052Y27433D01*
G01X37039Y27437D01*
G01X37028Y27440D01*
G01X37014Y27444D01*
G01X37005Y27446D01*
G01X36988Y27448D01*
G01X36981Y27449D01*
G01X36957Y27450D01*
G01X36922Y27450D01*
G01X36908Y27451D01*
G01X36894Y27454D01*
G01X36880Y27459D01*
G01X36868Y27466D01*
G01X36856Y27475D01*
G01X36846Y27485D01*
G01X36837Y27497D01*
G01X36830Y27509D01*
G01X36825Y27523D01*
G01X36822Y27537D01*
G01X36821Y27552D01*
G01X36821Y27611D01*
G01X36820Y27708D01*
G01X36818Y27734D01*
G01X36813Y27822D01*
G01X36812Y27837D01*
G01X36805Y27912D01*
G01X36796Y27987D01*
G01X36784Y28061D01*
G01X36771Y28135D01*
G01X36755Y28209D01*
G01X36738Y28282D01*
G01X36718Y28355D01*
G01X36697Y28427D01*
G01X36673Y28499D01*
G01X36648Y28570D01*
G01X36621Y28640D01*
G01X36591Y28709D01*
G01X36560Y28778D01*
G01X36527Y28845D01*
G01X36492Y28912D01*
G01X36455Y28978D01*
G01X36417Y29042D01*
G01X36376Y29106D01*
G01X36334Y29169D01*
G01X36291Y29230D01*
G01X36245Y29290D01*
G01X36198Y29349D01*
G01X36149Y29406D01*
G01X36099Y29462D01*
G01X36047Y29517D01*
G01X35994Y29570D01*
G01X35939Y29622D01*
G01X35883Y29672D01*
G01X35826Y29721D01*
G01X35767Y29768D01*
G01X35707Y29814D01*
G01X35646Y29857D01*
G01X35583Y29899D01*
G01X35520Y29940D01*
G01X35455Y29978D01*
G01X35389Y30015D01*
G01X35322Y30050D01*
G01X35255Y30083D01*
G01X35186Y30114D01*
G01X35117Y30144D01*
G01X35047Y30171D01*
G01X34976Y30196D01*
G01X34904Y30220D01*
G01X34832Y30241D01*
G01X34759Y30261D01*
G01X34686Y30278D01*
G01X34612Y30294D01*
G01X34538Y30307D01*
G01X34464Y30319D01*
G01X34389Y30328D01*
G01X34314Y30335D01*
G01X34239Y30340D01*
G01X34163Y30343D01*
G01X34088Y30344D01*
G37*
G36*
G01X68749Y38842D02*
G01X67049Y38842D01*
G01X67025Y38841D01*
G01X67002Y38838D01*
G01X66979Y38832D01*
G01X66956Y38825D01*
G01X66935Y38815D01*
G01X66914Y38804D01*
G01X66895Y38790D01*
G01X66876Y38775D01*
G01X66860Y38758D01*
G01X66844Y38740D01*
G01X66831Y38720D01*
G01X66820Y38700D01*
G01X66810Y38678D01*
G01X66802Y38656D01*
G01X66797Y38633D01*
G01X66794Y38609D01*
G01X66793Y38585D01*
G01X66793Y38344D01*
G01X66792Y38329D01*
G01X66788Y38315D01*
G01X66783Y38301D01*
G01X66776Y38289D01*
G01X66768Y38277D01*
G01X66758Y38267D01*
G01X66746Y38258D01*
G01X66733Y38251D01*
G01X66720Y38246D01*
G01X66705Y38243D01*
G01X66691Y38242D01*
G01X65962Y38242D01*
G01X65947Y38243D01*
G01X65933Y38246D01*
G01X65919Y38251D01*
G01X65907Y38258D01*
G01X65895Y38267D01*
G01X65885Y38277D01*
G01X65876Y38289D01*
G01X65869Y38301D01*
G01X65864Y38315D01*
G01X65861Y38329D01*
G01X65860Y38344D01*
G01X65860Y38460D01*
G01X65859Y38484D01*
G01X65856Y38508D01*
G01X65850Y38531D01*
G01X65843Y38553D01*
G01X65833Y38575D01*
G01X65822Y38596D01*
G01X65808Y38615D01*
G01X65793Y38633D01*
G01X65776Y38650D01*
G01X65758Y38665D01*
G01X65739Y38679D01*
G01X65718Y38690D01*
G01X65696Y38700D01*
G01X65674Y38707D01*
G01X65651Y38713D01*
G01X65627Y38716D01*
G01X65604Y38717D01*
G01X62412Y38717D01*
G01X62388Y38716D01*
G01X62364Y38713D01*
G01X62341Y38707D01*
G01X62319Y38700D01*
G01X62297Y38690D01*
G01X62276Y38679D01*
G01X62257Y38665D01*
G01X62239Y38650D01*
G01X62222Y38633D01*
G01X62207Y38615D01*
G01X62193Y38596D01*
G01X62182Y38575D01*
G01X62172Y38553D01*
G01X62165Y38531D01*
G01X62159Y38508D01*
G01X62156Y38484D01*
G01X62155Y38460D01*
G01X62155Y38341D01*
G01X62154Y38327D01*
G01X62151Y38313D01*
G01X62146Y38299D01*
G01X62139Y38286D01*
G01X62130Y38275D01*
G01X62120Y38264D01*
G01X62108Y38256D01*
G01X62096Y38249D01*
G01X62082Y38244D01*
G01X62068Y38241D01*
G01X62054Y38240D01*
G01X57402Y38225D01*
G01X57369Y38224D01*
G01X57336Y38221D01*
G01X57304Y38215D01*
G01X57271Y38207D01*
G01X57240Y38198D01*
G01X57209Y38186D01*
G01X57179Y38172D01*
G01X57150Y38157D01*
G01X57122Y38139D01*
G01X57095Y38120D01*
G01X57069Y38099D01*
G01X57045Y38077D01*
G01X54505Y35537D01*
G01X54483Y35512D01*
G01X54462Y35487D01*
G01X54442Y35460D01*
G01X54425Y35432D01*
G01X54409Y35403D01*
G01X54396Y35372D01*
G01X54384Y35341D01*
G01X54374Y35310D01*
G01X54367Y35277D01*
G01X54361Y35245D01*
G01X54358Y35212D01*
G01X54357Y35178D01*
G01X54357Y32240D01*
G01X54356Y32225D01*
G01X54352Y32210D01*
G01X54346Y32195D01*
G01X54338Y32182D01*
G01X54328Y32169D01*
G01X54316Y32159D01*
G01X54303Y32151D01*
G01X54289Y32144D01*
G01X54232Y32124D01*
G01X54176Y32101D01*
G01X54121Y32076D01*
G01X54067Y32050D01*
G01X54013Y32022D01*
G01X53961Y31992D01*
G01X53910Y31960D01*
G01X53860Y31926D01*
G01X53811Y31891D01*
G01X53763Y31854D01*
G01X53716Y31815D01*
G01X53671Y31775D01*
G01X53628Y31733D01*
G01X53586Y31690D01*
G01X53545Y31645D01*
G01X53506Y31599D01*
G01X53468Y31552D01*
G01X53432Y31503D01*
G01X53398Y31454D01*
G01X53366Y31403D01*
G01X53335Y31351D01*
G01X53306Y31298D01*
G01X53279Y31244D01*
G01X53254Y31189D01*
G01X53231Y31133D01*
G01X53210Y31077D01*
G01X53190Y31019D01*
G01X53173Y30962D01*
G01X53157Y30903D01*
G01X53144Y30844D01*
G01X53133Y30785D01*
G01X53123Y30725D01*
G01X53116Y30665D01*
G01X53111Y30605D01*
G01X53108Y30545D01*
G01X53107Y30485D01*
G01X53108Y30425D01*
G01X53111Y30365D01*
G01X53116Y30305D01*
G01X53123Y30245D01*
G01X53132Y30186D01*
G01X53144Y30127D01*
G01X53157Y30069D01*
G01X53172Y30011D01*
G01X53189Y29953D01*
G01X53208Y29896D01*
G01X53229Y29840D01*
G01X53252Y29785D01*
G01X53277Y29730D01*
G01X53304Y29676D01*
G01X53332Y29624D01*
G01X53363Y29572D01*
G01X53395Y29521D01*
G01X53428Y29472D01*
G01X53464Y29423D01*
G01X53501Y29376D01*
G01X53539Y29330D01*
G01X53580Y29286D01*
G01X53621Y29243D01*
G01X53664Y29201D01*
G01X53709Y29161D01*
G01X53755Y29122D01*
G01X53802Y29085D01*
G01X53850Y29050D01*
G01X53900Y29016D01*
G01X53951Y28984D01*
G01X54002Y28953D01*
G01X54055Y28925D01*
G01X54109Y28898D01*
G01X54164Y28873D01*
G01X54219Y28851D01*
G01X54275Y28829D01*
G01X54332Y28810D01*
G01X54389Y28793D01*
G01X54447Y28778D01*
G01X54506Y28765D01*
G01X54565Y28754D01*
G01X54624Y28744D01*
G01X54684Y28737D01*
G01X54743Y28732D01*
G01X54803Y28729D01*
G01X54863Y28728D01*
G01X54923Y28729D01*
G01X54983Y28732D01*
G01X55043Y28737D01*
G01X55103Y28744D01*
G01X55162Y28754D01*
G01X55221Y28765D01*
G01X55279Y28778D01*
G01X55337Y28793D01*
G01X55395Y28810D01*
G01X55452Y28829D01*
G01X55508Y28851D01*
G01X55563Y28873D01*
G01X55618Y28898D01*
G01X55671Y28925D01*
G01X55724Y28953D01*
G01X55776Y28984D01*
G01X55827Y29016D01*
G01X55876Y29050D01*
G01X55925Y29085D01*
G01X55972Y29122D01*
G01X56018Y29161D01*
G01X56062Y29201D01*
G01X56105Y29243D01*
G01X56147Y29286D01*
G01X56187Y29330D01*
G01X56226Y29376D01*
G01X56263Y29423D01*
G01X56298Y29472D01*
G01X56332Y29521D01*
G01X56364Y29572D01*
G01X56394Y29624D01*
G01X56423Y29676D01*
G01X56450Y29730D01*
G01X56474Y29785D01*
G01X56497Y29840D01*
G01X56518Y29896D01*
G01X56538Y29953D01*
G01X56555Y30011D01*
G01X56570Y30069D01*
G01X56583Y30127D01*
G01X56594Y30186D01*
G01X56604Y30245D01*
G01X56611Y30305D01*
G01X56616Y30365D01*
G01X56619Y30425D01*
G01X56620Y30485D01*
G01X56619Y30545D01*
G01X56616Y30605D01*
G01X56611Y30665D01*
G01X56603Y30725D01*
G01X56594Y30785D01*
G01X56583Y30844D01*
G01X56569Y30903D01*
G01X56554Y30961D01*
G01X56536Y31019D01*
G01X56517Y31076D01*
G01X56496Y31133D01*
G01X56473Y31189D01*
G01X56447Y31244D01*
G01X56420Y31298D01*
G01X56392Y31351D01*
G01X56361Y31403D01*
G01X56328Y31453D01*
G01X56294Y31503D01*
G01X56258Y31552D01*
G01X56221Y31599D01*
G01X56182Y31645D01*
G01X56141Y31690D01*
G01X56099Y31733D01*
G01X56055Y31775D01*
G01X56010Y31815D01*
G01X55964Y31853D01*
G01X55916Y31890D01*
G01X55867Y31926D01*
G01X55817Y31959D01*
G01X55766Y31991D01*
G01X55714Y32022D01*
G01X55660Y32050D01*
G01X55606Y32076D01*
G01X55551Y32101D01*
G01X55495Y32124D01*
G01X55438Y32144D01*
G01X55424Y32151D01*
G01X55411Y32159D01*
G01X55399Y32169D01*
G01X55389Y32181D01*
G01X55381Y32195D01*
G01X55375Y32209D01*
G01X55371Y32225D01*
G01X55370Y32240D01*
G01X55370Y34927D01*
G01X55371Y34942D01*
G01X55375Y34958D01*
G01X55381Y34973D01*
G01X55389Y34986D01*
G01X55400Y34998D01*
G01X57584Y37183D01*
G01X57596Y37193D01*
G01X57610Y37202D01*
G01X57625Y37208D01*
G01X57640Y37211D01*
G01X57656Y37213D01*
G01X62053Y37226D01*
G01X62068Y37225D01*
G01X62082Y37222D01*
G01X62096Y37217D01*
G01X62108Y37210D01*
G01X62120Y37202D01*
G01X62130Y37191D01*
G01X62139Y37180D01*
G01X62146Y37167D01*
G01X62151Y37153D01*
G01X62154Y37139D01*
G01X62155Y37125D01*
G01X62155Y37011D01*
G01X62156Y36987D01*
G01X62159Y36963D01*
G01X62165Y36940D01*
G01X62172Y36918D01*
G01X62182Y36896D01*
G01X62193Y36875D01*
G01X62207Y36856D01*
G01X62222Y36838D01*
G01X62239Y36821D01*
G01X62257Y36806D01*
G01X62276Y36792D01*
G01X62297Y36781D01*
G01X62319Y36771D01*
G01X62341Y36764D01*
G01X62364Y36758D01*
G01X62388Y36755D01*
G01X62412Y36754D01*
G01X65604Y36754D01*
G01X65627Y36755D01*
G01X65651Y36758D01*
G01X65674Y36764D01*
G01X65696Y36771D01*
G01X65718Y36781D01*
G01X65739Y36792D01*
G01X65758Y36806D01*
G01X65776Y36821D01*
G01X65793Y36838D01*
G01X65808Y36856D01*
G01X65822Y36875D01*
G01X65833Y36896D01*
G01X65843Y36918D01*
G01X65850Y36940D01*
G01X65856Y36963D01*
G01X65859Y36987D01*
G01X65860Y37011D01*
G01X65860Y37127D01*
G01X65861Y37142D01*
G01X65864Y37156D01*
G01X65869Y37170D01*
G01X65876Y37182D01*
G01X65885Y37194D01*
G01X65895Y37204D01*
G01X65907Y37213D01*
G01X65919Y37220D01*
G01X65933Y37225D01*
G01X65947Y37228D01*
G01X65962Y37229D01*
G01X66691Y37229D01*
G01X66705Y37228D01*
G01X66720Y37225D01*
G01X66733Y37220D01*
G01X66746Y37213D01*
G01X66758Y37204D01*
G01X66768Y37194D01*
G01X66776Y37182D01*
G01X66783Y37170D01*
G01X66788Y37156D01*
G01X66792Y37142D01*
G01X66793Y37127D01*
G01X66793Y36885D01*
G01X66794Y36862D01*
G01X66797Y36838D01*
G01X66802Y36815D01*
G01X66810Y36793D01*
G01X66820Y36771D01*
G01X66831Y36750D01*
G01X66844Y36731D01*
G01X66860Y36713D01*
G01X66876Y36696D01*
G01X66895Y36681D01*
G01X66914Y36667D01*
G01X66935Y36656D01*
G01X66956Y36646D01*
G01X66979Y36639D01*
G01X67002Y36633D01*
G01X67025Y36630D01*
G01X67049Y36629D01*
G01X68749Y36629D01*
G01X68773Y36630D01*
G01X68796Y36633D01*
G01X68820Y36639D01*
G01X68842Y36646D01*
G01X68864Y36656D01*
G01X68885Y36667D01*
G01X68904Y36681D01*
G01X68922Y36696D01*
G01X68939Y36713D01*
G01X68954Y36731D01*
G01X68968Y36751D01*
G01X68979Y36772D01*
G01X68989Y36793D01*
G01X68996Y36816D01*
G01X69001Y36839D01*
G01X69006Y36854D01*
G01X69012Y36869D01*
G01X69020Y36882D01*
G01X69031Y36894D01*
G01X69043Y36904D01*
G01X69056Y36912D01*
G01X69071Y36918D01*
G01X69086Y36921D01*
G01X69101Y36922D01*
G01X69116Y36921D01*
G01X69130Y36918D01*
G01X69144Y36913D01*
G01X69156Y36906D01*
G01X69168Y36898D01*
G01X69212Y36861D01*
G01X69258Y36828D01*
G01X69305Y36796D01*
G01X69354Y36767D01*
G01X69404Y36741D01*
G01X69404Y37245D01*
G01X69107Y37245D01*
G01X69093Y37246D01*
G01X69079Y37249D01*
G01X69065Y37254D01*
G01X69052Y37261D01*
G01X69041Y37270D01*
G01X69031Y37280D01*
G01X69022Y37292D01*
G01X69015Y37305D01*
G01X69010Y37318D01*
G01X69007Y37332D01*
G01X69006Y37347D01*
G01X69006Y38121D01*
G01X69007Y38135D01*
G01X69010Y38149D01*
G01X69015Y38163D01*
G01X69022Y38176D01*
G01X69031Y38187D01*
G01X69041Y38197D01*
G01X69052Y38206D01*
G01X69065Y38213D01*
G01X69079Y38218D01*
G01X69093Y38221D01*
G01X69107Y38222D01*
G01X69404Y38222D01*
G01X69404Y38727D01*
G01X69354Y38700D01*
G01X69305Y38671D01*
G01X69258Y38640D01*
G01X69212Y38606D01*
G01X69168Y38570D01*
G01X69157Y38562D01*
G01X69144Y38555D01*
G01X69131Y38550D01*
G01X69116Y38547D01*
G01X69102Y38546D01*
G01X69086Y38547D01*
G01X69071Y38550D01*
G01X69056Y38556D01*
G01X69043Y38565D01*
G01X69031Y38575D01*
G01X69020Y38587D01*
G01X69012Y38600D01*
G01X69006Y38614D01*
G01X69002Y38630D01*
G01X68997Y38653D01*
G01X68989Y38676D01*
G01X68980Y38698D01*
G01X68968Y38719D01*
G01X68955Y38738D01*
G01X68940Y38757D01*
G01X68923Y38774D01*
G01X68905Y38789D01*
G01X68885Y38803D01*
G01X68864Y38815D01*
G01X68843Y38824D01*
G01X68820Y38832D01*
G01X68797Y38837D01*
G01X68773Y38841D01*
G01X68749Y38842D01*
G37*
G36*
G01X72667Y44509D02*
G01X72603Y44510D01*
G01X72539Y44509D01*
G01X72475Y44506D01*
G01X72411Y44501D01*
G01X72347Y44494D01*
G01X72284Y44485D01*
G01X72221Y44474D01*
G01X72158Y44460D01*
G01X72096Y44445D01*
G01X72034Y44428D01*
G01X71973Y44409D01*
G01X71912Y44388D01*
G01X71852Y44365D01*
G01X71793Y44340D01*
G01X71735Y44313D01*
G01X71678Y44284D01*
G01X71621Y44254D01*
G01X71566Y44222D01*
G01X71511Y44188D01*
G01X71458Y44152D01*
G01X71406Y44114D01*
G01X71355Y44075D01*
G01X71306Y44035D01*
G01X71258Y43993D01*
G01X71211Y43949D01*
G01X71165Y43904D01*
G01X71121Y43857D01*
G01X71079Y43809D01*
G01X71038Y43760D01*
G01X70999Y43709D01*
G01X70961Y43657D01*
G01X70925Y43604D01*
G01X70891Y43550D01*
G01X70858Y43495D01*
G01X70827Y43438D01*
G01X70798Y43381D01*
G01X70771Y43323D01*
G01X70746Y43264D01*
G01X70739Y43251D01*
G01X70731Y43238D01*
G01X70709Y43218D01*
G01X70696Y43211D01*
G01X70682Y43205D01*
G01X70667Y43202D01*
G01X70652Y43201D01*
G01X65961Y43201D01*
G01X65946Y43202D01*
G01X65931Y43206D01*
G01X65917Y43211D01*
G01X65903Y43219D01*
G01X65892Y43228D01*
G01X65881Y43240D01*
G01X65873Y43252D01*
G01X65866Y43266D01*
G01X65862Y43281D01*
G01X65860Y43296D01*
G01X65857Y43320D01*
G01X65852Y43344D01*
G01X65845Y43367D01*
G01X65836Y43389D01*
G01X65824Y43410D01*
G01X65811Y43430D01*
G01X65796Y43449D01*
G01X65779Y43466D01*
G01X65761Y43482D01*
G01X65741Y43496D01*
G01X65720Y43508D01*
G01X65698Y43518D01*
G01X65675Y43525D01*
G01X65652Y43531D01*
G01X65628Y43534D01*
G01X65604Y43536D01*
G01X64444Y43536D01*
G01X64420Y43535D01*
G01X64396Y43531D01*
G01X64373Y43526D01*
G01X64351Y43518D01*
G01X64329Y43509D01*
G01X64309Y43497D01*
G01X64289Y43484D01*
G01X64271Y43469D01*
G01X64254Y43452D01*
G01X64239Y43434D01*
G01X64226Y43414D01*
G01X64214Y43393D01*
G01X64204Y43372D01*
G01X64197Y43349D01*
G01X64191Y43326D01*
G01X64188Y43303D01*
G01X64187Y43279D01*
G01X64187Y41809D01*
G01X64188Y41785D01*
G01X64191Y41762D01*
G01X64197Y41739D01*
G01X64204Y41716D01*
G01X64214Y41695D01*
G01X64226Y41674D01*
G01X64239Y41655D01*
G01X64254Y41636D01*
G01X64271Y41620D01*
G01X64289Y41604D01*
G01X64309Y41591D01*
G01X64329Y41580D01*
G01X64351Y41570D01*
G01X64373Y41562D01*
G01X64396Y41557D01*
G01X64420Y41554D01*
G01X64444Y41553D01*
G01X65604Y41553D01*
G01X65628Y41554D01*
G01X65652Y41557D01*
G01X65675Y41563D01*
G01X65698Y41571D01*
G01X65720Y41581D01*
G01X65741Y41593D01*
G01X65761Y41606D01*
G01X65779Y41622D01*
G01X65796Y41639D01*
G01X65811Y41658D01*
G01X65824Y41678D01*
G01X65836Y41700D01*
G01X65845Y41722D01*
G01X65852Y41745D01*
G01X65857Y41769D01*
G01X65860Y41793D01*
G01X65862Y41808D01*
G01X65866Y41823D01*
G01X65873Y41836D01*
G01X65881Y41849D01*
G01X65892Y41860D01*
G01X65903Y41870D01*
G01X65917Y41878D01*
G01X65931Y41883D01*
G01X65946Y41887D01*
G01X65961Y41888D01*
G01X70621Y41888D01*
G01X70636Y41887D01*
G01X70651Y41883D01*
G01X70666Y41877D01*
G01X70679Y41870D01*
G01X70691Y41860D01*
G01X70701Y41848D01*
G01X70710Y41835D01*
G01X70716Y41821D01*
G01X70739Y41761D01*
G01X70764Y41701D01*
G01X70791Y41642D01*
G01X70820Y41584D01*
G01X70850Y41527D01*
G01X70882Y41471D01*
G01X70952Y41363D01*
G01X70990Y41310D01*
G01X71029Y41259D01*
G01X71070Y41209D01*
G01X71113Y41160D01*
G01X71157Y41113D01*
G01X71202Y41067D01*
G01X71249Y41023D01*
G01X71298Y40980D01*
G01X71347Y40939D01*
G01X71398Y40899D01*
G01X71451Y40861D01*
G01X71504Y40825D01*
G01X71559Y40791D01*
G01X71614Y40758D01*
G01X71671Y40727D01*
G01X71729Y40698D01*
G01X71787Y40671D01*
G01X71847Y40645D01*
G01X71907Y40622D01*
G01X71968Y40600D01*
G01X72030Y40581D01*
G01X72092Y40564D01*
G01X72154Y40548D01*
G01X72218Y40535D01*
G01X72281Y40523D01*
G01X72345Y40514D01*
G01X72409Y40507D01*
G01X72474Y40502D01*
G01X72538Y40498D01*
G01X72603Y40497D01*
G01X72667Y40498D01*
G01X72731Y40502D01*
G01X72796Y40507D01*
G01X72859Y40514D01*
G01X72923Y40523D01*
G01X72986Y40534D01*
G01X73049Y40548D01*
G01X73112Y40563D01*
G01X73174Y40580D01*
G01X73235Y40600D01*
G01X73296Y40621D01*
G01X73356Y40644D01*
G01X73415Y40669D01*
G01X73473Y40696D01*
G01X73531Y40725D01*
G01X73587Y40756D01*
G01X73643Y40788D01*
G01X73697Y40822D01*
G01X73751Y40858D01*
G01X73803Y40896D01*
G01X73854Y40935D01*
G01X73904Y40976D01*
G01X73952Y41019D01*
G01X73999Y41063D01*
G01X74044Y41108D01*
G01X74088Y41155D01*
G01X74131Y41203D01*
G01X74172Y41253D01*
G01X74211Y41304D01*
G01X74249Y41356D01*
G01X74284Y41409D01*
G01X74319Y41464D01*
G01X74351Y41519D01*
G01X74382Y41576D01*
G01X74411Y41633D01*
G01X74438Y41692D01*
G01X74463Y41751D01*
G01X74486Y41811D01*
G01X74507Y41872D01*
G01X74526Y41933D01*
G01X74544Y41995D01*
G01X74559Y42057D01*
G01X74572Y42120D01*
G01X74584Y42184D01*
G01X74593Y42247D01*
G01X74600Y42311D01*
G01X74605Y42375D01*
G01X74608Y42440D01*
G01X74609Y42504D01*
G01X74608Y42568D01*
G01X74605Y42632D01*
G01X74600Y42697D01*
G01X74593Y42760D01*
G01X74584Y42824D01*
G01X74572Y42887D01*
G01X74559Y42950D01*
G01X74544Y43013D01*
G01X74526Y43075D01*
G01X74507Y43136D01*
G01X74486Y43197D01*
G01X74463Y43257D01*
G01X74438Y43316D01*
G01X74411Y43374D01*
G01X74382Y43432D01*
G01X74351Y43488D01*
G01X74319Y43544D01*
G01X74249Y43652D01*
G01X74211Y43704D01*
G01X74172Y43755D01*
G01X74131Y43805D01*
G01X74088Y43853D01*
G01X74044Y43900D01*
G01X73999Y43945D01*
G01X73952Y43989D01*
G01X73904Y44032D01*
G01X73854Y44073D01*
G01X73803Y44112D01*
G01X73751Y44150D01*
G01X73643Y44220D01*
G01X73587Y44252D01*
G01X73531Y44283D01*
G01X73473Y44312D01*
G01X73415Y44339D01*
G01X73356Y44364D01*
G01X73296Y44387D01*
G01X73235Y44408D01*
G01X73174Y44427D01*
G01X73112Y44445D01*
G01X73049Y44460D01*
G01X72986Y44473D01*
G01X72923Y44485D01*
G01X72859Y44494D01*
G01X72796Y44501D01*
G01X72731Y44506D01*
G01X72667Y44509D01*
G37*
G36*
G01X67940Y36340D02*
G01X67891Y36341D01*
G01X67843Y36340D01*
G01X67795Y36337D01*
G01X67747Y36332D01*
G01X67700Y36324D01*
G01X67653Y36315D01*
G01X67606Y36303D01*
G01X67560Y36290D01*
G01X67514Y36275D01*
G01X67469Y36257D01*
G01X67425Y36238D01*
G01X67382Y36217D01*
G01X67340Y36194D01*
G01X67299Y36169D01*
G01X67259Y36142D01*
G01X67220Y36114D01*
G01X67182Y36084D01*
G01X67146Y36052D01*
G01X67111Y36019D01*
G01X67078Y35984D01*
G01X67046Y35948D01*
G01X67016Y35911D01*
G01X66987Y35872D01*
G01X66960Y35832D01*
G01X66935Y35791D01*
G01X66926Y35779D01*
G01X66916Y35768D01*
G01X66904Y35758D01*
G01X66891Y35751D01*
G01X66877Y35745D01*
G01X66862Y35742D01*
G01X66847Y35741D01*
G01X65989Y35741D01*
G01X65974Y35742D01*
G01X65959Y35746D01*
G01X65945Y35751D01*
G01X65931Y35759D01*
G01X65920Y35768D01*
G01X65909Y35779D01*
G01X65901Y35792D01*
G01X65894Y35805D01*
G01X65890Y35820D01*
G01X65887Y35835D01*
G01X65884Y35858D01*
G01X65879Y35882D01*
G01X65872Y35904D01*
G01X65862Y35926D01*
G01X65851Y35947D01*
G01X65838Y35967D01*
G01X65822Y35986D01*
G01X65806Y36003D01*
G01X65787Y36018D01*
G01X65768Y36032D01*
G01X65747Y36044D01*
G01X65725Y36053D01*
G01X65702Y36061D01*
G01X65679Y36067D01*
G01X65655Y36070D01*
G01X65632Y36071D01*
G01X64162Y36071D01*
G01X64138Y36070D01*
G01X64115Y36067D01*
G01X64091Y36061D01*
G01X64069Y36054D01*
G01X64047Y36044D01*
G01X64027Y36033D01*
G01X64007Y36019D01*
G01X63989Y36004D01*
G01X63972Y35987D01*
G01X63957Y35969D01*
G01X63944Y35949D01*
G01X63932Y35929D01*
G01X63922Y35907D01*
G01X63915Y35885D01*
G01X63910Y35862D01*
G01X63906Y35838D01*
G01X63905Y35814D01*
G01X63905Y32622D01*
G01X63906Y32599D01*
G01X63910Y32575D01*
G01X63915Y32552D01*
G01X63922Y32530D01*
G01X63932Y32508D01*
G01X63944Y32487D01*
G01X63957Y32468D01*
G01X63972Y32450D01*
G01X63989Y32433D01*
G01X64007Y32418D01*
G01X64027Y32404D01*
G01X64047Y32393D01*
G01X64069Y32383D01*
G01X64091Y32376D01*
G01X64115Y32370D01*
G01X64138Y32367D01*
G01X64162Y32366D01*
G01X65632Y32366D01*
G01X65655Y32367D01*
G01X65679Y32370D01*
G01X65702Y32376D01*
G01X65725Y32384D01*
G01X65747Y32393D01*
G01X65768Y32405D01*
G01X65787Y32419D01*
G01X65806Y32434D01*
G01X65822Y32451D01*
G01X65838Y32470D01*
G01X65851Y32489D01*
G01X65862Y32510D01*
G01X65872Y32532D01*
G01X65879Y32555D01*
G01X65884Y32578D01*
G01X65887Y32602D01*
G01X65890Y32617D01*
G01X65894Y32632D01*
G01X65901Y32645D01*
G01X65909Y32658D01*
G01X65920Y32669D01*
G01X65931Y32678D01*
G01X65945Y32686D01*
G01X65959Y32691D01*
G01X65974Y32695D01*
G01X65989Y32696D01*
G01X69270Y32696D01*
G01X69303Y32697D01*
G01X69336Y32700D01*
G01X69369Y32706D01*
G01X69401Y32713D01*
G01X69433Y32723D01*
G01X69464Y32734D01*
G01X69494Y32748D01*
G01X69524Y32764D01*
G01X69552Y32781D01*
G01X69579Y32801D01*
G01X69604Y32822D01*
G01X69629Y32844D01*
G01X70251Y33467D01*
G01X70274Y33491D01*
G01X70295Y33516D01*
G01X70314Y33543D01*
G01X70331Y33571D01*
G01X70347Y33601D01*
G01X70361Y33631D01*
G01X70372Y33662D01*
G01X70382Y33694D01*
G01X70390Y33726D01*
G01X70395Y33759D01*
G01X70398Y33792D01*
G01X70399Y33825D01*
G01X70399Y34188D01*
G01X70400Y34203D01*
G01X70404Y34218D01*
G01X70409Y34232D01*
G01X70417Y34245D01*
G01X70426Y34257D01*
G01X70437Y34267D01*
G01X70450Y34276D01*
G01X70491Y34301D01*
G01X70531Y34328D01*
G01X70569Y34356D01*
G01X70607Y34387D01*
G01X70643Y34418D01*
G01X70677Y34452D01*
G01X70711Y34487D01*
G01X70742Y34523D01*
G01X70772Y34560D01*
G01X70801Y34599D01*
G01X70827Y34639D01*
G01X70852Y34680D01*
G01X70875Y34723D01*
G01X70896Y34766D01*
G01X70916Y34810D01*
G01X70933Y34855D01*
G01X70948Y34900D01*
G01X70962Y34946D01*
G01X70973Y34993D01*
G01X70983Y35040D01*
G01X70990Y35088D01*
G01X70995Y35136D01*
G01X70998Y35184D01*
G01X70999Y35232D01*
G01X70998Y35280D01*
G01X70995Y35328D01*
G01X70990Y35376D01*
G01X70982Y35424D01*
G01X70973Y35471D01*
G01X70962Y35518D01*
G01X70948Y35565D01*
G01X70932Y35610D01*
G01X70915Y35655D01*
G01X70896Y35699D01*
G01X70874Y35743D01*
G01X70851Y35785D01*
G01X70826Y35826D01*
G01X70799Y35867D01*
G01X70771Y35905D01*
G01X70740Y35943D01*
G01X70709Y35979D01*
G01X70675Y36014D01*
G01X70640Y36048D01*
G01X70604Y36079D01*
G01X70566Y36110D01*
G01X70527Y36138D01*
G01X70487Y36165D01*
G01X70446Y36190D01*
G01X70404Y36213D01*
G01X70360Y36235D01*
G01X70316Y36254D01*
G01X70271Y36272D01*
G01X70225Y36287D01*
G01X70179Y36301D01*
G01X70132Y36312D01*
G01X70085Y36322D01*
G01X70037Y36329D01*
G01X69989Y36334D01*
G01X69941Y36337D01*
G01X69893Y36338D01*
G01X69844Y36337D01*
G01X69795Y36334D01*
G01X69746Y36329D01*
G01X69698Y36321D01*
G01X69650Y36311D01*
G01X69602Y36300D01*
G01X69555Y36286D01*
G01X69509Y36270D01*
G01X69463Y36252D01*
G01X69418Y36232D01*
G01X69374Y36210D01*
G01X69332Y36186D01*
G01X69290Y36160D01*
G01X69249Y36132D01*
G01X69210Y36103D01*
G01X69172Y36072D01*
G01X69136Y36039D01*
G01X69101Y36005D01*
G01X69067Y35969D01*
G01X69035Y35932D01*
G01X69005Y35893D01*
G01X68977Y35853D01*
G01X68967Y35840D01*
G01X68954Y35829D01*
G01X68940Y35820D01*
G01X68925Y35814D01*
G01X68909Y35810D01*
G01X68893Y35808D01*
G01X68876Y35810D01*
G01X68860Y35814D01*
G01X68845Y35820D01*
G01X68831Y35829D01*
G01X68819Y35840D01*
G01X68809Y35853D01*
G01X68780Y35893D01*
G01X68750Y35932D01*
G01X68718Y35970D01*
G01X68685Y36006D01*
G01X68650Y36040D01*
G01X68613Y36073D01*
G01X68575Y36104D01*
G01X68536Y36134D01*
G01X68495Y36161D01*
G01X68454Y36187D01*
G01X68411Y36211D01*
G01X68367Y36233D01*
G01X68322Y36254D01*
G01X68276Y36272D01*
G01X68230Y36288D01*
G01X68183Y36302D01*
G01X68135Y36314D01*
G01X68087Y36323D01*
G01X68038Y36331D01*
G01X67989Y36337D01*
G01X67940Y36340D01*
G37*
G36*
G01X21886Y17820D02*
G01X9597Y17820D01*
G01X9573Y17819D01*
G01X9549Y17816D01*
G01X9526Y17811D01*
G01X9503Y17804D01*
G01X9481Y17794D01*
G01X9460Y17784D01*
G01X9440Y17771D01*
G01X9421Y17756D01*
G01X9404Y17740D01*
G01X9388Y17723D01*
G01X9373Y17704D01*
G01X9360Y17684D01*
G01X9349Y17663D01*
G01X9340Y17641D01*
G01X9333Y17618D01*
G01X9328Y17595D01*
G01X9325Y17571D01*
G01X9324Y17547D01*
G01X9324Y16038D01*
G01X9325Y16014D01*
G01X9328Y15991D01*
G01X9333Y15967D01*
G01X9340Y15945D01*
G01X9349Y15923D01*
G01X9360Y15902D01*
G01X9373Y15882D01*
G01X9388Y15863D01*
G01X9404Y15845D01*
G01X9421Y15829D01*
G01X9440Y15815D01*
G01X9460Y15802D01*
G01X9481Y15791D01*
G01X9503Y15782D01*
G01X9526Y15775D01*
G01X9549Y15770D01*
G01X9573Y15766D01*
G01X9597Y15765D01*
G01X21886Y15765D01*
G01X21910Y15766D01*
G01X21933Y15770D01*
G01X21956Y15775D01*
G01X21979Y15782D01*
G01X22001Y15791D01*
G01X22022Y15802D01*
G01X22042Y15815D01*
G01X22061Y15829D01*
G01X22079Y15845D01*
G01X22095Y15863D01*
G01X22109Y15882D01*
G01X22122Y15902D01*
G01X22133Y15923D01*
G01X22142Y15945D01*
G01X22149Y15967D01*
G01X22154Y15991D01*
G01X22157Y16014D01*
G01X22158Y16038D01*
G01X22158Y17547D01*
G01X22157Y17571D01*
G01X22154Y17595D01*
G01X22149Y17618D01*
G01X22142Y17641D01*
G01X22133Y17663D01*
G01X22122Y17684D01*
G01X22109Y17704D01*
G01X22095Y17723D01*
G01X22079Y17740D01*
G01X22061Y17756D01*
G01X22042Y17771D01*
G01X22022Y17784D01*
G01X22001Y17794D01*
G01X21979Y17804D01*
G01X21956Y17811D01*
G01X21933Y17816D01*
G01X21910Y17819D01*
G01X21886Y17820D01*
G37*
G36*
G01X72667Y32470D02*
G01X72603Y32471D01*
G01X72539Y32470D01*
G01X72474Y32467D01*
G01X72410Y32461D01*
G01X72346Y32454D01*
G01X72283Y32445D01*
G01X72219Y32434D01*
G01X72156Y32420D01*
G01X72094Y32405D01*
G01X72032Y32388D01*
G01X71971Y32369D01*
G01X71910Y32347D01*
G01X71850Y32324D01*
G01X71791Y32299D01*
G01X71732Y32272D01*
G01X71675Y32243D01*
G01X71618Y32213D01*
G01X71563Y32180D01*
G01X71508Y32146D01*
G01X71455Y32110D01*
G01X71403Y32072D01*
G01X71352Y32033D01*
G01X71302Y31992D01*
G01X71254Y31950D01*
G01X71207Y31906D01*
G01X71162Y31860D01*
G01X71118Y31813D01*
G01X71075Y31765D01*
G01X71034Y31715D01*
G01X70995Y31664D01*
G01X70957Y31612D01*
G01X70921Y31559D01*
G01X70887Y31504D01*
G01X70855Y31449D01*
G01X70824Y31392D01*
G01X70795Y31335D01*
G01X70768Y31276D01*
G01X70743Y31217D01*
G01X70720Y31157D01*
G01X70699Y31097D01*
G01X70679Y31035D01*
G01X70662Y30973D01*
G01X70647Y30911D01*
G01X70633Y30848D01*
G01X70622Y30785D01*
G01X70613Y30721D01*
G01X70606Y30657D01*
G01X70601Y30593D01*
G01X70597Y30529D01*
G01X70596Y30464D01*
G01X70597Y30398D01*
G01X70601Y30332D01*
G01X70606Y30265D01*
G01X70614Y30199D01*
G01X70624Y30134D01*
G01X70636Y30068D01*
G01X70650Y30004D01*
G01X70666Y29939D01*
G01X70685Y29875D01*
G01X70705Y29812D01*
G01X70728Y29750D01*
G01X70733Y29732D01*
G01X70735Y29714D01*
G01X70734Y29699D01*
G01X70730Y29685D01*
G01X70725Y29671D01*
G01X70718Y29659D01*
G01X70710Y29647D01*
G01X70699Y29637D01*
G01X70688Y29628D01*
G01X70675Y29621D01*
G01X70662Y29616D01*
G01X70647Y29613D01*
G01X70633Y29612D01*
G01X70533Y29612D01*
G01X70518Y29613D01*
G01X70503Y29617D01*
G01X70489Y29622D01*
G01X70475Y29630D01*
G01X70464Y29639D01*
G01X70453Y29651D01*
G01X70445Y29663D01*
G01X70438Y29677D01*
G01X70434Y29692D01*
G01X70432Y29707D01*
G01X70429Y29731D01*
G01X70424Y29755D01*
G01X70417Y29778D01*
G01X70408Y29800D01*
G01X70396Y29821D01*
G01X70383Y29841D01*
G01X70368Y29860D01*
G01X70351Y29877D01*
G01X70333Y29893D01*
G01X70313Y29907D01*
G01X70292Y29919D01*
G01X70270Y29929D01*
G01X70247Y29936D01*
G01X70224Y29942D01*
G01X70200Y29945D01*
G01X70176Y29947D01*
G01X69016Y29947D01*
G01X68992Y29946D01*
G01X68968Y29942D01*
G01X68945Y29937D01*
G01X68923Y29929D01*
G01X68901Y29920D01*
G01X68881Y29908D01*
G01X68861Y29895D01*
G01X68843Y29880D01*
G01X68826Y29863D01*
G01X68811Y29845D01*
G01X68798Y29825D01*
G01X68786Y29804D01*
G01X68776Y29783D01*
G01X68769Y29760D01*
G01X68763Y29737D01*
G01X68760Y29714D01*
G01X68759Y29690D01*
G01X68759Y28220D01*
G01X68760Y28196D01*
G01X68763Y28173D01*
G01X68769Y28150D01*
G01X68776Y28127D01*
G01X68786Y28106D01*
G01X68798Y28085D01*
G01X68811Y28066D01*
G01X68826Y28047D01*
G01X68843Y28031D01*
G01X68861Y28015D01*
G01X68881Y28002D01*
G01X68901Y27991D01*
G01X68923Y27981D01*
G01X68945Y27973D01*
G01X68968Y27968D01*
G01X68992Y27965D01*
G01X69016Y27964D01*
G01X70176Y27964D01*
G01X70200Y27965D01*
G01X70224Y27968D01*
G01X70247Y27974D01*
G01X70270Y27982D01*
G01X70292Y27992D01*
G01X70313Y28004D01*
G01X70333Y28017D01*
G01X70351Y28033D01*
G01X70368Y28050D01*
G01X70383Y28069D01*
G01X70396Y28089D01*
G01X70408Y28111D01*
G01X70417Y28133D01*
G01X70424Y28156D01*
G01X70429Y28180D01*
G01X70432Y28204D01*
G01X70434Y28219D01*
G01X70438Y28234D01*
G01X70445Y28247D01*
G01X70453Y28260D01*
G01X70464Y28271D01*
G01X70475Y28281D01*
G01X70489Y28289D01*
G01X70503Y28294D01*
G01X70518Y28298D01*
G01X70533Y28299D01*
G01X71094Y28299D01*
G01X71131Y28300D01*
G01X71168Y28303D01*
G01X71204Y28308D01*
G01X71240Y28315D01*
G01X71276Y28325D01*
G01X71311Y28336D01*
G01X71345Y28349D01*
G01X71379Y28364D01*
G01X71412Y28381D01*
G01X71443Y28400D01*
G01X71474Y28420D01*
G01X71503Y28442D01*
G01X71532Y28466D01*
G01X71558Y28491D01*
G01X71676Y28609D01*
G01X71688Y28619D01*
G01X71702Y28628D01*
G01X71717Y28634D01*
G01X71732Y28638D01*
G01X71748Y28639D01*
G01X71769Y28637D01*
G01X71789Y28630D01*
G01X71849Y28605D01*
G01X71909Y28582D01*
G01X71969Y28560D01*
G01X72031Y28541D01*
G01X72093Y28524D01*
G01X72156Y28508D01*
G01X72219Y28495D01*
G01X72282Y28484D01*
G01X72346Y28474D01*
G01X72410Y28467D01*
G01X72474Y28462D01*
G01X72538Y28459D01*
G01X72603Y28458D01*
G01X72667Y28459D01*
G01X72731Y28462D01*
G01X72796Y28467D01*
G01X72859Y28474D01*
G01X72923Y28484D01*
G01X72986Y28495D01*
G01X73049Y28508D01*
G01X73112Y28523D01*
G01X73174Y28541D01*
G01X73235Y28560D01*
G01X73296Y28581D01*
G01X73356Y28604D01*
G01X73415Y28630D01*
G01X73473Y28656D01*
G01X73531Y28685D01*
G01X73587Y28716D01*
G01X73643Y28748D01*
G01X73697Y28783D01*
G01X73751Y28819D01*
G01X73803Y28856D01*
G01X73854Y28896D01*
G01X73904Y28936D01*
G01X73952Y28979D01*
G01X73999Y29023D01*
G01X74044Y29068D01*
G01X74088Y29115D01*
G01X74131Y29164D01*
G01X74172Y29213D01*
G01X74211Y29264D01*
G01X74249Y29316D01*
G01X74319Y29424D01*
G01X74351Y29480D01*
G01X74382Y29536D01*
G01X74411Y29594D01*
G01X74438Y29652D01*
G01X74463Y29711D01*
G01X74486Y29771D01*
G01X74507Y29832D01*
G01X74526Y29893D01*
G01X74544Y29955D01*
G01X74559Y30018D01*
G01X74572Y30081D01*
G01X74584Y30144D01*
G01X74593Y30208D01*
G01X74600Y30272D01*
G01X74605Y30336D01*
G01X74608Y30400D01*
G01X74609Y30464D01*
G01X74608Y30529D01*
G01X74605Y30593D01*
G01X74600Y30657D01*
G01X74593Y30721D01*
G01X74584Y30785D01*
G01X74572Y30848D01*
G01X74559Y30911D01*
G01X74544Y30973D01*
G01X74526Y31035D01*
G01X74507Y31097D01*
G01X74486Y31157D01*
G01X74463Y31217D01*
G01X74438Y31276D01*
G01X74411Y31335D01*
G01X74382Y31392D01*
G01X74351Y31449D01*
G01X74319Y31504D01*
G01X74284Y31559D01*
G01X74249Y31612D01*
G01X74211Y31664D01*
G01X74172Y31715D01*
G01X74131Y31765D01*
G01X74088Y31813D01*
G01X74044Y31860D01*
G01X73999Y31906D01*
G01X73952Y31950D01*
G01X73904Y31992D01*
G01X73854Y32033D01*
G01X73803Y32072D01*
G01X73751Y32110D01*
G01X73697Y32146D01*
G01X73643Y32180D01*
G01X73587Y32213D01*
G01X73531Y32243D01*
G01X73473Y32272D01*
G01X73415Y32299D01*
G01X73356Y32324D01*
G01X73296Y32347D01*
G01X73235Y32369D01*
G01X73174Y32388D01*
G01X73112Y32405D01*
G01X73049Y32420D01*
G01X72986Y32434D01*
G01X72923Y32445D01*
G01X72859Y32454D01*
G01X72796Y32461D01*
G01X72731Y32467D01*
G01X72667Y32470D01*
G37*
G36*
G01X17718Y15534D02*
G01X9597Y15534D01*
G01X9573Y15533D01*
G01X9549Y15530D01*
G01X9526Y15525D01*
G01X9503Y15518D01*
G01X9481Y15508D01*
G01X9460Y15498D01*
G01X9440Y15485D01*
G01X9421Y15470D01*
G01X9404Y15454D01*
G01X9388Y15437D01*
G01X9373Y15418D01*
G01X9360Y15398D01*
G01X9349Y15377D01*
G01X9340Y15355D01*
G01X9333Y15332D01*
G01X9328Y15309D01*
G01X9325Y15285D01*
G01X9324Y15261D01*
G01X9324Y14102D01*
G01X9325Y14079D01*
G01X9328Y14055D01*
G01X9333Y14032D01*
G01X9340Y14009D01*
G01X9349Y13987D01*
G01X9360Y13966D01*
G01X9373Y13946D01*
G01X9388Y13927D01*
G01X9404Y13910D01*
G01X9421Y13894D01*
G01X9440Y13879D01*
G01X9460Y13866D01*
G01X9481Y13855D01*
G01X9503Y13846D01*
G01X9526Y13839D01*
G01X9549Y13834D01*
G01X9573Y13831D01*
G01X9597Y13830D01*
G01X17718Y13830D01*
G01X17741Y13831D01*
G01X17765Y13834D01*
G01X17788Y13839D01*
G01X17811Y13846D01*
G01X17833Y13855D01*
G01X17854Y13866D01*
G01X17874Y13879D01*
G01X17893Y13894D01*
G01X17910Y13910D01*
G01X17926Y13927D01*
G01X17941Y13946D01*
G01X17954Y13966D01*
G01X17965Y13987D01*
G01X17974Y14009D01*
G01X17981Y14032D01*
G01X17986Y14055D01*
G01X17989Y14079D01*
G01X17990Y14102D01*
G01X17990Y15261D01*
G01X17989Y15285D01*
G01X17986Y15309D01*
G01X17981Y15332D01*
G01X17974Y15355D01*
G01X17965Y15377D01*
G01X17954Y15398D01*
G01X17941Y15418D01*
G01X17926Y15437D01*
G01X17910Y15454D01*
G01X17893Y15470D01*
G01X17874Y15485D01*
G01X17854Y15498D01*
G01X17833Y15508D01*
G01X17811Y15518D01*
G01X17788Y15525D01*
G01X17765Y15530D01*
G01X17741Y15533D01*
G01X17718Y15534D01*
G37*
G36*
G01X59622Y32240D02*
G01X59562Y32241D01*
G01X59502Y32240D01*
G01X59442Y32237D01*
G01X59383Y32232D01*
G01X59323Y32225D01*
G01X59264Y32216D01*
G01X59205Y32204D01*
G01X59146Y32191D01*
G01X59088Y32176D01*
G01X59031Y32159D01*
G01X58974Y32140D01*
G01X58918Y32119D01*
G01X58863Y32096D01*
G01X58808Y32071D01*
G01X58754Y32044D01*
G01X58701Y32016D01*
G01X58650Y31985D01*
G01X58599Y31953D01*
G01X58549Y31920D01*
G01X58501Y31884D01*
G01X58454Y31847D01*
G01X58408Y31809D01*
G01X58363Y31768D01*
G01X58320Y31727D01*
G01X58279Y31684D01*
G01X58238Y31639D01*
G01X58200Y31593D01*
G01X58163Y31546D01*
G01X58127Y31498D01*
G01X58094Y31448D01*
G01X58062Y31397D01*
G01X58031Y31345D01*
G01X58003Y31293D01*
G01X57976Y31239D01*
G01X57951Y31184D01*
G01X57928Y31129D01*
G01X57907Y31073D01*
G01X57888Y31016D01*
G01X57871Y30958D01*
G01X57856Y30900D01*
G01X57843Y30842D01*
G01X57831Y30783D01*
G01X57822Y30724D01*
G01X57815Y30664D01*
G01X57810Y30604D01*
G01X57807Y30545D01*
G01X57806Y30485D01*
G01X57807Y30425D01*
G01X57810Y30365D01*
G01X57815Y30305D01*
G01X57822Y30245D01*
G01X57831Y30186D01*
G01X57843Y30127D01*
G01X57856Y30069D01*
G01X57871Y30011D01*
G01X57888Y29953D01*
G01X57907Y29896D01*
G01X57928Y29840D01*
G01X57951Y29785D01*
G01X57976Y29730D01*
G01X58003Y29676D01*
G01X58031Y29624D01*
G01X58062Y29572D01*
G01X58094Y29521D01*
G01X58127Y29472D01*
G01X58163Y29423D01*
G01X58200Y29376D01*
G01X58238Y29330D01*
G01X58279Y29286D01*
G01X58320Y29243D01*
G01X58363Y29201D01*
G01X58408Y29161D01*
G01X58454Y29122D01*
G01X58501Y29085D01*
G01X58549Y29050D01*
G01X58599Y29016D01*
G01X58650Y28984D01*
G01X58701Y28953D01*
G01X58754Y28925D01*
G01X58808Y28898D01*
G01X58863Y28873D01*
G01X58918Y28851D01*
G01X58974Y28829D01*
G01X59031Y28810D01*
G01X59088Y28793D01*
G01X59146Y28778D01*
G01X59205Y28765D01*
G01X59264Y28754D01*
G01X59323Y28744D01*
G01X59383Y28737D01*
G01X59442Y28732D01*
G01X59502Y28729D01*
G01X59562Y28728D01*
G01X59622Y28729D01*
G01X59682Y28732D01*
G01X59742Y28737D01*
G01X59802Y28744D01*
G01X59861Y28754D01*
G01X59920Y28765D01*
G01X59978Y28778D01*
G01X60036Y28793D01*
G01X60094Y28810D01*
G01X60151Y28829D01*
G01X60207Y28851D01*
G01X60262Y28873D01*
G01X60317Y28898D01*
G01X60370Y28925D01*
G01X60423Y28953D01*
G01X60475Y28984D01*
G01X60526Y29016D01*
G01X60575Y29050D01*
G01X60624Y29085D01*
G01X60671Y29122D01*
G01X60717Y29161D01*
G01X60761Y29201D01*
G01X60804Y29243D01*
G01X60846Y29286D01*
G01X60886Y29330D01*
G01X60925Y29376D01*
G01X60962Y29423D01*
G01X60997Y29472D01*
G01X61031Y29521D01*
G01X61063Y29572D01*
G01X61093Y29624D01*
G01X61122Y29676D01*
G01X61149Y29730D01*
G01X61173Y29785D01*
G01X61196Y29840D01*
G01X61217Y29896D01*
G01X61237Y29953D01*
G01X61254Y30011D01*
G01X61269Y30069D01*
G01X61282Y30127D01*
G01X61293Y30186D01*
G01X61303Y30245D01*
G01X61310Y30305D01*
G01X61315Y30365D01*
G01X61318Y30425D01*
G01X61319Y30485D01*
G01X61318Y30545D01*
G01X61315Y30604D01*
G01X61310Y30664D01*
G01X61303Y30724D01*
G01X61293Y30783D01*
G01X61282Y30842D01*
G01X61269Y30900D01*
G01X61254Y30958D01*
G01X61237Y31016D01*
G01X61217Y31073D01*
G01X61196Y31129D01*
G01X61173Y31184D01*
G01X61149Y31239D01*
G01X61122Y31293D01*
G01X61093Y31345D01*
G01X61063Y31397D01*
G01X61031Y31448D01*
G01X60997Y31498D01*
G01X60962Y31546D01*
G01X60925Y31593D01*
G01X60886Y31639D01*
G01X60846Y31684D01*
G01X60804Y31727D01*
G01X60761Y31768D01*
G01X60717Y31809D01*
G01X60671Y31847D01*
G01X60624Y31884D01*
G01X60575Y31920D01*
G01X60526Y31953D01*
G01X60475Y31985D01*
G01X60423Y32016D01*
G01X60370Y32044D01*
G01X60317Y32071D01*
G01X60262Y32096D01*
G01X60207Y32119D01*
G01X60151Y32140D01*
G01X60094Y32159D01*
G01X60036Y32176D01*
G01X59978Y32191D01*
G01X59920Y32204D01*
G01X59861Y32216D01*
G01X59802Y32225D01*
G01X59742Y32232D01*
G01X59682Y32237D01*
G01X59622Y32240D01*
G37*
G36*
G01X20377Y35711D02*
G01X19377Y35711D01*
G01X19353Y35709D01*
G01X19329Y35706D01*
G01X19306Y35701D01*
G01X19284Y35693D01*
G01X19262Y35684D01*
G01X19241Y35672D01*
G01X19222Y35659D01*
G01X19204Y35644D01*
G01X19187Y35627D01*
G01X19172Y35609D01*
G01X19158Y35589D01*
G01X19147Y35568D01*
G01X19137Y35547D01*
G01X19130Y35524D01*
G01X19124Y35501D01*
G01X19121Y35478D01*
G01X19120Y35454D01*
G01X19120Y34903D01*
G01X19121Y34879D01*
G01X19124Y34856D01*
G01X19130Y34833D01*
G01X19137Y34810D01*
G01X19147Y34788D01*
G01X19158Y34768D01*
G01X19172Y34748D01*
G01X19187Y34730D01*
G01X19204Y34713D01*
G01X19222Y34698D01*
G01X19241Y34685D01*
G01X19262Y34673D01*
G01X19284Y34664D01*
G01X19306Y34656D01*
G01X19329Y34651D01*
G01X19353Y34647D01*
G01X19377Y34646D01*
G01X20377Y34646D01*
G01X20400Y34647D01*
G01X20424Y34651D01*
G01X20447Y34656D01*
G01X20469Y34664D01*
G01X20491Y34673D01*
G01X20512Y34685D01*
G01X20531Y34698D01*
G01X20549Y34713D01*
G01X20566Y34730D01*
G01X20581Y34748D01*
G01X20595Y34768D01*
G01X20606Y34788D01*
G01X20616Y34810D01*
G01X20623Y34833D01*
G01X20629Y34856D01*
G01X20632Y34879D01*
G01X20633Y34903D01*
G01X20633Y35454D01*
G01X20632Y35478D01*
G01X20629Y35501D01*
G01X20623Y35524D01*
G01X20616Y35547D01*
G01X20606Y35568D01*
G01X20595Y35589D01*
G01X20581Y35609D01*
G01X20566Y35627D01*
G01X20549Y35644D01*
G01X20531Y35659D01*
G01X20512Y35672D01*
G01X20491Y35684D01*
G01X20469Y35693D01*
G01X20447Y35701D01*
G01X20424Y35706D01*
G01X20400Y35709D01*
G01X20377Y35711D01*
G37*
G36*
G01X20377Y40003D02*
G01X19377Y40003D01*
G01X19353Y40002D01*
G01X19330Y39999D01*
G01X19307Y39993D01*
G01X19284Y39986D01*
G01X19262Y39976D01*
G01X19242Y39965D01*
G01X19222Y39951D01*
G01X19204Y39936D01*
G01X19187Y39919D01*
G01X19172Y39901D01*
G01X19159Y39882D01*
G01X19147Y39861D01*
G01X19138Y39839D01*
G01X19130Y39817D01*
G01X19125Y39794D01*
G01X19121Y39770D01*
G01X19120Y39747D01*
G01X19120Y39195D01*
G01X19121Y39172D01*
G01X19125Y39148D01*
G01X19130Y39125D01*
G01X19138Y39103D01*
G01X19147Y39081D01*
G01X19159Y39060D01*
G01X19172Y39041D01*
G01X19187Y39023D01*
G01X19204Y39006D01*
G01X19222Y38991D01*
G01X19242Y38977D01*
G01X19262Y38966D01*
G01X19284Y38956D01*
G01X19307Y38949D01*
G01X19330Y38943D01*
G01X19353Y38940D01*
G01X19377Y38939D01*
G01X20377Y38939D01*
G01X20400Y38940D01*
G01X20424Y38943D01*
G01X20447Y38949D01*
G01X20469Y38956D01*
G01X20491Y38966D01*
G01X20512Y38977D01*
G01X20531Y38991D01*
G01X20550Y39006D01*
G01X20566Y39023D01*
G01X20582Y39041D01*
G01X20595Y39060D01*
G01X20606Y39081D01*
G01X20616Y39103D01*
G01X20624Y39125D01*
G01X20629Y39148D01*
G01X20632Y39172D01*
G01X20633Y39195D01*
G01X20633Y39747D01*
G01X20632Y39770D01*
G01X20629Y39794D01*
G01X20624Y39817D01*
G01X20616Y39839D01*
G01X20606Y39861D01*
G01X20595Y39882D01*
G01X20582Y39901D01*
G01X20566Y39919D01*
G01X20550Y39936D01*
G01X20531Y39951D01*
G01X20512Y39965D01*
G01X20491Y39976D01*
G01X20469Y39986D01*
G01X20447Y39993D01*
G01X20424Y39999D01*
G01X20400Y40002D01*
G01X20377Y40003D01*
G37*
G36*
G01X6749Y10985D02*
G01X5523Y10985D01*
G01X5523Y10395D01*
G01X6476Y10395D01*
G01X6500Y10396D01*
G01X6523Y10399D01*
G01X6547Y10404D01*
G01X6569Y10411D01*
G01X6591Y10421D01*
G01X6612Y10432D01*
G01X6632Y10444D01*
G01X6651Y10459D01*
G01X6669Y10475D01*
G01X6685Y10492D01*
G01X6699Y10511D01*
G01X6712Y10531D01*
G01X6723Y10552D01*
G01X6732Y10574D01*
G01X6739Y10597D01*
G01X6744Y10620D01*
G01X6747Y10644D01*
G01X6749Y10668D01*
G01X6749Y10985D01*
G37*
G36*
G01X6476Y12464D02*
G01X5523Y12464D01*
G01X5523Y11874D01*
G01X6749Y11874D01*
G01X6749Y12192D01*
G01X6747Y12215D01*
G01X6744Y12239D01*
G01X6739Y12262D01*
G01X6732Y12285D01*
G01X6723Y12307D01*
G01X6712Y12328D01*
G01X6699Y12348D01*
G01X6685Y12367D01*
G01X6669Y12384D01*
G01X6651Y12400D01*
G01X6632Y12415D01*
G01X6612Y12428D01*
G01X6591Y12439D01*
G01X6569Y12448D01*
G01X6547Y12455D01*
G01X6523Y12460D01*
G01X6500Y12463D01*
G01X6476Y12464D01*
G37*
G36*
G01X73978Y24148D02*
G01X73026Y24148D01*
G01X73002Y24147D01*
G01X72979Y24144D01*
G01X72955Y24139D01*
G01X72933Y24132D01*
G01X72911Y24122D01*
G01X72890Y24111D01*
G01X72870Y24099D01*
G01X72851Y24084D01*
G01X72833Y24068D01*
G01X72817Y24051D01*
G01X72803Y24032D01*
G01X72790Y24012D01*
G01X72779Y23991D01*
G01X72770Y23969D01*
G01X72763Y23946D01*
G01X72757Y23923D01*
G01X72754Y23899D01*
G01X72753Y23875D01*
G01X72753Y23558D01*
G01X73978Y23558D01*
G01X73978Y24148D01*
G37*
G36*
G01X73978Y22669D02*
G01X72753Y22669D01*
G01X72753Y22351D01*
G01X72754Y22328D01*
G01X72757Y22304D01*
G01X72763Y22281D01*
G01X72770Y22258D01*
G01X72779Y22236D01*
G01X72790Y22215D01*
G01X72803Y22195D01*
G01X72817Y22176D01*
G01X72833Y22159D01*
G01X72851Y22143D01*
G01X72870Y22128D01*
G01X72890Y22115D01*
G01X72911Y22104D01*
G01X72933Y22095D01*
G01X72955Y22088D01*
G01X72979Y22083D01*
G01X73002Y22080D01*
G01X73026Y22079D01*
G01X73978Y22079D01*
G01X73978Y22669D01*
G37*
G36*
G01X4828Y21653D02*
G01X3619Y21653D01*
G01X3619Y21079D01*
G01X4572Y21079D01*
G01X4595Y21080D01*
G01X4619Y21083D01*
G01X4642Y21089D01*
G01X4664Y21096D01*
G01X4686Y21106D01*
G01X4707Y21117D01*
G01X4726Y21131D01*
G01X4744Y21146D01*
G01X4761Y21163D01*
G01X4776Y21181D01*
G01X4790Y21200D01*
G01X4801Y21221D01*
G01X4811Y21243D01*
G01X4818Y21265D01*
G01X4824Y21288D01*
G01X4827Y21312D01*
G01X4828Y21336D01*
G01X4828Y21653D01*
G37*
G36*
G01X4572Y23116D02*
G01X3619Y23116D01*
G01X3619Y22542D01*
G01X4828Y22542D01*
G01X4828Y22860D01*
G01X4827Y22883D01*
G01X4824Y22907D01*
G01X4818Y22930D01*
G01X4811Y22952D01*
G01X4801Y22974D01*
G01X4790Y22995D01*
G01X4776Y23014D01*
G01X4761Y23032D01*
G01X4744Y23049D01*
G01X4726Y23064D01*
G01X4707Y23078D01*
G01X4686Y23089D01*
G01X4664Y23099D01*
G01X4642Y23106D01*
G01X4619Y23112D01*
G01X4595Y23115D01*
G01X4572Y23116D01*
G37*
G36*
G01X53707Y42511D02*
G01X53055Y42511D01*
G01X53055Y41860D01*
G01X53107Y41888D01*
G01X53157Y41917D01*
G01X53206Y41949D01*
G01X53254Y41982D01*
G01X53301Y42018D01*
G01X53346Y42055D01*
G01X53390Y42094D01*
G01X53432Y42135D01*
G01X53472Y42177D01*
G01X53511Y42220D01*
G01X53548Y42266D01*
G01X53584Y42312D01*
G01X53617Y42360D01*
G01X53649Y42409D01*
G01X53679Y42460D01*
G01X53707Y42511D01*
G37*
G36*
G01X58489Y42511D02*
G01X57838Y42511D01*
G01X57838Y41860D01*
G01X57889Y41888D01*
G01X57940Y41917D01*
G01X57989Y41949D01*
G01X58037Y41982D01*
G01X58084Y42018D01*
G01X58129Y42055D01*
G01X58172Y42094D01*
G01X58215Y42135D01*
G01X58255Y42177D01*
G01X58294Y42220D01*
G01X58331Y42266D01*
G01X58367Y42312D01*
G01X58400Y42360D01*
G01X58432Y42409D01*
G01X58462Y42460D01*
G01X58489Y42511D01*
G37*
G36*
G01X53107Y44512D02*
G01X53055Y44540D01*
G01X53055Y43888D01*
G01X53707Y43888D01*
G01X53679Y43940D01*
G01X53649Y43990D01*
G01X53617Y44039D01*
G01X53584Y44087D01*
G01X53548Y44134D01*
G01X53511Y44179D01*
G01X53472Y44223D01*
G01X53432Y44265D01*
G01X53390Y44306D01*
G01X53346Y44345D01*
G01X53301Y44382D01*
G01X53254Y44417D01*
G01X53206Y44451D01*
G01X53157Y44482D01*
G01X53107Y44512D01*
G37*
G36*
G01X57889Y44512D02*
G01X57838Y44540D01*
G01X57838Y43888D01*
G01X58489Y43888D01*
G01X58462Y43940D01*
G01X58432Y43990D01*
G01X58400Y44039D01*
G01X58367Y44087D01*
G01X58331Y44134D01*
G01X58294Y44179D01*
G01X58255Y44223D01*
G01X58215Y44265D01*
G01X58172Y44306D01*
G01X58129Y44345D01*
G01X58084Y44382D01*
G01X58037Y44417D01*
G01X57989Y44451D01*
G01X57940Y44482D01*
G01X57889Y44512D01*
G37*
G36*
G01X51678Y43888D02*
G01X51678Y44540D01*
G01X51626Y44512D01*
G01X51576Y44482D01*
G01X51527Y44451D01*
G01X51479Y44417D01*
G01X51432Y44382D01*
G01X51387Y44345D01*
G01X51343Y44306D01*
G01X51301Y44265D01*
G01X51261Y44223D01*
G01X51222Y44179D01*
G01X51185Y44134D01*
G01X51149Y44087D01*
G01X51116Y44039D01*
G01X51084Y43990D01*
G01X51054Y43940D01*
G01X51026Y43888D01*
G01X51678Y43888D01*
G37*
G36*
G01X51678Y42511D02*
G01X51026Y42511D01*
G01X51054Y42460D01*
G01X51084Y42409D01*
G01X51116Y42360D01*
G01X51149Y42312D01*
G01X51185Y42266D01*
G01X51222Y42220D01*
G01X51261Y42177D01*
G01X51301Y42135D01*
G01X51343Y42094D01*
G01X51387Y42055D01*
G01X51432Y42018D01*
G01X51479Y41982D01*
G01X51527Y41949D01*
G01X51576Y41917D01*
G01X51626Y41888D01*
G01X51678Y41860D01*
G01X51678Y42511D01*
G37*
G36*
G01X56461Y42511D02*
G01X55809Y42511D01*
G01X55837Y42460D01*
G01X55867Y42409D01*
G01X55898Y42360D01*
G01X55932Y42312D01*
G01X55967Y42266D01*
G01X56005Y42220D01*
G01X56043Y42177D01*
G01X56084Y42135D01*
G01X56126Y42094D01*
G01X56170Y42055D01*
G01X56215Y42018D01*
G01X56262Y41982D01*
G01X56310Y41949D01*
G01X56359Y41917D01*
G01X56409Y41888D01*
G01X56461Y41860D01*
G01X56461Y42511D01*
G37*
G36*
G01X56461Y43888D02*
G01X56461Y44540D01*
G01X56409Y44512D01*
G01X56359Y44482D01*
G01X56310Y44451D01*
G01X56262Y44417D01*
G01X56215Y44382D01*
G01X56170Y44345D01*
G01X56126Y44306D01*
G01X56084Y44265D01*
G01X56043Y44223D01*
G01X56005Y44179D01*
G01X55967Y44134D01*
G01X55932Y44087D01*
G01X55898Y44039D01*
G01X55867Y43990D01*
G01X55837Y43940D01*
G01X55809Y43888D01*
G01X56461Y43888D01*
G37*
G36*
G01X36263Y42192D02*
G01X35720Y42192D01*
G01X35720Y41674D01*
G01X36006Y41674D01*
G01X36030Y41675D01*
G01X36053Y41678D01*
G01X36076Y41683D01*
G01X36099Y41691D01*
G01X36121Y41701D01*
G01X36141Y41712D01*
G01X36161Y41725D01*
G01X36179Y41741D01*
G01X36196Y41757D01*
G01X36211Y41776D01*
G01X36224Y41795D01*
G01X36236Y41816D01*
G01X36245Y41838D01*
G01X36253Y41860D01*
G01X36258Y41883D01*
G01X36262Y41907D01*
G01X36263Y41930D01*
G01X36263Y42192D01*
G37*
G36*
G01X36006Y43487D02*
G01X35720Y43487D01*
G01X35720Y42969D01*
G01X36263Y42969D01*
G01X36263Y43231D01*
G01X36262Y43254D01*
G01X36258Y43278D01*
G01X36253Y43301D01*
G01X36245Y43323D01*
G01X36236Y43345D01*
G01X36224Y43366D01*
G01X36211Y43385D01*
G01X36196Y43404D01*
G01X36179Y43420D01*
G01X36161Y43435D01*
G01X36141Y43449D01*
G01X36121Y43460D01*
G01X36099Y43470D01*
G01X36076Y43477D01*
G01X36053Y43483D01*
G01X36030Y43486D01*
G01X36006Y43487D01*
G37*
G36*
G01X34893Y43487D02*
G01X34607Y43487D01*
G01X34583Y43486D01*
G01X34560Y43483D01*
G01X34536Y43477D01*
G01X34514Y43470D01*
G01X34492Y43460D01*
G01X34472Y43449D01*
G01X34452Y43435D01*
G01X34434Y43420D01*
G01X34417Y43404D01*
G01X34402Y43385D01*
G01X34389Y43366D01*
G01X34377Y43345D01*
G01X34367Y43323D01*
G01X34360Y43301D01*
G01X34354Y43278D01*
G01X34351Y43254D01*
G01X34350Y43231D01*
G01X34350Y42969D01*
G01X34893Y42969D01*
G01X34893Y43487D01*
G37*
G36*
G01X34893Y42192D02*
G01X34350Y42192D01*
G01X34350Y41930D01*
G01X34351Y41907D01*
G01X34354Y41883D01*
G01X34360Y41860D01*
G01X34367Y41838D01*
G01X34377Y41816D01*
G01X34389Y41795D01*
G01X34402Y41776D01*
G01X34417Y41757D01*
G01X34434Y41741D01*
G01X34452Y41725D01*
G01X34472Y41712D01*
G01X34492Y41701D01*
G01X34514Y41691D01*
G01X34536Y41683D01*
G01X34560Y41678D01*
G01X34583Y41675D01*
G01X34607Y41674D01*
G01X34893Y41674D01*
G01X34893Y42192D01*
G37*
G36*
G01X40126Y41280D02*
G01X40126Y41803D01*
G01X40082Y41780D01*
G01X40038Y41754D01*
G01X39996Y41727D01*
G01X39955Y41699D01*
G01X39915Y41668D01*
G01X39877Y41636D01*
G01X39840Y41602D01*
G01X39804Y41566D01*
G01X39770Y41529D01*
G01X39738Y41491D01*
G01X39707Y41451D01*
G01X39679Y41410D01*
G01X39652Y41368D01*
G01X39626Y41324D01*
G01X39603Y41280D01*
G01X40126Y41280D01*
G37*
G36*
G01X41676Y40253D02*
G01X41153Y40253D01*
G01X41153Y39730D01*
G01X41197Y39753D01*
G01X41241Y39779D01*
G01X41283Y39806D01*
G01X41324Y39834D01*
G01X41364Y39865D01*
G01X41402Y39897D01*
G01X41439Y39931D01*
G01X41475Y39967D01*
G01X41509Y40004D01*
G01X41541Y40042D01*
G01X41572Y40082D01*
G01X41600Y40123D01*
G01X41627Y40165D01*
G01X41653Y40209D01*
G01X41676Y40253D01*
G37*
G36*
G01X41197Y41780D02*
G01X41153Y41803D01*
G01X41153Y41280D01*
G01X41676Y41280D01*
G01X41653Y41324D01*
G01X41627Y41368D01*
G01X41600Y41410D01*
G01X41572Y41451D01*
G01X41541Y41491D01*
G01X41509Y41529D01*
G01X41475Y41566D01*
G01X41439Y41602D01*
G01X41402Y41636D01*
G01X41364Y41668D01*
G01X41324Y41699D01*
G01X41283Y41727D01*
G01X41241Y41754D01*
G01X41197Y41780D01*
G37*
G36*
G01X40126Y40253D02*
G01X39603Y40253D01*
G01X39626Y40209D01*
G01X39652Y40165D01*
G01X39679Y40123D01*
G01X39707Y40082D01*
G01X39738Y40042D01*
G01X39770Y40004D01*
G01X39804Y39967D01*
G01X39840Y39931D01*
G01X39877Y39897D01*
G01X39915Y39865D01*
G01X39955Y39834D01*
G01X39996Y39806D01*
G01X40038Y39779D01*
G01X40082Y39753D01*
G01X40126Y39730D01*
G01X40126Y40253D01*
G37*
G36*
G01X24526Y40460D02*
G01X24222Y40460D01*
G01X24199Y40459D01*
G01X24175Y40456D01*
G01X24152Y40450D01*
G01X24130Y40443D01*
G01X24108Y40433D01*
G01X24087Y40422D01*
G01X24068Y40408D01*
G01X24049Y40393D01*
G01X24033Y40376D01*
G01X24018Y40358D01*
G01X24004Y40339D01*
G01X23993Y40318D01*
G01X23983Y40296D01*
G01X23975Y40274D01*
G01X23970Y40251D01*
G01X23967Y40227D01*
G01X23966Y40204D01*
G01X23966Y39977D01*
G01X24526Y39977D01*
G01X24526Y40460D01*
G37*
G36*
G01X17287Y36167D02*
G01X16983Y36167D01*
G01X16960Y36166D01*
G01X16936Y36163D01*
G01X16913Y36157D01*
G01X16891Y36150D01*
G01X16869Y36140D01*
G01X16848Y36128D01*
G01X16829Y36115D01*
G01X16811Y36100D01*
G01X16794Y36083D01*
G01X16779Y36065D01*
G01X16765Y36045D01*
G01X16754Y36025D01*
G01X16744Y36003D01*
G01X16737Y35981D01*
G01X16731Y35958D01*
G01X16728Y35934D01*
G01X16727Y35910D01*
G01X16727Y35684D01*
G01X17287Y35684D01*
G01X17287Y36167D01*
G37*
G36*
G01X24526Y36168D02*
G01X24222Y36168D01*
G01X24198Y36166D01*
G01X24175Y36163D01*
G01X24152Y36158D01*
G01X24129Y36150D01*
G01X24108Y36141D01*
G01X24087Y36129D01*
G01X24067Y36116D01*
G01X24049Y36101D01*
G01X24032Y36084D01*
G01X24017Y36066D01*
G01X24004Y36046D01*
G01X23992Y36025D01*
G01X23983Y36004D01*
G01X23975Y35981D01*
G01X23970Y35958D01*
G01X23967Y35935D01*
G01X23965Y35911D01*
G01X23965Y35685D01*
G01X24526Y35685D01*
G01X24526Y36168D01*
G37*
G36*
G01X17287Y40460D02*
G01X16983Y40460D01*
G01X16960Y40459D01*
G01X16936Y40455D01*
G01X16913Y40450D01*
G01X16891Y40442D01*
G01X16869Y40433D01*
G01X16848Y40421D01*
G01X16829Y40408D01*
G01X16811Y40393D01*
G01X16794Y40376D01*
G01X16779Y40358D01*
G01X16765Y40338D01*
G01X16754Y40317D01*
G01X16744Y40296D01*
G01X16737Y40273D01*
G01X16731Y40250D01*
G01X16728Y40227D01*
G01X16727Y40203D01*
G01X16727Y39977D01*
G01X17287Y39977D01*
G01X17287Y40460D01*
G37*
G36*
G01X14926Y36396D02*
G01X14622Y36396D01*
G01X14598Y36395D01*
G01X14575Y36392D01*
G01X14551Y36386D01*
G01X14529Y36379D01*
G01X14507Y36369D01*
G01X14487Y36358D01*
G01X14467Y36344D01*
G01X14449Y36329D01*
G01X14432Y36312D01*
G01X14417Y36294D01*
G01X14404Y36275D01*
G01X14392Y36254D01*
G01X14382Y36232D01*
G01X14375Y36210D01*
G01X14370Y36187D01*
G01X14366Y36163D01*
G01X14365Y36140D01*
G01X14365Y35913D01*
G01X14926Y35913D01*
G01X14926Y36396D01*
G37*
G36*
G01X25692Y40460D02*
G01X25388Y40460D01*
G01X25388Y39977D01*
G01X25949Y39977D01*
G01X25949Y40204D01*
G01X25948Y40227D01*
G01X25944Y40251D01*
G01X25939Y40274D01*
G01X25931Y40296D01*
G01X25922Y40318D01*
G01X25910Y40339D01*
G01X25897Y40358D01*
G01X25882Y40376D01*
G01X25865Y40393D01*
G01X25847Y40408D01*
G01X25827Y40422D01*
G01X25806Y40433D01*
G01X25785Y40443D01*
G01X25762Y40450D01*
G01X25739Y40456D01*
G01X25716Y40459D01*
G01X25692Y40460D01*
G37*
G36*
G01X18453Y36167D02*
G01X18149Y36167D01*
G01X18149Y35684D01*
G01X18710Y35684D01*
G01X18710Y35910D01*
G01X18709Y35934D01*
G01X18706Y35958D01*
G01X18700Y35981D01*
G01X18693Y36003D01*
G01X18683Y36025D01*
G01X18671Y36045D01*
G01X18658Y36065D01*
G01X18643Y36083D01*
G01X18626Y36100D01*
G01X18608Y36115D01*
G01X18588Y36128D01*
G01X18568Y36140D01*
G01X18546Y36150D01*
G01X18524Y36157D01*
G01X18501Y36163D01*
G01X18477Y36166D01*
G01X18453Y36167D01*
G37*
G36*
G01X16092Y36396D02*
G01X15788Y36396D01*
G01X15788Y35913D01*
G01X16348Y35913D01*
G01X16348Y36140D01*
G01X16347Y36163D01*
G01X16344Y36187D01*
G01X16338Y36210D01*
G01X16331Y36232D01*
G01X16321Y36254D01*
G01X16310Y36275D01*
G01X16296Y36294D01*
G01X16281Y36312D01*
G01X16264Y36329D01*
G01X16246Y36344D01*
G01X16227Y36358D01*
G01X16206Y36369D01*
G01X16184Y36379D01*
G01X16162Y36386D01*
G01X16139Y36392D01*
G01X16115Y36395D01*
G01X16092Y36396D01*
G37*
G36*
G01X18453Y40460D02*
G01X18149Y40460D01*
G01X18149Y39977D01*
G01X18710Y39977D01*
G01X18710Y40203D01*
G01X18709Y40227D01*
G01X18706Y40250D01*
G01X18700Y40273D01*
G01X18693Y40296D01*
G01X18683Y40317D01*
G01X18671Y40338D01*
G01X18658Y40358D01*
G01X18643Y40376D01*
G01X18626Y40393D01*
G01X18608Y40408D01*
G01X18588Y40421D01*
G01X18568Y40433D01*
G01X18546Y40442D01*
G01X18524Y40450D01*
G01X18500Y40455D01*
G01X18477Y40459D01*
G01X18453Y40460D01*
G37*
G36*
G01X28106Y40460D02*
G01X27802Y40460D01*
G01X27802Y39977D01*
G01X28362Y39977D01*
G01X28362Y40204D01*
G01X28361Y40227D01*
G01X28358Y40251D01*
G01X28353Y40274D01*
G01X28345Y40296D01*
G01X28336Y40318D01*
G01X28324Y40339D01*
G01X28311Y40358D01*
G01X28295Y40376D01*
G01X28279Y40393D01*
G01X28260Y40408D01*
G01X28241Y40422D01*
G01X28220Y40433D01*
G01X28199Y40443D01*
G01X28176Y40450D01*
G01X28153Y40456D01*
G01X28130Y40459D01*
G01X28106Y40460D01*
G37*
G36*
G01X26940Y40460D02*
G01X26636Y40460D01*
G01X26612Y40459D01*
G01X26589Y40456D01*
G01X26566Y40450D01*
G01X26543Y40443D01*
G01X26522Y40433D01*
G01X26501Y40422D01*
G01X26481Y40408D01*
G01X26463Y40393D01*
G01X26446Y40376D01*
G01X26431Y40358D01*
G01X26418Y40339D01*
G01X26406Y40318D01*
G01X26397Y40296D01*
G01X26389Y40274D01*
G01X26384Y40251D01*
G01X26381Y40227D01*
G01X26379Y40204D01*
G01X26379Y39977D01*
G01X26940Y39977D01*
G01X26940Y40460D01*
G37*
G36*
G01X25692Y36168D02*
G01X25388Y36168D01*
G01X25388Y35685D01*
G01X25948Y35685D01*
G01X25948Y35911D01*
G01X25947Y35935D01*
G01X25944Y35958D01*
G01X25939Y35981D01*
G01X25931Y36004D01*
G01X25922Y36025D01*
G01X25910Y36046D01*
G01X25897Y36066D01*
G01X25881Y36084D01*
G01X25865Y36101D01*
G01X25846Y36116D01*
G01X25827Y36129D01*
G01X25806Y36141D01*
G01X25785Y36150D01*
G01X25762Y36158D01*
G01X25739Y36163D01*
G01X25716Y36166D01*
G01X25692Y36168D01*
G37*
G36*
G01X67210Y28524D02*
G01X66727Y28524D01*
G01X66727Y28220D01*
G01X66728Y28196D01*
G01X66731Y28173D01*
G01X66737Y28150D01*
G01X66744Y28127D01*
G01X66754Y28106D01*
G01X66766Y28085D01*
G01X66779Y28066D01*
G01X66794Y28047D01*
G01X66811Y28031D01*
G01X66829Y28015D01*
G01X66849Y28002D01*
G01X66869Y27991D01*
G01X66891Y27981D01*
G01X66913Y27973D01*
G01X66936Y27968D01*
G01X66960Y27965D01*
G01X66984Y27964D01*
G01X67210Y27964D01*
G01X67210Y28524D01*
G37*
G36*
G01X8282Y34265D02*
G01X8056Y34265D01*
G01X8032Y34264D01*
G01X8008Y34260D01*
G01X7985Y34255D01*
G01X7963Y34247D01*
G01X7941Y34238D01*
G01X7921Y34226D01*
G01X7901Y34213D01*
G01X7883Y34198D01*
G01X7866Y34181D01*
G01X7851Y34163D01*
G01X7838Y34143D01*
G01X7826Y34122D01*
G01X7816Y34101D01*
G01X7809Y34078D01*
G01X7803Y34055D01*
G01X7800Y34032D01*
G01X7799Y34008D01*
G01X7799Y33704D01*
G01X8282Y33704D01*
G01X8282Y34265D01*
G37*
G36*
G01X62638Y42113D02*
G01X62155Y42113D01*
G01X62155Y41809D01*
G01X62156Y41785D01*
G01X62159Y41762D01*
G01X62165Y41739D01*
G01X62172Y41716D01*
G01X62182Y41695D01*
G01X62194Y41674D01*
G01X62207Y41655D01*
G01X62222Y41636D01*
G01X62239Y41620D01*
G01X62257Y41604D01*
G01X62277Y41591D01*
G01X62297Y41580D01*
G01X62319Y41570D01*
G01X62341Y41562D01*
G01X62364Y41557D01*
G01X62388Y41554D01*
G01X62412Y41553D01*
G01X62638Y41553D01*
G01X62638Y42113D01*
G37*
G36*
G01X8282Y32842D02*
G01X7799Y32842D01*
G01X7799Y32538D01*
G01X7800Y32514D01*
G01X7803Y32491D01*
G01X7809Y32468D01*
G01X7816Y32445D01*
G01X7826Y32424D01*
G01X7838Y32403D01*
G01X7851Y32384D01*
G01X7866Y32365D01*
G01X7883Y32349D01*
G01X7901Y32333D01*
G01X7921Y32320D01*
G01X7941Y32309D01*
G01X7963Y32299D01*
G01X7985Y32291D01*
G01X8008Y32286D01*
G01X8032Y32283D01*
G01X8056Y32282D01*
G01X8282Y32282D01*
G01X8282Y32842D01*
G37*
G36*
G01X67210Y29947D02*
G01X66984Y29947D01*
G01X66960Y29946D01*
G01X66936Y29942D01*
G01X66913Y29937D01*
G01X66891Y29929D01*
G01X66869Y29920D01*
G01X66849Y29908D01*
G01X66829Y29895D01*
G01X66811Y29880D01*
G01X66794Y29863D01*
G01X66779Y29845D01*
G01X66766Y29825D01*
G01X66754Y29804D01*
G01X66744Y29783D01*
G01X66737Y29760D01*
G01X66731Y29737D01*
G01X66728Y29714D01*
G01X66727Y29690D01*
G01X66727Y29386D01*
G01X67210Y29386D01*
G01X67210Y29947D01*
G37*
G36*
G01X62638Y43536D02*
G01X62412Y43536D01*
G01X62388Y43535D01*
G01X62364Y43531D01*
G01X62341Y43526D01*
G01X62319Y43518D01*
G01X62297Y43509D01*
G01X62277Y43497D01*
G01X62257Y43484D01*
G01X62239Y43469D01*
G01X62222Y43452D01*
G01X62207Y43434D01*
G01X62194Y43414D01*
G01X62182Y43393D01*
G01X62172Y43372D01*
G01X62165Y43349D01*
G01X62159Y43326D01*
G01X62156Y43303D01*
G01X62155Y43279D01*
G01X62155Y42975D01*
G01X62638Y42975D01*
G01X62638Y43536D01*
G37*
G36*
G01X24526Y39270D02*
G01X23966Y39270D01*
G01X23966Y39044D01*
G01X23967Y39020D01*
G01X23970Y38996D01*
G01X23975Y38973D01*
G01X23983Y38951D01*
G01X23993Y38929D01*
G01X24004Y38909D01*
G01X24018Y38889D01*
G01X24033Y38871D01*
G01X24049Y38854D01*
G01X24068Y38839D01*
G01X24087Y38826D01*
G01X24108Y38814D01*
G01X24130Y38804D01*
G01X24152Y38797D01*
G01X24175Y38791D01*
G01X24199Y38788D01*
G01X24222Y38787D01*
G01X24526Y38787D01*
G01X24526Y39270D01*
G37*
G36*
G01X17287Y34977D02*
G01X16727Y34977D01*
G01X16727Y34750D01*
G01X16728Y34727D01*
G01X16731Y34703D01*
G01X16737Y34680D01*
G01X16744Y34658D01*
G01X16754Y34636D01*
G01X16765Y34615D01*
G01X16779Y34596D01*
G01X16794Y34578D01*
G01X16811Y34561D01*
G01X16829Y34546D01*
G01X16848Y34532D01*
G01X16869Y34521D01*
G01X16891Y34511D01*
G01X16913Y34504D01*
G01X16936Y34498D01*
G01X16960Y34495D01*
G01X16983Y34494D01*
G01X17287Y34494D01*
G01X17287Y34977D01*
G37*
G36*
G01X24526Y34978D02*
G01X23965Y34978D01*
G01X23965Y34751D01*
G01X23967Y34727D01*
G01X23970Y34704D01*
G01X23975Y34681D01*
G01X23983Y34658D01*
G01X23992Y34637D01*
G01X24004Y34616D01*
G01X24017Y34596D01*
G01X24032Y34578D01*
G01X24049Y34561D01*
G01X24067Y34546D01*
G01X24087Y34533D01*
G01X24108Y34521D01*
G01X24129Y34512D01*
G01X24152Y34504D01*
G01X24175Y34499D01*
G01X24198Y34496D01*
G01X24222Y34494D01*
G01X24526Y34494D01*
G01X24526Y34978D01*
G37*
G36*
G01X14926Y35206D02*
G01X14365Y35206D01*
G01X14365Y34980D01*
G01X14366Y34956D01*
G01X14370Y34932D01*
G01X14375Y34909D01*
G01X14382Y34887D01*
G01X14392Y34865D01*
G01X14404Y34845D01*
G01X14417Y34825D01*
G01X14432Y34807D01*
G01X14449Y34790D01*
G01X14467Y34775D01*
G01X14487Y34762D01*
G01X14507Y34750D01*
G01X14529Y34740D01*
G01X14551Y34733D01*
G01X14575Y34727D01*
G01X14598Y34724D01*
G01X14622Y34723D01*
G01X14926Y34723D01*
G01X14926Y35206D01*
G37*
G36*
G01X17287Y39270D02*
G01X16727Y39270D01*
G01X16727Y39043D01*
G01X16728Y39019D01*
G01X16731Y38996D01*
G01X16737Y38973D01*
G01X16744Y38950D01*
G01X16754Y38929D01*
G01X16765Y38908D01*
G01X16779Y38889D01*
G01X16794Y38870D01*
G01X16811Y38854D01*
G01X16829Y38838D01*
G01X16848Y38825D01*
G01X16869Y38813D01*
G01X16891Y38804D01*
G01X16913Y38796D01*
G01X16936Y38791D01*
G01X16960Y38788D01*
G01X16983Y38787D01*
G01X17287Y38787D01*
G01X17287Y39270D01*
G37*
G36*
G01X18710Y34977D02*
G01X18149Y34977D01*
G01X18149Y34494D01*
G01X18453Y34494D01*
G01X18477Y34495D01*
G01X18501Y34498D01*
G01X18524Y34504D01*
G01X18546Y34511D01*
G01X18568Y34521D01*
G01X18588Y34532D01*
G01X18608Y34546D01*
G01X18626Y34561D01*
G01X18643Y34578D01*
G01X18658Y34596D01*
G01X18671Y34615D01*
G01X18683Y34636D01*
G01X18693Y34658D01*
G01X18700Y34680D01*
G01X18706Y34703D01*
G01X18709Y34727D01*
G01X18710Y34750D01*
G01X18710Y34977D01*
G37*
G36*
G01X25949Y39270D02*
G01X25388Y39270D01*
G01X25388Y38787D01*
G01X25692Y38787D01*
G01X25716Y38788D01*
G01X25739Y38791D01*
G01X25762Y38797D01*
G01X25785Y38804D01*
G01X25806Y38814D01*
G01X25827Y38826D01*
G01X25847Y38839D01*
G01X25865Y38854D01*
G01X25882Y38871D01*
G01X25897Y38889D01*
G01X25910Y38909D01*
G01X25922Y38929D01*
G01X25931Y38951D01*
G01X25939Y38973D01*
G01X25944Y38996D01*
G01X25948Y39020D01*
G01X25949Y39044D01*
G01X25949Y39270D01*
G37*
G36*
G01X18710Y39270D02*
G01X18149Y39270D01*
G01X18149Y38787D01*
G01X18453Y38787D01*
G01X18477Y38788D01*
G01X18500Y38791D01*
G01X18524Y38796D01*
G01X18546Y38804D01*
G01X18568Y38813D01*
G01X18588Y38825D01*
G01X18608Y38838D01*
G01X18626Y38854D01*
G01X18643Y38870D01*
G01X18658Y38889D01*
G01X18671Y38908D01*
G01X18683Y38929D01*
G01X18693Y38950D01*
G01X18700Y38973D01*
G01X18706Y38996D01*
G01X18709Y39019D01*
G01X18710Y39043D01*
G01X18710Y39270D01*
G37*
G36*
G01X16348Y35206D02*
G01X15788Y35206D01*
G01X15788Y34723D01*
G01X16092Y34723D01*
G01X16115Y34724D01*
G01X16139Y34727D01*
G01X16162Y34733D01*
G01X16184Y34740D01*
G01X16206Y34750D01*
G01X16227Y34762D01*
G01X16246Y34775D01*
G01X16264Y34790D01*
G01X16281Y34807D01*
G01X16296Y34825D01*
G01X16310Y34845D01*
G01X16321Y34865D01*
G01X16331Y34887D01*
G01X16338Y34909D01*
G01X16344Y34932D01*
G01X16347Y34956D01*
G01X16348Y34980D01*
G01X16348Y35206D01*
G37*
G36*
G01X28362Y39270D02*
G01X27802Y39270D01*
G01X27802Y38787D01*
G01X28106Y38787D01*
G01X28130Y38788D01*
G01X28153Y38791D01*
G01X28176Y38797D01*
G01X28199Y38804D01*
G01X28220Y38814D01*
G01X28241Y38826D01*
G01X28260Y38839D01*
G01X28279Y38854D01*
G01X28295Y38871D01*
G01X28311Y38889D01*
G01X28324Y38909D01*
G01X28336Y38929D01*
G01X28345Y38951D01*
G01X28353Y38973D01*
G01X28358Y38996D01*
G01X28361Y39020D01*
G01X28362Y39044D01*
G01X28362Y39270D01*
G37*
G36*
G01X26940Y39270D02*
G01X26379Y39270D01*
G01X26379Y39044D01*
G01X26381Y39020D01*
G01X26384Y38996D01*
G01X26389Y38973D01*
G01X26397Y38951D01*
G01X26406Y38929D01*
G01X26418Y38909D01*
G01X26431Y38889D01*
G01X26446Y38871D01*
G01X26463Y38854D01*
G01X26481Y38839D01*
G01X26501Y38826D01*
G01X26522Y38814D01*
G01X26543Y38804D01*
G01X26566Y38797D01*
G01X26589Y38791D01*
G01X26612Y38788D01*
G01X26636Y38787D01*
G01X26940Y38787D01*
G01X26940Y39270D01*
G37*
G36*
G01X25948Y34978D02*
G01X25388Y34978D01*
G01X25388Y34494D01*
G01X25692Y34494D01*
G01X25716Y34496D01*
G01X25739Y34499D01*
G01X25762Y34504D01*
G01X25785Y34512D01*
G01X25806Y34521D01*
G01X25827Y34533D01*
G01X25846Y34546D01*
G01X25865Y34561D01*
G01X25881Y34578D01*
G01X25897Y34596D01*
G01X25910Y34616D01*
G01X25922Y34637D01*
G01X25931Y34658D01*
G01X25939Y34681D01*
G01X25944Y34704D01*
G01X25947Y34727D01*
G01X25948Y34751D01*
G01X25948Y34978D01*
G37*
G36*
G01X63572Y43536D02*
G01X63345Y43536D01*
G01X63345Y42975D01*
G01X63828Y42975D01*
G01X63828Y43279D01*
G01X63827Y43303D01*
G01X63824Y43326D01*
G01X63818Y43349D01*
G01X63811Y43372D01*
G01X63801Y43393D01*
G01X63790Y43414D01*
G01X63776Y43434D01*
G01X63761Y43452D01*
G01X63744Y43469D01*
G01X63726Y43484D01*
G01X63707Y43497D01*
G01X63686Y43509D01*
G01X63664Y43518D01*
G01X63642Y43526D01*
G01X63619Y43531D01*
G01X63595Y43535D01*
G01X63572Y43536D01*
G37*
G36*
G01X68400Y28524D02*
G01X67917Y28524D01*
G01X67917Y27964D01*
G01X68144Y27964D01*
G01X68167Y27965D01*
G01X68191Y27968D01*
G01X68214Y27973D01*
G01X68236Y27981D01*
G01X68258Y27991D01*
G01X68279Y28002D01*
G01X68298Y28015D01*
G01X68316Y28031D01*
G01X68333Y28047D01*
G01X68348Y28066D01*
G01X68362Y28085D01*
G01X68373Y28106D01*
G01X68383Y28127D01*
G01X68390Y28150D01*
G01X68396Y28173D01*
G01X68399Y28196D01*
G01X68400Y28220D01*
G01X68400Y28524D01*
G37*
G36*
G01X63828Y42113D02*
G01X63345Y42113D01*
G01X63345Y41553D01*
G01X63572Y41553D01*
G01X63595Y41554D01*
G01X63619Y41557D01*
G01X63642Y41562D01*
G01X63664Y41570D01*
G01X63686Y41580D01*
G01X63707Y41591D01*
G01X63726Y41604D01*
G01X63744Y41620D01*
G01X63761Y41636D01*
G01X63776Y41655D01*
G01X63790Y41674D01*
G01X63801Y41695D01*
G01X63811Y41716D01*
G01X63818Y41739D01*
G01X63824Y41762D01*
G01X63827Y41785D01*
G01X63828Y41809D01*
G01X63828Y42113D01*
G37*
G36*
G01X9216Y34265D02*
G01X8989Y34265D01*
G01X8989Y33704D01*
G01X9472Y33704D01*
G01X9472Y34008D01*
G01X9471Y34032D01*
G01X9468Y34055D01*
G01X9462Y34078D01*
G01X9455Y34101D01*
G01X9445Y34122D01*
G01X9434Y34143D01*
G01X9420Y34163D01*
G01X9405Y34181D01*
G01X9388Y34198D01*
G01X9370Y34213D01*
G01X9351Y34226D01*
G01X9330Y34238D01*
G01X9308Y34247D01*
G01X9286Y34255D01*
G01X9263Y34260D01*
G01X9239Y34264D01*
G01X9216Y34265D01*
G37*
G36*
G01X9472Y32842D02*
G01X8989Y32842D01*
G01X8989Y32282D01*
G01X9216Y32282D01*
G01X9239Y32283D01*
G01X9263Y32286D01*
G01X9286Y32291D01*
G01X9308Y32299D01*
G01X9330Y32309D01*
G01X9351Y32320D01*
G01X9370Y32333D01*
G01X9388Y32349D01*
G01X9405Y32365D01*
G01X9420Y32384D01*
G01X9434Y32403D01*
G01X9445Y32424D01*
G01X9455Y32445D01*
G01X9462Y32468D01*
G01X9468Y32491D01*
G01X9471Y32514D01*
G01X9472Y32538D01*
G01X9472Y32842D01*
G37*
G36*
G01X68144Y29947D02*
G01X67917Y29947D01*
G01X67917Y29386D01*
G01X68400Y29386D01*
G01X68400Y29690D01*
G01X68399Y29714D01*
G01X68396Y29737D01*
G01X68390Y29760D01*
G01X68383Y29783D01*
G01X68373Y29804D01*
G01X68362Y29825D01*
G01X68348Y29845D01*
G01X68333Y29863D01*
G01X68316Y29880D01*
G01X68298Y29895D01*
G01X68279Y29908D01*
G01X68258Y29920D01*
G01X68236Y29929D01*
G01X68214Y29937D01*
G01X68191Y29942D01*
G01X68167Y29946D01*
G01X68144Y29947D01*
G37*
G36*
G01X70424Y38704D02*
G01X70381Y38727D01*
G01X70381Y38222D01*
G01X70886Y38222D01*
G01X70863Y38265D01*
G01X70839Y38307D01*
G01X70813Y38348D01*
G01X70785Y38388D01*
G01X70756Y38426D01*
G01X70725Y38463D01*
G01X70692Y38499D01*
G01X70658Y38533D01*
G01X70622Y38566D01*
G01X70585Y38597D01*
G01X70547Y38626D01*
G01X70507Y38654D01*
G01X70466Y38680D01*
G01X70424Y38704D01*
G37*
G36*
G01X70886Y37245D02*
G01X70381Y37245D01*
G01X70381Y36741D01*
G01X70424Y36763D01*
G01X70466Y36787D01*
G01X70507Y36813D01*
G01X70547Y36841D01*
G01X70585Y36871D01*
G01X70622Y36902D01*
G01X70658Y36934D01*
G01X70692Y36969D01*
G01X70725Y37004D01*
G01X70756Y37041D01*
G01X70785Y37080D01*
G01X70813Y37119D01*
G01X70839Y37160D01*
G01X70863Y37202D01*
G01X70886Y37245D01*
G37*

%LPD*%
G36*
G01X55905Y19566D02*
G01X42411Y19566D01*
G01X42396Y19565D01*
G01X42382Y19562D01*
G01X42368Y19557D01*
G01X42356Y19550D01*
G01X42344Y19541D01*
G01X42334Y19531D01*
G01X42325Y19519D01*
G01X42318Y19507D01*
G01X42313Y19493D01*
G01X42310Y19479D01*
G01X42309Y19464D01*
G01X42309Y19050D01*
G01X42308Y19026D01*
G01X42306Y19012D01*
G01X42305Y19002D01*
G01X42302Y18990D01*
G01X42300Y18978D01*
G01X42297Y18969D01*
G01X42292Y18955D01*
G01X42289Y18948D01*
G01X42283Y18933D01*
G01X42279Y18925D01*
G01X42272Y18912D01*
G01X42266Y18903D01*
G01X42259Y18892D01*
G01X42252Y18884D01*
G01X42244Y18873D01*
G01X42237Y18865D01*
G01X42228Y18856D01*
G01X42212Y18841D01*
G01X42193Y18826D01*
G01X42173Y18813D01*
G01X42152Y18802D01*
G01X42130Y18793D01*
G01X42107Y18786D01*
G01X42084Y18781D01*
G01X42060Y18778D01*
G01X42037Y18777D01*
G01X39463Y18777D01*
G01X39448Y18776D01*
G01X39434Y18773D01*
G01X39420Y18768D01*
G01X39408Y18761D01*
G01X39396Y18752D01*
G01X39386Y18742D01*
G01X39377Y18730D01*
G01X39370Y18718D01*
G01X39365Y18704D01*
G01X39362Y18690D01*
G01X39361Y18675D01*
G01X39361Y10668D01*
G01X39360Y10629D01*
G01X39356Y10552D01*
G01X39350Y10476D01*
G01X39342Y10399D01*
G01X39332Y10323D01*
G01X39320Y10247D01*
G01X39306Y10172D01*
G01X39289Y10097D01*
G01X39271Y10022D01*
G01X39251Y9948D01*
G01X39229Y9874D01*
G01X39205Y9802D01*
G01X39178Y9729D01*
G01X39150Y9658D01*
G01X39120Y9587D01*
G01X39088Y9517D01*
G01X39055Y9448D01*
G01X39019Y9380D01*
G01X38982Y9313D01*
G01X38942Y9247D01*
G01X38901Y9182D01*
G01X38859Y9118D01*
G01X38814Y9055D01*
G01X38768Y8994D01*
G01X38721Y8934D01*
G01X38671Y8875D01*
G01X38620Y8817D01*
G01X38568Y8761D01*
G01X38514Y8706D01*
G01X38459Y8653D01*
G01X38402Y8601D01*
G01X38344Y8551D01*
G01X38284Y8502D01*
G01X38224Y8455D01*
G01X38162Y8410D01*
G01X38098Y8366D01*
G01X38034Y8324D01*
G01X37969Y8284D01*
G01X37902Y8246D01*
G01X37835Y8209D01*
G01X37766Y8174D01*
G01X37697Y8141D01*
G01X37627Y8110D01*
G01X37556Y8081D01*
G01X37484Y8054D01*
G01X37411Y8028D01*
G01X37338Y8005D01*
G01X37264Y7984D01*
G01X37190Y7964D01*
G01X37115Y7947D01*
G01X37040Y7931D01*
G01X36964Y7918D01*
G01X36888Y7907D01*
G01X36812Y7897D01*
G01X36735Y7890D01*
G01X36659Y7885D01*
G01X36582Y7882D01*
G01X36505Y7881D01*
G01X36436Y7882D01*
G01X33720Y7882D01*
G01X33705Y7881D01*
G01X33691Y7878D01*
G01X33678Y7873D01*
G01X33665Y7866D01*
G01X33653Y7857D01*
G01X33643Y7847D01*
G01X33634Y7835D01*
G01X33627Y7823D01*
G01X33622Y7809D01*
G01X33619Y7795D01*
G01X33618Y7780D01*
G01X33618Y5615D01*
G01X33617Y5591D01*
G01X33614Y5567D01*
G01X33609Y5544D01*
G01X33602Y5521D01*
G01X33593Y5499D01*
G01X33582Y5478D01*
G01X33569Y5458D01*
G01X33554Y5439D01*
G01X33538Y5422D01*
G01X33521Y5406D01*
G01X33502Y5391D01*
G01X33482Y5378D01*
G01X33461Y5367D01*
G01X33439Y5358D01*
G01X33416Y5351D01*
G01X33393Y5346D01*
G01X33369Y5343D01*
G01X33346Y5342D01*
G01X30153Y5342D01*
G01X30130Y5343D01*
G01X30106Y5346D01*
G01X30083Y5351D01*
G01X30060Y5358D01*
G01X30038Y5367D01*
G01X30017Y5378D01*
G01X29997Y5391D01*
G01X29978Y5406D01*
G01X29961Y5422D01*
G01X29945Y5439D01*
G01X29930Y5458D01*
G01X29917Y5478D01*
G01X29906Y5499D01*
G01X29897Y5521D01*
G01X29890Y5544D01*
G01X29885Y5567D01*
G01X29882Y5591D01*
G01X29881Y5615D01*
G01X29881Y7780D01*
G01X29880Y7795D01*
G01X29877Y7809D01*
G01X29872Y7822D01*
G01X29865Y7835D01*
G01X29856Y7847D01*
G01X29846Y7857D01*
G01X29834Y7866D01*
G01X29822Y7873D01*
G01X29808Y7878D01*
G01X29794Y7881D01*
G01X29780Y7882D01*
G01X26227Y7882D01*
G01X26212Y7881D01*
G01X26198Y7878D01*
G01X26184Y7873D01*
G01X26172Y7866D01*
G01X26160Y7857D01*
G01X26150Y7847D01*
G01X26141Y7835D01*
G01X26134Y7823D01*
G01X26129Y7809D01*
G01X26126Y7795D01*
G01X26125Y7781D01*
G01X26125Y5615D01*
G01X26124Y5591D01*
G01X26121Y5567D01*
G01X26116Y5544D01*
G01X26109Y5521D01*
G01X26100Y5499D01*
G01X26089Y5478D01*
G01X26076Y5458D01*
G01X26061Y5439D01*
G01X26045Y5422D01*
G01X26028Y5406D01*
G01X26009Y5391D01*
G01X25989Y5378D01*
G01X25968Y5367D01*
G01X25946Y5358D01*
G01X25923Y5351D01*
G01X25900Y5346D01*
G01X25876Y5343D01*
G01X25853Y5342D01*
G01X22660Y5342D01*
G01X22637Y5343D01*
G01X22613Y5346D01*
G01X22590Y5351D01*
G01X22567Y5358D01*
G01X22545Y5367D01*
G01X22524Y5378D01*
G01X22504Y5391D01*
G01X22485Y5406D01*
G01X22468Y5422D01*
G01X22452Y5439D01*
G01X22437Y5458D01*
G01X22424Y5478D01*
G01X22413Y5499D01*
G01X22404Y5521D01*
G01X22397Y5544D01*
G01X22392Y5567D01*
G01X22389Y5591D01*
G01X22388Y5615D01*
G01X22388Y7781D01*
G01X22387Y7795D01*
G01X22384Y7809D01*
G01X22379Y7823D01*
G01X22372Y7836D01*
G01X22363Y7847D01*
G01X22353Y7857D01*
G01X22341Y7866D01*
G01X22329Y7873D01*
G01X22315Y7878D01*
G01X22301Y7881D01*
G01X22286Y7882D01*
G01X6615Y7882D01*
G01X6596Y7880D01*
G01X6577Y7875D01*
G01X6553Y7866D01*
G01X6528Y7860D01*
G01X6502Y7856D01*
G01X6476Y7855D01*
G01X2514Y7855D01*
G01X2500Y7854D01*
G01X2485Y7851D01*
G01X2472Y7846D01*
G01X2459Y7839D01*
G01X2448Y7830D01*
G01X2437Y7820D01*
G01X2429Y7808D01*
G01X2422Y7796D01*
G01X2417Y7782D01*
G01X2414Y7768D01*
G01X2413Y7753D01*
G01X2413Y7486D01*
G01X2414Y7471D01*
G01X2417Y7457D01*
G01X2422Y7443D01*
G01X2429Y7431D01*
G01X2437Y7419D01*
G01X2448Y7409D01*
G01X2459Y7400D01*
G01X2472Y7393D01*
G01X2485Y7388D01*
G01X2500Y7385D01*
G01X2514Y7384D01*
G01X3364Y7384D01*
G01X3364Y6794D01*
G01X2514Y6794D01*
G01X2500Y6793D01*
G01X2485Y6790D01*
G01X2472Y6785D01*
G01X2459Y6778D01*
G01X2448Y6769D01*
G01X2437Y6759D01*
G01X2429Y6747D01*
G01X2422Y6735D01*
G01X2417Y6721D01*
G01X2414Y6707D01*
G01X2413Y6692D01*
G01X2413Y6007D01*
G01X2414Y5992D01*
G01X2417Y5978D01*
G01X2422Y5964D01*
G01X2429Y5952D01*
G01X2437Y5940D01*
G01X2448Y5930D01*
G01X2459Y5921D01*
G01X2472Y5914D01*
G01X2485Y5909D01*
G01X2500Y5906D01*
G01X2514Y5905D01*
G01X3364Y5905D01*
G01X3364Y5315D01*
G01X2412Y5315D01*
G01X2383Y5317D01*
G01X2355Y5321D01*
G01X2327Y5328D01*
G01X2312Y5332D01*
G01X2296Y5334D01*
G01X2249Y5334D01*
G01X2234Y5332D01*
G01X2220Y5329D01*
G01X2207Y5324D01*
G01X2194Y5317D01*
G01X2182Y5309D01*
G01X2172Y5298D01*
G01X2163Y5287D01*
G01X2156Y5274D01*
G01X2151Y5260D01*
G01X2144Y5238D01*
G01X2134Y5217D01*
G01X2122Y5196D01*
G01X2109Y5177D01*
G01X2094Y5159D01*
G01X2077Y5142D01*
G01X2059Y5127D01*
G01X2039Y5114D01*
G01X2019Y5103D01*
G01X1997Y5093D01*
G01X1975Y5086D01*
G01X1952Y5080D01*
G01X1929Y5077D01*
G01X1905Y5076D01*
G01X358Y5076D01*
G01X344Y5075D01*
G01X329Y5072D01*
G01X316Y5067D01*
G01X303Y5060D01*
G01X292Y5051D01*
G01X281Y5041D01*
G01X273Y5029D01*
G01X266Y5017D01*
G01X261Y5003D01*
G01X258Y4989D01*
G01X257Y4974D01*
G01X256Y4343D01*
G01X256Y358D01*
G01X257Y343D01*
G01X260Y329D01*
G01X265Y315D01*
G01X272Y303D01*
G01X281Y291D01*
G01X291Y281D01*
G01X303Y272D01*
G01X315Y265D01*
G01X329Y260D01*
G01X343Y257D01*
G01X358Y256D01*
G01X50190Y256D01*
G01X50204Y257D01*
G01X50219Y260D01*
G01X50232Y265D01*
G01X50245Y272D01*
G01X50256Y281D01*
G01X50267Y291D01*
G01X50275Y303D01*
G01X50282Y315D01*
G01X50287Y329D01*
G01X50290Y343D01*
G01X50292Y358D01*
G01X50292Y465D01*
G01X50291Y477D01*
G01X50289Y508D01*
G01X50289Y1460D01*
G01X50863Y1460D01*
G01X50863Y609D01*
G01X50864Y595D01*
G01X50867Y580D01*
G01X50872Y567D01*
G01X50879Y554D01*
G01X50888Y543D01*
G01X50898Y532D01*
G01X50910Y524D01*
G01X50922Y517D01*
G01X50936Y512D01*
G01X50950Y509D01*
G01X50965Y508D01*
G01X51650Y508D01*
G01X51665Y509D01*
G01X51679Y512D01*
G01X51693Y517D01*
G01X51705Y524D01*
G01X51717Y532D01*
G01X51727Y543D01*
G01X51736Y554D01*
G01X51743Y567D01*
G01X51748Y580D01*
G01X51751Y595D01*
G01X51752Y609D01*
G01X51752Y1460D01*
G01X52326Y1460D01*
G01X52326Y508D01*
G01X52324Y477D01*
G01X52324Y358D01*
G01X52325Y343D01*
G01X52328Y329D01*
G01X52333Y315D01*
G01X52340Y303D01*
G01X52348Y291D01*
G01X52359Y281D01*
G01X52370Y272D01*
G01X52383Y265D01*
G01X52396Y260D01*
G01X52411Y257D01*
G01X52425Y256D01*
G01X79143Y256D01*
G01X79158Y257D01*
G01X79172Y260D01*
G01X79186Y265D01*
G01X79198Y272D01*
G01X79210Y281D01*
G01X79220Y291D01*
G01X79229Y303D01*
G01X79236Y315D01*
G01X79241Y329D01*
G01X79244Y343D01*
G01X79245Y358D01*
G01X79245Y15622D01*
G01X79246Y15639D01*
G01X79246Y16660D01*
G01X79245Y16675D01*
G01X79242Y16689D01*
G01X79237Y16703D01*
G01X79230Y16715D01*
G01X79221Y16727D01*
G01X79211Y16737D01*
G01X79199Y16746D01*
G01X79186Y16753D01*
G01X79173Y16758D01*
G01X79159Y16761D01*
G01X79144Y16762D01*
G01X77597Y16762D01*
G01X77574Y16763D01*
G01X77551Y16766D01*
G01X77528Y16772D01*
G01X77506Y16779D01*
G01X77484Y16788D01*
G01X77464Y16800D01*
G01X77444Y16813D01*
G01X77426Y16828D01*
G01X77409Y16844D01*
G01X77394Y16862D01*
G01X77381Y16881D01*
G01X77369Y16902D01*
G01X77359Y16923D01*
G01X77352Y16945D01*
G01X77346Y16959D01*
G01X77340Y16971D01*
G01X77331Y16983D01*
G01X77321Y16993D01*
G01X77309Y17001D01*
G01X77296Y17008D01*
G01X77283Y17013D01*
G01X77269Y17016D01*
G01X77254Y17018D01*
G01X77206Y17018D01*
G01X77190Y17016D01*
G01X77175Y17012D01*
G01X77147Y17005D01*
G01X77119Y17000D01*
G01X77090Y16999D01*
G01X76137Y16999D01*
G01X76137Y17589D01*
G01X76987Y17589D01*
G01X77001Y17590D01*
G01X77016Y17593D01*
G01X77029Y17598D01*
G01X77042Y17605D01*
G01X77053Y17614D01*
G01X77064Y17624D01*
G01X77072Y17636D01*
G01X77079Y17648D01*
G01X77084Y17662D01*
G01X77087Y17676D01*
G01X77089Y17691D01*
G01X77089Y18376D01*
G01X77087Y18391D01*
G01X77084Y18405D01*
G01X77079Y18419D01*
G01X77072Y18431D01*
G01X77064Y18443D01*
G01X77053Y18453D01*
G01X77042Y18462D01*
G01X77029Y18469D01*
G01X77016Y18474D01*
G01X77001Y18477D01*
G01X76987Y18478D01*
G01X76137Y18478D01*
G01X76137Y19068D01*
G01X76987Y19068D01*
G01X77001Y19069D01*
G01X77016Y19072D01*
G01X77029Y19077D01*
G01X77042Y19084D01*
G01X77053Y19093D01*
G01X77064Y19103D01*
G01X77072Y19115D01*
G01X77079Y19127D01*
G01X77084Y19141D01*
G01X77087Y19155D01*
G01X77089Y19170D01*
G01X77089Y19437D01*
G01X77087Y19452D01*
G01X77084Y19466D01*
G01X77079Y19480D01*
G01X77072Y19492D01*
G01X77064Y19504D01*
G01X77053Y19514D01*
G01X77042Y19523D01*
G01X77029Y19530D01*
G01X77016Y19535D01*
G01X77001Y19538D01*
G01X76987Y19539D01*
G01X73026Y19539D01*
G01X73000Y19540D01*
G01X72974Y19544D01*
G01X72949Y19550D01*
G01X72924Y19559D01*
G01X72906Y19564D01*
G01X72886Y19566D01*
G01X68208Y19566D01*
G01X68167Y19564D01*
G01X68126Y19559D01*
G01X68085Y19553D01*
G01X68044Y19544D01*
G01X68004Y19533D01*
G01X67965Y19520D01*
G01X67926Y19506D01*
G01X67888Y19489D01*
G01X67851Y19470D01*
G01X67815Y19450D01*
G01X67780Y19427D01*
G01X67747Y19403D01*
G01X67714Y19377D01*
G01X67683Y19350D01*
G01X67654Y19321D01*
G01X67626Y19291D01*
G01X67599Y19259D01*
G01X67574Y19225D01*
G01X67551Y19191D01*
G01X67530Y19155D01*
G01X67510Y19119D01*
G01X67493Y19081D01*
G01X67477Y19043D01*
G01X67464Y19004D01*
G01X67452Y18964D01*
G01X67443Y18924D01*
G01X67435Y18883D01*
G01X67430Y18842D01*
G01X67427Y18800D01*
G01X67426Y18759D01*
G01X67427Y18719D01*
G01X67428Y18669D01*
G01X67428Y15530D01*
G01X67429Y15493D01*
G01X67428Y13419D01*
G01X67428Y6235D01*
G01X67429Y6159D01*
G01X67428Y6078D01*
G01X67425Y5998D01*
G01X67420Y5917D01*
G01X67413Y5837D01*
G01X67403Y5757D01*
G01X67392Y5677D01*
G01X67378Y5598D01*
G01X67362Y5519D01*
G01X67345Y5440D01*
G01X67325Y5362D01*
G01X67303Y5284D01*
G01X67280Y5207D01*
G01X67254Y5131D01*
G01X67226Y5055D01*
G01X67197Y4980D01*
G01X67165Y4906D01*
G01X67132Y4833D01*
G01X67096Y4760D01*
G01X67059Y4689D01*
G01X67020Y4618D01*
G01X66979Y4549D01*
G01X66936Y4480D01*
G01X66892Y4413D01*
G01X66845Y4347D01*
G01X66798Y4282D01*
G01X66748Y4219D01*
G01X66697Y4156D01*
G01X66644Y4095D01*
G01X66590Y4036D01*
G01X66534Y3978D01*
G01X66476Y3921D01*
G01X66417Y3866D01*
G01X66357Y3812D01*
G01X66233Y3710D01*
G01X66168Y3661D01*
G01X66103Y3614D01*
G01X66036Y3569D01*
G01X65968Y3526D01*
G01X65899Y3484D01*
G01X65829Y3444D01*
G01X65758Y3406D01*
G01X65686Y3369D01*
G01X65613Y3335D01*
G01X65540Y3302D01*
G01X65465Y3272D01*
G01X65390Y3243D01*
G01X65314Y3217D01*
G01X65237Y3192D01*
G01X65159Y3169D01*
G01X65081Y3149D01*
G01X65003Y3130D01*
G01X64924Y3113D01*
G01X64845Y3099D01*
G01X64765Y3086D01*
G01X64685Y3076D01*
G01X64605Y3068D01*
G01X64525Y3061D01*
G01X64444Y3057D01*
G01X64442Y3057D01*
G01X64388Y3056D01*
G01X59829Y3056D01*
G01X59753Y3055D01*
G01X59673Y3056D01*
G01X59594Y3059D01*
G01X59514Y3064D01*
G01X59435Y3071D01*
G01X59355Y3081D01*
G01X59277Y3092D01*
G01X59198Y3105D01*
G01X59120Y3120D01*
G01X59042Y3137D01*
G01X58965Y3157D01*
G01X58888Y3178D01*
G01X58812Y3201D01*
G01X58736Y3226D01*
G01X58661Y3253D01*
G01X58587Y3282D01*
G01X58513Y3313D01*
G01X58441Y3346D01*
G01X58369Y3381D01*
G01X58298Y3417D01*
G01X58228Y3455D01*
G01X58159Y3495D01*
G01X58091Y3537D01*
G01X58025Y3581D01*
G01X57959Y3626D01*
G01X57895Y3673D01*
G01X57831Y3721D01*
G01X57769Y3771D01*
G01X57709Y3823D01*
G01X57649Y3876D01*
G01X57592Y3931D01*
G01X57535Y3987D01*
G01X57480Y4045D01*
G01X57427Y4104D01*
G01X57375Y4164D01*
G01X57324Y4226D01*
G01X57275Y4289D01*
G01X57228Y4353D01*
G01X57183Y4419D01*
G01X57139Y4485D01*
G01X57097Y4553D01*
G01X57056Y4622D01*
G01X57018Y4692D01*
G01X56981Y4762D01*
G01X56946Y4834D01*
G01X56913Y4906D01*
G01X56882Y4980D01*
G01X56852Y5054D01*
G01X56825Y5129D01*
G01X56799Y5204D01*
G01X56776Y5280D01*
G01X56754Y5357D01*
G01X56735Y5434D01*
G01X56717Y5512D01*
G01X56702Y5590D01*
G01X56688Y5669D01*
G01X56676Y5747D01*
G01X56667Y5827D01*
G01X56659Y5906D01*
G01X56654Y5985D01*
G01X56650Y6065D01*
G01X56650Y18700D01*
G01X56651Y18743D01*
G01X56651Y18752D01*
G01X56650Y18776D01*
G01X56648Y18817D01*
G01X56644Y18858D01*
G01X56638Y18899D01*
G01X56630Y18939D01*
G01X56620Y18979D01*
G01X56608Y19018D01*
G01X56594Y19057D01*
G01X56578Y19094D01*
G01X56560Y19131D01*
G01X56541Y19167D01*
G01X56519Y19202D01*
G01X56496Y19236D01*
G01X56471Y19269D01*
G01X56444Y19300D01*
G01X56416Y19330D01*
G01X56386Y19358D01*
G01X56355Y19385D01*
G01X56323Y19410D01*
G01X56289Y19434D01*
G01X56254Y19455D01*
G01X56219Y19475D01*
G01X56182Y19494D01*
G01X56144Y19510D01*
G01X56106Y19524D01*
G01X56067Y19537D01*
G01X56027Y19547D01*
G01X55987Y19555D01*
G01X55946Y19562D01*
G01X55905Y19566D01*
G37*

%LPC*%
G36*
G01X6749Y5905D02*
G01X5523Y5905D01*
G01X5523Y5315D01*
G01X6476Y5315D01*
G01X6500Y5316D01*
G01X6523Y5319D01*
G01X6547Y5324D01*
G01X6569Y5331D01*
G01X6591Y5341D01*
G01X6612Y5352D01*
G01X6632Y5364D01*
G01X6651Y5379D01*
G01X6669Y5395D01*
G01X6685Y5412D01*
G01X6699Y5431D01*
G01X6712Y5451D01*
G01X6723Y5472D01*
G01X6732Y5494D01*
G01X6739Y5517D01*
G01X6744Y5540D01*
G01X6747Y5564D01*
G01X6749Y5588D01*
G01X6749Y5905D01*
G37*
G36*
G01X73978Y19068D02*
G01X73026Y19068D01*
G01X73002Y19067D01*
G01X72979Y19064D01*
G01X72955Y19059D01*
G01X72933Y19052D01*
G01X72911Y19042D01*
G01X72890Y19031D01*
G01X72870Y19019D01*
G01X72851Y19004D01*
G01X72833Y18988D01*
G01X72817Y18971D01*
G01X72803Y18952D01*
G01X72790Y18932D01*
G01X72779Y18911D01*
G01X72770Y18889D01*
G01X72763Y18866D01*
G01X72757Y18843D01*
G01X72754Y18819D01*
G01X72753Y18795D01*
G01X72753Y18478D01*
G01X73978Y18478D01*
G01X73978Y19068D01*
G37*
G36*
G01X73978Y17589D02*
G01X72753Y17589D01*
G01X72753Y17271D01*
G01X72754Y17248D01*
G01X72757Y17224D01*
G01X72763Y17201D01*
G01X72770Y17178D01*
G01X72779Y17156D01*
G01X72790Y17135D01*
G01X72803Y17115D01*
G01X72817Y17096D01*
G01X72833Y17079D01*
G01X72851Y17063D01*
G01X72870Y17048D01*
G01X72890Y17035D01*
G01X72911Y17024D01*
G01X72933Y17015D01*
G01X72955Y17008D01*
G01X72979Y17003D01*
G01X73002Y17000D01*
G01X73026Y16999D01*
G01X73978Y16999D01*
G01X73978Y17589D01*
G37*
G36*
G01X6476Y7384D02*
G01X5523Y7384D01*
G01X5523Y6794D01*
G01X6749Y6794D01*
G01X6749Y7112D01*
G01X6747Y7135D01*
G01X6744Y7159D01*
G01X6739Y7182D01*
G01X6732Y7205D01*
G01X6723Y7227D01*
G01X6712Y7248D01*
G01X6699Y7268D01*
G01X6685Y7287D01*
G01X6669Y7304D01*
G01X6651Y7320D01*
G01X6632Y7335D01*
G01X6612Y7348D01*
G01X6591Y7359D01*
G01X6569Y7368D01*
G01X6547Y7375D01*
G01X6523Y7380D01*
G01X6500Y7383D01*
G01X6476Y7384D01*
G37*
G36*
G01X50863Y4828D02*
G01X50546Y4828D01*
G01X50522Y4827D01*
G01X50498Y4824D01*
G01X50475Y4818D01*
G01X50453Y4811D01*
G01X50431Y4801D01*
G01X50410Y4790D01*
G01X50391Y4776D01*
G01X50373Y4761D01*
G01X50356Y4744D01*
G01X50341Y4726D01*
G01X50327Y4707D01*
G01X50316Y4686D01*
G01X50306Y4664D01*
G01X50299Y4642D01*
G01X50293Y4619D01*
G01X50290Y4595D01*
G01X50289Y4572D01*
G01X50289Y3619D01*
G01X50863Y3619D01*
G01X50863Y4828D01*
G37*
G36*
G01X52070Y4828D02*
G01X51752Y4828D01*
G01X51752Y3619D01*
G01X52326Y3619D01*
G01X52326Y4572D01*
G01X52325Y4595D01*
G01X52322Y4619D01*
G01X52316Y4642D01*
G01X52309Y4664D01*
G01X52299Y4686D01*
G01X52288Y4707D01*
G01X52274Y4726D01*
G01X52259Y4744D01*
G01X52242Y4761D01*
G01X52224Y4776D01*
G01X52205Y4790D01*
G01X52184Y4801D01*
G01X52162Y4811D01*
G01X52140Y4818D01*
G01X52117Y4824D01*
G01X52093Y4827D01*
G01X52070Y4828D01*
G37*

%LPD*%
G54D11*
G01X32893Y38448D02*
G01X32893Y37593D01*
G01X35306Y40479D02*
G01X32893Y40480D01*
G01X29846Y37593D02*
G01X40387Y37593D01*
G01X42545Y39751D01*
G01X43942Y39751D01*
G01X29845Y37592D02*
G01X27371Y37592D01*
G01X17719Y37592D02*
G01X15356Y37592D01*
G01X17719Y33299D02*
G01X10668Y33274D01*
G01X5588Y34290D02*
G01X5588Y36957D01*
G01X6223Y37592D01*
G01X7620Y37592D01*
G01X22773Y33299D02*
G01X21884Y33299D01*
G01X21656Y33528D01*
G01X21656Y34925D01*
G01X21910Y35179D01*
G01X22773Y35179D01*
G01X5588Y32258D02*
G01X5588Y30861D01*
G01X6162Y30286D01*
G01X7708Y30286D01*
G01X10710Y31236D02*
G01X7710Y31236D01*
G01X10668Y33274D02*
G01X10710Y33232D01*
G01X10710Y31236D01*
G01X19903Y33299D02*
G01X17719Y33299D01*
G01X24983Y33299D02*
G01X26507Y33299D01*
G01X27371Y34163D01*
G01X27371Y37592D01*
G01X24957Y37592D02*
G01X27371Y37592D01*
G01X24983Y33299D02*
G01X22799Y33299D01*
G01X15357Y39751D02*
G01X15357Y37592D01*
G01X15052Y37592D02*
G01X12385Y37592D01*
G01X12385Y41783D02*
G01X15052Y41783D01*
G01X24957Y37592D02*
G01X22772Y37592D01*
G01X22772Y39471D02*
G01X21883Y39471D01*
G01X21655Y39243D01*
G01X21655Y37846D01*
G01X21909Y37592D01*
G01X22772Y37592D01*
G01X17718Y37592D02*
G01X19877Y37592D01*
G01X38100Y40767D02*
G01X36703Y40767D01*
G01X36415Y40479D01*
G01X35306Y40479D01*
G54D12*
G01X14854Y29336D02*
G01X10710Y29337D01*
G01X19431Y29337D02*
G01X17353Y29336D01*
G01X21844Y29337D02*
G01X19431Y29337D01*
G01X24257Y29337D02*
G01X21844Y29337D01*
G01X26453Y29337D02*
G01X24257Y29337D01*
G54D11*
G01X47193Y39751D02*
G01X48514Y39751D01*
G01X50165Y38100D01*
G01X50165Y30485D01*
G54D13*
G01X69596Y28955D02*
G01X71094Y28955D01*
G01X72603Y30464D01*
G54D11*
G01X65024Y33202D02*
G01X69270Y33202D01*
G01X69893Y33825D01*
G01X69893Y35232D01*
G01X65151Y37735D02*
G01X67899Y37736D01*
G01X67891Y35234D02*
G01X65024Y35235D01*
G01X63119Y37736D02*
G01X57404Y37718D01*
G01X54864Y35178D01*
G01X54864Y30485D01*
G54D13*
G01X65151Y42544D02*
G01X72562Y42544D01*
G01X72603Y42504D01*
G54D12*
G01X33224Y29337D02*
G01X34036Y29337D01*
G01X28904Y29337D02*
G01X30773Y29337D01*
G01X30774Y29337D01*
G01X20447Y8890D02*
G01X17954Y8889D01*
G01X15453Y8889D02*
G01X10254Y8889D01*
G01X7799Y8889D02*
G01X4444Y8890D01*
G01X22954Y8890D02*
G01X21940Y8890D01*
G01X20447Y8890D01*
G01X30533Y8889D02*
G01X25554Y8890D01*
G54D14*
G01X23241Y8890D02*
G01X23241Y6350D01*
G01X25273Y8890D02*
G01X25273Y6350D01*
G54D12*
G01X35433Y8890D02*
G01X32954Y8890D01*
G01X66421Y6669D02*
G01X66421Y6223D01*
G01X71453Y20574D02*
G01X75058Y20574D01*
G01X57658Y17780D02*
G01X57658Y18700D01*
G54D14*
G01X66420Y17653D02*
G01X66421Y18669D01*
G54D12*
G01X66420Y18034D02*
G01X66420Y18669D01*
G01X66421Y15493D02*
G01X66420Y15494D01*
G01X66420Y18034D01*
G01X57658Y6669D02*
G01X57658Y6096D01*
G01X66421Y10970D02*
G01X66421Y9119D01*
G01X57658Y15240D02*
G01X57658Y13420D01*
G01X57658Y17780D02*
G01X57658Y15240D01*
G01X69054Y20574D02*
G01X68199Y20574D01*
G01X52853Y20573D02*
G01X51054Y20573D01*
G01X48554Y20574D02*
G01X46482Y20574D01*
G01X46482Y20574D02*
G01X43942Y20574D01*
G01X43942Y20574D02*
G01X40894Y20574D01*
G01X35814Y25654D02*
G01X35814Y27432D01*
G01X35433Y8889D02*
G01X36449Y8889D01*
G01X38354Y19558D02*
G01X38354Y16001D01*
G01X38354Y11119D02*
G01X38354Y10668D01*
G01X38353Y16001D02*
G01X38353Y16763D01*
G01X38353Y16256D02*
G01X38353Y13874D01*
G54D14*
G01X30734Y8889D02*
G01X30734Y6350D01*
G01X38353Y13589D02*
G01X38353Y13589D01*
G01X35814Y13589D01*
G01X32766Y8889D02*
G01X32766Y6350D01*
G54D12*
G01X55354Y20573D02*
G01X55880Y20574D01*
G01X57658Y10970D02*
G01X57658Y9119D01*
G54D14*
G01X38353Y11557D02*
G01X38353Y11557D01*
G01X35814Y11557D01*
G54D12*
G01X64389Y4064D02*
G01X64388Y4063D01*
G01X63373Y4063D01*
G01X66420Y15494D02*
G01X66421Y15493D01*
G01X66421Y13420D01*
G01X60959Y4063D02*
G01X63373Y4063D01*
G01X59817Y4064D02*
G01X60959Y4063D01*
G54D15*
G01X9652Y17492D02*
G01X9652Y16443D01*
G01X10353Y17492D02*
G01X10353Y16443D01*
G01X9652Y16992D02*
G01X10353Y16992D01*
G01X10683Y17492D02*
G01X10683Y16443D01*
G01X10683Y17492D02*
G01X11330Y17492D01*
G01X10683Y16992D02*
G01X11082Y16992D01*
G01X12430Y17492D02*
G01X12430Y16743D01*
G01X12481Y16593D01*
G01X12583Y16492D01*
G01X12733Y16443D01*
G01X12832Y16443D01*
G01X12981Y16492D01*
G01X13081Y16593D01*
G01X13131Y16743D01*
G01X13131Y17492D01*
G01X13462Y17142D02*
G01X13462Y16093D01*
G01X13462Y16992D02*
G01X13561Y17094D01*
G01X13662Y17142D01*
G01X13812Y17142D01*
G01X13911Y17094D01*
G01X14013Y16992D01*
G01X14061Y16842D01*
G01X14061Y16743D01*
G01X14013Y16593D01*
G01X13911Y16492D01*
G01X13812Y16443D01*
G01X13662Y16443D01*
G01X13561Y16492D01*
G01X13462Y16593D01*
G01X14991Y16992D02*
G01X14892Y17094D01*
G01X14792Y17142D01*
G01X14643Y17142D01*
G01X14541Y17094D01*
G01X14442Y16992D01*
G01X14391Y16842D01*
G01X14391Y16743D01*
G01X14442Y16593D01*
G01X14541Y16492D01*
G01X14643Y16443D01*
G01X14792Y16443D01*
G01X14892Y16492D01*
G01X14991Y16593D01*
G01X15572Y17142D02*
G01X15471Y17094D01*
G01X15372Y16992D01*
G01X15321Y16842D01*
G01X15321Y16743D01*
G01X15372Y16593D01*
G01X15471Y16492D01*
G01X15572Y16443D01*
G01X15722Y16443D01*
G01X15821Y16492D01*
G01X15923Y16593D01*
G01X15971Y16743D01*
G01X15971Y16842D01*
G01X15923Y16992D01*
G01X15821Y17094D01*
G01X15722Y17142D01*
G01X15572Y17142D01*
G01X16301Y17142D02*
G01X16301Y16443D01*
G01X16301Y16941D02*
G01X16451Y17094D01*
G01X16553Y17142D01*
G01X16703Y17142D01*
G01X16802Y17094D01*
G01X16852Y16941D01*
G01X16852Y16443D01*
G01X17183Y17142D02*
G01X17482Y16443D01*
G01X17782Y17142D02*
G01X17482Y16443D01*
G01X18112Y16842D02*
G01X18712Y16842D01*
G01X18712Y16941D01*
G01X18661Y17043D01*
G01X18613Y17094D01*
G01X18511Y17142D01*
G01X18361Y17142D01*
G01X18262Y17094D01*
G01X18161Y16992D01*
G01X18112Y16842D01*
G01X18112Y16743D01*
G01X18161Y16593D01*
G01X18262Y16492D01*
G01X18361Y16443D01*
G01X18511Y16443D01*
G01X18613Y16492D01*
G01X18712Y16593D01*
G01X19042Y17142D02*
G01X19042Y16443D01*
G01X19042Y16842D02*
G01X19093Y16992D01*
G01X19192Y17094D01*
G01X19291Y17142D01*
G01X19441Y17142D01*
G01X19921Y17492D02*
G01X19921Y16642D01*
G01X19972Y16492D01*
G01X20071Y16443D01*
G01X20172Y16443D01*
G01X19771Y17142D02*
G01X20121Y17142D01*
G01X20502Y16842D02*
G01X21102Y16842D01*
G01X21102Y16941D01*
G01X21051Y17043D01*
G01X21003Y17094D01*
G01X20901Y17142D01*
G01X20751Y17142D01*
G01X20652Y17094D01*
G01X20551Y16992D01*
G01X20502Y16842D01*
G01X20502Y16743D01*
G01X20551Y16593D01*
G01X20652Y16492D01*
G01X20751Y16443D01*
G01X20901Y16443D01*
G01X21003Y16492D01*
G01X21102Y16593D01*
G01X21432Y17142D02*
G01X21432Y16443D01*
G01X21432Y16842D02*
G01X21480Y16992D01*
G01X21582Y17094D01*
G01X21681Y17142D01*
G01X21831Y17142D01*
G01X9652Y15206D02*
G01X10050Y14157D01*
G01X10452Y15206D02*
G01X10050Y14157D01*
G01X10782Y15206D02*
G01X10782Y14157D01*
G01X10782Y15206D02*
G01X11432Y15206D01*
G01X10782Y14706D02*
G01X11181Y14706D01*
G01X10782Y14157D02*
G01X11432Y14157D01*
G01X11762Y15206D02*
G01X11762Y14157D01*
G01X11762Y15206D02*
G01X12212Y15206D01*
G01X12362Y15156D01*
G01X12412Y15107D01*
G01X12461Y15006D01*
G01X12461Y14907D01*
G01X12412Y14808D01*
G01X12362Y14757D01*
G01X12212Y14706D01*
G01X11762Y14706D01*
G01X12113Y14706D02*
G01X12461Y14157D01*
G01X13561Y15006D02*
G01X13662Y15057D01*
G01X13812Y15206D01*
G01X13812Y14157D01*
G01X14190Y14406D02*
G01X14142Y14356D01*
G01X14190Y14307D01*
G01X14241Y14356D01*
G01X14190Y14406D01*
G01X14871Y15206D02*
G01X14721Y15156D01*
G01X14622Y15006D01*
G01X14571Y14757D01*
G01X14571Y14607D01*
G01X14622Y14356D01*
G01X14721Y14206D01*
G01X14871Y14157D01*
G01X14970Y14157D01*
G01X15123Y14206D01*
G01X15222Y14356D01*
G01X15273Y14607D01*
G01X15273Y14757D01*
G01X15222Y15006D01*
G01X15123Y15156D01*
G01X14970Y15206D01*
G01X14871Y15206D01*
G01X15651Y14406D02*
G01X15603Y14356D01*
G01X15651Y14307D01*
G01X15702Y14356D01*
G01X15651Y14406D01*
G01X16032Y15206D02*
G01X16032Y14157D01*
G01X16032Y15206D02*
G01X16682Y15206D01*
G01X16032Y14706D02*
G01X16431Y14706D01*
G01X16032Y14157D02*
G01X16682Y14157D01*
G01X17012Y15206D02*
G01X17012Y14157D01*
G01X17012Y15206D02*
G01X17663Y15206D01*
G01X17012Y14706D02*
G01X17411Y14706D01*
G01X17012Y14157D02*
G01X17663Y14157D01*
G54D18*
G01X4444Y11430D03*
G01X4444Y8890D03*
G01X4444Y6350D03*
G01X75058Y18034D03*
G01X75058Y20574D03*
G01X75058Y23114D03*
G36*
G01X62412Y43279D02*
G01X63572Y43279D01*
G01X63572Y41809D01*
G01X62412Y41809D01*
G01X62412Y43279D01*
G37*
G36*
G01X64444Y43279D02*
G01X65604Y43279D01*
G01X65604Y41809D01*
G01X64444Y41809D01*
G01X64444Y43279D01*
G37*
G54D20*
G01X65024Y37736D03*
G01X62992Y37736D03*
G54D21*
G01X64897Y33202D03*
G01X64897Y35234D03*
G36*
G01X66984Y29690D02*
G01X68144Y29690D01*
G01X68144Y28220D01*
G01X66984Y28220D01*
G01X66984Y29690D01*
G37*
G36*
G01X69016Y29690D02*
G01X70176Y29690D01*
G01X70176Y28220D01*
G01X69016Y28220D01*
G01X69016Y29690D01*
G37*
G54D22*
G01X35307Y40480D03*
G01X35307Y42580D03*
G54D21*
G01X17718Y37591D03*
G01X17718Y39623D03*
G54D23*
G01X22772Y39471D03*
G01X19877Y39471D03*
G01X19877Y37592D03*
G01X22772Y37592D03*
G01X22772Y38531D03*
G54D21*
G01X24957Y39624D03*
G01X24957Y37592D03*
G01X27371Y37592D03*
G01X27371Y39624D03*
G54D24*
G01X12827Y27305D03*
G01X12827Y29337D03*
G36*
G01X14532Y30071D02*
G01X15693Y30071D01*
G01X15693Y28602D01*
G01X14532Y28602D01*
G01X14532Y30071D01*
G37*
G36*
G01X16564Y30071D02*
G01X17725Y30071D01*
G01X17725Y28602D01*
G01X16564Y28602D01*
G01X16564Y30071D01*
G37*
G01X19431Y29337D03*
G01X19431Y27305D03*
G01X21844Y29337D03*
G01X21844Y27305D03*
G01X24257Y29337D03*
G01X24257Y27305D03*
G36*
G01X28121Y30071D02*
G01X29282Y30071D01*
G01X29282Y28602D01*
G01X28121Y28602D01*
G01X28121Y30071D01*
G37*
G36*
G01X26089Y30071D02*
G01X27250Y30071D01*
G01X27250Y28602D01*
G01X26089Y28602D01*
G01X26089Y30071D01*
G37*
G54D25*
G01X30988Y29337D03*
G01X33020Y29337D03*
G01X8001Y8890D03*
G01X10033Y8890D03*
G01X15748Y8890D03*
G01X17780Y8890D03*
G54D24*
G01X20447Y8890D03*
G01X20447Y6858D03*
G54D25*
G01X23241Y8890D03*
G01X25273Y8890D03*
G01X23241Y6350D03*
G01X25273Y6350D03*
G54D24*
G01X27940Y6858D03*
G01X27940Y8890D03*
G54D25*
G01X30734Y8890D03*
G01X32766Y8890D03*
G01X30734Y6350D03*
G01X32766Y6350D03*
G54D24*
G01X35433Y6858D03*
G01X35433Y8890D03*
G01X38354Y11557D03*
G01X38354Y13589D03*
G01X35814Y11557D03*
G01X35814Y13589D03*
G54D25*
G01X36322Y16256D03*
G01X38354Y16256D03*
G36*
G01X12603Y9514D02*
G01X13304Y9514D01*
G01X13304Y8265D01*
G01X12603Y8265D01*
G01X12603Y9514D01*
G37*
G36*
G01X11654Y12014D02*
G01X12354Y12014D01*
G01X12354Y10764D01*
G01X11654Y10764D01*
G01X11654Y12014D01*
G37*
G36*
G01X13553Y12014D02*
G01X14253Y12014D01*
G01X14253Y10764D01*
G01X13553Y10764D01*
G01X13553Y12014D01*
G37*
G54D24*
G01X43942Y18542D03*
G01X43942Y20574D03*
G01X46482Y18542D03*
G01X46482Y20574D03*
G36*
G01X50219Y21308D02*
G01X51380Y21308D01*
G01X51380Y19839D01*
G01X50219Y19839D01*
G01X50219Y21308D01*
G37*
G36*
G01X48187Y21308D02*
G01X49348Y21308D01*
G01X49348Y19839D01*
G01X48187Y19839D01*
G01X48187Y21308D01*
G37*
G54D25*
G01X53086Y20574D03*
G01X55118Y20574D03*
G36*
G01X59109Y18768D02*
G01X60270Y18768D01*
G01X60270Y17299D01*
G01X59109Y17299D01*
G01X59109Y18768D01*
G37*
G36*
G01X57077Y18768D02*
G01X58238Y18768D01*
G01X58238Y17299D01*
G01X57077Y17299D01*
G01X57077Y18768D01*
G37*
G36*
G01X59109Y16228D02*
G01X60270Y16228D01*
G01X60270Y14759D01*
G01X59109Y14759D01*
G01X59109Y16228D01*
G37*
G36*
G01X57077Y16228D02*
G01X58238Y16228D01*
G01X58238Y14759D01*
G01X57077Y14759D01*
G01X57077Y16228D01*
G37*
G54D24*
G01X57658Y11176D03*
G01X57658Y13208D03*
G01X57658Y8890D03*
G01X57658Y6858D03*
G01X60960Y6096D03*
G01X60960Y4064D03*
G01X63373Y6096D03*
G01X63373Y4064D03*
G01X66421Y8890D03*
G01X66421Y6858D03*
G01X66421Y13208D03*
G01X66421Y11176D03*
G54D25*
G01X66421Y15494D03*
G01X68453Y15494D03*
G01X66421Y18034D03*
G01X68453Y18034D03*
G01X69254Y20574D03*
G01X71286Y20574D03*
G36*
G01X34988Y21844D02*
G01X36639Y21844D01*
G01X36639Y19304D01*
G01X34988Y19304D01*
G01X34988Y21844D01*
G37*
G36*
G01X37528Y21844D02*
G01X39179Y21844D01*
G01X39179Y19304D01*
G01X37528Y19304D01*
G01X37528Y21844D01*
G37*
G36*
G01X40068Y21844D02*
G01X41719Y21844D01*
G01X41719Y19304D01*
G01X40068Y19304D01*
G01X40068Y21844D01*
G37*
G36*
G01X40068Y26924D02*
G01X41719Y26924D01*
G01X41719Y24384D01*
G01X40068Y24384D01*
G01X40068Y26924D01*
G37*
G36*
G01X37528Y26924D02*
G01X39179Y26924D01*
G01X39179Y24384D01*
G01X37528Y24384D01*
G01X37528Y26924D01*
G37*
G36*
G01X34988Y26924D02*
G01X36639Y26924D01*
G01X36639Y24384D01*
G01X34988Y24384D01*
G01X34988Y26924D01*
G37*
G54D28*
G01X12700Y37592D03*
G01X12700Y41783D03*
G01X7620Y41783D03*
G01X7620Y37592D03*
G54D21*
G01X15356Y35560D03*
G01X15356Y37592D03*
G01X15356Y39751D03*
G01X15356Y41783D03*
G54D23*
G01X22772Y34239D03*
G01X22772Y35179D03*
G01X19877Y35179D03*
G01X19877Y33299D03*
G01X22772Y33299D03*
G54D21*
G01X24957Y33299D03*
G01X24957Y35331D03*
G54D29*
G01X7710Y31236D03*
G01X10710Y31236D03*
G01X10710Y29337D03*
G01X7710Y29337D03*
G01X7710Y30286D03*
G36*
G01X10088Y34008D02*
G01X11248Y34008D01*
G01X11248Y32538D01*
G01X10088Y32538D01*
G01X10088Y34008D01*
G37*
G36*
G01X8056Y34008D02*
G01X9216Y34008D01*
G01X9216Y32538D01*
G01X8056Y32538D01*
G01X8056Y34008D01*
G37*
G54D21*
G01X17719Y35330D03*
G01X17719Y33298D03*
G36*
G01X32158Y37867D02*
G01X32158Y39028D01*
G01X33627Y39028D01*
G01X33627Y37867D01*
G01X32158Y37867D01*
G37*
G36*
G01X32158Y39899D02*
G01X32158Y41060D01*
G01X33627Y41060D01*
G01X33627Y39899D01*
G01X32158Y39899D01*
G37*
G54D24*
G01X5588Y34290D03*
G01X5588Y32258D03*
G54D30*
G01X47066Y39751D03*
G01X43866Y39750D03*
G36*
G01X45166Y41050D02*
G01X45766Y41050D01*
G01X45766Y38450D01*
G01X45166Y38450D01*
G01X45166Y41050D01*
G37*
G54D12*
G75*
G01X59817Y4064D02*
G02X57658Y6096I-64J2095D01*
G01*
G75*
G01X34036Y29337D02*
G02X35814Y27559I53J-1725D01*
G01*
G75*
G01X66421Y18669D02*
G02X68199Y20574I1813J90D01*
G01*
G75*
G01X66421Y6223D02*
G02X64389Y4064I-2095J-63D01*
G01*
G75*
G01X55753Y20574D02*
G02X57658Y18796I90J-1813D01*
G01*
G75*
G01X36449Y8890D02*
G03X38354Y10668I57J1849D01*
G01*
G36*
G01X50546Y4572D02*
G01X52070Y4572D01*
G01X52070Y508D01*
G01X50546Y508D01*
G01X50546Y4572D01*
G37*
G54D18*
G01X2540Y22098D03*
G54D33*
G01X72603Y42504D03*
G01X72603Y30464D03*
G54D34*
G01X69893Y37734D03*
G01X69893Y35232D03*
G54D35*
G01X67899Y37736D03*
G54D34*
G01X67891Y35234D03*
G54D36*
G01X50164Y30485D03*
G01X54863Y30485D03*
G01X59562Y30485D03*
G54D37*
G01X52366Y43200D03*
G01X57149Y43200D03*
G54D38*
G01X40640Y40767D03*
G01X38100Y40767D03*
G54D16*
G01X49022Y8382D03*
G01X54102Y8382D03*
G01X54102Y10922D03*
G01X49022Y10922D03*
G01X49022Y13462D03*
G01X54102Y13462D03*
G01X54102Y16002D03*
G01X49022Y16002D03*
G01X46482Y13462D03*
G01X46482Y10922D03*
G01X46482Y8382D03*
G01X46482Y5842D03*
G01X49022Y5842D03*
G01X43942Y3302D03*
G01X41402Y3302D03*
G01X38862Y5842D03*
G01X41402Y5842D03*
G01X43942Y5842D03*
G01X41402Y8382D03*
G01X43942Y8382D03*
G01X43942Y10922D03*
G01X41402Y10922D03*
G01X40259Y7112D03*
G01X43942Y13462D03*
G54D17*
G01X39751Y17780D03*
G01X39751Y16510D03*
G01X39751Y15240D03*
G01X39751Y13970D03*
G01X39751Y12700D03*
G01X39751Y11430D03*
G01X39751Y10160D03*
G01X36957Y17780D03*
G54D16*
G01X13462Y3302D03*
G01X10922Y3302D03*
G01X8382Y5842D03*
G01X5842Y3302D03*
G01X16002Y3302D03*
G01X18542Y3302D03*
G01X21082Y3302D03*
G01X23622Y3302D03*
G01X26162Y3302D03*
G54D17*
G01X65024Y11430D03*
G01X65024Y12700D03*
G01X65024Y13970D03*
G01X65024Y15240D03*
G01X65024Y16510D03*
G01X65024Y17780D03*
G01X65024Y10160D03*
G01X65024Y8890D03*
G01X65024Y7620D03*
G01X65024Y6350D03*
G01X67818Y8890D03*
G01X67818Y10160D03*
G01X67818Y11430D03*
G01X67818Y12700D03*
G01X67818Y13970D03*
G01X67818Y7620D03*
G01X67818Y6350D03*
G01X59055Y12700D03*
G01X59055Y13970D03*
G01X59055Y11430D03*
G01X56261Y12700D03*
G01X56261Y13970D03*
G01X56261Y11430D03*
G01X59055Y10160D03*
G01X59055Y8890D03*
G01X56261Y10160D03*
G01X56261Y8890D03*
G01X56261Y7620D03*
G01X59055Y7620D03*
G01X59055Y6350D03*
G01X56261Y6350D03*
G54D16*
G01X60960Y13208D03*
G01X63500Y10668D03*
G54D17*
G01X30734Y10287D03*
G01X32004Y10287D03*
G01X33274Y10287D03*
G01X34417Y10287D03*
G01X35560Y10287D03*
G01X42672Y21971D03*
G01X43688Y21971D03*
G01X44958Y21971D03*
G01X46228Y21971D03*
G01X47498Y21971D03*
G01X48768Y21971D03*
G01X50038Y21971D03*
G01X51308Y21971D03*
G01X52578Y21971D03*
G01X53848Y21971D03*
G54D16*
G01X28702Y3302D03*
G01X31242Y3302D03*
G01X33782Y3302D03*
G01X36322Y3302D03*
G01X38862Y3302D03*
G01X36322Y5334D03*
G01X41402Y13462D03*
G01X41402Y16002D03*
G01X43942Y16002D03*
G01X46482Y16002D03*
G54D17*
G01X34036Y7493D03*
G01X34036Y6223D03*
G01X34036Y4953D03*
G01X32766Y4953D03*
G01X30734Y4953D03*
G01X29464Y7493D03*
G01X29464Y6223D03*
G01X29464Y4953D03*
G01X36830Y7493D03*
G01X36576Y10287D03*
G01X42672Y19177D03*
G01X47752Y19177D03*
G01X36957Y14859D03*
G01X34417Y11430D03*
G01X34417Y13716D03*
G01X35687Y14859D03*
G01X34417Y14859D03*
G54D16*
G01X39624Y23368D03*
G01X40894Y23368D03*
G54D17*
G01X49022Y19177D03*
G01X50292Y19177D03*
G01X51562Y19177D03*
G01X52832Y19177D03*
G01X54102Y19177D03*
G01X55118Y21971D03*
G01X55372Y19177D03*
G01X56261Y16510D03*
G01X56261Y17780D03*
G01X56261Y15240D03*
G01X56261Y18796D03*
G01X61214Y2667D03*
G01X62484Y2667D03*
G01X63754Y2667D03*
G01X59944Y2667D03*
G01X58547Y2794D03*
G01X65024Y19177D03*
G01X68834Y21971D03*
G01X68834Y19177D03*
G01X65405Y20447D03*
G01X66294Y21336D03*
G01X67564Y21971D03*
G01X67183Y3937D03*
G01X66167Y3048D03*
G01X65024Y2667D03*
G01X67691Y5080D03*
G01X56388Y4953D03*
G01X57277Y3556D03*
G54D16*
G01X63500Y13208D03*
G01X60960Y10668D03*
G01X63500Y18288D03*
G01X63500Y20828D03*
G01X60833Y20828D03*
G01X61214Y18034D03*
G01X61214Y15494D03*
G54D17*
G01X56388Y21971D03*
G01X59055Y19431D03*
G01X57658Y21463D03*
G01X58547Y20574D03*
G54D16*
G01X60960Y7620D03*
G01X63500Y7620D03*
G54D17*
G01X38227Y7874D03*
G01X39243Y8890D03*
G01X34290Y27813D03*
G01X37338Y27686D03*
G54D16*
G01X41402Y18288D03*
G01X49022Y18288D03*
G01X51562Y18288D03*
G01X54102Y18288D03*
G01X55880Y2921D03*
G01X68580Y5842D03*
G01X68707Y8382D03*
G01X68834Y10922D03*
G01X71120Y13462D03*
G01X71120Y10922D03*
G01X71120Y8382D03*
G01X71120Y5842D03*
G01X73660Y5842D03*
G01X76200Y5842D03*
G01X73660Y8382D03*
G01X73660Y10922D03*
G01X73660Y13462D03*
G01X76200Y13462D03*
G01X76200Y15621D03*
G01X73660Y15621D03*
G01X71120Y16002D03*
G01X35179Y5334D03*
G01X61214Y16764D03*
G01X69977Y16764D03*
G01X69977Y15494D03*
G01X62230Y7620D03*
G01X35814Y17780D03*
G01X34798Y16764D03*
G54D17*
G01X60071Y13970D03*
G54D16*
G01X39624Y26924D03*
G01X34544Y19050D03*
G01X3302Y3302D03*
G54D17*
G01X69977Y21971D03*
G01X70104Y19177D03*
G54D16*
G01X42164Y26924D03*
G01X762Y13208D03*
G01X762Y15748D03*
G01X762Y3302D03*
G01X762Y762D03*
G01X3302Y762D03*
G01X5842Y762D03*
G01X8382Y762D03*
G01X10922Y762D03*
G01X13462Y762D03*
G01X16002Y762D03*
G01X18542Y762D03*
G01X21082Y762D03*
G01X23622Y762D03*
G01X26162Y762D03*
G01X28702Y762D03*
G01X31242Y762D03*
G01X33782Y762D03*
G01X36322Y762D03*
G01X38862Y762D03*
G01X41402Y762D03*
G01X43942Y762D03*
G01X46482Y762D03*
G01X49022Y762D03*
G01X55880Y762D03*
G01X58420Y762D03*
G01X60960Y762D03*
G01X66040Y762D03*
G01X68580Y762D03*
G01X63500Y762D03*
G01X73660Y762D03*
G01X76200Y762D03*
G01X78740Y3302D03*
G01X71120Y762D03*
G01X76200Y25908D03*
G01X78740Y13462D03*
G01X78740Y16002D03*
G01X78740Y5842D03*
G01X71120Y18288D03*
G54D17*
G01X72517Y16637D03*
G01X73787Y16637D03*
G01X76327Y16637D03*
G01X72517Y18034D03*
G01X72517Y19177D03*
G01X72517Y21971D03*
G01X72517Y23114D03*
G01X72517Y24511D03*
G01X73787Y24511D03*
G01X76327Y24511D03*
G01X71247Y21971D03*
G01X71247Y19177D03*
G54D16*
G01X46482Y3302D03*
G01X49022Y3175D03*
G01X51562Y16002D03*
G01X51562Y13462D03*
G01X51562Y10922D03*
G01X51562Y8382D03*
G01X51562Y5842D03*
G01X54102Y5842D03*
G01X53340Y2921D03*
G01X53340Y762D03*
G01X69977Y18034D03*
G01X78740Y25908D03*
G01X71120Y25908D03*
G01X73660Y25908D03*
G01X66040Y25908D03*
G01X68580Y25908D03*
G01X60960Y25908D03*
G01X63500Y25908D03*
G01X55880Y25908D03*
G01X58420Y25908D03*
G01X43180Y25908D03*
G01X58420Y23368D03*
G01X60833Y23368D03*
G01X63500Y23368D03*
G01X66040Y23368D03*
G01X68580Y23368D03*
G01X71120Y23368D03*
G01X63500Y15748D03*
G01X55880Y23368D03*
G01X53340Y23368D03*
G01X53340Y25908D03*
G01X50800Y23368D03*
G01X48260Y23368D03*
G01X45720Y23368D03*
G01X43180Y23368D03*
G01X59690Y1905D03*
G01X62230Y1905D03*
G01X64770Y1905D03*
G01X67310Y1905D03*
G54D17*
G01X75057Y24511D03*
G01X75057Y16637D03*
G54D16*
G01X34798Y15748D03*
G01X38354Y23368D03*
G01X37084Y23368D03*
G01X35814Y23368D03*
G01X76200Y3302D03*
G01X73660Y3302D03*
G01X71120Y3302D03*
G01X68580Y3302D03*
G01X78740Y762D03*
G01X45212Y17145D03*
G01X43942Y17145D03*
G01X46482Y17145D03*
G01X57150Y1905D03*
G54D17*
G01X26543Y7493D03*
G01X26543Y6223D03*
G01X29464Y10287D03*
G01X28194Y10287D03*
G01X26924Y10287D03*
G01X25654Y10287D03*
G01X24384Y10287D03*
G01X23114Y10287D03*
G01X21844Y10287D03*
G01X20574Y10287D03*
G01X19304Y10287D03*
G01X18034Y10287D03*
G01X16764Y10287D03*
G01X15494Y10287D03*
G01X14224Y10287D03*
G01X12954Y10287D03*
G01X11684Y10287D03*
G01X10414Y10287D03*
G01X9144Y10287D03*
G01X8001Y10287D03*
G01X9144Y7493D03*
G01X10414Y7493D03*
G01X11684Y7493D03*
G01X12954Y7493D03*
G01X14224Y7493D03*
G01X15494Y7493D03*
G01X16764Y7493D03*
G01X18034Y7493D03*
G01X19177Y7493D03*
G01X21971Y7493D03*
G01X21971Y6223D03*
G54D16*
G01X8382Y3302D03*
G01X10922Y5842D03*
G01X13462Y5842D03*
G01X16002Y5842D03*
G01X18542Y5842D03*
G01X21082Y5334D03*
G54D17*
G01X21971Y4953D03*
G01X23241Y4953D03*
G01X25273Y4953D03*
G01X26543Y4953D03*
G54D16*
G01X27432Y5461D03*
G01X28575Y5461D03*
G01X19939Y5334D03*
G54D17*
G01X6985Y10287D03*
G01X6985Y11430D03*
G01X6985Y12827D03*
G01X5715Y12827D03*
G01X4445Y12827D03*
G01X3175Y12827D03*
G01X3175Y4953D03*
G01X4445Y4953D03*
G01X5715Y4953D03*
G01X6985Y4953D03*
G01X6985Y6350D03*
G01X6985Y7493D03*
G01X8001Y7493D03*
G54D16*
G01X762Y18288D03*
G01X762Y20574D03*
G01X10922Y18288D03*
G01X3302Y18288D03*
G01X3302Y15748D03*
G01X5842Y15748D03*
G01X5842Y18288D03*
G01X13462Y18288D03*
G01X8382Y18288D03*
G01X8382Y15748D03*
G01X10922Y20828D03*
G01X5842Y20828D03*
G01X16002Y20828D03*
G01X8382Y20828D03*
G01X13462Y20828D03*
G01X16002Y18288D03*
G01X3302Y13843D03*
G01X5842Y13843D03*
G01X10922Y13208D03*
G01X8382Y13208D03*
G01X13462Y13208D03*
G01X23622Y13208D03*
G01X16002Y13208D03*
G01X18542Y13208D03*
G01X21082Y13208D03*
G01X23622Y20828D03*
G01X23622Y23368D03*
G01X18542Y20828D03*
G01X18542Y23368D03*
G01X26162Y23368D03*
G01X21082Y20828D03*
G01X26162Y20828D03*
G01X8382Y11176D03*
G01X10922Y11176D03*
G01X23622Y11176D03*
G01X16002Y11176D03*
G01X18542Y11176D03*
G01X21082Y11176D03*
G01X26162Y11176D03*
G01X31242Y18288D03*
G01X31242Y15748D03*
G01X28702Y20828D03*
G01X28702Y23368D03*
G01X31242Y23368D03*
G01X31242Y20828D03*
G01X31242Y13208D03*
G01X28702Y11176D03*
G01X31242Y11176D03*
G01X33782Y23368D03*
G01X33782Y18288D03*
G01X33782Y15748D03*
G01X33782Y20828D03*
G01X33528Y13208D03*
G01X33528Y11176D03*
G01X21082Y23368D03*
G01X33782Y25908D03*
G01X3302Y20574D03*
G01X5842Y23368D03*
G01X8382Y23368D03*
G01X3302Y23622D03*
G01X13462Y23368D03*
G01X16002Y23368D03*
G01X10795Y23368D03*
G01X76200Y10922D03*
G01X76200Y8382D03*
G01X78740Y8382D03*
G01X78740Y10922D03*
G01X18542Y18288D03*
G01X21082Y18288D03*
G01X23622Y18288D03*
G01X26162Y18288D03*
G01X28702Y18288D03*
G01X26162Y13208D03*
G01X28702Y13208D03*
G01X23622Y15748D03*
G01X26162Y15748D03*
G01X28702Y15748D03*
G01X19939Y14478D03*
G01X22479Y14478D03*
G01X762Y41148D03*
G01X762Y46228D03*
G01X47625Y30988D03*
G01X45720Y28448D03*
G01X45720Y30988D03*
G01X45720Y33528D03*
G01X45720Y36068D03*
G01X76200Y43688D03*
G01X76200Y41148D03*
G01X76200Y33528D03*
G01X76200Y30988D03*
G01X76200Y28448D03*
G01X71120Y27559D03*
G01X73660Y27559D03*
G01X68580Y30988D03*
G01X73660Y33528D03*
G01X71501Y33528D03*
G01X73660Y36068D03*
G01X76200Y36068D03*
G01X73660Y38608D03*
G01X76200Y38608D03*
G01X61595Y42545D03*
G01X61976Y44323D03*
G01X64516Y44323D03*
G01X67056Y43688D03*
G01X69596Y43688D03*
G01X69596Y41148D03*
G01X67056Y41148D03*
G01X71501Y36068D03*
G01X71501Y38608D03*
G01X66040Y29210D03*
G01X68326Y39751D03*
G01X70231Y32131D03*
G01X46482Y43688D03*
G01X66040Y30988D03*
G01X63500Y27559D03*
G01X63500Y30988D03*
G01X63246Y33528D03*
G01X46482Y41529D03*
G01X66040Y27559D03*
G01X60960Y27559D03*
G01X58420Y27559D03*
G01X55880Y27559D03*
G01X53340Y27559D03*
G01X50800Y27559D03*
G01X48260Y27559D03*
G01X63500Y29210D03*
G01X49022Y43688D03*
G01X49022Y41148D03*
G01X48260Y33528D03*
G01X48260Y36068D03*
G01X48260Y38354D03*
G01X51562Y41148D03*
G01X54102Y41148D03*
G01X56642Y41148D03*
G01X54864Y43688D03*
G01X59182Y41148D03*
G01X59182Y43688D03*
G01X51562Y38608D03*
G01X54102Y38608D03*
G01X56642Y38608D03*
G01X51562Y36068D03*
G01X51562Y33528D03*
G01X54102Y36068D03*
G01X53721Y33528D03*
G01X59182Y38862D03*
G01X58801Y33528D03*
G01X58801Y36068D03*
G01X61341Y36068D03*
G01X61341Y33528D03*
G01X52451Y31623D03*
G01X57277Y31623D03*
G01X52451Y29210D03*
G01X57277Y29210D03*
G01X56261Y33528D03*
G01X65786Y39751D03*
G01X63246Y39751D03*
G01X61722Y38862D03*
G01X61722Y41148D03*
G01X62230Y29210D03*
G01X76200Y28448D03*
G01X3302Y46228D03*
G54D17*
G01X34544Y30734D03*
G01X33274Y30734D03*
G01X32004Y30734D03*
G01X30734Y30734D03*
G01X29464Y30734D03*
G01X28194Y30734D03*
G01X26924Y30734D03*
G01X25654Y30734D03*
G01X24384Y30734D03*
G01X23114Y30734D03*
G01X21844Y30734D03*
G01X20574Y30734D03*
G01X19304Y30734D03*
G01X18034Y30734D03*
G01X16764Y30734D03*
G01X15494Y30734D03*
G01X14224Y30734D03*
G01X13081Y30734D03*
G01X30734Y27940D03*
G01X32004Y27940D03*
G01X33274Y27940D03*
G01X29464Y27940D03*
G01X28194Y27940D03*
G01X26924Y27940D03*
G01X25654Y27940D03*
G01X18034Y27940D03*
G01X16764Y27940D03*
G01X15494Y27940D03*
G01X14224Y27940D03*
G54D16*
G01X21082Y25908D03*
G01X23622Y25908D03*
G01X26162Y25908D03*
G01X28702Y25908D03*
G01X31242Y25908D03*
G01X18542Y25908D03*
G01X16002Y25908D03*
G01X13462Y25908D03*
G01X19812Y25908D03*
G01X22352Y25908D03*
G01X24892Y25908D03*
G01X12192Y25908D03*
G01X762Y43688D03*
G01X762Y38608D03*
G01X762Y36068D03*
G01X762Y33528D03*
G01X762Y30988D03*
G01X762Y28448D03*
G01X762Y25908D03*
G01X762Y23622D03*
G01X3302Y25908D03*
G01X5842Y25908D03*
G01X8382Y25908D03*
G01X10795Y25908D03*
G01X3302Y43688D03*
G54D17*
G01X11430Y27940D03*
G01X35687Y30353D03*
G01X36576Y29591D03*
G01X37084Y28702D03*
G54D16*
G01X5842Y46228D03*
G01X8382Y46228D03*
G01X10922Y46228D03*
G01X13462Y46228D03*
G01X16002Y46228D03*
G01X18542Y46228D03*
G01X21082Y46228D03*
G01X23622Y46228D03*
G01X26162Y46228D03*
G01X28702Y46228D03*
G01X31242Y46228D03*
G01X33782Y46228D03*
G01X36322Y46228D03*
G01X38862Y46228D03*
G01X41402Y46228D03*
G01X43942Y46228D03*
G01X5842Y43688D03*
G01X8382Y43688D03*
G01X10922Y43688D03*
G01X13462Y43688D03*
G01X50800Y25908D03*
G01X48260Y25908D03*
G01X45720Y25908D03*
G01X16002Y43688D03*
G01X43942Y43688D03*
G01X43942Y41529D03*
G01X43180Y28448D03*
G01X43180Y30988D03*
G01X43180Y33528D03*
G01X43180Y36068D03*
G01X40640Y28448D03*
G01X38100Y28448D03*
G01X41402Y43688D03*
G01X18542Y43688D03*
G01X21082Y43688D03*
G01X43180Y38354D03*
G01X23622Y43688D03*
G01X26162Y43688D03*
G01X28702Y43688D03*
G01X31242Y43688D03*
G01X33782Y43688D03*
G01X36830Y43688D03*
G01X38862Y43688D03*
G54D17*
G01X23688Y38608D03*
G54D16*
G01X40386Y39116D03*
G54D17*
G01X24257Y4953D03*
G01X31750Y4953D03*
G01X34417Y12573D03*
G01X60071Y19431D03*
G01X42672Y18161D03*
G01X47752Y18161D03*
G01X36830Y6223D03*
G01X14224Y26924D03*
G01X11430Y26924D03*
G01X18034Y26924D03*
G01X25654Y26924D03*
G54D16*
G01X68834Y13462D03*
G01X7112Y43688D03*
G01X5842Y42418D03*
G01X5842Y41148D03*
G01X4572Y29718D03*
G01X3302Y30988D03*
G01X3302Y33528D03*
G01X4572Y37338D03*
G01X3302Y38608D03*
G01X5715Y38608D03*
G01X3302Y41148D03*
G01X40767Y30988D03*
G01X40640Y33528D03*
G01X38227Y33528D03*
G01X38100Y30988D03*
G01X33147Y31877D03*
G01X35687Y31369D03*
G54D17*
G01X10287Y27940D03*
G01X23688Y34290D03*
G54D16*
G01X5842Y28448D03*
G01X8382Y28448D03*
G01X21082Y41148D03*
G01X23622Y41148D03*
G01X26162Y41148D03*
G01X28702Y41148D03*
G01X31242Y41021D03*
G01X40640Y36068D03*
G01X38227Y36068D03*
G01X35687Y33528D03*
G01X33147Y33528D03*
G01X7239Y33274D03*
G01X7239Y35306D03*
G01X9779Y35306D03*
G54D17*
G01X11938Y30734D03*
G01X9398Y28702D03*
G01X9398Y29972D03*
G54D16*
G01X38354Y38608D03*
G54D17*
G01X6604Y29337D03*
G54D16*
G01X12319Y32131D03*
G01X18415Y41148D03*
G01X17145Y41148D03*
G01X24892Y41148D03*
G01X27432Y41148D03*
G01X14859Y32131D03*
G01X17399Y31877D03*
G01X19939Y32131D03*
G01X22479Y32131D03*
G01X21336Y36322D03*
G01X19812Y36322D03*
G01X22860Y36322D03*
G01X25019Y31877D03*
G01X35687Y36068D03*
G01X33147Y36068D03*
G01X30607Y36068D03*
G01X30607Y33528D03*
G01X30607Y31877D03*
G01X28194Y31877D03*
G01X12319Y35306D03*
G01X35687Y38608D03*
G01X31242Y38608D03*
G01X28448Y36068D03*
G01X28194Y33528D03*
G01X15367Y34290D03*
G54D17*
G01X26416Y35306D03*
G01X17719Y36370D03*
G01X24957Y36370D03*
G54D16*
G01X28829Y38608D03*
G01X3302Y36068D03*
G01X3302Y28448D03*
G54D17*
G01X6985Y32131D03*
G01X16510Y38608D03*
G01X45466Y41529D03*
G01X45466Y37973D03*
M00*
M02*
