G04 Layer: BottomLayer*
G04 EasyEDA v6.4.7, 2020-09-29T11:03:38+03:00*
G04 9486de1159244eee9c784153b90ba1e7,e225996ff9fb4a0db64c6d6541834e49,10*
G04 Gerber Generator version 0.2*
G04 Scale: 100 percent, Rotated: No, Reflected: No *
G04 Dimensions in millimeters *
G04 leading zeros omitted , absolute positions ,3 integer and 3 decimal *
%FSLAX33Y33*%
%MOMM*%
G90*
D02*

%ADD16C,0.839978*%
%ADD17C,0.639978*%
%ADD18R,4.064000X1.524000*%
%ADD33C,3.499866*%
%ADD34C,1.699997*%
%ADD35R,1.699997X1.699997*%
%ADD36C,2.999994*%
%ADD37C,2.499995*%
%ADD38C,1.799996*%

%LPD*%
G36*
G01X44983Y46733D02*
G01X358Y46733D01*
G01X343Y46732D01*
G01X329Y46729D01*
G01X315Y46724D01*
G01X303Y46717D01*
G01X291Y46708D01*
G01X281Y46698D01*
G01X272Y46686D01*
G01X265Y46674D01*
G01X260Y46660D01*
G01X257Y46646D01*
G01X256Y46631D01*
G01X256Y23215D01*
G01X257Y23201D01*
G01X260Y23186D01*
G01X265Y23173D01*
G01X272Y23160D01*
G01X281Y23149D01*
G01X291Y23138D01*
G01X303Y23130D01*
G01X315Y23123D01*
G01X329Y23118D01*
G01X343Y23115D01*
G01X358Y23114D01*
G01X477Y23114D01*
G01X508Y23116D01*
G01X1460Y23116D01*
G01X1460Y22542D01*
G01X609Y22542D01*
G01X595Y22541D01*
G01X580Y22538D01*
G01X567Y22533D01*
G01X554Y22526D01*
G01X543Y22517D01*
G01X532Y22507D01*
G01X524Y22495D01*
G01X517Y22483D01*
G01X512Y22469D01*
G01X509Y22455D01*
G01X508Y22440D01*
G01X508Y21755D01*
G01X509Y21740D01*
G01X512Y21726D01*
G01X517Y21712D01*
G01X524Y21700D01*
G01X532Y21688D01*
G01X543Y21678D01*
G01X554Y21669D01*
G01X567Y21662D01*
G01X580Y21657D01*
G01X595Y21654D01*
G01X609Y21653D01*
G01X1460Y21653D01*
G01X1460Y21079D01*
G01X508Y21079D01*
G01X477Y21081D01*
G01X465Y21082D01*
G01X358Y21082D01*
G01X343Y21080D01*
G01X329Y21077D01*
G01X315Y21072D01*
G01X303Y21065D01*
G01X291Y21057D01*
G01X281Y21046D01*
G01X272Y21035D01*
G01X265Y21022D01*
G01X260Y21009D01*
G01X257Y20994D01*
G01X256Y20980D01*
G01X256Y12803D01*
G01X257Y12788D01*
G01X260Y12774D01*
G01X265Y12760D01*
G01X272Y12748D01*
G01X281Y12736D01*
G01X291Y12726D01*
G01X303Y12717D01*
G01X315Y12710D01*
G01X329Y12705D01*
G01X343Y12702D01*
G01X358Y12701D01*
G01X1905Y12701D01*
G01X1928Y12700D01*
G01X1952Y12697D01*
G01X1975Y12691D01*
G01X1997Y12684D01*
G01X2018Y12675D01*
G01X2039Y12663D01*
G01X2058Y12650D01*
G01X2076Y12635D01*
G01X2093Y12619D01*
G01X2108Y12601D01*
G01X2122Y12582D01*
G01X2133Y12561D01*
G01X2143Y12540D01*
G01X2151Y12518D01*
G01X2156Y12504D01*
G01X2163Y12492D01*
G01X2172Y12480D01*
G01X2182Y12470D01*
G01X2193Y12462D01*
G01X2206Y12455D01*
G01X2220Y12450D01*
G01X2234Y12447D01*
G01X2248Y12446D01*
G01X2296Y12446D01*
G01X2312Y12447D01*
G01X2327Y12451D01*
G01X2355Y12458D01*
G01X2383Y12463D01*
G01X2412Y12464D01*
G01X3364Y12464D01*
G01X3364Y11874D01*
G01X2514Y11874D01*
G01X2500Y11873D01*
G01X2485Y11870D01*
G01X2472Y11865D01*
G01X2459Y11858D01*
G01X2448Y11849D01*
G01X2437Y11839D01*
G01X2429Y11827D01*
G01X2422Y11815D01*
G01X2417Y11801D01*
G01X2414Y11787D01*
G01X2413Y11772D01*
G01X2413Y11087D01*
G01X2414Y11072D01*
G01X2417Y11058D01*
G01X2422Y11044D01*
G01X2429Y11032D01*
G01X2437Y11020D01*
G01X2448Y11010D01*
G01X2459Y11001D01*
G01X2472Y10994D01*
G01X2485Y10989D01*
G01X2500Y10986D01*
G01X2514Y10985D01*
G01X3364Y10985D01*
G01X3364Y10395D01*
G01X2514Y10395D01*
G01X2500Y10394D01*
G01X2485Y10391D01*
G01X2472Y10386D01*
G01X2459Y10379D01*
G01X2448Y10370D01*
G01X2437Y10360D01*
G01X2429Y10348D01*
G01X2422Y10336D01*
G01X2417Y10322D01*
G01X2414Y10308D01*
G01X2413Y10293D01*
G01X2413Y7486D01*
G01X2414Y7471D01*
G01X2417Y7457D01*
G01X2422Y7443D01*
G01X2429Y7431D01*
G01X2437Y7419D01*
G01X2448Y7409D01*
G01X2459Y7400D01*
G01X2472Y7393D01*
G01X2485Y7388D01*
G01X2500Y7385D01*
G01X2514Y7384D01*
G01X3364Y7384D01*
G01X3364Y6794D01*
G01X2514Y6794D01*
G01X2500Y6793D01*
G01X2485Y6790D01*
G01X2472Y6785D01*
G01X2459Y6778D01*
G01X2448Y6769D01*
G01X2437Y6759D01*
G01X2429Y6747D01*
G01X2422Y6735D01*
G01X2417Y6721D01*
G01X2414Y6707D01*
G01X2413Y6692D01*
G01X2413Y6007D01*
G01X2414Y5992D01*
G01X2417Y5978D01*
G01X2422Y5964D01*
G01X2429Y5952D01*
G01X2437Y5940D01*
G01X2448Y5930D01*
G01X2459Y5921D01*
G01X2472Y5914D01*
G01X2485Y5909D01*
G01X2500Y5906D01*
G01X2514Y5905D01*
G01X3364Y5905D01*
G01X3364Y5315D01*
G01X2412Y5315D01*
G01X2383Y5317D01*
G01X2355Y5321D01*
G01X2327Y5328D01*
G01X2312Y5332D01*
G01X2296Y5334D01*
G01X2249Y5334D01*
G01X2234Y5332D01*
G01X2220Y5329D01*
G01X2207Y5324D01*
G01X2194Y5317D01*
G01X2182Y5309D01*
G01X2172Y5298D01*
G01X2163Y5287D01*
G01X2156Y5274D01*
G01X2151Y5260D01*
G01X2144Y5238D01*
G01X2134Y5217D01*
G01X2122Y5196D01*
G01X2109Y5177D01*
G01X2094Y5159D01*
G01X2077Y5142D01*
G01X2059Y5127D01*
G01X2039Y5114D01*
G01X2019Y5103D01*
G01X1997Y5093D01*
G01X1975Y5086D01*
G01X1952Y5080D01*
G01X1929Y5077D01*
G01X1905Y5076D01*
G01X358Y5076D01*
G01X344Y5075D01*
G01X329Y5072D01*
G01X316Y5067D01*
G01X303Y5060D01*
G01X292Y5051D01*
G01X281Y5041D01*
G01X273Y5029D01*
G01X266Y5017D01*
G01X261Y5003D01*
G01X258Y4989D01*
G01X257Y4974D01*
G01X256Y4343D01*
G01X256Y358D01*
G01X257Y343D01*
G01X260Y329D01*
G01X265Y315D01*
G01X272Y303D01*
G01X281Y291D01*
G01X291Y281D01*
G01X303Y272D01*
G01X315Y265D01*
G01X329Y260D01*
G01X343Y257D01*
G01X358Y256D01*
G01X50190Y256D01*
G01X50204Y257D01*
G01X50219Y260D01*
G01X50232Y265D01*
G01X50245Y272D01*
G01X50256Y281D01*
G01X50267Y291D01*
G01X50275Y303D01*
G01X50282Y315D01*
G01X50287Y329D01*
G01X50290Y343D01*
G01X50292Y358D01*
G01X50292Y465D01*
G01X50291Y477D01*
G01X50289Y508D01*
G01X50289Y1460D01*
G01X50863Y1460D01*
G01X50863Y609D01*
G01X50864Y595D01*
G01X50867Y580D01*
G01X50872Y567D01*
G01X50879Y554D01*
G01X50888Y543D01*
G01X50898Y532D01*
G01X50910Y524D01*
G01X50922Y517D01*
G01X50936Y512D01*
G01X50950Y509D01*
G01X50965Y508D01*
G01X51650Y508D01*
G01X51665Y509D01*
G01X51679Y512D01*
G01X51693Y517D01*
G01X51705Y524D01*
G01X51717Y532D01*
G01X51727Y543D01*
G01X51736Y554D01*
G01X51743Y567D01*
G01X51748Y580D01*
G01X51751Y595D01*
G01X51752Y609D01*
G01X51752Y1460D01*
G01X52326Y1460D01*
G01X52326Y508D01*
G01X52324Y477D01*
G01X52324Y358D01*
G01X52325Y343D01*
G01X52328Y329D01*
G01X52333Y315D01*
G01X52340Y303D01*
G01X52348Y291D01*
G01X52359Y281D01*
G01X52370Y272D01*
G01X52383Y265D01*
G01X52396Y260D01*
G01X52411Y257D01*
G01X52425Y256D01*
G01X79143Y256D01*
G01X79158Y257D01*
G01X79172Y260D01*
G01X79186Y265D01*
G01X79198Y272D01*
G01X79210Y281D01*
G01X79220Y291D01*
G01X79229Y303D01*
G01X79236Y315D01*
G01X79241Y329D01*
G01X79244Y343D01*
G01X79245Y358D01*
G01X79245Y15519D01*
G01X79244Y15533D01*
G01X79241Y15548D01*
G01X79237Y15557D01*
G01X79241Y15566D01*
G01X79244Y15581D01*
G01X79245Y15595D01*
G01X79245Y15622D01*
G01X79246Y15639D01*
G01X79246Y16660D01*
G01X79245Y16675D01*
G01X79242Y16689D01*
G01X79237Y16703D01*
G01X79230Y16715D01*
G01X79221Y16727D01*
G01X79211Y16737D01*
G01X79199Y16746D01*
G01X79186Y16753D01*
G01X79173Y16758D01*
G01X79159Y16761D01*
G01X79144Y16762D01*
G01X77597Y16762D01*
G01X77574Y16763D01*
G01X77551Y16766D01*
G01X77528Y16772D01*
G01X77506Y16779D01*
G01X77484Y16788D01*
G01X77464Y16800D01*
G01X77444Y16813D01*
G01X77426Y16828D01*
G01X77409Y16844D01*
G01X77394Y16862D01*
G01X77381Y16881D01*
G01X77369Y16902D01*
G01X77359Y16923D01*
G01X77352Y16945D01*
G01X77346Y16959D01*
G01X77340Y16971D01*
G01X77331Y16983D01*
G01X77321Y16993D01*
G01X77309Y17001D01*
G01X77296Y17008D01*
G01X77283Y17013D01*
G01X77269Y17016D01*
G01X77254Y17018D01*
G01X77206Y17018D01*
G01X77190Y17016D01*
G01X77175Y17012D01*
G01X77147Y17005D01*
G01X77119Y17000D01*
G01X77090Y16999D01*
G01X76137Y16999D01*
G01X76137Y17589D01*
G01X76987Y17589D01*
G01X77001Y17590D01*
G01X77016Y17593D01*
G01X77029Y17598D01*
G01X77042Y17605D01*
G01X77053Y17614D01*
G01X77064Y17624D01*
G01X77072Y17636D01*
G01X77079Y17648D01*
G01X77084Y17662D01*
G01X77087Y17676D01*
G01X77089Y17691D01*
G01X77089Y18376D01*
G01X77087Y18391D01*
G01X77084Y18405D01*
G01X77079Y18419D01*
G01X77072Y18431D01*
G01X77064Y18443D01*
G01X77053Y18453D01*
G01X77042Y18462D01*
G01X77029Y18469D01*
G01X77016Y18474D01*
G01X77001Y18477D01*
G01X76987Y18478D01*
G01X76137Y18478D01*
G01X76137Y19068D01*
G01X76987Y19068D01*
G01X77001Y19069D01*
G01X77016Y19072D01*
G01X77029Y19077D01*
G01X77042Y19084D01*
G01X77053Y19093D01*
G01X77064Y19103D01*
G01X77072Y19115D01*
G01X77079Y19127D01*
G01X77084Y19141D01*
G01X77087Y19155D01*
G01X77089Y19170D01*
G01X77089Y21977D01*
G01X77087Y21992D01*
G01X77084Y22006D01*
G01X77079Y22020D01*
G01X77072Y22032D01*
G01X77064Y22044D01*
G01X77053Y22054D01*
G01X77042Y22063D01*
G01X77029Y22070D01*
G01X77016Y22075D01*
G01X77001Y22078D01*
G01X76987Y22079D01*
G01X76137Y22079D01*
G01X76137Y22669D01*
G01X76987Y22669D01*
G01X77001Y22670D01*
G01X77016Y22673D01*
G01X77029Y22678D01*
G01X77042Y22685D01*
G01X77053Y22694D01*
G01X77064Y22704D01*
G01X77072Y22716D01*
G01X77079Y22728D01*
G01X77084Y22742D01*
G01X77087Y22756D01*
G01X77089Y22771D01*
G01X77089Y23456D01*
G01X77087Y23471D01*
G01X77084Y23485D01*
G01X77079Y23499D01*
G01X77072Y23511D01*
G01X77064Y23523D01*
G01X77053Y23533D01*
G01X77042Y23542D01*
G01X77029Y23549D01*
G01X77016Y23554D01*
G01X77001Y23557D01*
G01X76987Y23558D01*
G01X76137Y23558D01*
G01X76137Y24148D01*
G01X77090Y24148D01*
G01X77118Y24147D01*
G01X77147Y24142D01*
G01X77175Y24135D01*
G01X77190Y24131D01*
G01X77206Y24130D01*
G01X77254Y24130D01*
G01X77268Y24131D01*
G01X77282Y24134D01*
G01X77296Y24139D01*
G01X77309Y24146D01*
G01X77320Y24154D01*
G01X77330Y24165D01*
G01X77339Y24176D01*
G01X77346Y24189D01*
G01X77351Y24203D01*
G01X77359Y24225D01*
G01X77368Y24246D01*
G01X77380Y24267D01*
G01X77393Y24286D01*
G01X77409Y24304D01*
G01X77425Y24321D01*
G01X77444Y24336D01*
G01X77463Y24349D01*
G01X77484Y24361D01*
G01X77505Y24370D01*
G01X77528Y24377D01*
G01X77551Y24383D01*
G01X77574Y24386D01*
G01X77597Y24387D01*
G01X79144Y24387D01*
G01X79159Y24388D01*
G01X79173Y24391D01*
G01X79186Y24396D01*
G01X79199Y24403D01*
G01X79211Y24412D01*
G01X79221Y24422D01*
G01X79230Y24434D01*
G01X79237Y24446D01*
G01X79242Y24460D01*
G01X79245Y24474D01*
G01X79246Y24489D01*
G01X79246Y26311D01*
G01X79245Y26326D01*
G01X79242Y26340D01*
G01X79237Y26354D01*
G01X79230Y26366D01*
G01X79221Y26378D01*
G01X79211Y26388D01*
G01X79199Y26397D01*
G01X79186Y26404D01*
G01X79173Y26409D01*
G01X79159Y26412D01*
G01X79144Y26413D01*
G01X45974Y26413D01*
G01X45950Y26414D01*
G01X45927Y26417D01*
G01X45905Y26422D01*
G01X45883Y26430D01*
G01X45861Y26439D01*
G01X45841Y26450D01*
G01X45822Y26463D01*
G01X43917Y27860D01*
G01X43898Y27875D01*
G01X43881Y27892D01*
G01X43865Y27910D01*
G01X43852Y27930D01*
G01X43840Y27951D01*
G01X43830Y27972D01*
G01X43822Y27995D01*
G01X43816Y28019D01*
G01X43813Y28042D01*
G01X43812Y28067D01*
G01X43812Y38989D01*
G01X43813Y39012D01*
G01X43816Y39036D01*
G01X43822Y39059D01*
G01X43829Y39081D01*
G01X43839Y39103D01*
G01X43850Y39124D01*
G01X43864Y39143D01*
G01X43879Y39161D01*
G01X43896Y39178D01*
G01X43914Y39193D01*
G01X43933Y39207D01*
G01X43954Y39218D01*
G01X43976Y39228D01*
G01X43998Y39235D01*
G01X44021Y39241D01*
G01X44045Y39244D01*
G01X44069Y39245D01*
G01X44196Y39245D01*
G01X44219Y39244D01*
G01X44243Y39241D01*
G01X44266Y39235D01*
G01X44288Y39228D01*
G01X44310Y39218D01*
G01X44331Y39207D01*
G01X44350Y39193D01*
G01X44368Y39178D01*
G01X44385Y39161D01*
G01X44400Y39143D01*
G01X44414Y39124D01*
G01X44425Y39103D01*
G01X44435Y39081D01*
G01X44442Y39059D01*
G01X44448Y39036D01*
G01X44451Y39012D01*
G01X44452Y38989D01*
G01X44452Y28251D01*
G01X44453Y28235D01*
G01X44457Y28219D01*
G01X44463Y28204D01*
G01X44472Y28191D01*
G01X44482Y28178D01*
G01X44495Y28168D01*
G01X46029Y27072D01*
G01X46043Y27064D01*
G01X46057Y27058D01*
G01X46073Y27054D01*
G01X46088Y27053D01*
G01X77241Y27053D01*
G01X77255Y27054D01*
G01X77270Y27057D01*
G01X77283Y27062D01*
G01X77296Y27069D01*
G01X77307Y27078D01*
G01X77318Y27088D01*
G01X77326Y27100D01*
G01X77333Y27112D01*
G01X77338Y27126D01*
G01X77341Y27140D01*
G01X77343Y27155D01*
G01X77343Y44729D01*
G01X77341Y44743D01*
G01X77338Y44758D01*
G01X77333Y44771D01*
G01X77326Y44784D01*
G01X77318Y44795D01*
G01X77307Y44806D01*
G01X77296Y44814D01*
G01X77283Y44821D01*
G01X77270Y44826D01*
G01X77255Y44829D01*
G01X77241Y44831D01*
G01X45085Y44831D01*
G01X45085Y46631D01*
G01X45083Y46646D01*
G01X45080Y46660D01*
G01X45075Y46674D01*
G01X45068Y46686D01*
G01X45060Y46698D01*
G01X45049Y46708D01*
G01X45038Y46717D01*
G01X45025Y46724D01*
G01X45012Y46729D01*
G01X44997Y46732D01*
G01X44983Y46733D01*
G37*

%LPC*%
G36*
G01X72667Y44509D02*
G01X72603Y44510D01*
G01X72539Y44509D01*
G01X72474Y44506D01*
G01X72410Y44501D01*
G01X72346Y44494D01*
G01X72283Y44485D01*
G01X72219Y44473D01*
G01X72156Y44460D01*
G01X72094Y44445D01*
G01X72032Y44427D01*
G01X71971Y44408D01*
G01X71910Y44387D01*
G01X71850Y44364D01*
G01X71791Y44339D01*
G01X71732Y44312D01*
G01X71675Y44283D01*
G01X71618Y44252D01*
G01X71563Y44220D01*
G01X71508Y44185D01*
G01X71455Y44150D01*
G01X71403Y44112D01*
G01X71352Y44073D01*
G01X71302Y44032D01*
G01X71254Y43989D01*
G01X71207Y43945D01*
G01X71162Y43900D01*
G01X71118Y43853D01*
G01X71075Y43805D01*
G01X71034Y43755D01*
G01X70995Y43704D01*
G01X70957Y43652D01*
G01X70921Y43598D01*
G01X70887Y43544D01*
G01X70855Y43488D01*
G01X70824Y43432D01*
G01X70795Y43374D01*
G01X70768Y43316D01*
G01X70743Y43257D01*
G01X70720Y43197D01*
G01X70699Y43136D01*
G01X70679Y43075D01*
G01X70662Y43013D01*
G01X70647Y42950D01*
G01X70633Y42887D01*
G01X70622Y42824D01*
G01X70613Y42760D01*
G01X70606Y42697D01*
G01X70601Y42632D01*
G01X70597Y42568D01*
G01X70596Y42504D01*
G01X70597Y42440D01*
G01X70601Y42375D01*
G01X70606Y42311D01*
G01X70613Y42247D01*
G01X70622Y42184D01*
G01X70633Y42120D01*
G01X70647Y42057D01*
G01X70662Y41995D01*
G01X70679Y41933D01*
G01X70699Y41872D01*
G01X70720Y41811D01*
G01X70743Y41751D01*
G01X70768Y41692D01*
G01X70795Y41633D01*
G01X70824Y41576D01*
G01X70855Y41519D01*
G01X70887Y41464D01*
G01X70921Y41409D01*
G01X70957Y41356D01*
G01X70995Y41304D01*
G01X71034Y41253D01*
G01X71075Y41203D01*
G01X71118Y41155D01*
G01X71162Y41108D01*
G01X71207Y41063D01*
G01X71254Y41019D01*
G01X71302Y40976D01*
G01X71352Y40935D01*
G01X71403Y40896D01*
G01X71455Y40858D01*
G01X71508Y40822D01*
G01X71563Y40788D01*
G01X71618Y40756D01*
G01X71675Y40725D01*
G01X71732Y40696D01*
G01X71791Y40669D01*
G01X71850Y40644D01*
G01X71910Y40621D01*
G01X71971Y40600D01*
G01X72032Y40580D01*
G01X72094Y40563D01*
G01X72156Y40548D01*
G01X72219Y40534D01*
G01X72283Y40523D01*
G01X72346Y40514D01*
G01X72410Y40507D01*
G01X72474Y40502D01*
G01X72539Y40498D01*
G01X72603Y40497D01*
G01X72667Y40498D01*
G01X72731Y40502D01*
G01X72796Y40507D01*
G01X72859Y40514D01*
G01X72923Y40523D01*
G01X72986Y40534D01*
G01X73049Y40548D01*
G01X73112Y40563D01*
G01X73174Y40580D01*
G01X73235Y40600D01*
G01X73296Y40621D01*
G01X73356Y40644D01*
G01X73415Y40669D01*
G01X73473Y40696D01*
G01X73531Y40725D01*
G01X73587Y40756D01*
G01X73643Y40788D01*
G01X73697Y40822D01*
G01X73751Y40858D01*
G01X73803Y40896D01*
G01X73854Y40935D01*
G01X73904Y40976D01*
G01X73952Y41019D01*
G01X73999Y41063D01*
G01X74044Y41108D01*
G01X74088Y41155D01*
G01X74131Y41203D01*
G01X74172Y41253D01*
G01X74211Y41304D01*
G01X74249Y41356D01*
G01X74284Y41409D01*
G01X74319Y41464D01*
G01X74351Y41519D01*
G01X74382Y41576D01*
G01X74411Y41633D01*
G01X74438Y41692D01*
G01X74463Y41751D01*
G01X74486Y41811D01*
G01X74507Y41872D01*
G01X74526Y41933D01*
G01X74544Y41995D01*
G01X74559Y42057D01*
G01X74572Y42120D01*
G01X74584Y42184D01*
G01X74593Y42247D01*
G01X74600Y42311D01*
G01X74605Y42375D01*
G01X74608Y42440D01*
G01X74609Y42504D01*
G01X74608Y42568D01*
G01X74605Y42632D01*
G01X74600Y42697D01*
G01X74593Y42760D01*
G01X74584Y42824D01*
G01X74572Y42887D01*
G01X74559Y42950D01*
G01X74544Y43013D01*
G01X74526Y43075D01*
G01X74507Y43136D01*
G01X74486Y43197D01*
G01X74463Y43257D01*
G01X74438Y43316D01*
G01X74411Y43374D01*
G01X74382Y43432D01*
G01X74351Y43488D01*
G01X74319Y43544D01*
G01X74249Y43652D01*
G01X74211Y43704D01*
G01X74172Y43755D01*
G01X74131Y43805D01*
G01X74088Y43853D01*
G01X74044Y43900D01*
G01X73999Y43945D01*
G01X73952Y43989D01*
G01X73904Y44032D01*
G01X73854Y44073D01*
G01X73803Y44112D01*
G01X73751Y44150D01*
G01X73643Y44220D01*
G01X73587Y44252D01*
G01X73531Y44283D01*
G01X73473Y44312D01*
G01X73415Y44339D01*
G01X73356Y44364D01*
G01X73296Y44387D01*
G01X73235Y44408D01*
G01X73174Y44427D01*
G01X73112Y44445D01*
G01X73049Y44460D01*
G01X72986Y44473D01*
G01X72923Y44485D01*
G01X72859Y44494D01*
G01X72796Y44501D01*
G01X72731Y44506D01*
G01X72667Y44509D01*
G37*
G36*
G01X72667Y32470D02*
G01X72603Y32471D01*
G01X72539Y32470D01*
G01X72474Y32467D01*
G01X72410Y32461D01*
G01X72346Y32454D01*
G01X72283Y32445D01*
G01X72219Y32434D01*
G01X72156Y32420D01*
G01X72094Y32405D01*
G01X72032Y32388D01*
G01X71971Y32369D01*
G01X71910Y32347D01*
G01X71850Y32324D01*
G01X71791Y32299D01*
G01X71732Y32272D01*
G01X71675Y32243D01*
G01X71618Y32213D01*
G01X71563Y32180D01*
G01X71508Y32146D01*
G01X71455Y32110D01*
G01X71403Y32072D01*
G01X71352Y32033D01*
G01X71302Y31992D01*
G01X71254Y31950D01*
G01X71207Y31906D01*
G01X71162Y31860D01*
G01X71118Y31813D01*
G01X71075Y31765D01*
G01X71034Y31715D01*
G01X70995Y31664D01*
G01X70957Y31612D01*
G01X70921Y31559D01*
G01X70887Y31504D01*
G01X70855Y31449D01*
G01X70824Y31392D01*
G01X70795Y31335D01*
G01X70768Y31276D01*
G01X70743Y31217D01*
G01X70720Y31157D01*
G01X70699Y31097D01*
G01X70679Y31035D01*
G01X70662Y30973D01*
G01X70647Y30911D01*
G01X70633Y30848D01*
G01X70622Y30785D01*
G01X70613Y30721D01*
G01X70606Y30657D01*
G01X70601Y30593D01*
G01X70597Y30529D01*
G01X70596Y30464D01*
G01X70597Y30400D01*
G01X70601Y30336D01*
G01X70606Y30272D01*
G01X70613Y30208D01*
G01X70622Y30144D01*
G01X70633Y30081D01*
G01X70647Y30018D01*
G01X70662Y29955D01*
G01X70679Y29893D01*
G01X70699Y29832D01*
G01X70720Y29771D01*
G01X70743Y29711D01*
G01X70768Y29652D01*
G01X70795Y29594D01*
G01X70824Y29536D01*
G01X70855Y29480D01*
G01X70887Y29424D01*
G01X70921Y29370D01*
G01X70957Y29316D01*
G01X70995Y29264D01*
G01X71034Y29213D01*
G01X71075Y29164D01*
G01X71118Y29115D01*
G01X71162Y29068D01*
G01X71207Y29023D01*
G01X71254Y28979D01*
G01X71302Y28936D01*
G01X71352Y28896D01*
G01X71403Y28856D01*
G01X71455Y28819D01*
G01X71508Y28783D01*
G01X71563Y28748D01*
G01X71618Y28716D01*
G01X71675Y28685D01*
G01X71732Y28656D01*
G01X71850Y28604D01*
G01X71910Y28581D01*
G01X71971Y28560D01*
G01X72032Y28541D01*
G01X72094Y28523D01*
G01X72156Y28508D01*
G01X72219Y28495D01*
G01X72283Y28484D01*
G01X72346Y28474D01*
G01X72410Y28467D01*
G01X72474Y28462D01*
G01X72539Y28459D01*
G01X72603Y28458D01*
G01X72667Y28459D01*
G01X72731Y28462D01*
G01X72796Y28467D01*
G01X72859Y28474D01*
G01X72923Y28484D01*
G01X72986Y28495D01*
G01X73049Y28508D01*
G01X73112Y28523D01*
G01X73174Y28541D01*
G01X73235Y28560D01*
G01X73296Y28581D01*
G01X73356Y28604D01*
G01X73415Y28630D01*
G01X73473Y28656D01*
G01X73531Y28685D01*
G01X73587Y28716D01*
G01X73643Y28748D01*
G01X73697Y28783D01*
G01X73751Y28819D01*
G01X73803Y28856D01*
G01X73854Y28896D01*
G01X73904Y28936D01*
G01X73952Y28979D01*
G01X73999Y29023D01*
G01X74044Y29068D01*
G01X74088Y29115D01*
G01X74131Y29164D01*
G01X74172Y29213D01*
G01X74211Y29264D01*
G01X74249Y29316D01*
G01X74319Y29424D01*
G01X74351Y29480D01*
G01X74382Y29536D01*
G01X74411Y29594D01*
G01X74438Y29652D01*
G01X74463Y29711D01*
G01X74486Y29771D01*
G01X74507Y29832D01*
G01X74526Y29893D01*
G01X74544Y29955D01*
G01X74559Y30018D01*
G01X74572Y30081D01*
G01X74584Y30144D01*
G01X74593Y30208D01*
G01X74600Y30272D01*
G01X74605Y30336D01*
G01X74608Y30400D01*
G01X74609Y30464D01*
G01X74608Y30529D01*
G01X74605Y30593D01*
G01X74600Y30657D01*
G01X74593Y30721D01*
G01X74584Y30785D01*
G01X74572Y30848D01*
G01X74559Y30911D01*
G01X74544Y30973D01*
G01X74526Y31035D01*
G01X74507Y31097D01*
G01X74486Y31157D01*
G01X74463Y31217D01*
G01X74438Y31276D01*
G01X74411Y31335D01*
G01X74382Y31392D01*
G01X74351Y31449D01*
G01X74319Y31504D01*
G01X74284Y31559D01*
G01X74249Y31612D01*
G01X74211Y31664D01*
G01X74172Y31715D01*
G01X74131Y31765D01*
G01X74088Y31813D01*
G01X74044Y31860D01*
G01X73999Y31906D01*
G01X73952Y31950D01*
G01X73904Y31992D01*
G01X73854Y32033D01*
G01X73803Y32072D01*
G01X73751Y32110D01*
G01X73697Y32146D01*
G01X73643Y32180D01*
G01X73587Y32213D01*
G01X73531Y32243D01*
G01X73473Y32272D01*
G01X73415Y32299D01*
G01X73356Y32324D01*
G01X73296Y32347D01*
G01X73235Y32369D01*
G01X73174Y32388D01*
G01X73112Y32405D01*
G01X73049Y32420D01*
G01X72986Y32434D01*
G01X72923Y32445D01*
G01X72859Y32454D01*
G01X72796Y32461D01*
G01X72731Y32467D01*
G01X72667Y32470D01*
G37*
G36*
G01X54923Y32240D02*
G01X54863Y32241D01*
G01X54803Y32240D01*
G01X54743Y32237D01*
G01X54684Y32232D01*
G01X54624Y32225D01*
G01X54565Y32216D01*
G01X54506Y32204D01*
G01X54447Y32191D01*
G01X54389Y32176D01*
G01X54332Y32159D01*
G01X54275Y32140D01*
G01X54219Y32119D01*
G01X54164Y32096D01*
G01X54109Y32071D01*
G01X54055Y32044D01*
G01X54002Y32016D01*
G01X53951Y31985D01*
G01X53900Y31953D01*
G01X53850Y31920D01*
G01X53802Y31884D01*
G01X53755Y31847D01*
G01X53709Y31809D01*
G01X53664Y31768D01*
G01X53621Y31727D01*
G01X53580Y31684D01*
G01X53539Y31639D01*
G01X53501Y31593D01*
G01X53464Y31546D01*
G01X53428Y31498D01*
G01X53395Y31448D01*
G01X53363Y31397D01*
G01X53332Y31345D01*
G01X53304Y31293D01*
G01X53277Y31239D01*
G01X53252Y31184D01*
G01X53229Y31129D01*
G01X53208Y31073D01*
G01X53189Y31016D01*
G01X53172Y30958D01*
G01X53157Y30900D01*
G01X53144Y30842D01*
G01X53132Y30783D01*
G01X53123Y30724D01*
G01X53116Y30664D01*
G01X53111Y30604D01*
G01X53108Y30545D01*
G01X53107Y30485D01*
G01X53108Y30425D01*
G01X53111Y30365D01*
G01X53116Y30305D01*
G01X53123Y30245D01*
G01X53132Y30186D01*
G01X53144Y30127D01*
G01X53157Y30069D01*
G01X53172Y30011D01*
G01X53189Y29953D01*
G01X53208Y29896D01*
G01X53229Y29840D01*
G01X53252Y29785D01*
G01X53277Y29730D01*
G01X53304Y29676D01*
G01X53332Y29624D01*
G01X53363Y29572D01*
G01X53395Y29521D01*
G01X53428Y29472D01*
G01X53464Y29423D01*
G01X53501Y29376D01*
G01X53539Y29330D01*
G01X53580Y29286D01*
G01X53621Y29243D01*
G01X53664Y29201D01*
G01X53709Y29161D01*
G01X53755Y29122D01*
G01X53802Y29085D01*
G01X53850Y29050D01*
G01X53900Y29016D01*
G01X53951Y28984D01*
G01X54002Y28953D01*
G01X54055Y28925D01*
G01X54109Y28898D01*
G01X54164Y28873D01*
G01X54219Y28851D01*
G01X54275Y28829D01*
G01X54332Y28810D01*
G01X54389Y28793D01*
G01X54447Y28778D01*
G01X54506Y28765D01*
G01X54565Y28754D01*
G01X54624Y28744D01*
G01X54684Y28737D01*
G01X54743Y28732D01*
G01X54803Y28729D01*
G01X54863Y28728D01*
G01X54923Y28729D01*
G01X54983Y28732D01*
G01X55043Y28737D01*
G01X55103Y28744D01*
G01X55162Y28754D01*
G01X55221Y28765D01*
G01X55279Y28778D01*
G01X55337Y28793D01*
G01X55395Y28810D01*
G01X55452Y28829D01*
G01X55508Y28851D01*
G01X55563Y28873D01*
G01X55618Y28898D01*
G01X55671Y28925D01*
G01X55724Y28953D01*
G01X55776Y28984D01*
G01X55827Y29016D01*
G01X55876Y29050D01*
G01X55925Y29085D01*
G01X55972Y29122D01*
G01X56018Y29161D01*
G01X56062Y29201D01*
G01X56105Y29243D01*
G01X56147Y29286D01*
G01X56187Y29330D01*
G01X56226Y29376D01*
G01X56263Y29423D01*
G01X56298Y29472D01*
G01X56332Y29521D01*
G01X56364Y29572D01*
G01X56394Y29624D01*
G01X56423Y29676D01*
G01X56450Y29730D01*
G01X56474Y29785D01*
G01X56497Y29840D01*
G01X56518Y29896D01*
G01X56538Y29953D01*
G01X56555Y30011D01*
G01X56570Y30069D01*
G01X56583Y30127D01*
G01X56594Y30186D01*
G01X56604Y30245D01*
G01X56611Y30305D01*
G01X56616Y30365D01*
G01X56619Y30425D01*
G01X56620Y30485D01*
G01X56619Y30545D01*
G01X56616Y30604D01*
G01X56611Y30664D01*
G01X56604Y30724D01*
G01X56594Y30783D01*
G01X56583Y30842D01*
G01X56570Y30900D01*
G01X56555Y30958D01*
G01X56538Y31016D01*
G01X56518Y31073D01*
G01X56497Y31129D01*
G01X56474Y31184D01*
G01X56450Y31239D01*
G01X56423Y31293D01*
G01X56394Y31345D01*
G01X56364Y31397D01*
G01X56332Y31448D01*
G01X56298Y31498D01*
G01X56263Y31546D01*
G01X56226Y31593D01*
G01X56187Y31639D01*
G01X56147Y31684D01*
G01X56105Y31727D01*
G01X56062Y31768D01*
G01X56018Y31809D01*
G01X55972Y31847D01*
G01X55925Y31884D01*
G01X55876Y31920D01*
G01X55827Y31953D01*
G01X55776Y31985D01*
G01X55724Y32016D01*
G01X55671Y32044D01*
G01X55618Y32071D01*
G01X55563Y32096D01*
G01X55508Y32119D01*
G01X55452Y32140D01*
G01X55395Y32159D01*
G01X55337Y32176D01*
G01X55279Y32191D01*
G01X55221Y32204D01*
G01X55162Y32216D01*
G01X55103Y32225D01*
G01X55043Y32232D01*
G01X54983Y32237D01*
G01X54923Y32240D01*
G37*
G36*
G01X59622Y32240D02*
G01X59562Y32241D01*
G01X59502Y32240D01*
G01X59442Y32237D01*
G01X59383Y32232D01*
G01X59323Y32225D01*
G01X59264Y32216D01*
G01X59205Y32204D01*
G01X59146Y32191D01*
G01X59088Y32176D01*
G01X59031Y32159D01*
G01X58974Y32140D01*
G01X58918Y32119D01*
G01X58863Y32096D01*
G01X58808Y32071D01*
G01X58754Y32044D01*
G01X58701Y32016D01*
G01X58650Y31985D01*
G01X58599Y31953D01*
G01X58549Y31920D01*
G01X58501Y31884D01*
G01X58454Y31847D01*
G01X58408Y31809D01*
G01X58363Y31768D01*
G01X58320Y31727D01*
G01X58279Y31684D01*
G01X58238Y31639D01*
G01X58200Y31593D01*
G01X58163Y31546D01*
G01X58127Y31498D01*
G01X58094Y31448D01*
G01X58062Y31397D01*
G01X58031Y31345D01*
G01X58003Y31293D01*
G01X57976Y31239D01*
G01X57951Y31184D01*
G01X57928Y31129D01*
G01X57907Y31073D01*
G01X57888Y31016D01*
G01X57871Y30958D01*
G01X57856Y30900D01*
G01X57843Y30842D01*
G01X57831Y30783D01*
G01X57822Y30724D01*
G01X57815Y30664D01*
G01X57810Y30604D01*
G01X57807Y30545D01*
G01X57806Y30485D01*
G01X57807Y30425D01*
G01X57810Y30365D01*
G01X57815Y30305D01*
G01X57822Y30245D01*
G01X57831Y30186D01*
G01X57843Y30127D01*
G01X57856Y30069D01*
G01X57871Y30011D01*
G01X57888Y29953D01*
G01X57907Y29896D01*
G01X57928Y29840D01*
G01X57951Y29785D01*
G01X57976Y29730D01*
G01X58003Y29676D01*
G01X58031Y29624D01*
G01X58062Y29572D01*
G01X58094Y29521D01*
G01X58127Y29472D01*
G01X58163Y29423D01*
G01X58200Y29376D01*
G01X58238Y29330D01*
G01X58279Y29286D01*
G01X58320Y29243D01*
G01X58363Y29201D01*
G01X58408Y29161D01*
G01X58454Y29122D01*
G01X58501Y29085D01*
G01X58549Y29050D01*
G01X58599Y29016D01*
G01X58650Y28984D01*
G01X58701Y28953D01*
G01X58754Y28925D01*
G01X58808Y28898D01*
G01X58863Y28873D01*
G01X58918Y28851D01*
G01X58974Y28829D01*
G01X59031Y28810D01*
G01X59088Y28793D01*
G01X59146Y28778D01*
G01X59205Y28765D01*
G01X59264Y28754D01*
G01X59323Y28744D01*
G01X59383Y28737D01*
G01X59442Y28732D01*
G01X59502Y28729D01*
G01X59562Y28728D01*
G01X59622Y28729D01*
G01X59682Y28732D01*
G01X59742Y28737D01*
G01X59802Y28744D01*
G01X59861Y28754D01*
G01X59920Y28765D01*
G01X59978Y28778D01*
G01X60036Y28793D01*
G01X60094Y28810D01*
G01X60151Y28829D01*
G01X60207Y28851D01*
G01X60262Y28873D01*
G01X60317Y28898D01*
G01X60370Y28925D01*
G01X60423Y28953D01*
G01X60475Y28984D01*
G01X60526Y29016D01*
G01X60575Y29050D01*
G01X60624Y29085D01*
G01X60671Y29122D01*
G01X60717Y29161D01*
G01X60761Y29201D01*
G01X60804Y29243D01*
G01X60846Y29286D01*
G01X60886Y29330D01*
G01X60925Y29376D01*
G01X60962Y29423D01*
G01X60997Y29472D01*
G01X61031Y29521D01*
G01X61063Y29572D01*
G01X61093Y29624D01*
G01X61122Y29676D01*
G01X61149Y29730D01*
G01X61173Y29785D01*
G01X61196Y29840D01*
G01X61217Y29896D01*
G01X61237Y29953D01*
G01X61254Y30011D01*
G01X61269Y30069D01*
G01X61282Y30127D01*
G01X61293Y30186D01*
G01X61303Y30245D01*
G01X61310Y30305D01*
G01X61315Y30365D01*
G01X61318Y30425D01*
G01X61319Y30485D01*
G01X61318Y30545D01*
G01X61315Y30604D01*
G01X61310Y30664D01*
G01X61303Y30724D01*
G01X61293Y30783D01*
G01X61282Y30842D01*
G01X61269Y30900D01*
G01X61254Y30958D01*
G01X61237Y31016D01*
G01X61217Y31073D01*
G01X61196Y31129D01*
G01X61173Y31184D01*
G01X61149Y31239D01*
G01X61122Y31293D01*
G01X61093Y31345D01*
G01X61063Y31397D01*
G01X61031Y31448D01*
G01X60997Y31498D01*
G01X60962Y31546D01*
G01X60925Y31593D01*
G01X60886Y31639D01*
G01X60846Y31684D01*
G01X60804Y31727D01*
G01X60761Y31768D01*
G01X60717Y31809D01*
G01X60671Y31847D01*
G01X60624Y31884D01*
G01X60575Y31920D01*
G01X60526Y31953D01*
G01X60475Y31985D01*
G01X60423Y32016D01*
G01X60370Y32044D01*
G01X60317Y32071D01*
G01X60262Y32096D01*
G01X60207Y32119D01*
G01X60151Y32140D01*
G01X60094Y32159D01*
G01X60036Y32176D01*
G01X59978Y32191D01*
G01X59920Y32204D01*
G01X59861Y32216D01*
G01X59802Y32225D01*
G01X59742Y32232D01*
G01X59682Y32237D01*
G01X59622Y32240D01*
G37*
G36*
G01X50224Y32240D02*
G01X50164Y32241D01*
G01X50104Y32240D01*
G01X50044Y32237D01*
G01X49985Y32232D01*
G01X49925Y32225D01*
G01X49866Y32216D01*
G01X49807Y32204D01*
G01X49748Y32191D01*
G01X49690Y32176D01*
G01X49633Y32159D01*
G01X49576Y32140D01*
G01X49520Y32119D01*
G01X49465Y32096D01*
G01X49410Y32071D01*
G01X49356Y32044D01*
G01X49303Y32016D01*
G01X49252Y31985D01*
G01X49201Y31953D01*
G01X49151Y31920D01*
G01X49103Y31884D01*
G01X49056Y31847D01*
G01X49010Y31809D01*
G01X48965Y31768D01*
G01X48922Y31727D01*
G01X48881Y31684D01*
G01X48840Y31639D01*
G01X48802Y31593D01*
G01X48765Y31546D01*
G01X48729Y31498D01*
G01X48696Y31448D01*
G01X48664Y31397D01*
G01X48633Y31345D01*
G01X48605Y31293D01*
G01X48578Y31239D01*
G01X48553Y31184D01*
G01X48530Y31129D01*
G01X48509Y31073D01*
G01X48490Y31016D01*
G01X48473Y30958D01*
G01X48458Y30900D01*
G01X48445Y30842D01*
G01X48433Y30783D01*
G01X48424Y30724D01*
G01X48417Y30664D01*
G01X48412Y30604D01*
G01X48409Y30545D01*
G01X48408Y30485D01*
G01X48409Y30425D01*
G01X48412Y30365D01*
G01X48417Y30305D01*
G01X48424Y30245D01*
G01X48433Y30186D01*
G01X48445Y30127D01*
G01X48458Y30069D01*
G01X48473Y30011D01*
G01X48490Y29953D01*
G01X48509Y29896D01*
G01X48530Y29840D01*
G01X48553Y29785D01*
G01X48578Y29730D01*
G01X48605Y29676D01*
G01X48633Y29624D01*
G01X48664Y29572D01*
G01X48696Y29521D01*
G01X48729Y29472D01*
G01X48765Y29423D01*
G01X48802Y29376D01*
G01X48840Y29330D01*
G01X48881Y29286D01*
G01X48922Y29243D01*
G01X48965Y29201D01*
G01X49010Y29161D01*
G01X49056Y29122D01*
G01X49103Y29085D01*
G01X49151Y29050D01*
G01X49201Y29016D01*
G01X49252Y28984D01*
G01X49303Y28953D01*
G01X49356Y28925D01*
G01X49410Y28898D01*
G01X49465Y28873D01*
G01X49520Y28851D01*
G01X49576Y28829D01*
G01X49633Y28810D01*
G01X49690Y28793D01*
G01X49748Y28778D01*
G01X49807Y28765D01*
G01X49866Y28754D01*
G01X49925Y28744D01*
G01X49985Y28737D01*
G01X50044Y28732D01*
G01X50104Y28729D01*
G01X50164Y28728D01*
G01X50224Y28729D01*
G01X50284Y28732D01*
G01X50344Y28737D01*
G01X50404Y28744D01*
G01X50463Y28754D01*
G01X50522Y28765D01*
G01X50580Y28778D01*
G01X50638Y28793D01*
G01X50696Y28810D01*
G01X50753Y28829D01*
G01X50809Y28851D01*
G01X50864Y28873D01*
G01X50919Y28898D01*
G01X50972Y28925D01*
G01X51025Y28953D01*
G01X51077Y28984D01*
G01X51128Y29016D01*
G01X51177Y29050D01*
G01X51226Y29085D01*
G01X51273Y29122D01*
G01X51319Y29161D01*
G01X51363Y29201D01*
G01X51406Y29243D01*
G01X51448Y29286D01*
G01X51488Y29330D01*
G01X51527Y29376D01*
G01X51564Y29423D01*
G01X51599Y29472D01*
G01X51633Y29521D01*
G01X51665Y29572D01*
G01X51695Y29624D01*
G01X51724Y29676D01*
G01X51751Y29730D01*
G01X51775Y29785D01*
G01X51798Y29840D01*
G01X51819Y29896D01*
G01X51839Y29953D01*
G01X51856Y30011D01*
G01X51871Y30069D01*
G01X51884Y30127D01*
G01X51895Y30186D01*
G01X51905Y30245D01*
G01X51912Y30305D01*
G01X51917Y30365D01*
G01X51920Y30425D01*
G01X51921Y30485D01*
G01X51920Y30545D01*
G01X51917Y30604D01*
G01X51912Y30664D01*
G01X51905Y30724D01*
G01X51895Y30783D01*
G01X51884Y30842D01*
G01X51871Y30900D01*
G01X51856Y30958D01*
G01X51839Y31016D01*
G01X51819Y31073D01*
G01X51798Y31129D01*
G01X51775Y31184D01*
G01X51751Y31239D01*
G01X51724Y31293D01*
G01X51695Y31345D01*
G01X51665Y31397D01*
G01X51633Y31448D01*
G01X51599Y31498D01*
G01X51564Y31546D01*
G01X51527Y31593D01*
G01X51488Y31639D01*
G01X51448Y31684D01*
G01X51406Y31727D01*
G01X51363Y31768D01*
G01X51319Y31809D01*
G01X51273Y31847D01*
G01X51226Y31884D01*
G01X51177Y31920D01*
G01X51128Y31953D01*
G01X51077Y31985D01*
G01X51025Y32016D01*
G01X50972Y32044D01*
G01X50919Y32071D01*
G01X50864Y32096D01*
G01X50809Y32119D01*
G01X50753Y32140D01*
G01X50696Y32159D01*
G01X50638Y32176D01*
G01X50580Y32191D01*
G01X50522Y32204D01*
G01X50463Y32216D01*
G01X50404Y32225D01*
G01X50344Y32232D01*
G01X50284Y32237D01*
G01X50224Y32240D01*
G37*
G36*
G01X67940Y36340D02*
G01X67891Y36341D01*
G01X67843Y36340D01*
G01X67795Y36337D01*
G01X67747Y36331D01*
G01X67699Y36324D01*
G01X67652Y36315D01*
G01X67605Y36303D01*
G01X67558Y36290D01*
G01X67513Y36274D01*
G01X67468Y36257D01*
G01X67424Y36237D01*
G01X67380Y36216D01*
G01X67338Y36193D01*
G01X67297Y36168D01*
G01X67256Y36141D01*
G01X67218Y36112D01*
G01X67180Y36082D01*
G01X67144Y36050D01*
G01X67109Y36017D01*
G01X67075Y35982D01*
G01X67044Y35946D01*
G01X67013Y35908D01*
G01X66985Y35869D01*
G01X66958Y35829D01*
G01X66933Y35788D01*
G01X66910Y35745D01*
G01X66888Y35702D01*
G01X66869Y35658D01*
G01X66851Y35613D01*
G01X66836Y35567D01*
G01X66822Y35521D01*
G01X66811Y35474D01*
G01X66801Y35427D01*
G01X66794Y35379D01*
G01X66789Y35331D01*
G01X66786Y35283D01*
G01X66785Y35234D01*
G01X66786Y35186D01*
G01X66789Y35138D01*
G01X66794Y35090D01*
G01X66801Y35042D01*
G01X66811Y34995D01*
G01X66822Y34948D01*
G01X66836Y34902D01*
G01X66851Y34856D01*
G01X66869Y34811D01*
G01X66888Y34767D01*
G01X66910Y34723D01*
G01X66933Y34681D01*
G01X66958Y34640D01*
G01X66985Y34600D01*
G01X67013Y34561D01*
G01X67044Y34523D01*
G01X67075Y34487D01*
G01X67109Y34452D01*
G01X67144Y34419D01*
G01X67180Y34387D01*
G01X67218Y34357D01*
G01X67256Y34328D01*
G01X67297Y34301D01*
G01X67338Y34276D01*
G01X67380Y34253D01*
G01X67424Y34232D01*
G01X67468Y34212D01*
G01X67513Y34195D01*
G01X67558Y34179D01*
G01X67605Y34166D01*
G01X67652Y34154D01*
G01X67699Y34145D01*
G01X67747Y34137D01*
G01X67795Y34132D01*
G01X67843Y34129D01*
G01X67891Y34128D01*
G01X67940Y34129D01*
G01X67989Y34132D01*
G01X68038Y34138D01*
G01X68086Y34145D01*
G01X68134Y34155D01*
G01X68182Y34167D01*
G01X68229Y34181D01*
G01X68275Y34197D01*
G01X68321Y34215D01*
G01X68366Y34235D01*
G01X68409Y34257D01*
G01X68452Y34281D01*
G01X68494Y34306D01*
G01X68534Y34334D01*
G01X68574Y34363D01*
G01X68612Y34395D01*
G01X68648Y34427D01*
G01X68683Y34462D01*
G01X68717Y34497D01*
G01X68779Y34573D01*
G01X68807Y34613D01*
G01X68817Y34626D01*
G01X68830Y34637D01*
G01X68843Y34646D01*
G01X68859Y34653D01*
G01X68875Y34657D01*
G01X68891Y34658D01*
G01X68908Y34657D01*
G01X68924Y34653D01*
G01X68939Y34646D01*
G01X68953Y34637D01*
G01X68965Y34626D01*
G01X68975Y34613D01*
G01X69004Y34573D01*
G01X69034Y34534D01*
G01X69066Y34497D01*
G01X69099Y34461D01*
G01X69134Y34426D01*
G01X69171Y34393D01*
G01X69209Y34362D01*
G01X69248Y34333D01*
G01X69289Y34305D01*
G01X69330Y34279D01*
G01X69373Y34255D01*
G01X69417Y34233D01*
G01X69462Y34213D01*
G01X69508Y34194D01*
G01X69554Y34178D01*
G01X69601Y34164D01*
G01X69649Y34152D01*
G01X69697Y34143D01*
G01X69746Y34135D01*
G01X69794Y34130D01*
G01X69844Y34126D01*
G01X69893Y34125D01*
G01X69941Y34126D01*
G01X69989Y34130D01*
G01X70037Y34135D01*
G01X70085Y34142D01*
G01X70132Y34152D01*
G01X70179Y34163D01*
G01X70225Y34177D01*
G01X70271Y34192D01*
G01X70316Y34210D01*
G01X70360Y34229D01*
G01X70404Y34250D01*
G01X70446Y34274D01*
G01X70487Y34299D01*
G01X70527Y34325D01*
G01X70566Y34354D01*
G01X70604Y34384D01*
G01X70640Y34416D01*
G01X70675Y34449D01*
G01X70709Y34484D01*
G01X70771Y34558D01*
G01X70799Y34597D01*
G01X70826Y34637D01*
G01X70851Y34679D01*
G01X70874Y34721D01*
G01X70896Y34764D01*
G01X70915Y34808D01*
G01X70932Y34853D01*
G01X70948Y34899D01*
G01X70962Y34945D01*
G01X70973Y34992D01*
G01X70982Y35040D01*
G01X70990Y35087D01*
G01X70995Y35135D01*
G01X70998Y35184D01*
G01X70999Y35232D01*
G01X70998Y35280D01*
G01X70995Y35328D01*
G01X70990Y35376D01*
G01X70982Y35424D01*
G01X70973Y35471D01*
G01X70962Y35518D01*
G01X70948Y35565D01*
G01X70932Y35610D01*
G01X70915Y35655D01*
G01X70896Y35699D01*
G01X70874Y35743D01*
G01X70851Y35785D01*
G01X70826Y35826D01*
G01X70799Y35867D01*
G01X70771Y35905D01*
G01X70740Y35943D01*
G01X70709Y35979D01*
G01X70675Y36014D01*
G01X70640Y36048D01*
G01X70604Y36079D01*
G01X70566Y36110D01*
G01X70527Y36138D01*
G01X70487Y36165D01*
G01X70446Y36190D01*
G01X70404Y36213D01*
G01X70360Y36235D01*
G01X70316Y36254D01*
G01X70271Y36272D01*
G01X70225Y36287D01*
G01X70179Y36301D01*
G01X70132Y36312D01*
G01X70085Y36322D01*
G01X70037Y36329D01*
G01X69989Y36334D01*
G01X69941Y36337D01*
G01X69893Y36338D01*
G01X69844Y36337D01*
G01X69795Y36334D01*
G01X69746Y36329D01*
G01X69698Y36321D01*
G01X69650Y36311D01*
G01X69602Y36300D01*
G01X69555Y36286D01*
G01X69509Y36270D01*
G01X69463Y36252D01*
G01X69418Y36232D01*
G01X69374Y36210D01*
G01X69332Y36186D01*
G01X69290Y36160D01*
G01X69249Y36132D01*
G01X69210Y36103D01*
G01X69172Y36072D01*
G01X69136Y36039D01*
G01X69101Y36005D01*
G01X69067Y35969D01*
G01X69035Y35932D01*
G01X69005Y35893D01*
G01X68977Y35853D01*
G01X68967Y35840D01*
G01X68954Y35829D01*
G01X68940Y35820D01*
G01X68925Y35814D01*
G01X68909Y35810D01*
G01X68893Y35808D01*
G01X68876Y35810D01*
G01X68860Y35814D01*
G01X68845Y35820D01*
G01X68831Y35829D01*
G01X68819Y35840D01*
G01X68809Y35853D01*
G01X68780Y35893D01*
G01X68750Y35932D01*
G01X68718Y35970D01*
G01X68685Y36006D01*
G01X68650Y36040D01*
G01X68613Y36073D01*
G01X68575Y36104D01*
G01X68536Y36134D01*
G01X68495Y36161D01*
G01X68454Y36187D01*
G01X68411Y36211D01*
G01X68367Y36233D01*
G01X68322Y36254D01*
G01X68276Y36272D01*
G01X68230Y36288D01*
G01X68183Y36302D01*
G01X68135Y36314D01*
G01X68087Y36323D01*
G01X68038Y36331D01*
G01X67989Y36337D01*
G01X67940Y36340D01*
G37*
G36*
G01X68749Y38842D02*
G01X67049Y38842D01*
G01X67025Y38841D01*
G01X67002Y38838D01*
G01X66979Y38832D01*
G01X66956Y38825D01*
G01X66935Y38815D01*
G01X66914Y38804D01*
G01X66895Y38790D01*
G01X66876Y38775D01*
G01X66860Y38758D01*
G01X66844Y38740D01*
G01X66831Y38720D01*
G01X66820Y38700D01*
G01X66810Y38678D01*
G01X66802Y38656D01*
G01X66797Y38633D01*
G01X66794Y38609D01*
G01X66793Y38585D01*
G01X66793Y36885D01*
G01X66794Y36862D01*
G01X66797Y36838D01*
G01X66802Y36815D01*
G01X66810Y36793D01*
G01X66820Y36771D01*
G01X66831Y36750D01*
G01X66844Y36731D01*
G01X66860Y36713D01*
G01X66876Y36696D01*
G01X66895Y36681D01*
G01X66914Y36667D01*
G01X66935Y36656D01*
G01X66956Y36646D01*
G01X66979Y36639D01*
G01X67002Y36633D01*
G01X67025Y36630D01*
G01X67049Y36629D01*
G01X68749Y36629D01*
G01X68773Y36630D01*
G01X68796Y36633D01*
G01X68820Y36639D01*
G01X68842Y36646D01*
G01X68864Y36656D01*
G01X68885Y36667D01*
G01X68904Y36681D01*
G01X68922Y36696D01*
G01X68939Y36713D01*
G01X68954Y36731D01*
G01X68968Y36751D01*
G01X68979Y36772D01*
G01X68989Y36793D01*
G01X68996Y36816D01*
G01X69001Y36839D01*
G01X69006Y36854D01*
G01X69012Y36869D01*
G01X69020Y36882D01*
G01X69031Y36894D01*
G01X69043Y36904D01*
G01X69056Y36912D01*
G01X69071Y36918D01*
G01X69086Y36921D01*
G01X69101Y36922D01*
G01X69116Y36921D01*
G01X69130Y36918D01*
G01X69144Y36913D01*
G01X69156Y36906D01*
G01X69168Y36898D01*
G01X69212Y36861D01*
G01X69258Y36828D01*
G01X69305Y36796D01*
G01X69354Y36767D01*
G01X69404Y36741D01*
G01X69404Y37245D01*
G01X69107Y37245D01*
G01X69093Y37246D01*
G01X69079Y37249D01*
G01X69065Y37254D01*
G01X69052Y37261D01*
G01X69041Y37270D01*
G01X69031Y37280D01*
G01X69022Y37292D01*
G01X69015Y37305D01*
G01X69010Y37318D01*
G01X69007Y37332D01*
G01X69006Y37347D01*
G01X69006Y38121D01*
G01X69007Y38135D01*
G01X69010Y38149D01*
G01X69015Y38163D01*
G01X69022Y38176D01*
G01X69031Y38187D01*
G01X69041Y38197D01*
G01X69052Y38206D01*
G01X69065Y38213D01*
G01X69079Y38218D01*
G01X69093Y38221D01*
G01X69107Y38222D01*
G01X69404Y38222D01*
G01X69404Y38727D01*
G01X69354Y38700D01*
G01X69305Y38671D01*
G01X69258Y38640D01*
G01X69212Y38606D01*
G01X69168Y38570D01*
G01X69157Y38562D01*
G01X69144Y38555D01*
G01X69131Y38550D01*
G01X69116Y38547D01*
G01X69102Y38546D01*
G01X69086Y38547D01*
G01X69071Y38550D01*
G01X69056Y38556D01*
G01X69043Y38565D01*
G01X69031Y38575D01*
G01X69020Y38587D01*
G01X69012Y38600D01*
G01X69006Y38614D01*
G01X69002Y38630D01*
G01X68997Y38653D01*
G01X68989Y38676D01*
G01X68980Y38698D01*
G01X68968Y38719D01*
G01X68955Y38738D01*
G01X68940Y38757D01*
G01X68923Y38774D01*
G01X68905Y38789D01*
G01X68885Y38803D01*
G01X68864Y38815D01*
G01X68843Y38824D01*
G01X68820Y38832D01*
G01X68797Y38837D01*
G01X68773Y38841D01*
G01X68749Y38842D01*
G37*
G36*
G01X38149Y41922D02*
G01X38100Y41923D01*
G01X38050Y41922D01*
G01X38001Y41919D01*
G01X37953Y41914D01*
G01X37904Y41906D01*
G01X37856Y41897D01*
G01X37808Y41886D01*
G01X37761Y41872D01*
G01X37714Y41857D01*
G01X37668Y41840D01*
G01X37623Y41820D01*
G01X37579Y41799D01*
G01X37535Y41776D01*
G01X37493Y41751D01*
G01X37452Y41725D01*
G01X37412Y41696D01*
G01X37373Y41666D01*
G01X37335Y41635D01*
G01X37299Y41601D01*
G01X37265Y41567D01*
G01X37231Y41531D01*
G01X37200Y41493D01*
G01X37170Y41454D01*
G01X37141Y41414D01*
G01X37115Y41373D01*
G01X37090Y41331D01*
G01X37067Y41287D01*
G01X37046Y41243D01*
G01X37026Y41198D01*
G01X37009Y41152D01*
G01X36994Y41105D01*
G01X36980Y41058D01*
G01X36969Y41010D01*
G01X36960Y40962D01*
G01X36952Y40913D01*
G01X36947Y40865D01*
G01X36944Y40816D01*
G01X36943Y40767D01*
G01X36944Y40717D01*
G01X36947Y40668D01*
G01X36952Y40620D01*
G01X36960Y40571D01*
G01X36969Y40523D01*
G01X36980Y40475D01*
G01X36994Y40428D01*
G01X37009Y40381D01*
G01X37026Y40335D01*
G01X37046Y40290D01*
G01X37067Y40246D01*
G01X37090Y40202D01*
G01X37115Y40160D01*
G01X37141Y40119D01*
G01X37170Y40079D01*
G01X37200Y40040D01*
G01X37231Y40002D01*
G01X37265Y39966D01*
G01X37299Y39932D01*
G01X37335Y39898D01*
G01X37373Y39867D01*
G01X37412Y39837D01*
G01X37452Y39808D01*
G01X37493Y39782D01*
G01X37535Y39757D01*
G01X37579Y39734D01*
G01X37623Y39713D01*
G01X37668Y39693D01*
G01X37714Y39676D01*
G01X37761Y39661D01*
G01X37808Y39647D01*
G01X37856Y39636D01*
G01X37904Y39627D01*
G01X37953Y39619D01*
G01X38001Y39614D01*
G01X38050Y39611D01*
G01X38100Y39610D01*
G01X38149Y39611D01*
G01X38198Y39614D01*
G01X38246Y39619D01*
G01X38295Y39627D01*
G01X38343Y39636D01*
G01X38391Y39647D01*
G01X38438Y39661D01*
G01X38485Y39676D01*
G01X38531Y39693D01*
G01X38576Y39713D01*
G01X38620Y39734D01*
G01X38664Y39757D01*
G01X38706Y39782D01*
G01X38747Y39808D01*
G01X38787Y39837D01*
G01X38826Y39867D01*
G01X38864Y39898D01*
G01X38900Y39932D01*
G01X38934Y39966D01*
G01X38968Y40002D01*
G01X38999Y40040D01*
G01X39029Y40079D01*
G01X39058Y40119D01*
G01X39084Y40160D01*
G01X39109Y40202D01*
G01X39132Y40246D01*
G01X39153Y40290D01*
G01X39173Y40335D01*
G01X39190Y40381D01*
G01X39205Y40428D01*
G01X39219Y40475D01*
G01X39230Y40523D01*
G01X39239Y40571D01*
G01X39247Y40620D01*
G01X39252Y40668D01*
G01X39255Y40717D01*
G01X39256Y40767D01*
G01X39255Y40816D01*
G01X39252Y40865D01*
G01X39247Y40913D01*
G01X39239Y40962D01*
G01X39230Y41010D01*
G01X39219Y41058D01*
G01X39205Y41105D01*
G01X39190Y41152D01*
G01X39173Y41198D01*
G01X39153Y41243D01*
G01X39132Y41287D01*
G01X39109Y41331D01*
G01X39084Y41373D01*
G01X39058Y41414D01*
G01X39029Y41454D01*
G01X38999Y41493D01*
G01X38968Y41531D01*
G01X38934Y41567D01*
G01X38900Y41601D01*
G01X38864Y41635D01*
G01X38826Y41666D01*
G01X38787Y41696D01*
G01X38747Y41725D01*
G01X38706Y41751D01*
G01X38664Y41776D01*
G01X38620Y41799D01*
G01X38576Y41820D01*
G01X38531Y41840D01*
G01X38485Y41857D01*
G01X38438Y41872D01*
G01X38391Y41886D01*
G01X38343Y41897D01*
G01X38295Y41906D01*
G01X38246Y41914D01*
G01X38198Y41919D01*
G01X38149Y41922D01*
G37*
G36*
G01X6749Y10985D02*
G01X5523Y10985D01*
G01X5523Y10395D01*
G01X6476Y10395D01*
G01X6500Y10396D01*
G01X6523Y10399D01*
G01X6547Y10404D01*
G01X6569Y10411D01*
G01X6591Y10421D01*
G01X6612Y10432D01*
G01X6632Y10444D01*
G01X6651Y10459D01*
G01X6669Y10475D01*
G01X6685Y10492D01*
G01X6699Y10511D01*
G01X6712Y10531D01*
G01X6723Y10552D01*
G01X6732Y10574D01*
G01X6739Y10597D01*
G01X6744Y10620D01*
G01X6747Y10644D01*
G01X6749Y10668D01*
G01X6749Y10985D01*
G37*
G36*
G01X6749Y5905D02*
G01X5523Y5905D01*
G01X5523Y5315D01*
G01X6476Y5315D01*
G01X6500Y5316D01*
G01X6523Y5319D01*
G01X6547Y5324D01*
G01X6569Y5331D01*
G01X6591Y5341D01*
G01X6612Y5352D01*
G01X6632Y5364D01*
G01X6651Y5379D01*
G01X6669Y5395D01*
G01X6685Y5412D01*
G01X6699Y5431D01*
G01X6712Y5451D01*
G01X6723Y5472D01*
G01X6732Y5494D01*
G01X6739Y5517D01*
G01X6744Y5540D01*
G01X6747Y5564D01*
G01X6749Y5588D01*
G01X6749Y5905D01*
G37*
G36*
G01X73978Y17589D02*
G01X72753Y17589D01*
G01X72753Y17271D01*
G01X72754Y17248D01*
G01X72757Y17224D01*
G01X72763Y17201D01*
G01X72770Y17178D01*
G01X72779Y17156D01*
G01X72790Y17135D01*
G01X72803Y17115D01*
G01X72817Y17096D01*
G01X72833Y17079D01*
G01X72851Y17063D01*
G01X72870Y17048D01*
G01X72890Y17035D01*
G01X72911Y17024D01*
G01X72933Y17015D01*
G01X72955Y17008D01*
G01X72979Y17003D01*
G01X73002Y17000D01*
G01X73026Y16999D01*
G01X73978Y16999D01*
G01X73978Y17589D01*
G37*
G36*
G01X73978Y24148D02*
G01X73026Y24148D01*
G01X73002Y24147D01*
G01X72979Y24144D01*
G01X72955Y24139D01*
G01X72933Y24132D01*
G01X72911Y24122D01*
G01X72890Y24111D01*
G01X72870Y24099D01*
G01X72851Y24084D01*
G01X72833Y24068D01*
G01X72817Y24051D01*
G01X72803Y24032D01*
G01X72790Y24012D01*
G01X72779Y23991D01*
G01X72770Y23969D01*
G01X72763Y23946D01*
G01X72757Y23923D01*
G01X72754Y23899D01*
G01X72753Y23875D01*
G01X72753Y23558D01*
G01X73978Y23558D01*
G01X73978Y24148D01*
G37*
G36*
G01X73978Y22669D02*
G01X72753Y22669D01*
G01X72753Y22351D01*
G01X72754Y22328D01*
G01X72757Y22304D01*
G01X72763Y22281D01*
G01X72770Y22258D01*
G01X72779Y22236D01*
G01X72790Y22215D01*
G01X72803Y22195D01*
G01X72817Y22176D01*
G01X72833Y22159D01*
G01X72851Y22143D01*
G01X72870Y22128D01*
G01X72890Y22115D01*
G01X72911Y22104D01*
G01X72933Y22095D01*
G01X72955Y22088D01*
G01X72979Y22083D01*
G01X73002Y22080D01*
G01X73026Y22079D01*
G01X73978Y22079D01*
G01X73978Y22669D01*
G37*
G36*
G01X6476Y12464D02*
G01X5523Y12464D01*
G01X5523Y11874D01*
G01X6749Y11874D01*
G01X6749Y12192D01*
G01X6747Y12215D01*
G01X6744Y12239D01*
G01X6739Y12262D01*
G01X6732Y12285D01*
G01X6723Y12307D01*
G01X6712Y12328D01*
G01X6699Y12348D01*
G01X6685Y12367D01*
G01X6669Y12384D01*
G01X6651Y12400D01*
G01X6632Y12415D01*
G01X6612Y12428D01*
G01X6591Y12439D01*
G01X6569Y12448D01*
G01X6547Y12455D01*
G01X6523Y12460D01*
G01X6500Y12463D01*
G01X6476Y12464D01*
G37*
G36*
G01X73978Y19068D02*
G01X73026Y19068D01*
G01X73002Y19067D01*
G01X72979Y19064D01*
G01X72955Y19059D01*
G01X72933Y19052D01*
G01X72911Y19042D01*
G01X72890Y19031D01*
G01X72870Y19019D01*
G01X72851Y19004D01*
G01X72833Y18988D01*
G01X72817Y18971D01*
G01X72803Y18952D01*
G01X72790Y18932D01*
G01X72779Y18911D01*
G01X72770Y18889D01*
G01X72763Y18866D01*
G01X72757Y18843D01*
G01X72754Y18819D01*
G01X72753Y18795D01*
G01X72753Y18478D01*
G01X73978Y18478D01*
G01X73978Y19068D01*
G37*
G36*
G01X6476Y7384D02*
G01X5523Y7384D01*
G01X5523Y6794D01*
G01X6749Y6794D01*
G01X6749Y7112D01*
G01X6747Y7135D01*
G01X6744Y7159D01*
G01X6739Y7182D01*
G01X6732Y7205D01*
G01X6723Y7227D01*
G01X6712Y7248D01*
G01X6699Y7268D01*
G01X6685Y7287D01*
G01X6669Y7304D01*
G01X6651Y7320D01*
G01X6632Y7335D01*
G01X6612Y7348D01*
G01X6591Y7359D01*
G01X6569Y7368D01*
G01X6547Y7375D01*
G01X6523Y7380D01*
G01X6500Y7383D01*
G01X6476Y7384D01*
G37*
G36*
G01X4828Y21653D02*
G01X3619Y21653D01*
G01X3619Y21079D01*
G01X4572Y21079D01*
G01X4595Y21080D01*
G01X4619Y21083D01*
G01X4642Y21089D01*
G01X4664Y21096D01*
G01X4686Y21106D01*
G01X4707Y21117D01*
G01X4726Y21131D01*
G01X4744Y21146D01*
G01X4761Y21163D01*
G01X4776Y21181D01*
G01X4790Y21200D01*
G01X4801Y21221D01*
G01X4811Y21243D01*
G01X4818Y21265D01*
G01X4824Y21288D01*
G01X4827Y21312D01*
G01X4828Y21336D01*
G01X4828Y21653D01*
G37*
G36*
G01X50863Y4828D02*
G01X50546Y4828D01*
G01X50522Y4827D01*
G01X50498Y4824D01*
G01X50475Y4818D01*
G01X50453Y4811D01*
G01X50431Y4801D01*
G01X50410Y4790D01*
G01X50391Y4776D01*
G01X50373Y4761D01*
G01X50356Y4744D01*
G01X50341Y4726D01*
G01X50327Y4707D01*
G01X50316Y4686D01*
G01X50306Y4664D01*
G01X50299Y4642D01*
G01X50293Y4619D01*
G01X50290Y4595D01*
G01X50289Y4572D01*
G01X50289Y3619D01*
G01X50863Y3619D01*
G01X50863Y4828D01*
G37*
G36*
G01X52070Y4828D02*
G01X51752Y4828D01*
G01X51752Y3619D01*
G01X52326Y3619D01*
G01X52326Y4572D01*
G01X52325Y4595D01*
G01X52322Y4619D01*
G01X52316Y4642D01*
G01X52309Y4664D01*
G01X52299Y4686D01*
G01X52288Y4707D01*
G01X52274Y4726D01*
G01X52259Y4744D01*
G01X52242Y4761D01*
G01X52224Y4776D01*
G01X52205Y4790D01*
G01X52184Y4801D01*
G01X52162Y4811D01*
G01X52140Y4818D01*
G01X52117Y4824D01*
G01X52093Y4827D01*
G01X52070Y4828D01*
G37*
G36*
G01X4572Y23116D02*
G01X3619Y23116D01*
G01X3619Y22542D01*
G01X4828Y22542D01*
G01X4828Y22860D01*
G01X4827Y22883D01*
G01X4824Y22907D01*
G01X4818Y22930D01*
G01X4811Y22952D01*
G01X4801Y22974D01*
G01X4790Y22995D01*
G01X4776Y23014D01*
G01X4761Y23032D01*
G01X4744Y23049D01*
G01X4726Y23064D01*
G01X4707Y23078D01*
G01X4686Y23089D01*
G01X4664Y23099D01*
G01X4642Y23106D01*
G01X4619Y23112D01*
G01X4595Y23115D01*
G01X4572Y23116D01*
G37*
G36*
G01X53107Y44512D02*
G01X53055Y44540D01*
G01X53055Y43888D01*
G01X53707Y43888D01*
G01X53679Y43940D01*
G01X53649Y43990D01*
G01X53617Y44039D01*
G01X53584Y44087D01*
G01X53548Y44134D01*
G01X53511Y44179D01*
G01X53472Y44223D01*
G01X53432Y44265D01*
G01X53390Y44306D01*
G01X53346Y44345D01*
G01X53301Y44382D01*
G01X53254Y44417D01*
G01X53206Y44451D01*
G01X53157Y44482D01*
G01X53107Y44512D01*
G37*
G36*
G01X58489Y42511D02*
G01X57838Y42511D01*
G01X57838Y41860D01*
G01X57889Y41888D01*
G01X57940Y41917D01*
G01X57989Y41949D01*
G01X58037Y41982D01*
G01X58084Y42018D01*
G01X58129Y42055D01*
G01X58172Y42094D01*
G01X58215Y42135D01*
G01X58255Y42177D01*
G01X58294Y42220D01*
G01X58331Y42266D01*
G01X58367Y42312D01*
G01X58400Y42360D01*
G01X58432Y42409D01*
G01X58462Y42460D01*
G01X58489Y42511D01*
G37*
G36*
G01X57889Y44512D02*
G01X57838Y44540D01*
G01X57838Y43888D01*
G01X58489Y43888D01*
G01X58462Y43940D01*
G01X58432Y43990D01*
G01X58400Y44039D01*
G01X58367Y44087D01*
G01X58331Y44134D01*
G01X58294Y44179D01*
G01X58255Y44223D01*
G01X58215Y44265D01*
G01X58172Y44306D01*
G01X58129Y44345D01*
G01X58084Y44382D01*
G01X58037Y44417D01*
G01X57989Y44451D01*
G01X57940Y44482D01*
G01X57889Y44512D01*
G37*
G36*
G01X53707Y42511D02*
G01X53055Y42511D01*
G01X53055Y41860D01*
G01X53107Y41888D01*
G01X53157Y41917D01*
G01X53206Y41949D01*
G01X53254Y41982D01*
G01X53301Y42018D01*
G01X53346Y42055D01*
G01X53390Y42094D01*
G01X53432Y42135D01*
G01X53472Y42177D01*
G01X53511Y42220D01*
G01X53548Y42266D01*
G01X53584Y42312D01*
G01X53617Y42360D01*
G01X53649Y42409D01*
G01X53679Y42460D01*
G01X53707Y42511D01*
G37*
G36*
G01X56461Y43888D02*
G01X56461Y44540D01*
G01X56409Y44512D01*
G01X56359Y44482D01*
G01X56310Y44451D01*
G01X56262Y44417D01*
G01X56215Y44382D01*
G01X56170Y44345D01*
G01X56126Y44306D01*
G01X56084Y44265D01*
G01X56043Y44223D01*
G01X56005Y44179D01*
G01X55967Y44134D01*
G01X55932Y44087D01*
G01X55898Y44039D01*
G01X55867Y43990D01*
G01X55837Y43940D01*
G01X55809Y43888D01*
G01X56461Y43888D01*
G37*
G36*
G01X51678Y42511D02*
G01X51026Y42511D01*
G01X51054Y42460D01*
G01X51084Y42409D01*
G01X51116Y42360D01*
G01X51149Y42312D01*
G01X51185Y42266D01*
G01X51222Y42220D01*
G01X51261Y42177D01*
G01X51301Y42135D01*
G01X51343Y42094D01*
G01X51387Y42055D01*
G01X51432Y42018D01*
G01X51479Y41982D01*
G01X51527Y41949D01*
G01X51576Y41917D01*
G01X51626Y41888D01*
G01X51678Y41860D01*
G01X51678Y42511D01*
G37*
G36*
G01X51678Y43888D02*
G01X51678Y44540D01*
G01X51626Y44512D01*
G01X51576Y44482D01*
G01X51527Y44451D01*
G01X51479Y44417D01*
G01X51432Y44382D01*
G01X51387Y44345D01*
G01X51343Y44306D01*
G01X51301Y44265D01*
G01X51261Y44223D01*
G01X51222Y44179D01*
G01X51185Y44134D01*
G01X51149Y44087D01*
G01X51116Y44039D01*
G01X51084Y43990D01*
G01X51054Y43940D01*
G01X51026Y43888D01*
G01X51678Y43888D01*
G37*
G36*
G01X56461Y42511D02*
G01X55809Y42511D01*
G01X55837Y42460D01*
G01X55867Y42409D01*
G01X55898Y42360D01*
G01X55932Y42312D01*
G01X55967Y42266D01*
G01X56005Y42220D01*
G01X56043Y42177D01*
G01X56084Y42135D01*
G01X56126Y42094D01*
G01X56170Y42055D01*
G01X56215Y42018D01*
G01X56262Y41982D01*
G01X56310Y41949D01*
G01X56359Y41917D01*
G01X56409Y41888D01*
G01X56461Y41860D01*
G01X56461Y42511D01*
G37*
G36*
G01X40126Y40253D02*
G01X39603Y40253D01*
G01X39626Y40209D01*
G01X39652Y40165D01*
G01X39679Y40123D01*
G01X39707Y40082D01*
G01X39738Y40042D01*
G01X39770Y40004D01*
G01X39804Y39967D01*
G01X39840Y39931D01*
G01X39877Y39897D01*
G01X39915Y39865D01*
G01X39955Y39834D01*
G01X39996Y39806D01*
G01X40038Y39779D01*
G01X40082Y39753D01*
G01X40126Y39730D01*
G01X40126Y40253D01*
G37*
G36*
G01X40126Y41280D02*
G01X40126Y41803D01*
G01X40082Y41780D01*
G01X40038Y41754D01*
G01X39996Y41727D01*
G01X39955Y41699D01*
G01X39915Y41668D01*
G01X39877Y41636D01*
G01X39840Y41602D01*
G01X39804Y41566D01*
G01X39770Y41529D01*
G01X39738Y41491D01*
G01X39707Y41451D01*
G01X39679Y41410D01*
G01X39652Y41368D01*
G01X39626Y41324D01*
G01X39603Y41280D01*
G01X40126Y41280D01*
G37*
G36*
G01X41676Y40253D02*
G01X41153Y40253D01*
G01X41153Y39730D01*
G01X41197Y39753D01*
G01X41241Y39779D01*
G01X41283Y39806D01*
G01X41324Y39834D01*
G01X41364Y39865D01*
G01X41402Y39897D01*
G01X41439Y39931D01*
G01X41475Y39967D01*
G01X41509Y40004D01*
G01X41541Y40042D01*
G01X41572Y40082D01*
G01X41600Y40123D01*
G01X41627Y40165D01*
G01X41653Y40209D01*
G01X41676Y40253D01*
G37*
G36*
G01X41197Y41780D02*
G01X41153Y41803D01*
G01X41153Y41280D01*
G01X41676Y41280D01*
G01X41653Y41324D01*
G01X41627Y41368D01*
G01X41600Y41410D01*
G01X41572Y41451D01*
G01X41541Y41491D01*
G01X41509Y41529D01*
G01X41475Y41566D01*
G01X41439Y41602D01*
G01X41402Y41636D01*
G01X41364Y41668D01*
G01X41324Y41699D01*
G01X41283Y41727D01*
G01X41241Y41754D01*
G01X41197Y41780D01*
G37*
G36*
G01X70424Y38704D02*
G01X70381Y38727D01*
G01X70381Y38222D01*
G01X70886Y38222D01*
G01X70863Y38265D01*
G01X70839Y38307D01*
G01X70813Y38348D01*
G01X70785Y38388D01*
G01X70756Y38426D01*
G01X70725Y38463D01*
G01X70692Y38499D01*
G01X70658Y38533D01*
G01X70622Y38566D01*
G01X70585Y38597D01*
G01X70547Y38626D01*
G01X70507Y38654D01*
G01X70466Y38680D01*
G01X70424Y38704D01*
G37*
G36*
G01X70886Y37245D02*
G01X70381Y37245D01*
G01X70381Y36741D01*
G01X70424Y36763D01*
G01X70466Y36787D01*
G01X70507Y36813D01*
G01X70547Y36841D01*
G01X70585Y36871D01*
G01X70622Y36902D01*
G01X70658Y36934D01*
G01X70692Y36969D01*
G01X70725Y37004D01*
G01X70756Y37041D01*
G01X70785Y37080D01*
G01X70813Y37119D01*
G01X70839Y37160D01*
G01X70863Y37202D01*
G01X70886Y37245D01*
G37*

%LPD*%
G54D18*
G01X4444Y11430D03*
G01X4444Y6350D03*
G01X75058Y18034D03*
G01X75058Y23114D03*
G36*
G01X50546Y4572D02*
G01X52070Y4572D01*
G01X52070Y508D01*
G01X50546Y508D01*
G01X50546Y4572D01*
G37*
G01X2540Y22098D03*
G54D33*
G01X72603Y42504D03*
G01X72603Y30464D03*
G54D34*
G01X69893Y37734D03*
G01X69893Y35232D03*
G54D35*
G01X67899Y37736D03*
G54D34*
G01X67891Y35234D03*
G54D36*
G01X50164Y30485D03*
G01X54863Y30485D03*
G01X59562Y30485D03*
G54D37*
G01X52366Y43200D03*
G01X57149Y43200D03*
G54D38*
G01X40640Y40767D03*
G01X38100Y40767D03*
G54D16*
G01X49022Y8382D03*
G01X54102Y8382D03*
G01X54102Y10922D03*
G01X49022Y10922D03*
G01X49022Y13462D03*
G01X54102Y13462D03*
G01X54102Y16002D03*
G01X49022Y16002D03*
G01X46482Y13462D03*
G01X46482Y10922D03*
G01X46482Y8382D03*
G01X46482Y5842D03*
G01X49022Y5842D03*
G01X43942Y3302D03*
G01X41402Y3302D03*
G01X38862Y5842D03*
G01X41402Y5842D03*
G01X43942Y5842D03*
G01X41402Y8382D03*
G01X43942Y8382D03*
G01X43942Y10922D03*
G01X41402Y10922D03*
G01X40259Y7112D03*
G01X43942Y13462D03*
G54D17*
G01X39751Y17780D03*
G01X39751Y16510D03*
G01X39751Y15240D03*
G01X39751Y13970D03*
G01X39751Y12700D03*
G01X39751Y11430D03*
G01X39751Y10160D03*
G01X36957Y17780D03*
G54D16*
G01X13462Y3302D03*
G01X10922Y3302D03*
G01X8382Y5842D03*
G01X5842Y3302D03*
G01X16002Y3302D03*
G01X18542Y3302D03*
G01X21082Y3302D03*
G01X23622Y3302D03*
G01X26162Y3302D03*
G54D17*
G01X65024Y11430D03*
G01X65024Y12700D03*
G01X65024Y13970D03*
G01X65024Y15240D03*
G01X65024Y16510D03*
G01X65024Y17780D03*
G01X65024Y10160D03*
G01X65024Y8890D03*
G01X65024Y7620D03*
G01X65024Y6350D03*
G01X67818Y8890D03*
G01X67818Y10160D03*
G01X67818Y11430D03*
G01X67818Y12700D03*
G01X67818Y13970D03*
G01X67818Y7620D03*
G01X67818Y6350D03*
G01X59055Y12700D03*
G01X59055Y13970D03*
G01X59055Y11430D03*
G01X56261Y12700D03*
G01X56261Y13970D03*
G01X56261Y11430D03*
G01X59055Y10160D03*
G01X59055Y8890D03*
G01X56261Y10160D03*
G01X56261Y8890D03*
G01X56261Y7620D03*
G01X59055Y7620D03*
G01X59055Y6350D03*
G01X56261Y6350D03*
G54D16*
G01X60960Y13208D03*
G01X63500Y10668D03*
G54D17*
G01X30734Y10287D03*
G01X32004Y10287D03*
G01X33274Y10287D03*
G01X34417Y10287D03*
G01X35560Y10287D03*
G01X42672Y21971D03*
G01X43688Y21971D03*
G01X44958Y21971D03*
G01X46228Y21971D03*
G01X47498Y21971D03*
G01X48768Y21971D03*
G01X50038Y21971D03*
G01X51308Y21971D03*
G01X52578Y21971D03*
G01X53848Y21971D03*
G54D16*
G01X28702Y3302D03*
G01X31242Y3302D03*
G01X33782Y3302D03*
G01X36322Y3302D03*
G01X38862Y3302D03*
G01X36322Y5334D03*
G01X41402Y13462D03*
G01X41402Y16002D03*
G01X43942Y16002D03*
G01X46482Y16002D03*
G54D17*
G01X34036Y7493D03*
G01X34036Y6223D03*
G01X34036Y4953D03*
G01X32766Y4953D03*
G01X30734Y4953D03*
G01X29464Y7493D03*
G01X29464Y6223D03*
G01X29464Y4953D03*
G01X36830Y7493D03*
G01X36576Y10287D03*
G01X42672Y19177D03*
G01X47752Y19177D03*
G01X36957Y14859D03*
G01X34417Y11430D03*
G01X34417Y13716D03*
G01X35687Y14859D03*
G01X34417Y14859D03*
G54D16*
G01X39624Y23368D03*
G01X40894Y23368D03*
G54D17*
G01X49022Y19177D03*
G01X50292Y19177D03*
G01X51562Y19177D03*
G01X52832Y19177D03*
G01X54102Y19177D03*
G01X55118Y21971D03*
G01X55372Y19177D03*
G01X56261Y16510D03*
G01X56261Y17780D03*
G01X56261Y15240D03*
G01X56261Y18796D03*
G01X61214Y2667D03*
G01X62484Y2667D03*
G01X63754Y2667D03*
G01X59944Y2667D03*
G01X58547Y2794D03*
G01X65024Y19177D03*
G01X68834Y21971D03*
G01X68834Y19177D03*
G01X65405Y20447D03*
G01X66294Y21336D03*
G01X67564Y21971D03*
G01X67183Y3937D03*
G01X66167Y3048D03*
G01X65024Y2667D03*
G01X67691Y5080D03*
G01X56388Y4953D03*
G01X57277Y3556D03*
G54D16*
G01X63500Y13208D03*
G01X60960Y10668D03*
G01X63500Y18288D03*
G01X63500Y20828D03*
G01X60833Y20828D03*
G01X61214Y18034D03*
G01X61214Y15494D03*
G54D17*
G01X56388Y21971D03*
G01X59055Y19431D03*
G01X57658Y21463D03*
G01X58547Y20574D03*
G54D16*
G01X60960Y7620D03*
G01X63500Y7620D03*
G54D17*
G01X38227Y7874D03*
G01X39243Y8890D03*
G01X34290Y27813D03*
G01X37338Y27686D03*
G54D16*
G01X41402Y18288D03*
G01X49022Y18288D03*
G01X51562Y18288D03*
G01X54102Y18288D03*
G01X55880Y2921D03*
G01X68580Y5842D03*
G01X68707Y8382D03*
G01X68834Y10922D03*
G01X71120Y13462D03*
G01X71120Y10922D03*
G01X71120Y8382D03*
G01X71120Y5842D03*
G01X73660Y5842D03*
G01X76200Y5842D03*
G01X73660Y8382D03*
G01X73660Y10922D03*
G01X73660Y13462D03*
G01X76200Y13462D03*
G01X76200Y15621D03*
G01X73660Y15621D03*
G01X71120Y16002D03*
G01X35179Y5334D03*
G01X61214Y16764D03*
G01X69977Y16764D03*
G01X69977Y15494D03*
G01X62230Y7620D03*
G01X35814Y17780D03*
G01X34798Y16764D03*
G54D17*
G01X60071Y13970D03*
G54D16*
G01X39624Y26924D03*
G01X34544Y19050D03*
G01X3302Y3302D03*
G54D17*
G01X69977Y21971D03*
G01X70104Y19177D03*
G54D16*
G01X42164Y26924D03*
G01X762Y13208D03*
G01X762Y15748D03*
G01X762Y3302D03*
G01X762Y762D03*
G01X3302Y762D03*
G01X5842Y762D03*
G01X8382Y762D03*
G01X10922Y762D03*
G01X13462Y762D03*
G01X16002Y762D03*
G01X18542Y762D03*
G01X21082Y762D03*
G01X23622Y762D03*
G01X26162Y762D03*
G01X28702Y762D03*
G01X31242Y762D03*
G01X33782Y762D03*
G01X36322Y762D03*
G01X38862Y762D03*
G01X41402Y762D03*
G01X43942Y762D03*
G01X46482Y762D03*
G01X49022Y762D03*
G01X55880Y762D03*
G01X58420Y762D03*
G01X60960Y762D03*
G01X66040Y762D03*
G01X68580Y762D03*
G01X63500Y762D03*
G01X73660Y762D03*
G01X76200Y762D03*
G01X78740Y3302D03*
G01X71120Y762D03*
G01X76200Y25908D03*
G01X78740Y13462D03*
G01X78740Y16002D03*
G01X78740Y5842D03*
G01X71120Y18288D03*
G54D17*
G01X72517Y16637D03*
G01X73787Y16637D03*
G01X76327Y16637D03*
G01X72517Y18034D03*
G01X72517Y19177D03*
G01X72517Y21971D03*
G01X72517Y23114D03*
G01X72517Y24511D03*
G01X73787Y24511D03*
G01X76327Y24511D03*
G01X71247Y21971D03*
G01X71247Y19177D03*
G54D16*
G01X46482Y3302D03*
G01X49022Y3175D03*
G01X51562Y16002D03*
G01X51562Y13462D03*
G01X51562Y10922D03*
G01X51562Y8382D03*
G01X51562Y5842D03*
G01X54102Y5842D03*
G01X53340Y2921D03*
G01X53340Y762D03*
G01X69977Y18034D03*
G01X78740Y25908D03*
G01X71120Y25908D03*
G01X73660Y25908D03*
G01X66040Y25908D03*
G01X68580Y25908D03*
G01X60960Y25908D03*
G01X63500Y25908D03*
G01X55880Y25908D03*
G01X58420Y25908D03*
G01X43180Y25908D03*
G01X58420Y23368D03*
G01X60833Y23368D03*
G01X63500Y23368D03*
G01X66040Y23368D03*
G01X68580Y23368D03*
G01X71120Y23368D03*
G01X63500Y15748D03*
G01X55880Y23368D03*
G01X53340Y23368D03*
G01X53340Y25908D03*
G01X50800Y23368D03*
G01X48260Y23368D03*
G01X45720Y23368D03*
G01X43180Y23368D03*
G01X59690Y1905D03*
G01X62230Y1905D03*
G01X64770Y1905D03*
G01X67310Y1905D03*
G54D17*
G01X75057Y24511D03*
G01X75057Y16637D03*
G54D16*
G01X34798Y15748D03*
G01X38354Y23368D03*
G01X37084Y23368D03*
G01X35814Y23368D03*
G01X76200Y3302D03*
G01X73660Y3302D03*
G01X71120Y3302D03*
G01X68580Y3302D03*
G01X78740Y762D03*
G01X45212Y17145D03*
G01X43942Y17145D03*
G01X46482Y17145D03*
G01X57150Y1905D03*
G54D17*
G01X26543Y7493D03*
G01X26543Y6223D03*
G01X29464Y10287D03*
G01X28194Y10287D03*
G01X26924Y10287D03*
G01X25654Y10287D03*
G01X24384Y10287D03*
G01X23114Y10287D03*
G01X21844Y10287D03*
G01X20574Y10287D03*
G01X19304Y10287D03*
G01X18034Y10287D03*
G01X16764Y10287D03*
G01X15494Y10287D03*
G01X14224Y10287D03*
G01X12954Y10287D03*
G01X11684Y10287D03*
G01X10414Y10287D03*
G01X9144Y10287D03*
G01X8001Y10287D03*
G01X9144Y7493D03*
G01X10414Y7493D03*
G01X11684Y7493D03*
G01X12954Y7493D03*
G01X14224Y7493D03*
G01X15494Y7493D03*
G01X16764Y7493D03*
G01X18034Y7493D03*
G01X19177Y7493D03*
G01X21971Y7493D03*
G01X21971Y6223D03*
G54D16*
G01X8382Y3302D03*
G01X10922Y5842D03*
G01X13462Y5842D03*
G01X16002Y5842D03*
G01X18542Y5842D03*
G01X21082Y5334D03*
G54D17*
G01X21971Y4953D03*
G01X23241Y4953D03*
G01X25273Y4953D03*
G01X26543Y4953D03*
G54D16*
G01X27432Y5461D03*
G01X28575Y5461D03*
G01X19939Y5334D03*
G54D17*
G01X6985Y10287D03*
G01X6985Y11430D03*
G01X6985Y12827D03*
G01X5715Y12827D03*
G01X4445Y12827D03*
G01X3175Y12827D03*
G01X3175Y4953D03*
G01X4445Y4953D03*
G01X5715Y4953D03*
G01X6985Y4953D03*
G01X6985Y6350D03*
G01X6985Y7493D03*
G01X8001Y7493D03*
G54D16*
G01X762Y18288D03*
G01X762Y20574D03*
G01X10922Y18288D03*
G01X3302Y18288D03*
G01X3302Y15748D03*
G01X5842Y15748D03*
G01X5842Y18288D03*
G01X13462Y18288D03*
G01X8382Y18288D03*
G01X8382Y15748D03*
G01X10922Y20828D03*
G01X5842Y20828D03*
G01X16002Y20828D03*
G01X8382Y20828D03*
G01X13462Y20828D03*
G01X16002Y18288D03*
G01X3302Y13843D03*
G01X5842Y13843D03*
G01X10922Y13208D03*
G01X8382Y13208D03*
G01X13462Y13208D03*
G01X23622Y13208D03*
G01X16002Y13208D03*
G01X18542Y13208D03*
G01X21082Y13208D03*
G01X23622Y20828D03*
G01X23622Y23368D03*
G01X18542Y20828D03*
G01X18542Y23368D03*
G01X26162Y23368D03*
G01X21082Y20828D03*
G01X26162Y20828D03*
G01X8382Y11176D03*
G01X10922Y11176D03*
G01X23622Y11176D03*
G01X16002Y11176D03*
G01X18542Y11176D03*
G01X21082Y11176D03*
G01X26162Y11176D03*
G01X31242Y18288D03*
G01X31242Y15748D03*
G01X28702Y20828D03*
G01X28702Y23368D03*
G01X31242Y23368D03*
G01X31242Y20828D03*
G01X31242Y13208D03*
G01X28702Y11176D03*
G01X31242Y11176D03*
G01X33782Y23368D03*
G01X33782Y18288D03*
G01X33782Y15748D03*
G01X33782Y20828D03*
G01X33528Y13208D03*
G01X33528Y11176D03*
G01X21082Y23368D03*
G01X33782Y25908D03*
G01X3302Y20574D03*
G01X5842Y23368D03*
G01X8382Y23368D03*
G01X3302Y23622D03*
G01X13462Y23368D03*
G01X16002Y23368D03*
G01X10795Y23368D03*
G01X76200Y10922D03*
G01X76200Y8382D03*
G01X78740Y8382D03*
G01X78740Y10922D03*
G01X18542Y18288D03*
G01X21082Y18288D03*
G01X23622Y18288D03*
G01X26162Y18288D03*
G01X28702Y18288D03*
G01X26162Y13208D03*
G01X28702Y13208D03*
G01X23622Y15748D03*
G01X26162Y15748D03*
G01X28702Y15748D03*
G01X19939Y14478D03*
G01X22479Y14478D03*
G01X762Y41148D03*
G01X762Y46228D03*
G01X47625Y30988D03*
G01X45720Y28448D03*
G01X45720Y30988D03*
G01X45720Y33528D03*
G01X45720Y36068D03*
G01X76200Y43688D03*
G01X76200Y41148D03*
G01X76200Y33528D03*
G01X76200Y30988D03*
G01X76200Y28448D03*
G01X71120Y27559D03*
G01X73660Y27559D03*
G01X68580Y30988D03*
G01X73660Y33528D03*
G01X71501Y33528D03*
G01X73660Y36068D03*
G01X76200Y36068D03*
G01X73660Y38608D03*
G01X76200Y38608D03*
G01X61595Y42545D03*
G01X61976Y44323D03*
G01X64516Y44323D03*
G01X67056Y43688D03*
G01X69596Y43688D03*
G01X69596Y41148D03*
G01X67056Y41148D03*
G01X71501Y36068D03*
G01X71501Y38608D03*
G01X66040Y29210D03*
G01X68326Y39751D03*
G01X70231Y32131D03*
G01X46482Y43688D03*
G01X66040Y30988D03*
G01X63500Y27559D03*
G01X63500Y30988D03*
G01X63246Y33528D03*
G01X46482Y41529D03*
G01X66040Y27559D03*
G01X60960Y27559D03*
G01X58420Y27559D03*
G01X55880Y27559D03*
G01X53340Y27559D03*
G01X50800Y27559D03*
G01X48260Y27559D03*
G01X63500Y29210D03*
G01X49022Y43688D03*
G01X49022Y41148D03*
G01X48260Y33528D03*
G01X48260Y36068D03*
G01X48260Y38354D03*
G01X51562Y41148D03*
G01X54102Y41148D03*
G01X56642Y41148D03*
G01X54864Y43688D03*
G01X59182Y41148D03*
G01X59182Y43688D03*
G01X51562Y38608D03*
G01X54102Y38608D03*
G01X56642Y38608D03*
G01X51562Y36068D03*
G01X51562Y33528D03*
G01X54102Y36068D03*
G01X53721Y33528D03*
G01X59182Y38862D03*
G01X58801Y33528D03*
G01X58801Y36068D03*
G01X61341Y36068D03*
G01X61341Y33528D03*
G01X52451Y31623D03*
G01X57277Y31623D03*
G01X52451Y29210D03*
G01X57277Y29210D03*
G01X56261Y33528D03*
G01X65786Y39751D03*
G01X63246Y39751D03*
G01X61722Y38862D03*
G01X61722Y41148D03*
G01X62230Y29210D03*
G01X76200Y28448D03*
G01X3302Y46228D03*
G54D17*
G01X34544Y30734D03*
G01X33274Y30734D03*
G01X32004Y30734D03*
G01X30734Y30734D03*
G01X29464Y30734D03*
G01X28194Y30734D03*
G01X26924Y30734D03*
G01X25654Y30734D03*
G01X24384Y30734D03*
G01X23114Y30734D03*
G01X21844Y30734D03*
G01X20574Y30734D03*
G01X19304Y30734D03*
G01X18034Y30734D03*
G01X16764Y30734D03*
G01X15494Y30734D03*
G01X14224Y30734D03*
G01X13081Y30734D03*
G01X30734Y27940D03*
G01X32004Y27940D03*
G01X33274Y27940D03*
G01X29464Y27940D03*
G01X28194Y27940D03*
G01X26924Y27940D03*
G01X25654Y27940D03*
G01X18034Y27940D03*
G01X16764Y27940D03*
G01X15494Y27940D03*
G01X14224Y27940D03*
G54D16*
G01X21082Y25908D03*
G01X23622Y25908D03*
G01X26162Y25908D03*
G01X28702Y25908D03*
G01X31242Y25908D03*
G01X18542Y25908D03*
G01X16002Y25908D03*
G01X13462Y25908D03*
G01X19812Y25908D03*
G01X22352Y25908D03*
G01X24892Y25908D03*
G01X12192Y25908D03*
G01X762Y43688D03*
G01X762Y38608D03*
G01X762Y36068D03*
G01X762Y33528D03*
G01X762Y30988D03*
G01X762Y28448D03*
G01X762Y25908D03*
G01X762Y23622D03*
G01X3302Y25908D03*
G01X5842Y25908D03*
G01X8382Y25908D03*
G01X10795Y25908D03*
G01X3302Y43688D03*
G54D17*
G01X11430Y27940D03*
G01X35687Y30353D03*
G01X36576Y29591D03*
G01X37084Y28702D03*
G54D16*
G01X5842Y46228D03*
G01X8382Y46228D03*
G01X10922Y46228D03*
G01X13462Y46228D03*
G01X16002Y46228D03*
G01X18542Y46228D03*
G01X21082Y46228D03*
G01X23622Y46228D03*
G01X26162Y46228D03*
G01X28702Y46228D03*
G01X31242Y46228D03*
G01X33782Y46228D03*
G01X36322Y46228D03*
G01X38862Y46228D03*
G01X41402Y46228D03*
G01X43942Y46228D03*
G01X5842Y43688D03*
G01X8382Y43688D03*
G01X10922Y43688D03*
G01X13462Y43688D03*
G01X50800Y25908D03*
G01X48260Y25908D03*
G01X45720Y25908D03*
G01X16002Y43688D03*
G01X43942Y43688D03*
G01X43942Y41529D03*
G01X43180Y28448D03*
G01X43180Y30988D03*
G01X43180Y33528D03*
G01X43180Y36068D03*
G01X40640Y28448D03*
G01X38100Y28448D03*
G01X41402Y43688D03*
G01X18542Y43688D03*
G01X21082Y43688D03*
G01X43180Y38354D03*
G01X23622Y43688D03*
G01X26162Y43688D03*
G01X28702Y43688D03*
G01X31242Y43688D03*
G01X33782Y43688D03*
G01X36830Y43688D03*
G01X38862Y43688D03*
G54D17*
G01X23688Y38608D03*
G54D16*
G01X40386Y39116D03*
G54D17*
G01X24257Y4953D03*
G01X31750Y4953D03*
G01X34417Y12573D03*
G01X60071Y19431D03*
G01X42672Y18161D03*
G01X47752Y18161D03*
G01X36830Y6223D03*
G01X14224Y26924D03*
G01X11430Y26924D03*
G01X18034Y26924D03*
G01X25654Y26924D03*
G54D16*
G01X68834Y13462D03*
G01X7112Y43688D03*
G01X5842Y42418D03*
G01X5842Y41148D03*
G01X4572Y29718D03*
G01X3302Y30988D03*
G01X3302Y33528D03*
G01X4572Y37338D03*
G01X3302Y38608D03*
G01X5715Y38608D03*
G01X3302Y41148D03*
G01X40767Y30988D03*
G01X40640Y33528D03*
G01X38227Y33528D03*
G01X38100Y30988D03*
G01X33147Y31877D03*
G01X35687Y31369D03*
G54D17*
G01X10287Y27940D03*
G01X23688Y34290D03*
G54D16*
G01X5842Y28448D03*
G01X8382Y28448D03*
G01X21082Y41148D03*
G01X23622Y41148D03*
G01X26162Y41148D03*
G01X28702Y41148D03*
G01X31242Y41021D03*
G01X40640Y36068D03*
G01X38227Y36068D03*
G01X35687Y33528D03*
G01X33147Y33528D03*
G01X7239Y33274D03*
G01X7239Y35306D03*
G01X9779Y35306D03*
G54D17*
G01X11938Y30734D03*
G01X9398Y28702D03*
G01X9398Y29972D03*
G54D16*
G01X38354Y38608D03*
G54D17*
G01X6604Y29337D03*
G54D16*
G01X12319Y32131D03*
G01X18415Y41148D03*
G01X17145Y41148D03*
G01X24892Y41148D03*
G01X27432Y41148D03*
G01X14859Y32131D03*
G01X17399Y31877D03*
G01X19939Y32131D03*
G01X22479Y32131D03*
G01X21336Y36322D03*
G01X19812Y36322D03*
G01X22860Y36322D03*
G01X25019Y31877D03*
G01X35687Y36068D03*
G01X33147Y36068D03*
G01X30607Y36068D03*
G01X30607Y33528D03*
G01X30607Y31877D03*
G01X28194Y31877D03*
G01X12319Y35306D03*
G01X35687Y38608D03*
G01X31242Y38608D03*
G01X28448Y36068D03*
G01X28194Y33528D03*
G01X15367Y34290D03*
G54D17*
G01X26416Y35306D03*
G01X17719Y36370D03*
G01X24957Y36370D03*
G54D16*
G01X28829Y38608D03*
G01X3302Y36068D03*
G01X3302Y28448D03*
G54D17*
G01X6985Y32131D03*
G01X16510Y38608D03*
G01X45466Y41529D03*
G01X45466Y37973D03*
M00*
M02*
