;Layer: Drill PTH
;EasyEDA v6.4.7, 2020-09-29T11:03:38+03:00
;9486de1159244eee9c784153b90ba1e7,e225996ff9fb4a0db64c6d6541834e49,10
;Gerber Generator version 0.2
M48
METRIC,LZ,000.000
;Holesize 1 = 0.320 METRIC
T01C0.320
;Holesize 2 = 0.520 METRIC
T02C0.520
;Holesize 3 = 0.915 METRIC
T03C0.915
;Holesize 4 = 0.920 METRIC
T04C0.920
;Holesize 5 = 1.200 METRIC
T05C1.200
;Holesize 6 = 1.901 METRIC
T06C1.901
;Holesize 7 = 2.301 METRIC
T07C2.301
%
G05
G90
T01
X+039751Y+017780
X+039751Y+016510
X+039751Y+015240
X+039751Y+013970
X+039751Y+012700
X+039751Y+011430
X+039751Y+010160
X+036957Y+017780
X+065024Y+011430
X+065024Y+012700
X+065024Y+013970
X+065024Y+015240
X+065024Y+016510
X+065024Y+017780
X+065024Y+010160
X+065024Y+008890
X+065024Y+007620
X+065024Y+006350
X+067818Y+008890
X+067818Y+010160
X+067818Y+011430
X+067818Y+012700
X+067818Y+013970
X+067818Y+007620
X+067818Y+006350
X+059055Y+012700
X+059055Y+013970
X+059055Y+011430
X+056261Y+012700
X+056261Y+013970
X+056261Y+011430
X+059055Y+010160
X+059055Y+008890
X+056261Y+010160
X+056261Y+008890
X+056261Y+007620
X+059055Y+007620
X+059055Y+006350
X+056261Y+006350
X+030734Y+010287
X+032004Y+010287
X+033274Y+010287
X+034417Y+010287
X+035560Y+010287
X+042672Y+021971
X+043688Y+021971
X+044958Y+021971
X+046228Y+021971
X+047498Y+021971
X+048768Y+021971
X+050038Y+021971
X+051308Y+021971
X+052578Y+021971
X+053848Y+021971
X+034036Y+007493
X+034036Y+006223
X+034036Y+004953
X+032766Y+004953
X+030734Y+004953
X+029464Y+007493
X+029464Y+006223
X+029464Y+004953
X+036830Y+007493
X+036576Y+010287
X+042672Y+019177
X+047752Y+019177
X+036957Y+014859
X+034417Y+011430
X+034417Y+013716
X+035687Y+014859
X+034417Y+014859
X+049022Y+019177
X+050292Y+019177
X+051562Y+019177
X+052832Y+019177
X+054102Y+019177
X+055118Y+021971
X+055372Y+019177
X+056261Y+016510
X+056261Y+017780
X+056261Y+015240
X+056261Y+018796
X+061214Y+002667
X+062484Y+002667
X+063754Y+002667
X+059944Y+002667
X+058547Y+002794
X+065024Y+019177
X+068834Y+021971
X+068834Y+019177
X+065405Y+020447
X+066294Y+021336
X+067564Y+021971
X+067183Y+003937
X+066167Y+003048
X+065024Y+002667
X+067691Y+005080
X+056388Y+004953
X+057277Y+003556
X+056388Y+021971
X+059055Y+019431
X+057658Y+021463
X+058547Y+020574
X+038227Y+007874
X+039243Y+008890
X+034290Y+027813
X+037338Y+027686
X+060071Y+013970
X+069977Y+021971
X+070104Y+019177
X+072517Y+016637
X+073787Y+016637
X+076327Y+016637
X+072517Y+018034
X+072517Y+019177
X+072517Y+021971
X+072517Y+023114
X+072517Y+024511
X+073787Y+024511
X+076327Y+024511
X+071247Y+021971
X+071247Y+019177
X+075057Y+024511
X+075057Y+016637
X+026543Y+007493
X+026543Y+006223
X+029464Y+010287
X+028194Y+010287
X+026924Y+010287
X+025654Y+010287
X+024384Y+010287
X+023114Y+010287
X+021844Y+010287
X+020574Y+010287
X+019304Y+010287
X+018034Y+010287
X+016764Y+010287
X+015494Y+010287
X+014224Y+010287
X+012954Y+010287
X+011684Y+010287
X+010414Y+010287
X+009144Y+010287
X+008001Y+010287
X+009144Y+007493
X+010414Y+007493
X+011684Y+007493
X+012954Y+007493
X+014224Y+007493
X+015494Y+007493
X+016764Y+007493
X+018034Y+007493
X+019177Y+007493
X+021971Y+007493
X+021971Y+006223
X+021971Y+004953
X+023241Y+004953
X+025273Y+004953
X+026543Y+004953
X+006985Y+010287
X+006985Y+011430
X+006985Y+012827
X+005715Y+012827
X+004445Y+012827
X+003175Y+012827
X+003175Y+004953
X+004445Y+004953
X+005715Y+004953
X+006985Y+004953
X+006985Y+006350
X+006985Y+007493
X+008001Y+007493
X+034544Y+030734
X+033274Y+030734
X+032004Y+030734
X+030734Y+030734
X+029464Y+030734
X+028194Y+030734
X+026924Y+030734
X+025654Y+030734
X+024384Y+030734
X+023114Y+030734
X+021844Y+030734
X+020574Y+030734
X+019304Y+030734
X+018034Y+030734
X+016764Y+030734
X+015494Y+030734
X+014224Y+030734
X+013081Y+030734
X+030734Y+027940
X+032004Y+027940
X+033274Y+027940
X+029464Y+027940
X+028194Y+027940
X+026924Y+027940
X+025654Y+027940
X+018034Y+027940
X+016764Y+027940
X+015494Y+027940
X+014224Y+027940
X+011430Y+027940
X+035687Y+030353
X+036576Y+029591
X+037084Y+028702
X+023688Y+038608
X+024257Y+004953
X+031750Y+004953
X+034417Y+012573
X+060071Y+019431
X+042672Y+018161
X+047752Y+018161
X+036830Y+006223
X+014224Y+026924
X+011430Y+026924
X+018034Y+026924
X+025654Y+026924
X+010287Y+027940
X+023688Y+034290
X+011938Y+030734
X+009398Y+028702
X+009398Y+029972
X+006604Y+029337
X+026416Y+035306
X+017719Y+036370
X+024957Y+036370
X+006985Y+032131
X+016510Y+038608
X+045466Y+041529
X+045466Y+037973
T02
X+049022Y+008382
X+054102Y+008382
X+054102Y+010922
X+049022Y+010922
X+049022Y+013462
X+054102Y+013462
X+054102Y+016002
X+049022Y+016002
X+046482Y+013462
X+046482Y+010922
X+046482Y+008382
X+046482Y+005842
X+049022Y+005842
X+043942Y+003302
X+041402Y+003302
X+038862Y+005842
X+041402Y+005842
X+043942Y+005842
X+041402Y+008382
X+043942Y+008382
X+043942Y+010922
X+041402Y+010922
X+040259Y+007112
X+043942Y+013462
X+013462Y+003302
X+010922Y+003302
X+008382Y+005842
X+005842Y+003302
X+016002Y+003302
X+018542Y+003302
X+021082Y+003302
X+023622Y+003302
X+026162Y+003302
X+060960Y+013208
X+063500Y+010668
X+028702Y+003302
X+031242Y+003302
X+033782Y+003302
X+036322Y+003302
X+038862Y+003302
X+036322Y+005334
X+041402Y+013462
X+041402Y+016002
X+043942Y+016002
X+046482Y+016002
X+039624Y+023368
X+040894Y+023368
X+063500Y+013208
X+060960Y+010668
X+063500Y+018288
X+063500Y+020828
X+060833Y+020828
X+061214Y+018034
X+061214Y+015494
X+060960Y+007620
X+063500Y+007620
X+041402Y+018288
X+049022Y+018288
X+051562Y+018288
X+054102Y+018288
X+055880Y+002921
X+068580Y+005842
X+068707Y+008382
X+068834Y+010922
X+071120Y+013462
X+071120Y+010922
X+071120Y+008382
X+071120Y+005842
X+073660Y+005842
X+076200Y+005842
X+073660Y+008382
X+073660Y+010922
X+073660Y+013462
X+076200Y+013462
X+076200Y+015621
X+073660Y+015621
X+071120Y+016002
X+035179Y+005334
X+061214Y+016764
X+069977Y+016764
X+069977Y+015494
X+062230Y+007620
X+035814Y+017780
X+034798Y+016764
X+039624Y+026924
X+034544Y+019050
X+003302Y+003302
X+042164Y+026924
X+000762Y+013208
X+000762Y+015748
X+000762Y+003302
X+000762Y+000762
X+003302Y+000762
X+005842Y+000762
X+008382Y+000762
X+010922Y+000762
X+013462Y+000762
X+016002Y+000762
X+018542Y+000762
X+021082Y+000762
X+023622Y+000762
X+026162Y+000762
X+028702Y+000762
X+031242Y+000762
X+033782Y+000762
X+036322Y+000762
X+038862Y+000762
X+041402Y+000762
X+043942Y+000762
X+046482Y+000762
X+049022Y+000762
X+055880Y+000762
X+058420Y+000762
X+060960Y+000762
X+066040Y+000762
X+068580Y+000762
X+063500Y+000762
X+073660Y+000762
X+076200Y+000762
X+078740Y+003302
X+071120Y+000762
X+076200Y+025908
X+078740Y+013462
X+078740Y+016002
X+078740Y+005842
X+071120Y+018288
X+046482Y+003302
X+049022Y+003175
X+051562Y+016002
X+051562Y+013462
X+051562Y+010922
X+051562Y+008382
X+051562Y+005842
X+054102Y+005842
X+053340Y+002921
X+053340Y+000762
X+069977Y+018034
X+078740Y+025908
X+071120Y+025908
X+073660Y+025908
X+066040Y+025908
X+068580Y+025908
X+060960Y+025908
X+063500Y+025908
X+055880Y+025908
X+058420Y+025908
X+043180Y+025908
X+058420Y+023368
X+060833Y+023368
X+063500Y+023368
X+066040Y+023368
X+068580Y+023368
X+071120Y+023368
X+063500Y+015748
X+055880Y+023368
X+053340Y+023368
X+053340Y+025908
X+050800Y+023368
X+048260Y+023368
X+045720Y+023368
X+043180Y+023368
X+059690Y+001905
X+062230Y+001905
X+064770Y+001905
X+067310Y+001905
X+034798Y+015748
X+038354Y+023368
X+037084Y+023368
X+035814Y+023368
X+076200Y+003302
X+073660Y+003302
X+071120Y+003302
X+068580Y+003302
X+078740Y+000762
X+045212Y+017145
X+043942Y+017145
X+046482Y+017145
X+057150Y+001905
X+008382Y+003302
X+010922Y+005842
X+013462Y+005842
X+016002Y+005842
X+018542Y+005842
X+021082Y+005334
X+027432Y+005461
X+028575Y+005461
X+019939Y+005334
X+000762Y+018288
X+000762Y+020574
X+010922Y+018288
X+003302Y+018288
X+003302Y+015748
X+005842Y+015748
X+005842Y+018288
X+013462Y+018288
X+008382Y+018288
X+008382Y+015748
X+010922Y+020828
X+005842Y+020828
X+016002Y+020828
X+008382Y+020828
X+013462Y+020828
X+016002Y+018288
X+003302Y+013843
X+005842Y+013843
X+010922Y+013208
X+008382Y+013208
X+013462Y+013208
X+023622Y+013208
X+016002Y+013208
X+018542Y+013208
X+021082Y+013208
X+023622Y+020828
X+023622Y+023368
X+018542Y+020828
X+018542Y+023368
X+026162Y+023368
X+021082Y+020828
X+026162Y+020828
X+008382Y+011176
X+010922Y+011176
X+023622Y+011176
X+016002Y+011176
X+018542Y+011176
X+021082Y+011176
X+026162Y+011176
X+031242Y+018288
X+031242Y+015748
X+028702Y+020828
X+028702Y+023368
X+031242Y+023368
X+031242Y+020828
X+031242Y+013208
X+028702Y+011176
X+031242Y+011176
X+033782Y+023368
X+033782Y+018288
X+033782Y+015748
X+033782Y+020828
X+033528Y+013208
X+033528Y+011176
X+021082Y+023368
X+033782Y+025908
X+003302Y+020574
X+005842Y+023368
X+008382Y+023368
X+003302Y+023622
X+013462Y+023368
X+016002Y+023368
X+010795Y+023368
X+076200Y+010922
X+076200Y+008382
X+078740Y+008382
X+078740Y+010922
X+018542Y+018288
X+021082Y+018288
X+023622Y+018288
X+026162Y+018288
X+028702Y+018288
X+026162Y+013208
X+028702Y+013208
X+023622Y+015748
X+026162Y+015748
X+028702Y+015748
X+019939Y+014478
X+022479Y+014478
X+000762Y+041148
X+000762Y+046228
X+047625Y+030988
X+045720Y+028448
X+045720Y+030988
X+045720Y+033528
X+045720Y+036068
X+076200Y+043688
X+076200Y+041148
X+076200Y+033528
X+076200Y+030988
X+076200Y+028448
X+071120Y+027559
X+073660Y+027559
X+068580Y+030988
X+073660Y+033528
X+071501Y+033528
X+073660Y+036068
X+076200Y+036068
X+073660Y+038608
X+076200Y+038608
X+061595Y+042545
X+061976Y+044323
X+064516Y+044323
X+067056Y+043688
X+069596Y+043688
X+069596Y+041148
X+067056Y+041148
X+071501Y+036068
X+071501Y+038608
X+066040Y+029210
X+068326Y+039751
X+070231Y+032131
X+046482Y+043688
X+066040Y+030988
X+063500Y+027559
X+063500Y+030988
X+063246Y+033528
X+046482Y+041529
X+066040Y+027559
X+060960Y+027559
X+058420Y+027559
X+055880Y+027559
X+053340Y+027559
X+050800Y+027559
X+048260Y+027559
X+063500Y+029210
X+049022Y+043688
X+049022Y+041148
X+048260Y+033528
X+048260Y+036068
X+048260Y+038354
X+051562Y+041148
X+054102Y+041148
X+056642Y+041148
X+054864Y+043688
X+059182Y+041148
X+059182Y+043688
X+051562Y+038608
X+054102Y+038608
X+056642Y+038608
X+051562Y+036068
X+051562Y+033528
X+054102Y+036068
X+053721Y+033528
X+059182Y+038862
X+058801Y+033528
X+058801Y+036068
X+061341Y+036068
X+061341Y+033528
X+052451Y+031623
X+057277Y+031623
X+052451Y+029210
X+057277Y+029210
X+056261Y+033528
X+065786Y+039751
X+063246Y+039751
X+061722Y+038862
X+061722Y+041148
X+062230Y+029210
X+076200Y+028448
X+003302Y+046228
X+021082Y+025908
X+023622Y+025908
X+026162Y+025908
X+028702Y+025908
X+031242Y+025908
X+018542Y+025908
X+016002Y+025908
X+013462Y+025908
X+019812Y+025908
X+022352Y+025908
X+024892Y+025908
X+012192Y+025908
X+000762Y+043688
X+000762Y+038608
X+000762Y+036068
X+000762Y+033528
X+000762Y+030988
X+000762Y+028448
X+000762Y+025908
X+000762Y+023622
X+003302Y+025908
X+005842Y+025908
X+008382Y+025908
X+010795Y+025908
X+003302Y+043688
X+005842Y+046228
X+008382Y+046228
X+010922Y+046228
X+013462Y+046228
X+016002Y+046228
X+018542Y+046228
X+021082Y+046228
X+023622Y+046228
X+026162Y+046228
X+028702Y+046228
X+031242Y+046228
X+033782Y+046228
X+036322Y+046228
X+038862Y+046228
X+041402Y+046228
X+043942Y+046228
X+005842Y+043688
X+008382Y+043688
X+010922Y+043688
X+013462Y+043688
X+050800Y+025908
X+048260Y+025908
X+045720Y+025908
X+016002Y+043688
X+043942Y+043688
X+043942Y+041529
X+043180Y+028448
X+043180Y+030988
X+043180Y+033528
X+043180Y+036068
X+040640Y+028448
X+038100Y+028448
X+041402Y+043688
X+018542Y+043688
X+021082Y+043688
X+043180Y+038354
X+023622Y+043688
X+026162Y+043688
X+028702Y+043688
X+031242Y+043688
X+033782Y+043688
X+036830Y+043688
X+038862Y+043688
X+040386Y+039116
X+068834Y+013462
X+007112Y+043688
X+005842Y+042418
X+005842Y+041148
X+004572Y+029718
X+003302Y+030988
X+003302Y+033528
X+004572Y+037338
X+003302Y+038608
X+005715Y+038608
X+003302Y+041148
X+040767Y+030988
X+040640Y+033528
X+038227Y+033528
X+038100Y+030988
X+033147Y+031877
X+035687Y+031369
X+005842Y+028448
X+008382Y+028448
X+021082Y+041148
X+023622Y+041148
X+026162Y+041148
X+028702Y+041148
X+031242Y+041021
X+040640Y+036068
X+038227Y+036068
X+035687Y+033528
X+033147Y+033528
X+007239Y+033274
X+007239Y+035306
X+009779Y+035306
X+038354Y+038608
X+012319Y+032131
X+018415Y+041148
X+017145Y+041148
X+024892Y+041148
X+027432Y+041148
X+014859Y+032131
X+017399Y+031877
X+019939Y+032131
X+022479Y+032131
X+021336Y+036322
X+019812Y+036322
X+022860Y+036322
X+025019Y+031877
X+035687Y+036068
X+033147Y+036068
X+030607Y+036068
X+030607Y+033528
X+030607Y+031877
X+028194Y+031877
X+012319Y+035306
X+035687Y+038608
X+031242Y+038608
X+028448Y+036068
X+028194Y+033528
X+015367Y+034290
X+028829Y+038608
X+003302Y+036068
X+003302Y+028448
T03
X+051308Y+002540
X+002540Y+022098
T04
X+069893Y+037734
X+069893Y+035232
X+067899Y+037736
X+067891Y+035234
T05
X+040640Y+040767
X+038100Y+040767
T06
X+050164Y+030485
X+054863Y+030485
X+059562Y+030485
X+052367Y+043200
X+057149Y+043200
T07
X+072603Y+042504
X+072603Y+030464
M30
