G04 EAGLE Gerber RS-274X export*
G75*
%MOMM*%
%FSLAX34Y34*%
%LPD*%
%INSoldermask Top*%
%IPPOS*%
%AMOC8*
5,1,8,0,0,1.08239X$1,22.5*%
G01*
%ADD10C,1.778000*%
%ADD11C,2.032000*%
%ADD12R,1.600000X1.803000*%
%ADD13R,1.803000X1.600000*%
%ADD14R,1.800000X1.600000*%
%ADD15R,1.600000X1.800000*%
%ADD16R,1.524000X1.524000*%
%ADD17P,1.649562X8X292.500000*%
%ADD18R,1.549400X0.533400*%
%ADD19R,1.750000X1.400000*%
%ADD20R,1.000000X3.000000*%


D10*
X114300Y152400D03*
X114300Y177800D03*
X114300Y203200D03*
X259080Y247800D03*
X234080Y247800D03*
X284080Y247800D03*
D11*
X215080Y177800D03*
X303080Y177800D03*
D10*
X177800Y114300D03*
X152400Y114300D03*
X127000Y114300D03*
D12*
X327025Y127000D03*
X358775Y127000D03*
D13*
X406400Y60325D03*
X406400Y92075D03*
D14*
X60960Y250160D03*
X60960Y278160D03*
D15*
X113000Y304800D03*
X141000Y304800D03*
D10*
X406400Y152400D03*
X355600Y152400D03*
X381000Y203200D03*
D13*
X25400Y248285D03*
X25400Y280035D03*
D16*
X317900Y93980D03*
D17*
X342900Y93980D03*
X367900Y93980D03*
D18*
X89916Y285750D03*
X89916Y273050D03*
X89916Y260350D03*
X89916Y247650D03*
X164084Y247650D03*
X164084Y260350D03*
X164084Y273050D03*
X164084Y285750D03*
D19*
X409800Y314600D03*
X326800Y269600D03*
X409800Y269600D03*
X326800Y314600D03*
D20*
X165100Y145800D03*
X165100Y208800D03*
M02*
