<?xml version="1.0" standalone="no"?>
<!DOCTYPE svg PUBLIC "-//W3C//DTD SVG 1.1//EN"
"http://www.w3.org/Graphics/SVG/1.1/DTD/svg11.dtd">
<svg width="3602.33" height="1078.74" viewBox="0 0 3602.33 1078.74" version="1.1"
xmlns="http://www.w3.org/2000/svg"
xmlns:xlink="http://www.w3.org/1999/xlink">
<g fill-rule="evenodd"><path d="M 935.884,572.472 L 935.884,1039.37 L 935.022,1047.55 L 932.48,1055.38 L 928.364,1062.51 L 922.856,1068.63 L 916.198,1073.46 L 908.678,1076.81 L 900.628,1078.52 L 892.398,1078.52 L 884.348,1076.81 L 876.828,1073.46 L 870.17,1068.63 L 864.662,1062.51 L 860.546,1055.38 L 858.004,1047.55 L 857.144,1039.37 L 857.144,372.704 L 858.004,364.518 L 860.546,356.69 L 864.662,349.562 L 870.17,343.446 L 876.828,338.608 L 884.348,335.26 L 892.398,333.548 L 900.628,333.548 L 908.678,335.26 L 916.198,338.608 L 922.856,343.446 L 928.364,349.562 L 932.48,356.69 L 935.022,364.518 L 935.884,372.704 L 935.882,420.512 L 963.912,392.482 L 968.732,388.382 L 974.144,385.108 L 1069.38,337.49 L 1075.01,335.198 L 1080.93,333.802 L 1086.99,333.334 L 1182.23,333.334 L 1190.41,334.194 L 1198.24,336.736 L 1205.37,340.852 L 1211.48,346.36 L 1216.32,353.018 L 1219.67,360.538 L 1221.38,368.588 L 1221.38,376.818 L 1219.67,384.868 L 1216.32,392.388 L 1211.48,399.046 L 1205.37,404.554 L 1198.24,408.67 L 1190.41,411.212 L 1182.23,412.074 L 1096.28,412.074 L 1015.07,452.678 L 976.488,491.262 L 935.884,572.472 z " style="fill-opacity:1.000000;fill:rgb(103,198,105);stroke:rgb(0,0,0);stroke-width:2"/></g>
<g fill-rule="evenodd"><path d="M 0,1039.37 L 0,39.37 L 0.756,31.688 L 2.996,24.302 L 6.634,17.496 L 11.53,11.53 L 17.496,6.634 L 24.302,2.996 L 31.688,0.756 L 39.37,0 L 515.562,0 L 523.746,0.86 L 531.574,3.402 L 538.702,7.518 L 544.818,13.026 L 549.656,19.684 L 553.004,27.204 L 554.716,35.254 L 554.716,43.484 L 553.004,51.534 L 549.656,59.054 L 544.818,65.712 L 538.702,71.22 L 531.574,75.336 L 523.746,77.878 L 515.562,78.74 L 78.74,78.74 L 78.74,476.19 L 372.704,476.19 L 380.888,477.05 L 388.716,479.592 L 395.844,483.708 L 401.96,489.216 L 406.798,495.874 L 410.146,503.394 L 411.858,511.444 L 411.858,519.674 L 410.146,527.724 L 406.798,535.244 L 401.96,541.902 L 395.844,547.41 L 388.716,551.526 L 380.888,554.068 L 372.704,554.93 L 78.74,554.93 L 78.74,1039.37 L 77.878,1047.55 L 75.336,1055.38 L 71.22,1062.51 L 65.712,1068.63 L 59.054,1073.46 L 51.534,1076.81 L 43.484,1078.52 L 35.254,1078.52 L 27.204,1076.81 L 19.684,1073.46 L 13.026,1068.63 L 7.518,1062.51 L 3.402,1055.38 L 0.86,1047.55 L 0,1039.37 z " style="fill-opacity:1.000000;fill:rgb(115,81,255);stroke:rgb(0,0,0);stroke-width:2"/></g>
<g fill-rule="evenodd"><path d="M 1801.28,1078.74 L 1657.54,1078.65 L 1648.52,1077.47 L 1640.81,1074.58 L 1545.57,1026.96 L 1540.16,1023.69 L 1535.34,1019.59 L 1487.72,971.97 L 1483.62,967.152 L 1480.35,961.738 L 1432.73,866.5 L 1430.44,860.87 L 1429.04,854.954 L 1428.57,848.894 L 1428.57,563.18 L 1429.04,557.118 L 1430.44,551.202 L 1432.73,545.572 L 1480.35,450.334 L 1483.62,444.922 L 1487.72,440.102 L 1535.34,392.482 L 1540.16,388.382 L 1545.57,385.108 L 1640.81,337.49 L 1646.44,335.198 L 1652.36,333.802 L 1658.42,333.334 L 1801.28,333.334 L 1807.34,333.802 L 1813.25,335.198 L 1818.88,337.49 L 1914.12,385.108 L 1919.53,388.382 L 1924.35,392.482 L 1971.97,440.102 L 1976.07,444.922 L 1979.34,450.334 L 2026.96,545.572 L 2029.26,551.202 L 2030.65,557.118 L 2031.12,563.18 L 2031.12,848.894 L 2030.65,854.954 L 2029.26,860.87 L 2026.96,866.5 L 1979.34,961.738 L 1976.07,967.152 L 1971.97,971.97 L 1924.35,1019.59 L 1919.53,1023.69 L 1914.12,1026.96 L 1818.88,1074.58 L 1813.25,1076.87 L 1807.34,1078.27 L 1801.28,1078.74M 1791.98,999.998 L 1873.19,959.392 L 1911.77,920.81 L 1952.38,839.6 L 1952.38,572.472 L 1911.77,491.262 L 1873.19,452.678 L 1791.98,412.074 L 1667.71,412.074 L 1586.5,452.678 L 1547.92,491.262 L 1507.31,572.472 L 1507.31,839.6 L 1547.92,920.81 L 1586.5,959.392 L 1667.71,999.998 L 1791.98,999.998 z " style="fill-opacity:1.000000;fill:rgb(74,236,41);stroke:rgb(0,0,0);stroke-width:2"/></g>
<g fill-rule="evenodd"><path d="M 3602.33,1035.25 L 3602.33,1043.48 L 3600.62,1051.53 L 3597.27,1059.05 L 3592.44,1065.71 L 3586.32,1071.22 L 3579.19,1075.34 L 3571.36,1077.88 L 3563.18,1078.74 L 3467.94,1078.74 L 3461.88,1078.27 L 3455.96,1076.87 L 3450.33,1074.58 L 3355.1,1026.96 L 3349.68,1023.69 L 3344.86,1019.59 L 3340.76,1014.77 L 3337.49,1009.36 L 3289.87,914.118 L 3287.58,908.488 L 3286.18,902.572 L 3285.72,896.512 L 3285.72,412.074 L 3182.23,412.074 L 3174.04,411.212 L 3166.21,408.67 L 3159.09,404.554 L 3152.97,399.046 L 3148.13,392.388 L 3144.78,384.868 L 3143.07,376.818 L 3143.07,368.588 L 3144.78,360.538 L 3148.13,353.018 L 3152.97,346.36 L 3159.09,340.852 L 3166.21,336.736 L 3174.04,334.194 L 3182.23,333.334 L 3285.72,333.334 L 3285.72,39.37 L 3286.58,31.184 L 3289.12,23.356 L 3293.23,16.228 L 3298.74,10.112 L 3305.4,5.274 L 3312.92,1.926 L 3320.97,0.214 L 3329.2,0.214 L 3337.25,1.926 L 3344.77,5.274 L 3351.43,10.112 L 3356.94,16.228 L 3361.05,23.356 L 3363.59,31.184 L 3364.46,39.37 L 3364.46,333.334 L 3563.18,333.334 L 3571.36,334.194 L 3579.19,336.736 L 3586.32,340.852 L 3592.44,346.36 L 3597.27,353.018 L 3600.62,360.538 L 3602.33,368.588 L 3602.33,376.818 L 3600.62,384.868 L 3597.27,392.388 L 3592.44,399.046 L 3586.32,404.554 L 3579.19,408.67 L 3571.36,411.212 L 3563.18,412.074 L 3364.46,412.074 L 3364.46,887.218 L 3402.05,962.404 L 3477.23,1000 L 3563.18,1000 L 3571.36,1000.86 L 3579.19,1003.4 L 3586.32,1007.52 L 3592.44,1013.03 L 3597.27,1019.68 L 3600.62,1027.2 L 3602.33,1035.25 z " style="fill-opacity:1.000000;fill:rgb(205,186,171);stroke:rgb(0,0,0);stroke-width:2"/></g>
<g fill-rule="evenodd"><path d="M 2459.69,380.428 L 2545.57,337.49 L 2551.2,335.198 L 2557.12,333.802 L 2563.18,333.334 L 2706.04,333.334 L 2712.1,333.802 L 2718.01,335.198 L 2723.64,337.49 L 2818.88,385.108 L 2824.29,388.382 L 2829.11,392.482 L 2833.21,397.302 L 2836.49,402.714 L 2884.11,497.952 L 2886.4,503.582 L 2887.79,509.498 L 2888.26,515.56 L 2888.26,1039.37 L 2887.4,1047.55 L 2884.86,1055.38 L 2880.74,1062.51 L 2875.24,1068.63 L 2868.58,1073.46 L 2861.06,1076.81 L 2853.01,1078.52 L 2844.78,1078.52 L 2836.73,1076.81 L 2829.21,1073.46 L 2822.55,1068.63 L 2817.04,1062.51 L 2812.93,1055.38 L 2810.38,1047.55 L 2809.52,1039.37 L 2809.52,524.852 L 2771.93,449.666 L 2696.74,412.074 L 2572.47,412.074 L 2491.26,452.678 L 2459.69,484.248 L 2459.69,1039.37 L 2458.83,1047.55 L 2456.29,1055.38 L 2452.17,1062.51 L 2446.67,1068.63 L 2440.01,1073.46 L 2432.49,1076.81 L 2424.44,1078.52 L 2416.21,1078.52 L 2408.16,1076.81 L 2400.64,1073.46 L 2393.98,1068.63 L 2388.47,1062.51 L 2384.36,1055.38 L 2381.81,1047.55 L 2380.95,1039.37 L 2380.95,372.704 L 2381.81,364.518 L 2384.36,356.69 L 2388.47,349.562 L 2393.98,343.446 L 2400.64,338.608 L 2408.16,335.26 L 2416.21,333.548 L 2424.44,333.548 L 2432.49,335.26 L 2440.01,338.608 L 2446.67,343.446 L 2452.17,349.562 L 2456.29,356.69 L 2458.83,364.518 L 2459.69,372.704 L 2459.69,380.428 z " style="fill-opacity:1.000000;fill:rgb(242,251,227);stroke:rgb(0,0,0);stroke-width:2"/></g>
</svg>
