<?xml version="1.0" standalone="no"?>
<!DOCTYPE svg PUBLIC "-//W3C//DTD SVG 1.1//EN"
"http://www.w3.org/Graphics/SVG/1.1/DTD/svg11.dtd">
<svg width="4100" height="2300" viewBox="0 0 4100 2300" version="1.1"
xmlns="http://www.w3.org/2000/svg"
xmlns:xlink="http://www.w3.org/1999/xlink">
<g fill-rule="evenodd"><path d="M 1765.12,8.99414e-05 L 1693.75,153.101 L 1679.16,184.183 L 1643.95,258.565 L 1626.04,296.841 L 1600,353.157 L 1535.3,486.109 L 1502.94,547.367 L 1470.59,605.147 L 1454.13,633.662 L 1409.52,707.459 L 1375.07,761.771 L 1364.19,778.676 L 1356.21,790.875 L 1342.23,812.725 L 1314.58,856.928 L 1305.46,871.229 L 1285.43,902.067 L 1274.23,919.798 L 1270,926.697 L 1262.04,939.387 L 1253.7,952.38 L 1247.66,961.98 L 1181.85,1068.46 L 1168.99,1090.52 L 1159.97,1106.98 L 1141.19,1145.84 L 1134.29,1162.3 L 1122,1196.51 L 1117.05,1212.98 L 1109.44,1244.08 L 1106.32,1260.54 L 1102.35,1289.76 L 1100.99,1306.22 L 1100.14,1334.69 L 1100.51,1351.16 L 1102.66,1379.8 L 1104.76,1396.26 L 1110.2,1426.18 L 1114.09,1442.64 L 1123.53,1474.88 L 1129.29,1491.34 L 1144.08,1527.32 L 1151.86,1543.78 L 1174.24,1585.24 L 1184.25,1601.7 L 1195.25,1619.04 L 1184.23,1636.41 L 1174.23,1652.88 L 1151.86,1694.31 L 1144.08,1710.77 L 1129.3,1746.74 L 1123.54,1763.2 L 1114.08,1795.47 L 1110.2,1811.94 L 1104.76,1841.81 L 1102.66,1858.27 L 1100.51,1886.93 L 1100.14,1903.39 L 1100.99,1931.86 L 1102.35,1948.32 L 1102.72,1952.38 L 1104.15,1967.07 L 1105.41,1977.92 L 1106.21,1983.84 L 1107.49,1994.79 L 1109.62,2016.47 L 1111.1,2029.06 L 1111.83,2034.5 L 1113.34,2047.3 L 1116.21,2075.97 L 1118.13,2092.18 L 1118.7,2096.41 L 1120.67,2113.05 L 1125.17,2156.91 L 1128.04,2181.06 L 1128.14,2181.74 L 1131.14,2206.8 L 1136.71,2259.9 L 1139.27,2287.33 L 1140.32,2300 L 0,2300 L 0,0 L 1765.12,8.99414e-05 z " style="fill-opacity:0.300000;fill:rgb(103,198,105);"/></g>
<g fill-rule="evenodd"><path d="M 1765.12,-7.77295e-05 L 1980.95,0.00013312 L 1980.95,333.4 L 1980.95,365.652 L 1980.95,523.793 L 1980.95,761.891 L 1980.95,848.793 L 1980.95,848.87 L 1980.95,873.242 L 1980.95,873.315 L 1980.95,987.681 L 1980.95,987.749 L 1980.95,1007.21 L 1980.95,1007.28 L 1980.95,1047.63 L 1981.64,1082.52 L 1982.33,1099.73 L 1984.93,1138.88 L 1986.59,1156.48 L 1987.3,1164.71 L 1987.9,1172.06 L 1988.61,1180.21 L 1990.01,1195 L 1991.89,1222.86 L 1992.48,1237.3 L 1992.85,1255.95 L 1992.85,1315.47 L 1993.13,1330.09 L 1993.65,1343.43 L 1995.66,1369.6 L 1996.1,1373.37 L 1997.02,1382.42 L 1997.29,1385.48 L 1998.65,1398.05 L 1999.62,1405.49 L 2000.95,1417.79 L 2001.16,1420.22 L 2002,1428.57 L 2002.45,1432.41 L 2004.09,1453.54 L 2004.56,1465.69 L 2004.76,1476.19 L 2004.76,1761.9 L 2004.56,1772.4 L 2004.09,1784.56 L 2002.45,1805.68 L 2001.03,1817.84 L 1997.64,1839.62 L 1995.26,1851.78 L 1992.82,1863.08 L 1971.74,1952.38 L 1968.09,1969.76 L 1967.96,1970.49 L 1965.16,1984.25 L 1964.46,1987.41 L 1962.38,1997.35 L 1956.16,2029.13 L 1955.96,2030.17 L 1953.14,2044.39 L 1952.49,2047.63 L 1949.23,2063.51 L 1942.71,2102.43 L 1940,2123.01 L 1937.32,2146.84 L 1934.54,2176.22 L 1933.06,2194 L 1932.68,2199.15 L 1930.62,2223.16 L 1925.63,2273.33 L 1923.7,2294.6 L 1923.26,2300 L 1140.32,2300 L 1139.27,2287.33 L 1136.71,2259.9 L 1131.14,2206.8 L 1128.14,2181.74 L 1128.04,2181.06 L 1125.17,2156.91 L 1120.67,2113.05 L 1118.7,2096.41 L 1118.13,2092.18 L 1116.21,2075.97 L 1113.34,2047.3 L 1111.83,2034.5 L 1111.1,2029.06 L 1109.62,2016.47 L 1107.49,1994.79 L 1106.21,1983.84 L 1105.41,1977.92 L 1104.15,1967.07 L 1102.72,1952.38 L 1102.35,1948.32 L 1100.99,1931.86 L 1100.14,1903.39 L 1100.51,1886.93 L 1102.66,1858.27 L 1104.76,1841.81 L 1110.2,1811.94 L 1114.08,1795.47 L 1123.54,1763.2 L 1129.3,1746.74 L 1144.08,1710.77 L 1151.86,1694.31 L 1174.23,1652.88 L 1184.23,1636.41 L 1195.25,1619.04 L 1184.25,1601.7 L 1174.24,1585.24 L 1151.86,1543.78 L 1144.08,1527.32 L 1129.29,1491.34 L 1123.53,1474.88 L 1114.09,1442.64 L 1110.2,1426.18 L 1104.76,1396.26 L 1102.66,1379.8 L 1100.51,1351.16 L 1100.14,1334.69 L 1100.99,1306.22 L 1102.35,1289.76 L 1106.32,1260.54 L 1109.44,1244.08 L 1117.05,1212.98 L 1122,1196.51 L 1134.29,1162.3 L 1141.19,1145.84 L 1159.97,1106.98 L 1168.99,1090.52 L 1181.85,1068.46 L 1247.66,961.98 L 1253.7,952.38 L 1262.04,939.387 L 1270,926.697 L 1274.23,919.798 L 1285.43,902.067 L 1305.46,871.229 L 1314.58,856.928 L 1342.23,812.725 L 1356.21,790.875 L 1364.19,778.676 L 1375.07,761.771 L 1409.52,707.459 L 1454.13,633.662 L 1470.59,605.147 L 1502.94,547.367 L 1535.3,486.109 L 1600,353.157 L 1626.04,296.841 L 1643.95,258.565 L 1679.16,184.183 L 1693.75,153.101 L 1765.12,-7.77295e-05 z " style="fill-opacity:0.300000;fill:rgb(115,81,255);"/></g>
<g fill-rule="evenodd"><path d="M 1980.95,0.00013312 L 2411.32,-0.0001179 L 2436.79,70.9805 L 2449.44,105.372 L 2489.36,210.831 L 2529.27,310.224 L 2552.38,366.017 L 2593.8,469.994 L 2606.78,504.003 L 2616.94,530.276 L 2638.8,586.07 L 2648.35,610.808 L 2683.54,703.43 L 2691.3,723.489 L 2704.86,757.94 L 2712.31,777.233 L 2731.33,827.563 L 2731.77,828.726 L 2738.08,845.473 L 2752.38,885.709 L 2780.95,971.421 L 2791.46,1001.08 L 2797.3,1016.58 L 2801.08,1026.39 L 2813.58,1058.16 L 2815.89,1063.94 L 2821.15,1076.9 L 2821.49,1077.76 L 2836.33,1114.51 L 2840.65,1125.6 L 2841.2,1127.08 L 2847.24,1142.36 L 2847.45,1142.86 L 2861.57,1182.21 L 2866.51,1198.67 L 2875.42,1235.07 L 2875.99,1238.09 L 2878.69,1250.97 L 2878.79,1251.43 L 2881.23,1262.97 L 2885.56,1285.43 L 2886.06,1287.96 L 2888.45,1299.88 L 2888.8,1301.58 L 2893.66,1325.16 L 2895.76,1336.22 L 2895.95,1337.36 L 2898.53,1350.74 L 2898.98,1352.84 L 2904.06,1382.8 L 2903.84,1383.35 L 2900.87,1390.61 L 2898.94,1395.17 L 2894.59,1405.99 L 2893.55,1408.68 L 2879.67,1440.17 L 2872.31,1454.89 L 2860.71,1476.22 L 2861.02,1482.54 L 2861.6,1496.98 L 2861.9,1511.9 L 2861.9,1511.9 L 2862.16,1525.4 L 2862.68,1538.73 L 2864.53,1562.85 L 2866.03,1575.69 L 2869.33,1596.94 L 2871.75,1609.32 L 2873.85,1619.05 L 2875.1,1624.35 L 2877.12,1633.72 L 2879.5,1645.88 L 2882.31,1663.89 L 2883.72,1676.04 L 2885.08,1693.47 L 2885.55,1705.63 L 2885.71,1714.28 L 2885.71,1761.9 L 2885.88,1770.54 L 2886.35,1782.69 L 2887.7,1800.14 L 2888.79,1809.52 L 2889.1,1812.3 L 2889.75,1818.5 L 2891.32,1830.56 L 2891.35,1830.82 L 2892.95,1843.02 L 2893.69,1850.11 L 2894.01,1852.99 L 2895.17,1862.95 L 2896.87,1884.99 L 2897.38,1898.33 L 2897.62,1910.71 L 2897.62,1970.23 L 2897.95,1986.38 L 2898.53,2000.82 L 2900.8,2031.35 L 2901.51,2037.96 L 2902.81,2051.76 L 2902.94,2053.37 L 2904.25,2067.42 L 2905.15,2075.81 L 2908.21,2118.2 L 2908.9,2135.41 L 2909.52,2166.68 L 2909.52,2202.78 L 2909.52,2202.89 L 2909.52,2222.3 L 2909.52,2222.42 L 2909.52,2300 L 1923.26,2300 L 1923.7,2294.6 L 1925.63,2273.33 L 1930.62,2223.16 L 1932.68,2199.15 L 1933.06,2194 L 1934.54,2176.22 L 1937.32,2146.84 L 1940,2123.01 L 1942.71,2102.43 L 1949.23,2063.51 L 1952.49,2047.63 L 1953.14,2044.39 L 1955.96,2030.17 L 1956.16,2029.13 L 1962.38,1997.35 L 1964.46,1987.41 L 1965.16,1984.25 L 1967.96,1970.49 L 1968.09,1969.76 L 1971.74,1952.38 L 1992.82,1863.08 L 1995.26,1851.78 L 1997.64,1839.62 L 2001.03,1817.84 L 2002.45,1805.68 L 2004.09,1784.56 L 2004.56,1772.4 L 2004.76,1761.9 L 2004.76,1476.19 L 2004.56,1465.69 L 2004.09,1453.54 L 2002.45,1432.41 L 2002,1428.57 L 2001.16,1420.22 L 2000.95,1417.79 L 1999.62,1405.49 L 1998.65,1398.05 L 1997.29,1385.48 L 1997.02,1382.42 L 1996.1,1373.37 L 1995.66,1369.6 L 1993.65,1343.43 L 1993.13,1330.09 L 1992.85,1315.47 L 1992.85,1255.95 L 1992.48,1237.3 L 1991.89,1222.86 L 1990.01,1195 L 1988.61,1180.21 L 1987.9,1172.06 L 1987.3,1164.71 L 1986.59,1156.48 L 1984.93,1138.88 L 1982.33,1099.73 L 1981.64,1082.52 L 1980.95,1047.63 L 1980.95,1007.28 L 1980.95,1007.21 L 1980.95,987.749 L 1980.95,987.681 L 1980.95,873.315 L 1980.95,873.242 L 1980.95,848.87 L 1980.95,848.793 L 1980.95,761.891 L 1980.95,523.793 L 1980.95,365.652 L 1980.95,333.4 L 1980.95,0.00013312 z " style="fill-opacity:0.300000;fill:rgb(74,236,41);"/></g>
<g fill-rule="evenodd"><path d="M 2411.32,0.0003821 L 4100,0 L 4100,2300 L 2909.52,2300 L 2909.52,2222.42 L 2909.52,2222.3 L 2909.52,2202.89 L 2909.52,2202.78 L 2909.52,2166.68 L 2908.9,2135.41 L 2908.21,2118.2 L 2905.15,2075.81 L 2904.25,2067.42 L 2902.94,2053.37 L 2902.81,2051.76 L 2901.51,2037.96 L 2900.8,2031.35 L 2898.53,2000.82 L 2897.95,1986.38 L 2897.62,1970.23 L 2897.62,1910.71 L 2897.38,1898.33 L 2896.87,1884.99 L 2895.17,1862.95 L 2894.01,1852.99 L 2893.69,1850.11 L 2892.95,1843.02 L 2891.35,1830.82 L 2891.32,1830.56 L 2889.75,1818.5 L 2889.1,1812.3 L 2888.79,1809.52 L 2887.7,1800.14 L 2886.35,1782.69 L 2885.88,1770.54 L 2885.71,1761.9 L 2885.71,1714.28 L 2885.55,1705.63 L 2885.08,1693.47 L 2883.72,1676.04 L 2882.31,1663.89 L 2879.5,1645.88 L 2877.12,1633.72 L 2875.1,1624.35 L 2873.85,1619.05 L 2871.75,1609.32 L 2869.33,1596.94 L 2866.03,1575.69 L 2864.53,1562.85 L 2862.68,1538.73 L 2862.16,1525.4 L 2861.9,1511.9 L 2861.9,1511.9 L 2861.6,1496.98 L 2861.02,1482.54 L 2860.71,1476.22 L 2872.31,1454.89 L 2879.67,1440.17 L 2893.55,1408.68 L 2894.59,1405.99 L 2898.94,1395.17 L 2900.87,1390.61 L 2903.84,1383.35 L 2904.06,1382.8 L 2898.98,1352.84 L 2898.53,1350.74 L 2895.95,1337.36 L 2895.76,1336.22 L 2893.66,1325.16 L 2888.8,1301.58 L 2888.45,1299.88 L 2886.06,1287.96 L 2885.56,1285.43 L 2881.23,1262.97 L 2878.79,1251.43 L 2878.69,1250.97 L 2875.99,1238.09 L 2875.42,1235.07 L 2866.51,1198.67 L 2861.57,1182.21 L 2847.45,1142.86 L 2847.24,1142.36 L 2841.2,1127.08 L 2840.65,1125.6 L 2836.33,1114.51 L 2821.49,1077.76 L 2821.15,1076.9 L 2815.89,1063.94 L 2813.58,1058.16 L 2801.08,1026.39 L 2797.3,1016.58 L 2791.46,1001.08 L 2780.95,971.421 L 2752.38,885.709 L 2738.08,845.473 L 2731.77,828.726 L 2731.33,827.563 L 2712.31,777.233 L 2704.86,757.94 L 2691.3,723.489 L 2683.54,703.43 L 2648.35,610.808 L 2638.8,586.07 L 2616.94,530.276 L 2606.78,504.003 L 2593.8,469.994 L 2552.38,366.017 L 2529.27,310.224 L 2489.36,210.831 L 2449.44,105.372 L 2436.79,70.9805 L 2411.32,0.0003821 z " style="fill-opacity:0.300000;fill:rgb(205,186,171);"/></g>
<g fill-rule="evenodd"><path d="M 806.974,1476.57 L 806.974,952.38 L 808.694,936.008 L 813.78,920.352 L 822.012,906.096 L 833.026,893.864 L 846.344,884.188 L 861.382,877.492 L 877.482,874.07 L 893.944,874.07 L 910.044,877.492 L 925.084,884.188 L 938.4,893.864 L 949.414,906.096 L 957.646,920.352 L 962.732,936.008 L 964.454,952.38 L 964.454,1952.38 L 962.732,1968.75 L 957.646,1984.41 L 949.414,1998.66 L 938.4,2010.89 L 925.084,2020.57 L 910.044,2027.27 L 893.944,2030.69 L 877.482,2030.69 L 861.382,2027.27 L 846.344,2020.57 L 833.026,2010.89 L 822.012,1998.66 L 813.78,1984.41 L 808.694,1968.75 L 806.974,1952.38 L 806.972,1699.28 L 798.994,1691.3 L 567.75,1999.62 L 556.552,2011.69 L 543.088,2021.16 L 527.952,2027.63 L 511.8,2030.8 L 495.34,2030.55 L 479.292,2026.89 L 464.358,2019.96 L 451.19,2010.09 L 440.362,1997.69 L 432.348,1983.31 L 427.5,1967.58 L 426.028,1951.18 L 427.998,1934.84 L 433.322,1919.26 L 441.768,1905.13 L 686.508,1578.82 L 449.082,1341.39 L 438.722,1328.6 L 431.248,1313.93 L 426.988,1298.03 L 426.126,1281.59 L 428.702,1265.33 L 434.602,1249.97 L 443.566,1236.16 L 455.206,1224.52 L 469.012,1215.56 L 484.38,1209.66 L 500.638,1207.08 L 517.076,1207.94 L 532.976,1212.2 L 547.644,1219.68 L 560.436,1230.04 L 806.974,1476.57 z " style="fill-opacity:0.600000;fill:rgb(103,198,105);stroke:rgb(0,0,0);stroke-width:2"/></g>
<g fill-rule="evenodd"><path d="M 1711.74,1494.78 L 1678.14,1427.59 L 1648.59,1398.04 L 1581.41,1364.45 L 1428.11,1364.45 L 1349.5,1403.76 L 1334.08,1409.54 L 1317.81,1411.99 L 1301.37,1411.01 L 1285.51,1406.62 L 1270.9,1399.04 L 1258.18,1388.58 L 1247.92,1375.71 L 1240.56,1360.99 L 1236.42,1345.06 L 1235.68,1328.61 L 1238.38,1312.37 L 1244.4,1297.05 L 1253.47,1283.31 L 1265.2,1271.76 L 1279.07,1262.9 L 1374.31,1215.29 L 1385.57,1210.7 L 1397.4,1207.91 L 1409.52,1206.97 L 1600,1206.97 L 1612.12,1207.91 L 1623.95,1210.7 L 1635.21,1215.29 L 1730.45,1262.9 L 1741.28,1269.45 L 1750.92,1277.65 L 1798.53,1325.27 L 1806.73,1334.91 L 1813.28,1345.74 L 1860.9,1440.97 L 1865.48,1452.24 L 1868.28,1464.07 L 1869.22,1476.19 L 1869.22,1761.9 L 1868.28,1774.02 L 1865.48,1785.86 L 1860.9,1797.12 L 1813.28,1892.36 L 1806.73,1903.18 L 1798.53,1912.82 L 1750.91,1960.44 L 1741.28,1968.64 L 1730.45,1975.19 L 1635.21,2022.81 L 1623.95,2027.39 L 1612.12,2030.18 L 1600,2031.12 L 1409.52,2031.12 L 1397.4,2030.18 L 1385.57,2027.39 L 1374.31,2022.81 L 1279.07,1975.19 L 1265.2,1966.33 L 1253.47,1954.77 L 1244.4,1941.04 L 1238.38,1925.71 L 1235.68,1909.48 L 1236.42,1893.03 L 1240.56,1877.1 L 1247.92,1862.38 L 1258.18,1849.51 L 1270.9,1839.05 L 1285.51,1831.46 L 1301.38,1827.08 L 1317.81,1826.1 L 1334.09,1828.55 L 1349.5,1834.33 L 1428.11,1873.64 L 1581.41,1873.64 L 1648.59,1840.05 L 1678.14,1810.5 L 1711.74,1743.31 L 1711.74,1494.78 z " style="fill-opacity:0.600000;fill:rgb(115,81,255);stroke:rgb(0,0,0);stroke-width:2"/></g>
<g fill-rule="evenodd"><path d="M 2297.78,1447.16 L 2297.78,1475.14 L 2332.87,1492.69 L 2552.38,1492.69 L 2564.5,1493.63 L 2576.33,1496.42 L 2587.59,1501 L 2682.83,1548.62 L 2693.66,1555.17 L 2703.29,1563.37 L 2711.49,1573 L 2718.04,1583.83 L 2765.66,1679.07 L 2770.25,1690.33 L 2773.04,1702.16 L 2773.98,1714.28 L 2773.98,1809.52 L 2773.04,1821.64 L 2770.25,1833.47 L 2765.66,1844.74 L 2718.04,1939.97 L 2711.49,1950.8 L 2703.29,1960.44 L 2693.66,1968.64 L 2682.83,1975.19 L 2587.59,2022.81 L 2576.33,2027.39 L 2564.5,2030.18 L 2552.38,2031.12 L 2314.28,2031.12 L 2302.16,2030.18 L 2290.33,2027.39 L 2279.07,2022.81 L 2265.01,2015.78 L 2258.42,2020.57 L 2243.38,2027.27 L 2227.28,2030.69 L 2210.81,2030.69 L 2194.71,2027.27 L 2179.68,2020.57 L 2166.36,2010.89 L 2155.34,1998.66 L 2147.11,1984.41 L 2142.03,1968.75 L 2140.31,1952.38 L 2140.31,1428.57 L 2141.24,1416.45 L 2144.04,1404.62 L 2148.62,1393.35 L 2196.24,1298.12 L 2202.79,1287.29 L 2210.99,1277.65 L 2220.63,1269.45 L 2231.45,1262.9 L 2326.69,1215.29 L 2337.95,1210.7 L 2349.78,1207.91 L 2361.9,1206.97 L 2552.38,1206.97 L 2564.5,1207.91 L 2576.33,1210.7 L 2587.59,1215.29 L 2682.83,1262.9 L 2696.7,1271.76 L 2708.43,1283.31 L 2717.5,1297.05 L 2723.52,1312.37 L 2726.22,1328.61 L 2725.48,1345.06 L 2721.34,1360.99 L 2713.98,1375.71 L 2703.72,1388.58 L 2691,1399.04 L 2676.39,1406.62 L 2660.53,1411.01 L 2644.09,1411.99 L 2627.82,1409.54 L 2612.4,1403.76 L 2533.79,1364.45 L 2380.49,1364.45 L 2325.35,1392.02 L 2297.78,1447.16M 2297.78,1856.1 L 2332.87,1873.64 L 2533.79,1873.64 L 2588.93,1846.07 L 2616.5,1790.93 L 2616.5,1732.87 L 2588.93,1677.73 L 2533.79,1650.17 L 2314.28,1650.17 L 2302.16,1649.23 L 2297.78,1648.2 L 2297.78,1856.1 z " style="fill-opacity:0.600000;fill:rgb(74,236,41);stroke:rgb(0,0,0);stroke-width:2"/></g>
<g fill-rule="evenodd"><path d="M 3133.86,1407.12 L 3115.75,1389.01 L 3107.55,1379.37 L 3101,1368.55 L 3053.38,1273.31 L 3048.8,1262.05 L 3046.01,1250.21 L 3045.07,1238.09 L 3045.07,1142.86 L 3046.01,1130.73 L 3048.8,1118.9 L 3053.38,1107.64 L 3101,1012.4 L 3107.55,1001.58 L 3115.75,991.94 L 3163.37,944.322 L 3173,936.122 L 3183.83,929.572 L 3279.07,881.952 L 3290.33,877.37 L 3302.16,874.578 L 3314.28,873.64 L 3647.62,873.64 L 3662.98,875.152 L 3677.75,879.632 L 3691.36,886.91 L 3703.29,896.702 L 3713.09,908.634 L 3720.36,922.246 L 3724.84,937.018 L 3726.36,952.38 L 3726.36,1952.38 L 3724.84,1967.74 L 3720.36,1982.51 L 3713.09,1996.12 L 3703.29,2008.06 L 3691.36,2017.85 L 3677.75,2025.13 L 3662.98,2029.61 L 3647.62,2031.12 L 3266.67,2031.12 L 3254.54,2030.18 L 3242.71,2027.39 L 3231.45,2022.81 L 3136.21,1975.19 L 3125.39,1968.64 L 3115.75,1960.44 L 3068.13,1912.82 L 3059.93,1903.18 L 3053.38,1892.35 L 3005.76,1797.12 L 3001.18,1785.86 L 2998.39,1774.02 L 2997.45,1761.9 L 2997.45,1619.05 L 2998.39,1606.92 L 3001.18,1595.09 L 3005.76,1583.83 L 3053.38,1488.59 L 3059.93,1477.77 L 3068.13,1468.13 L 3115.75,1420.51 L 3124.98,1412.6 L 3133.86,1407.12M 3568.88,1873.64 L 3568.88,1507.31 L 3327.06,1507.31 L 3213.96,1545.01 L 3188.52,1570.45 L 3154.93,1637.63 L 3154.93,1743.32 L 3188.52,1810.5 L 3218.07,1840.05 L 3285.25,1873.64 L 3568.88,1873.64M 3568.88,1031.12 L 3332.87,1031.12 L 3265.69,1064.71 L 3236.14,1094.26 L 3202.55,1161.44 L 3202.55,1219.5 L 3236.14,1286.69 L 3265.69,1316.24 L 3332.87,1349.83 L 3568.88,1349.83 L 3568.88,1031.12 z " style="fill-opacity:0.600000;fill:rgb(205,186,171);stroke:rgb(0,0,0);stroke-width:2"/></g>
<g fill-rule="evenodd"><path d="M 806.974,1476.57 L 806.974,952.38 L 808.694,936.008 L 813.78,920.352 L 822.012,906.096 L 833.026,893.864 L 846.344,884.188 L 861.382,877.492 L 877.482,874.07 L 893.944,874.07 L 910.044,877.492 L 925.084,884.188 L 938.4,893.864 L 949.414,906.096 L 957.646,920.352 L 962.732,936.008 L 964.454,952.38 L 964.454,1952.38 L 962.732,1968.75 L 957.646,1984.41 L 949.414,1998.66 L 938.4,2010.89 L 925.084,2020.57 L 910.044,2027.27 L 893.944,2030.69 L 877.482,2030.69 L 861.382,2027.27 L 846.344,2020.57 L 833.026,2010.89 L 822.012,1998.66 L 813.78,1984.41 L 808.694,1968.75 L 806.974,1952.38 L 806.972,1699.28 L 798.994,1691.3 L 567.75,1999.62 L 556.552,2011.69 L 543.088,2021.16 L 527.952,2027.63 L 511.8,2030.8 L 495.34,2030.55 L 479.292,2026.89 L 464.358,2019.96 L 451.19,2010.09 L 440.362,1997.69 L 432.348,1983.31 L 427.5,1967.58 L 426.028,1951.18 L 427.998,1934.84 L 433.322,1919.26 L 441.768,1905.13 L 686.508,1578.82 L 449.082,1341.39 L 438.722,1328.6 L 431.248,1313.93 L 426.988,1298.03 L 426.126,1281.59 L 428.702,1265.33 L 434.602,1249.97 L 443.566,1236.16 L 455.206,1224.52 L 469.012,1215.56 L 484.38,1209.66 L 500.638,1207.08 L 517.076,1207.94 L 532.976,1212.2 L 547.644,1219.68 L 560.436,1230.04 L 806.974,1476.57 z " style="fill-opacity:1.000000;fill:rgb(103,198,105);stroke:rgb(0,0,0);stroke-width:2"/></g>
<g fill-rule="evenodd"><path d="M 1711.74,1494.78 L 1678.14,1427.59 L 1648.59,1398.04 L 1581.41,1364.45 L 1428.11,1364.45 L 1349.5,1403.76 L 1334.08,1409.54 L 1317.81,1411.99 L 1301.37,1411.01 L 1285.51,1406.62 L 1270.9,1399.04 L 1258.18,1388.58 L 1247.92,1375.71 L 1240.56,1360.99 L 1236.42,1345.06 L 1235.68,1328.61 L 1238.38,1312.37 L 1244.4,1297.05 L 1253.47,1283.31 L 1265.2,1271.76 L 1279.07,1262.9 L 1374.31,1215.29 L 1385.57,1210.7 L 1397.4,1207.91 L 1409.52,1206.97 L 1600,1206.97 L 1612.12,1207.91 L 1623.95,1210.7 L 1635.21,1215.29 L 1730.45,1262.9 L 1741.28,1269.45 L 1750.92,1277.65 L 1798.53,1325.27 L 1806.73,1334.91 L 1813.28,1345.74 L 1860.9,1440.97 L 1865.48,1452.24 L 1868.28,1464.07 L 1869.22,1476.19 L 1869.22,1761.9 L 1868.28,1774.02 L 1865.48,1785.86 L 1860.9,1797.12 L 1813.28,1892.36 L 1806.73,1903.18 L 1798.53,1912.82 L 1750.91,1960.44 L 1741.28,1968.64 L 1730.45,1975.19 L 1635.21,2022.81 L 1623.95,2027.39 L 1612.12,2030.18 L 1600,2031.12 L 1409.52,2031.12 L 1397.4,2030.18 L 1385.57,2027.39 L 1374.31,2022.81 L 1279.07,1975.19 L 1265.2,1966.33 L 1253.47,1954.77 L 1244.4,1941.04 L 1238.38,1925.71 L 1235.68,1909.48 L 1236.42,1893.03 L 1240.56,1877.1 L 1247.92,1862.38 L 1258.18,1849.51 L 1270.9,1839.05 L 1285.51,1831.46 L 1301.38,1827.08 L 1317.81,1826.1 L 1334.09,1828.55 L 1349.5,1834.33 L 1428.11,1873.64 L 1581.41,1873.64 L 1648.59,1840.05 L 1678.14,1810.5 L 1711.74,1743.31 L 1711.74,1494.78 z " style="fill-opacity:1.000000;fill:rgb(115,81,255);stroke:rgb(0,0,0);stroke-width:2"/></g>
<g fill-rule="evenodd"><path d="M 2297.78,1447.16 L 2297.78,1475.14 L 2332.87,1492.69 L 2552.38,1492.69 L 2564.5,1493.63 L 2576.33,1496.42 L 2587.59,1501 L 2682.83,1548.62 L 2693.66,1555.17 L 2703.29,1563.37 L 2711.49,1573 L 2718.04,1583.83 L 2765.66,1679.07 L 2770.25,1690.33 L 2773.04,1702.16 L 2773.98,1714.28 L 2773.98,1809.52 L 2773.04,1821.64 L 2770.25,1833.47 L 2765.66,1844.74 L 2718.04,1939.97 L 2711.49,1950.8 L 2703.29,1960.44 L 2693.66,1968.64 L 2682.83,1975.19 L 2587.59,2022.81 L 2576.33,2027.39 L 2564.5,2030.18 L 2552.38,2031.12 L 2314.28,2031.12 L 2302.16,2030.18 L 2290.33,2027.39 L 2279.07,2022.81 L 2265.01,2015.78 L 2258.42,2020.57 L 2243.38,2027.27 L 2227.28,2030.69 L 2210.81,2030.69 L 2194.71,2027.27 L 2179.68,2020.57 L 2166.36,2010.89 L 2155.34,1998.66 L 2147.11,1984.41 L 2142.03,1968.75 L 2140.31,1952.38 L 2140.31,1428.57 L 2141.24,1416.45 L 2144.04,1404.62 L 2148.62,1393.35 L 2196.24,1298.12 L 2202.79,1287.29 L 2210.99,1277.65 L 2220.63,1269.45 L 2231.45,1262.9 L 2326.69,1215.29 L 2337.95,1210.7 L 2349.78,1207.91 L 2361.9,1206.97 L 2552.38,1206.97 L 2564.5,1207.91 L 2576.33,1210.7 L 2587.59,1215.29 L 2682.83,1262.9 L 2696.7,1271.76 L 2708.43,1283.31 L 2717.5,1297.05 L 2723.52,1312.37 L 2726.22,1328.61 L 2725.48,1345.06 L 2721.34,1360.99 L 2713.98,1375.71 L 2703.72,1388.58 L 2691,1399.04 L 2676.39,1406.62 L 2660.53,1411.01 L 2644.09,1411.99 L 2627.82,1409.54 L 2612.4,1403.76 L 2533.79,1364.45 L 2380.49,1364.45 L 2325.35,1392.02 L 2297.78,1447.16M 2297.78,1856.1 L 2332.87,1873.64 L 2533.79,1873.64 L 2588.93,1846.07 L 2616.5,1790.93 L 2616.5,1732.87 L 2588.93,1677.73 L 2533.79,1650.17 L 2314.28,1650.17 L 2302.16,1649.23 L 2297.78,1648.2 L 2297.78,1856.1 z " style="fill-opacity:1.000000;fill:rgb(74,236,41);stroke:rgb(0,0,0);stroke-width:2"/></g>
<g fill-rule="evenodd"><path d="M 3133.86,1407.12 L 3115.75,1389.01 L 3107.55,1379.37 L 3101,1368.55 L 3053.38,1273.31 L 3048.8,1262.05 L 3046.01,1250.21 L 3045.07,1238.09 L 3045.07,1142.86 L 3046.01,1130.73 L 3048.8,1118.9 L 3053.38,1107.64 L 3101,1012.4 L 3107.55,1001.58 L 3115.75,991.94 L 3163.37,944.322 L 3173,936.122 L 3183.83,929.572 L 3279.07,881.952 L 3290.33,877.37 L 3302.16,874.578 L 3314.28,873.64 L 3647.62,873.64 L 3662.98,875.152 L 3677.75,879.632 L 3691.36,886.91 L 3703.29,896.702 L 3713.09,908.634 L 3720.36,922.246 L 3724.84,937.018 L 3726.36,952.38 L 3726.36,1952.38 L 3724.84,1967.74 L 3720.36,1982.51 L 3713.09,1996.12 L 3703.29,2008.06 L 3691.36,2017.85 L 3677.75,2025.13 L 3662.98,2029.61 L 3647.62,2031.12 L 3266.67,2031.12 L 3254.54,2030.18 L 3242.71,2027.39 L 3231.45,2022.81 L 3136.21,1975.19 L 3125.39,1968.64 L 3115.75,1960.44 L 3068.13,1912.82 L 3059.93,1903.18 L 3053.38,1892.35 L 3005.76,1797.12 L 3001.18,1785.86 L 2998.39,1774.02 L 2997.45,1761.9 L 2997.45,1619.05 L 2998.39,1606.92 L 3001.18,1595.09 L 3005.76,1583.83 L 3053.38,1488.59 L 3059.93,1477.77 L 3068.13,1468.13 L 3115.75,1420.51 L 3124.98,1412.6 L 3133.86,1407.12M 3568.88,1873.64 L 3568.88,1507.31 L 3327.06,1507.31 L 3213.96,1545.01 L 3188.52,1570.45 L 3154.93,1637.63 L 3154.93,1743.32 L 3188.52,1810.5 L 3218.07,1840.05 L 3285.25,1873.64 L 3568.88,1873.64M 3568.88,1031.12 L 3332.87,1031.12 L 3265.69,1064.71 L 3236.14,1094.26 L 3202.55,1161.44 L 3202.55,1219.5 L 3236.14,1286.69 L 3265.69,1316.24 L 3332.87,1349.83 L 3568.88,1349.83 L 3568.88,1031.12 z " style="fill-opacity:1.000000;fill:rgb(205,186,171);stroke:rgb(0,0,0);stroke-width:2"/></g>
</svg>
