<?xml version="1.0" standalone="no"?>
<!DOCTYPE svg PUBLIC "-//W3C//DTD SVG 1.1//EN"
"http://www.w3.org/Graphics/SVG/1.1/DTD/svg11.dtd">
<svg width="4100" height="2300" viewBox="0 0 4100 2300" version="1.1"
xmlns="http://www.w3.org/2000/svg"
xmlns:xlink="http://www.w3.org/1999/xlink">
<g fill-rule="evenodd"><path d="M 2333.06,1872.84 L 2298.58,1855.6 L 2298.58,1649.21 L 2301.98,1650.01 L 2302.02,1650.02 L 2302.06,1650.02 L 2302.1,1650.03 L 2314.22,1650.97 L 2314.25,1650.97 L 2314.28,1650.97 L 2533.6,1650.97 L 2588.33,1678.33 L 2615.7,1733.06 L 2615.7,1790.74 L 2588.33,1845.47 L 2533.6,1872.84 L 2333.06,1872.84 z " style="fill-opacity:1.000000;fill:rgb(70,124,194);stroke:rgb(0,0,0);stroke-width:2"/></g>
<g fill-rule="evenodd"><path d="M 3327.19,1508.11 L 3568.08,1508.11 L 3568.08,1872.84 L 3285.44,1872.84 L 3218.54,1839.39 L 3189.18,1810.02 L 3155.73,1743.13 L 3155.73,1637.82 L 3189.18,1570.92 L 3214.39,1545.71 L 3327.19,1508.11 z " style="fill-opacity:1.000000;fill:rgb(84,248,27);stroke:rgb(0,0,0);stroke-width:2"/></g>
<g fill-rule="evenodd"><path d="M 3333.06,1031.92 L 3568.08,1031.92 L 3568.08,1349.03 L 3333.06,1349.03 L 3266.16,1315.58 L 3236.8,1286.22 L 3203.35,1219.32 L 3203.35,1161.63 L 3236.8,1094.73 L 3266.16,1065.37 L 3333.06,1031.92 z " style="fill-opacity:1.000000;fill:rgb(232,231,141);stroke:rgb(0,0,0);stroke-width:2"/></g>
</svg>
