%TF.GenerationSoftware,KiCad,Pcbnew,5.0.2+dfsg1-1*%
%TF.CreationDate,2019-03-01T13:54:19-05:00*%
%TF.ProjectId,multivibrator,6d756c74-6976-4696-9272-61746f722e6b,rev?*%
%TF.SameCoordinates,Original*%
%TF.FileFunction,Legend,Top*%
%TF.FilePolarity,Positive*%
%FSLAX46Y46*%
G04 Gerber Fmt 4.6, Leading zero omitted, Abs format (unit mm)*
G04 Created by KiCad (PCBNEW 5.0.2+dfsg1-1) date Fri Mar  1 13:54:19 2019*
%MOMM*%
%LPD*%
G01*
G04 APERTURE LIST*
%ADD10C,0.150000*%
%ADD11C,0.120000*%
G04 APERTURE END LIST*
D10*
X78740000Y-88900000D02*
X119380000Y-88900000D01*
X78740000Y-62230000D02*
X78740000Y-88900000D01*
X118110000Y-62230000D02*
X78740000Y-62230000D01*
X119380000Y-63500000D02*
X118110000Y-62230000D01*
X119380000Y-88900000D02*
X119380000Y-63500000D01*
X97734888Y-82295096D02*
G75*
G03X97750000Y-85320000I-2484888J-1524904D01*
G01*
X97750000Y-82320000D02*
X97750000Y-85320000D01*
X97767936Y-83820000D02*
G75*
G03X97767936Y-83820000I-2517936J0D01*
G01*
X100385112Y-85344904D02*
G75*
G03X100370000Y-82320000I2484888J1524904D01*
G01*
X100370000Y-85320000D02*
X100370000Y-82320000D01*
X105387936Y-83820000D02*
G75*
G03X105387936Y-83820000I-2517936J0D01*
G01*
X87685000Y-72431000D02*
X87685000Y-77429000D01*
X87825000Y-72439000D02*
X87825000Y-77421000D01*
X87965000Y-72455000D02*
X87965000Y-74835000D01*
X87965000Y-75025000D02*
X87965000Y-77405000D01*
X88105000Y-72479000D02*
X88105000Y-74440000D01*
X88105000Y-75420000D02*
X88105000Y-77381000D01*
X88245000Y-72512000D02*
X88245000Y-74273000D01*
X88245000Y-75587000D02*
X88245000Y-77348000D01*
X88385000Y-72553000D02*
X88385000Y-74166000D01*
X88385000Y-75694000D02*
X88385000Y-77307000D01*
X88525000Y-72603000D02*
X88525000Y-74095000D01*
X88525000Y-75765000D02*
X88525000Y-77257000D01*
X88665000Y-72664000D02*
X88665000Y-74051000D01*
X88665000Y-75809000D02*
X88665000Y-77196000D01*
X88805000Y-72734000D02*
X88805000Y-74032000D01*
X88805000Y-75828000D02*
X88805000Y-77126000D01*
X88945000Y-72816000D02*
X88945000Y-74034000D01*
X88945000Y-75826000D02*
X88945000Y-77044000D01*
X89085000Y-72911000D02*
X89085000Y-74059000D01*
X89085000Y-75801000D02*
X89085000Y-76949000D01*
X89225000Y-73022000D02*
X89225000Y-74107000D01*
X89225000Y-75753000D02*
X89225000Y-76838000D01*
X89365000Y-73150000D02*
X89365000Y-74185000D01*
X89365000Y-75675000D02*
X89365000Y-76710000D01*
X89505000Y-73299000D02*
X89505000Y-74302000D01*
X89505000Y-75558000D02*
X89505000Y-76561000D01*
X89645000Y-73478000D02*
X89645000Y-74490000D01*
X89645000Y-75370000D02*
X89645000Y-76382000D01*
X89785000Y-73697000D02*
X89785000Y-76163000D01*
X89925000Y-73986000D02*
X89925000Y-75874000D01*
X90065000Y-74458000D02*
X90065000Y-75402000D01*
X89760000Y-74930000D02*
G75*
G03X89760000Y-74930000I-900000J0D01*
G01*
X90147500Y-74930000D02*
G75*
G03X90147500Y-74930000I-2537500J0D01*
G01*
X110435000Y-77429000D02*
X110435000Y-72431000D01*
X110295000Y-77421000D02*
X110295000Y-72439000D01*
X110155000Y-77405000D02*
X110155000Y-75025000D01*
X110155000Y-74835000D02*
X110155000Y-72455000D01*
X110015000Y-77381000D02*
X110015000Y-75420000D01*
X110015000Y-74440000D02*
X110015000Y-72479000D01*
X109875000Y-77348000D02*
X109875000Y-75587000D01*
X109875000Y-74273000D02*
X109875000Y-72512000D01*
X109735000Y-77307000D02*
X109735000Y-75694000D01*
X109735000Y-74166000D02*
X109735000Y-72553000D01*
X109595000Y-77257000D02*
X109595000Y-75765000D01*
X109595000Y-74095000D02*
X109595000Y-72603000D01*
X109455000Y-77196000D02*
X109455000Y-75809000D01*
X109455000Y-74051000D02*
X109455000Y-72664000D01*
X109315000Y-77126000D02*
X109315000Y-75828000D01*
X109315000Y-74032000D02*
X109315000Y-72734000D01*
X109175000Y-77044000D02*
X109175000Y-75826000D01*
X109175000Y-74034000D02*
X109175000Y-72816000D01*
X109035000Y-76949000D02*
X109035000Y-75801000D01*
X109035000Y-74059000D02*
X109035000Y-72911000D01*
X108895000Y-76838000D02*
X108895000Y-75753000D01*
X108895000Y-74107000D02*
X108895000Y-73022000D01*
X108755000Y-76710000D02*
X108755000Y-75675000D01*
X108755000Y-74185000D02*
X108755000Y-73150000D01*
X108615000Y-76561000D02*
X108615000Y-75558000D01*
X108615000Y-74302000D02*
X108615000Y-73299000D01*
X108475000Y-76382000D02*
X108475000Y-75370000D01*
X108475000Y-74490000D02*
X108475000Y-73478000D01*
X108335000Y-76163000D02*
X108335000Y-73697000D01*
X108195000Y-75874000D02*
X108195000Y-73986000D01*
X108055000Y-75402000D02*
X108055000Y-74458000D01*
X110160000Y-74930000D02*
G75*
G03X110160000Y-74930000I-900000J0D01*
G01*
X113047500Y-74930000D02*
G75*
G03X113047500Y-74930000I-2537500J0D01*
G01*
X116840000Y-67310000D02*
X116840000Y-72390000D01*
X116840000Y-72390000D02*
X114300000Y-72390000D01*
X114300000Y-72390000D02*
X114300000Y-67310000D01*
X114300000Y-67310000D02*
X116840000Y-67310000D01*
X115570000Y-67310000D02*
X115570000Y-66040000D01*
X115570000Y-72390000D02*
X115570000Y-73660000D01*
X106680000Y-67310000D02*
X106680000Y-72390000D01*
X106680000Y-72390000D02*
X104140000Y-72390000D01*
X104140000Y-72390000D02*
X104140000Y-67310000D01*
X104140000Y-67310000D02*
X106680000Y-67310000D01*
X105410000Y-67310000D02*
X105410000Y-66040000D01*
X105410000Y-72390000D02*
X105410000Y-73660000D01*
X93980000Y-67310000D02*
X93980000Y-72390000D01*
X93980000Y-72390000D02*
X91440000Y-72390000D01*
X91440000Y-72390000D02*
X91440000Y-67310000D01*
X91440000Y-67310000D02*
X93980000Y-67310000D01*
X92710000Y-67310000D02*
X92710000Y-66040000D01*
X92710000Y-72390000D02*
X92710000Y-73660000D01*
X83820000Y-67310000D02*
X83820000Y-72390000D01*
X83820000Y-72390000D02*
X81280000Y-72390000D01*
X81280000Y-72390000D02*
X81280000Y-67310000D01*
X81280000Y-67310000D02*
X83820000Y-67310000D01*
X82550000Y-67310000D02*
X82550000Y-66040000D01*
X82550000Y-72390000D02*
X82550000Y-73660000D01*
D11*
X88210000Y-84350000D02*
X88210000Y-80750000D01*
X87482795Y-84874184D02*
G75*
G03X88210000Y-84350000I-1122795J2324184D01*
G01*
X85261193Y-84906400D02*
G75*
G02X83760000Y-82550000I1098807J2356400D01*
G01*
X85261193Y-80193600D02*
G75*
G03X83760000Y-82550000I1098807J-2356400D01*
G01*
X87482795Y-80225816D02*
G75*
G02X88210000Y-80750000I-1122795J-2324184D01*
G01*
X113610000Y-84350000D02*
X113610000Y-80750000D01*
X112882795Y-84874184D02*
G75*
G03X113610000Y-84350000I-1122795J2324184D01*
G01*
X110661193Y-84906400D02*
G75*
G02X109160000Y-82550000I1098807J2356400D01*
G01*
X110661193Y-80193600D02*
G75*
G03X109160000Y-82550000I1098807J-2356400D01*
G01*
X112882795Y-80225816D02*
G75*
G02X113610000Y-80750000I-1122795J-2324184D01*
G01*
X97730000Y-67310000D02*
X97730000Y-69910000D01*
X97730000Y-69910000D02*
X100390000Y-69910000D01*
X100390000Y-69910000D02*
X100390000Y-67310000D01*
X100390000Y-67310000D02*
X97730000Y-67310000D01*
X97730000Y-66040000D02*
X97730000Y-64710000D01*
X97730000Y-64710000D02*
X99060000Y-64710000D01*
D10*
X94511904Y-88082380D02*
X94511904Y-87082380D01*
X94750000Y-87082380D01*
X94892857Y-87130000D01*
X94988095Y-87225238D01*
X95035714Y-87320476D01*
X95083333Y-87510952D01*
X95083333Y-87653809D01*
X95035714Y-87844285D01*
X94988095Y-87939523D01*
X94892857Y-88034761D01*
X94750000Y-88082380D01*
X94511904Y-88082380D01*
X96035714Y-88082380D02*
X95464285Y-88082380D01*
X95750000Y-88082380D02*
X95750000Y-87082380D01*
X95654761Y-87225238D01*
X95559523Y-87320476D01*
X95464285Y-87368095D01*
X98163095Y-82367380D02*
X98163095Y-81367380D01*
X98734523Y-82367380D02*
X98305952Y-81795952D01*
X98734523Y-81367380D02*
X98163095Y-81938809D01*
X102131904Y-88082380D02*
X102131904Y-87082380D01*
X102370000Y-87082380D01*
X102512857Y-87130000D01*
X102608095Y-87225238D01*
X102655714Y-87320476D01*
X102703333Y-87510952D01*
X102703333Y-87653809D01*
X102655714Y-87844285D01*
X102608095Y-87939523D01*
X102512857Y-88034761D01*
X102370000Y-88082380D01*
X102131904Y-88082380D01*
X103084285Y-87177619D02*
X103131904Y-87130000D01*
X103227142Y-87082380D01*
X103465238Y-87082380D01*
X103560476Y-87130000D01*
X103608095Y-87177619D01*
X103655714Y-87272857D01*
X103655714Y-87368095D01*
X103608095Y-87510952D01*
X103036666Y-88082380D01*
X103655714Y-88082380D01*
X99433095Y-86177380D02*
X99433095Y-85177380D01*
X100004523Y-86177380D02*
X99575952Y-85605952D01*
X100004523Y-85177380D02*
X99433095Y-85748809D01*
X87463333Y-71477142D02*
X87415714Y-71524761D01*
X87272857Y-71572380D01*
X87177619Y-71572380D01*
X87034761Y-71524761D01*
X86939523Y-71429523D01*
X86891904Y-71334285D01*
X86844285Y-71143809D01*
X86844285Y-71000952D01*
X86891904Y-70810476D01*
X86939523Y-70715238D01*
X87034761Y-70620000D01*
X87177619Y-70572380D01*
X87272857Y-70572380D01*
X87415714Y-70620000D01*
X87463333Y-70667619D01*
X88415714Y-71572380D02*
X87844285Y-71572380D01*
X88130000Y-71572380D02*
X88130000Y-70572380D01*
X88034761Y-70715238D01*
X87939523Y-70810476D01*
X87844285Y-70858095D01*
X110323333Y-71477142D02*
X110275714Y-71524761D01*
X110132857Y-71572380D01*
X110037619Y-71572380D01*
X109894761Y-71524761D01*
X109799523Y-71429523D01*
X109751904Y-71334285D01*
X109704285Y-71143809D01*
X109704285Y-71000952D01*
X109751904Y-70810476D01*
X109799523Y-70715238D01*
X109894761Y-70620000D01*
X110037619Y-70572380D01*
X110132857Y-70572380D01*
X110275714Y-70620000D01*
X110323333Y-70667619D01*
X110704285Y-70667619D02*
X110751904Y-70620000D01*
X110847142Y-70572380D01*
X111085238Y-70572380D01*
X111180476Y-70620000D01*
X111228095Y-70667619D01*
X111275714Y-70762857D01*
X111275714Y-70858095D01*
X111228095Y-71000952D01*
X110656666Y-71572380D01*
X111275714Y-71572380D01*
X118562380Y-70016666D02*
X118086190Y-70350000D01*
X118562380Y-70588095D02*
X117562380Y-70588095D01*
X117562380Y-70207142D01*
X117610000Y-70111904D01*
X117657619Y-70064285D01*
X117752857Y-70016666D01*
X117895714Y-70016666D01*
X117990952Y-70064285D01*
X118038571Y-70111904D01*
X118086190Y-70207142D01*
X118086190Y-70588095D01*
X117895714Y-69159523D02*
X118562380Y-69159523D01*
X117514761Y-69397619D02*
X118229047Y-69635714D01*
X118229047Y-69016666D01*
X108402380Y-70016666D02*
X107926190Y-70350000D01*
X108402380Y-70588095D02*
X107402380Y-70588095D01*
X107402380Y-70207142D01*
X107450000Y-70111904D01*
X107497619Y-70064285D01*
X107592857Y-70016666D01*
X107735714Y-70016666D01*
X107830952Y-70064285D01*
X107878571Y-70111904D01*
X107926190Y-70207142D01*
X107926190Y-70588095D01*
X107402380Y-69683333D02*
X107402380Y-69064285D01*
X107783333Y-69397619D01*
X107783333Y-69254761D01*
X107830952Y-69159523D01*
X107878571Y-69111904D01*
X107973809Y-69064285D01*
X108211904Y-69064285D01*
X108307142Y-69111904D01*
X108354761Y-69159523D01*
X108402380Y-69254761D01*
X108402380Y-69540476D01*
X108354761Y-69635714D01*
X108307142Y-69683333D01*
X95702380Y-70016666D02*
X95226190Y-70350000D01*
X95702380Y-70588095D02*
X94702380Y-70588095D01*
X94702380Y-70207142D01*
X94750000Y-70111904D01*
X94797619Y-70064285D01*
X94892857Y-70016666D01*
X95035714Y-70016666D01*
X95130952Y-70064285D01*
X95178571Y-70111904D01*
X95226190Y-70207142D01*
X95226190Y-70588095D01*
X94797619Y-69635714D02*
X94750000Y-69588095D01*
X94702380Y-69492857D01*
X94702380Y-69254761D01*
X94750000Y-69159523D01*
X94797619Y-69111904D01*
X94892857Y-69064285D01*
X94988095Y-69064285D01*
X95130952Y-69111904D01*
X95702380Y-69683333D01*
X95702380Y-69064285D01*
X85542380Y-70016666D02*
X85066190Y-70350000D01*
X85542380Y-70588095D02*
X84542380Y-70588095D01*
X84542380Y-70207142D01*
X84590000Y-70111904D01*
X84637619Y-70064285D01*
X84732857Y-70016666D01*
X84875714Y-70016666D01*
X84970952Y-70064285D01*
X85018571Y-70111904D01*
X85066190Y-70207142D01*
X85066190Y-70588095D01*
X85542380Y-69064285D02*
X85542380Y-69635714D01*
X85542380Y-69350000D02*
X84542380Y-69350000D01*
X84685238Y-69445238D01*
X84780476Y-69540476D01*
X84828095Y-69635714D01*
X83347619Y-82645238D02*
X83300000Y-82740476D01*
X83204761Y-82835714D01*
X83061904Y-82978571D01*
X83014285Y-83073809D01*
X83014285Y-83169047D01*
X83252380Y-83121428D02*
X83204761Y-83216666D01*
X83109523Y-83311904D01*
X82919047Y-83359523D01*
X82585714Y-83359523D01*
X82395238Y-83311904D01*
X82300000Y-83216666D01*
X82252380Y-83121428D01*
X82252380Y-82930952D01*
X82300000Y-82835714D01*
X82395238Y-82740476D01*
X82585714Y-82692857D01*
X82919047Y-82692857D01*
X83109523Y-82740476D01*
X83204761Y-82835714D01*
X83252380Y-82930952D01*
X83252380Y-83121428D01*
X83252380Y-81740476D02*
X83252380Y-82311904D01*
X83252380Y-82026190D02*
X82252380Y-82026190D01*
X82395238Y-82121428D01*
X82490476Y-82216666D01*
X82538095Y-82311904D01*
X108747619Y-82645238D02*
X108700000Y-82740476D01*
X108604761Y-82835714D01*
X108461904Y-82978571D01*
X108414285Y-83073809D01*
X108414285Y-83169047D01*
X108652380Y-83121428D02*
X108604761Y-83216666D01*
X108509523Y-83311904D01*
X108319047Y-83359523D01*
X107985714Y-83359523D01*
X107795238Y-83311904D01*
X107700000Y-83216666D01*
X107652380Y-83121428D01*
X107652380Y-82930952D01*
X107700000Y-82835714D01*
X107795238Y-82740476D01*
X107985714Y-82692857D01*
X108319047Y-82692857D01*
X108509523Y-82740476D01*
X108604761Y-82835714D01*
X108652380Y-82930952D01*
X108652380Y-83121428D01*
X107747619Y-82311904D02*
X107700000Y-82264285D01*
X107652380Y-82169047D01*
X107652380Y-81930952D01*
X107700000Y-81835714D01*
X107747619Y-81788095D01*
X107842857Y-81740476D01*
X107938095Y-81740476D01*
X108080952Y-81788095D01*
X108652380Y-82359523D01*
X108652380Y-81740476D01*
X98321904Y-64162380D02*
X98321904Y-63162380D01*
X98702857Y-63162380D01*
X98798095Y-63210000D01*
X98845714Y-63257619D01*
X98893333Y-63352857D01*
X98893333Y-63495714D01*
X98845714Y-63590952D01*
X98798095Y-63638571D01*
X98702857Y-63686190D01*
X98321904Y-63686190D01*
X99845714Y-64162380D02*
X99274285Y-64162380D01*
X99560000Y-64162380D02*
X99560000Y-63162380D01*
X99464761Y-63305238D01*
X99369523Y-63400476D01*
X99274285Y-63448095D01*
M02*
