G04 #@! TF.GenerationSoftware,KiCad,Pcbnew,7.0.5-0*
G04 #@! TF.CreationDate,2023-07-14T12:22:50+10:00*
G04 #@! TF.ProjectId,KeyboardControllerM102,4b657962-6f61-4726-9443-6f6e74726f6c,v01*
G04 #@! TF.SameCoordinates,Original*
G04 #@! TF.FileFunction,Legend,Bot*
G04 #@! TF.FilePolarity,Positive*
%FSLAX46Y46*%
G04 Gerber Fmt 4.6, Leading zero omitted, Abs format (unit mm)*
G04 Created by KiCad (PCBNEW 7.0.5-0) date 2023-07-14 12:22:50*
%MOMM*%
%LPD*%
G01*
G04 APERTURE LIST*
%ADD10C,0.150000*%
G04 APERTURE END LIST*
D10*
G04 #@! TO.C,U1*
X114996819Y-37256095D02*
X115806342Y-37256095D01*
X115806342Y-37256095D02*
X115901580Y-37303714D01*
X115901580Y-37303714D02*
X115949200Y-37351333D01*
X115949200Y-37351333D02*
X115996819Y-37446571D01*
X115996819Y-37446571D02*
X115996819Y-37637047D01*
X115996819Y-37637047D02*
X115949200Y-37732285D01*
X115949200Y-37732285D02*
X115901580Y-37779904D01*
X115901580Y-37779904D02*
X115806342Y-37827523D01*
X115806342Y-37827523D02*
X114996819Y-37827523D01*
X115996819Y-38827523D02*
X115996819Y-38256095D01*
X115996819Y-38541809D02*
X114996819Y-38541809D01*
X114996819Y-38541809D02*
X115139676Y-38446571D01*
X115139676Y-38446571D02*
X115234914Y-38351333D01*
X115234914Y-38351333D02*
X115282533Y-38256095D01*
X113267000Y-30843000D02*
X112592000Y-30843000D01*
X113267000Y-30843000D02*
X113267000Y-31518000D01*
X98917000Y-30843000D02*
X99592000Y-30843000D01*
X98917000Y-30843000D02*
X98917000Y-31518000D01*
X113267000Y-45193000D02*
X113267000Y-44518000D01*
X113267000Y-45193000D02*
X112692000Y-45193000D01*
X112692000Y-45193000D02*
X112692000Y-46468000D01*
X98917000Y-45193000D02*
X98917000Y-44518000D01*
X98917000Y-45193000D02*
X99592000Y-45193000D01*
G04 #@! TD*
M02*
