G04 #@! TF.GenerationSoftware,KiCad,Pcbnew,5.1.5+dfsg1-2~bpo10+1*
G04 #@! TF.CreationDate,2020-06-01T13:22:48+02:00*
G04 #@! TF.ProjectId,Rotary-Encoder-Breakout,526f7461-7279-42d4-956e-636f6465722d,rev?*
G04 #@! TF.SameCoordinates,Original*
G04 #@! TF.FileFunction,Copper,L2,Bot*
G04 #@! TF.FilePolarity,Positive*
%FSLAX46Y46*%
G04 Gerber Fmt 4.6, Leading zero omitted, Abs format (unit mm)*
G04 Created by KiCad (PCBNEW 5.1.5+dfsg1-2~bpo10+1) date 2020-06-01 13:22:48*
%MOMM*%
%LPD*%
G04 APERTURE LIST*
%ADD10C,0.100000*%
%ADD11R,2.000000X2.000000*%
%ADD12C,2.000000*%
%ADD13R,3.200000X2.000000*%
%ADD14R,1.000000X2.510000*%
%ADD15C,0.300000*%
G04 APERTURE END LIST*
G04 #@! TA.AperFunction,SMDPad,CuDef*
D10*
G36*
X137277691Y-109588553D02*
G01*
X137298926Y-109591703D01*
X137319750Y-109596919D01*
X137339962Y-109604151D01*
X137359368Y-109613330D01*
X137377781Y-109624366D01*
X137395024Y-109637154D01*
X137410930Y-109651570D01*
X137425346Y-109667476D01*
X137438134Y-109684719D01*
X137449170Y-109703132D01*
X137458349Y-109722538D01*
X137465581Y-109742750D01*
X137470797Y-109763574D01*
X137473947Y-109784809D01*
X137475000Y-109806250D01*
X137475000Y-110243750D01*
X137473947Y-110265191D01*
X137470797Y-110286426D01*
X137465581Y-110307250D01*
X137458349Y-110327462D01*
X137449170Y-110346868D01*
X137438134Y-110365281D01*
X137425346Y-110382524D01*
X137410930Y-110398430D01*
X137395024Y-110412846D01*
X137377781Y-110425634D01*
X137359368Y-110436670D01*
X137339962Y-110445849D01*
X137319750Y-110453081D01*
X137298926Y-110458297D01*
X137277691Y-110461447D01*
X137256250Y-110462500D01*
X136743750Y-110462500D01*
X136722309Y-110461447D01*
X136701074Y-110458297D01*
X136680250Y-110453081D01*
X136660038Y-110445849D01*
X136640632Y-110436670D01*
X136622219Y-110425634D01*
X136604976Y-110412846D01*
X136589070Y-110398430D01*
X136574654Y-110382524D01*
X136561866Y-110365281D01*
X136550830Y-110346868D01*
X136541651Y-110327462D01*
X136534419Y-110307250D01*
X136529203Y-110286426D01*
X136526053Y-110265191D01*
X136525000Y-110243750D01*
X136525000Y-109806250D01*
X136526053Y-109784809D01*
X136529203Y-109763574D01*
X136534419Y-109742750D01*
X136541651Y-109722538D01*
X136550830Y-109703132D01*
X136561866Y-109684719D01*
X136574654Y-109667476D01*
X136589070Y-109651570D01*
X136604976Y-109637154D01*
X136622219Y-109624366D01*
X136640632Y-109613330D01*
X136660038Y-109604151D01*
X136680250Y-109596919D01*
X136701074Y-109591703D01*
X136722309Y-109588553D01*
X136743750Y-109587500D01*
X137256250Y-109587500D01*
X137277691Y-109588553D01*
G37*
G04 #@! TD.AperFunction*
G04 #@! TA.AperFunction,SMDPad,CuDef*
G36*
X137277691Y-111163553D02*
G01*
X137298926Y-111166703D01*
X137319750Y-111171919D01*
X137339962Y-111179151D01*
X137359368Y-111188330D01*
X137377781Y-111199366D01*
X137395024Y-111212154D01*
X137410930Y-111226570D01*
X137425346Y-111242476D01*
X137438134Y-111259719D01*
X137449170Y-111278132D01*
X137458349Y-111297538D01*
X137465581Y-111317750D01*
X137470797Y-111338574D01*
X137473947Y-111359809D01*
X137475000Y-111381250D01*
X137475000Y-111818750D01*
X137473947Y-111840191D01*
X137470797Y-111861426D01*
X137465581Y-111882250D01*
X137458349Y-111902462D01*
X137449170Y-111921868D01*
X137438134Y-111940281D01*
X137425346Y-111957524D01*
X137410930Y-111973430D01*
X137395024Y-111987846D01*
X137377781Y-112000634D01*
X137359368Y-112011670D01*
X137339962Y-112020849D01*
X137319750Y-112028081D01*
X137298926Y-112033297D01*
X137277691Y-112036447D01*
X137256250Y-112037500D01*
X136743750Y-112037500D01*
X136722309Y-112036447D01*
X136701074Y-112033297D01*
X136680250Y-112028081D01*
X136660038Y-112020849D01*
X136640632Y-112011670D01*
X136622219Y-112000634D01*
X136604976Y-111987846D01*
X136589070Y-111973430D01*
X136574654Y-111957524D01*
X136561866Y-111940281D01*
X136550830Y-111921868D01*
X136541651Y-111902462D01*
X136534419Y-111882250D01*
X136529203Y-111861426D01*
X136526053Y-111840191D01*
X136525000Y-111818750D01*
X136525000Y-111381250D01*
X136526053Y-111359809D01*
X136529203Y-111338574D01*
X136534419Y-111317750D01*
X136541651Y-111297538D01*
X136550830Y-111278132D01*
X136561866Y-111259719D01*
X136574654Y-111242476D01*
X136589070Y-111226570D01*
X136604976Y-111212154D01*
X136622219Y-111199366D01*
X136640632Y-111188330D01*
X136660038Y-111179151D01*
X136680250Y-111171919D01*
X136701074Y-111166703D01*
X136722309Y-111163553D01*
X136743750Y-111162500D01*
X137256250Y-111162500D01*
X137277691Y-111163553D01*
G37*
G04 #@! TD.AperFunction*
G04 #@! TA.AperFunction,SMDPad,CuDef*
G36*
X137277691Y-107663553D02*
G01*
X137298926Y-107666703D01*
X137319750Y-107671919D01*
X137339962Y-107679151D01*
X137359368Y-107688330D01*
X137377781Y-107699366D01*
X137395024Y-107712154D01*
X137410930Y-107726570D01*
X137425346Y-107742476D01*
X137438134Y-107759719D01*
X137449170Y-107778132D01*
X137458349Y-107797538D01*
X137465581Y-107817750D01*
X137470797Y-107838574D01*
X137473947Y-107859809D01*
X137475000Y-107881250D01*
X137475000Y-108318750D01*
X137473947Y-108340191D01*
X137470797Y-108361426D01*
X137465581Y-108382250D01*
X137458349Y-108402462D01*
X137449170Y-108421868D01*
X137438134Y-108440281D01*
X137425346Y-108457524D01*
X137410930Y-108473430D01*
X137395024Y-108487846D01*
X137377781Y-108500634D01*
X137359368Y-108511670D01*
X137339962Y-108520849D01*
X137319750Y-108528081D01*
X137298926Y-108533297D01*
X137277691Y-108536447D01*
X137256250Y-108537500D01*
X136743750Y-108537500D01*
X136722309Y-108536447D01*
X136701074Y-108533297D01*
X136680250Y-108528081D01*
X136660038Y-108520849D01*
X136640632Y-108511670D01*
X136622219Y-108500634D01*
X136604976Y-108487846D01*
X136589070Y-108473430D01*
X136574654Y-108457524D01*
X136561866Y-108440281D01*
X136550830Y-108421868D01*
X136541651Y-108402462D01*
X136534419Y-108382250D01*
X136529203Y-108361426D01*
X136526053Y-108340191D01*
X136525000Y-108318750D01*
X136525000Y-107881250D01*
X136526053Y-107859809D01*
X136529203Y-107838574D01*
X136534419Y-107817750D01*
X136541651Y-107797538D01*
X136550830Y-107778132D01*
X136561866Y-107759719D01*
X136574654Y-107742476D01*
X136589070Y-107726570D01*
X136604976Y-107712154D01*
X136622219Y-107699366D01*
X136640632Y-107688330D01*
X136660038Y-107679151D01*
X136680250Y-107671919D01*
X136701074Y-107666703D01*
X136722309Y-107663553D01*
X136743750Y-107662500D01*
X137256250Y-107662500D01*
X137277691Y-107663553D01*
G37*
G04 #@! TD.AperFunction*
G04 #@! TA.AperFunction,SMDPad,CuDef*
G36*
X137277691Y-106088553D02*
G01*
X137298926Y-106091703D01*
X137319750Y-106096919D01*
X137339962Y-106104151D01*
X137359368Y-106113330D01*
X137377781Y-106124366D01*
X137395024Y-106137154D01*
X137410930Y-106151570D01*
X137425346Y-106167476D01*
X137438134Y-106184719D01*
X137449170Y-106203132D01*
X137458349Y-106222538D01*
X137465581Y-106242750D01*
X137470797Y-106263574D01*
X137473947Y-106284809D01*
X137475000Y-106306250D01*
X137475000Y-106743750D01*
X137473947Y-106765191D01*
X137470797Y-106786426D01*
X137465581Y-106807250D01*
X137458349Y-106827462D01*
X137449170Y-106846868D01*
X137438134Y-106865281D01*
X137425346Y-106882524D01*
X137410930Y-106898430D01*
X137395024Y-106912846D01*
X137377781Y-106925634D01*
X137359368Y-106936670D01*
X137339962Y-106945849D01*
X137319750Y-106953081D01*
X137298926Y-106958297D01*
X137277691Y-106961447D01*
X137256250Y-106962500D01*
X136743750Y-106962500D01*
X136722309Y-106961447D01*
X136701074Y-106958297D01*
X136680250Y-106953081D01*
X136660038Y-106945849D01*
X136640632Y-106936670D01*
X136622219Y-106925634D01*
X136604976Y-106912846D01*
X136589070Y-106898430D01*
X136574654Y-106882524D01*
X136561866Y-106865281D01*
X136550830Y-106846868D01*
X136541651Y-106827462D01*
X136534419Y-106807250D01*
X136529203Y-106786426D01*
X136526053Y-106765191D01*
X136525000Y-106743750D01*
X136525000Y-106306250D01*
X136526053Y-106284809D01*
X136529203Y-106263574D01*
X136534419Y-106242750D01*
X136541651Y-106222538D01*
X136550830Y-106203132D01*
X136561866Y-106184719D01*
X136574654Y-106167476D01*
X136589070Y-106151570D01*
X136604976Y-106137154D01*
X136622219Y-106124366D01*
X136640632Y-106113330D01*
X136660038Y-106104151D01*
X136680250Y-106096919D01*
X136701074Y-106091703D01*
X136722309Y-106088553D01*
X136743750Y-106087500D01*
X137256250Y-106087500D01*
X137277691Y-106088553D01*
G37*
G04 #@! TD.AperFunction*
G04 #@! TA.AperFunction,SMDPad,CuDef*
G36*
X140015191Y-109026053D02*
G01*
X140036426Y-109029203D01*
X140057250Y-109034419D01*
X140077462Y-109041651D01*
X140096868Y-109050830D01*
X140115281Y-109061866D01*
X140132524Y-109074654D01*
X140148430Y-109089070D01*
X140162846Y-109104976D01*
X140175634Y-109122219D01*
X140186670Y-109140632D01*
X140195849Y-109160038D01*
X140203081Y-109180250D01*
X140208297Y-109201074D01*
X140211447Y-109222309D01*
X140212500Y-109243750D01*
X140212500Y-109756250D01*
X140211447Y-109777691D01*
X140208297Y-109798926D01*
X140203081Y-109819750D01*
X140195849Y-109839962D01*
X140186670Y-109859368D01*
X140175634Y-109877781D01*
X140162846Y-109895024D01*
X140148430Y-109910930D01*
X140132524Y-109925346D01*
X140115281Y-109938134D01*
X140096868Y-109949170D01*
X140077462Y-109958349D01*
X140057250Y-109965581D01*
X140036426Y-109970797D01*
X140015191Y-109973947D01*
X139993750Y-109975000D01*
X139556250Y-109975000D01*
X139534809Y-109973947D01*
X139513574Y-109970797D01*
X139492750Y-109965581D01*
X139472538Y-109958349D01*
X139453132Y-109949170D01*
X139434719Y-109938134D01*
X139417476Y-109925346D01*
X139401570Y-109910930D01*
X139387154Y-109895024D01*
X139374366Y-109877781D01*
X139363330Y-109859368D01*
X139354151Y-109839962D01*
X139346919Y-109819750D01*
X139341703Y-109798926D01*
X139338553Y-109777691D01*
X139337500Y-109756250D01*
X139337500Y-109243750D01*
X139338553Y-109222309D01*
X139341703Y-109201074D01*
X139346919Y-109180250D01*
X139354151Y-109160038D01*
X139363330Y-109140632D01*
X139374366Y-109122219D01*
X139387154Y-109104976D01*
X139401570Y-109089070D01*
X139417476Y-109074654D01*
X139434719Y-109061866D01*
X139453132Y-109050830D01*
X139472538Y-109041651D01*
X139492750Y-109034419D01*
X139513574Y-109029203D01*
X139534809Y-109026053D01*
X139556250Y-109025000D01*
X139993750Y-109025000D01*
X140015191Y-109026053D01*
G37*
G04 #@! TD.AperFunction*
G04 #@! TA.AperFunction,SMDPad,CuDef*
G36*
X141590191Y-109026053D02*
G01*
X141611426Y-109029203D01*
X141632250Y-109034419D01*
X141652462Y-109041651D01*
X141671868Y-109050830D01*
X141690281Y-109061866D01*
X141707524Y-109074654D01*
X141723430Y-109089070D01*
X141737846Y-109104976D01*
X141750634Y-109122219D01*
X141761670Y-109140632D01*
X141770849Y-109160038D01*
X141778081Y-109180250D01*
X141783297Y-109201074D01*
X141786447Y-109222309D01*
X141787500Y-109243750D01*
X141787500Y-109756250D01*
X141786447Y-109777691D01*
X141783297Y-109798926D01*
X141778081Y-109819750D01*
X141770849Y-109839962D01*
X141761670Y-109859368D01*
X141750634Y-109877781D01*
X141737846Y-109895024D01*
X141723430Y-109910930D01*
X141707524Y-109925346D01*
X141690281Y-109938134D01*
X141671868Y-109949170D01*
X141652462Y-109958349D01*
X141632250Y-109965581D01*
X141611426Y-109970797D01*
X141590191Y-109973947D01*
X141568750Y-109975000D01*
X141131250Y-109975000D01*
X141109809Y-109973947D01*
X141088574Y-109970797D01*
X141067750Y-109965581D01*
X141047538Y-109958349D01*
X141028132Y-109949170D01*
X141009719Y-109938134D01*
X140992476Y-109925346D01*
X140976570Y-109910930D01*
X140962154Y-109895024D01*
X140949366Y-109877781D01*
X140938330Y-109859368D01*
X140929151Y-109839962D01*
X140921919Y-109819750D01*
X140916703Y-109798926D01*
X140913553Y-109777691D01*
X140912500Y-109756250D01*
X140912500Y-109243750D01*
X140913553Y-109222309D01*
X140916703Y-109201074D01*
X140921919Y-109180250D01*
X140929151Y-109160038D01*
X140938330Y-109140632D01*
X140949366Y-109122219D01*
X140962154Y-109104976D01*
X140976570Y-109089070D01*
X140992476Y-109074654D01*
X141009719Y-109061866D01*
X141028132Y-109050830D01*
X141047538Y-109041651D01*
X141067750Y-109034419D01*
X141088574Y-109029203D01*
X141109809Y-109026053D01*
X141131250Y-109025000D01*
X141568750Y-109025000D01*
X141590191Y-109026053D01*
G37*
G04 #@! TD.AperFunction*
G04 #@! TA.AperFunction,SMDPad,CuDef*
G36*
X135517642Y-110801174D02*
G01*
X135541303Y-110804684D01*
X135564507Y-110810496D01*
X135587029Y-110818554D01*
X135608653Y-110828782D01*
X135629170Y-110841079D01*
X135648383Y-110855329D01*
X135666107Y-110871393D01*
X135682171Y-110889117D01*
X135696421Y-110908330D01*
X135708718Y-110928847D01*
X135718946Y-110950471D01*
X135727004Y-110972993D01*
X135732816Y-110996197D01*
X135736326Y-111019858D01*
X135737500Y-111043750D01*
X135737500Y-111956250D01*
X135736326Y-111980142D01*
X135732816Y-112003803D01*
X135727004Y-112027007D01*
X135718946Y-112049529D01*
X135708718Y-112071153D01*
X135696421Y-112091670D01*
X135682171Y-112110883D01*
X135666107Y-112128607D01*
X135648383Y-112144671D01*
X135629170Y-112158921D01*
X135608653Y-112171218D01*
X135587029Y-112181446D01*
X135564507Y-112189504D01*
X135541303Y-112195316D01*
X135517642Y-112198826D01*
X135493750Y-112200000D01*
X135006250Y-112200000D01*
X134982358Y-112198826D01*
X134958697Y-112195316D01*
X134935493Y-112189504D01*
X134912971Y-112181446D01*
X134891347Y-112171218D01*
X134870830Y-112158921D01*
X134851617Y-112144671D01*
X134833893Y-112128607D01*
X134817829Y-112110883D01*
X134803579Y-112091670D01*
X134791282Y-112071153D01*
X134781054Y-112049529D01*
X134772996Y-112027007D01*
X134767184Y-112003803D01*
X134763674Y-111980142D01*
X134762500Y-111956250D01*
X134762500Y-111043750D01*
X134763674Y-111019858D01*
X134767184Y-110996197D01*
X134772996Y-110972993D01*
X134781054Y-110950471D01*
X134791282Y-110928847D01*
X134803579Y-110908330D01*
X134817829Y-110889117D01*
X134833893Y-110871393D01*
X134851617Y-110855329D01*
X134870830Y-110841079D01*
X134891347Y-110828782D01*
X134912971Y-110818554D01*
X134935493Y-110810496D01*
X134958697Y-110804684D01*
X134982358Y-110801174D01*
X135006250Y-110800000D01*
X135493750Y-110800000D01*
X135517642Y-110801174D01*
G37*
G04 #@! TD.AperFunction*
G04 #@! TA.AperFunction,SMDPad,CuDef*
G36*
X133642642Y-110801174D02*
G01*
X133666303Y-110804684D01*
X133689507Y-110810496D01*
X133712029Y-110818554D01*
X133733653Y-110828782D01*
X133754170Y-110841079D01*
X133773383Y-110855329D01*
X133791107Y-110871393D01*
X133807171Y-110889117D01*
X133821421Y-110908330D01*
X133833718Y-110928847D01*
X133843946Y-110950471D01*
X133852004Y-110972993D01*
X133857816Y-110996197D01*
X133861326Y-111019858D01*
X133862500Y-111043750D01*
X133862500Y-111956250D01*
X133861326Y-111980142D01*
X133857816Y-112003803D01*
X133852004Y-112027007D01*
X133843946Y-112049529D01*
X133833718Y-112071153D01*
X133821421Y-112091670D01*
X133807171Y-112110883D01*
X133791107Y-112128607D01*
X133773383Y-112144671D01*
X133754170Y-112158921D01*
X133733653Y-112171218D01*
X133712029Y-112181446D01*
X133689507Y-112189504D01*
X133666303Y-112195316D01*
X133642642Y-112198826D01*
X133618750Y-112200000D01*
X133131250Y-112200000D01*
X133107358Y-112198826D01*
X133083697Y-112195316D01*
X133060493Y-112189504D01*
X133037971Y-112181446D01*
X133016347Y-112171218D01*
X132995830Y-112158921D01*
X132976617Y-112144671D01*
X132958893Y-112128607D01*
X132942829Y-112110883D01*
X132928579Y-112091670D01*
X132916282Y-112071153D01*
X132906054Y-112049529D01*
X132897996Y-112027007D01*
X132892184Y-112003803D01*
X132888674Y-111980142D01*
X132887500Y-111956250D01*
X132887500Y-111043750D01*
X132888674Y-111019858D01*
X132892184Y-110996197D01*
X132897996Y-110972993D01*
X132906054Y-110950471D01*
X132916282Y-110928847D01*
X132928579Y-110908330D01*
X132942829Y-110889117D01*
X132958893Y-110871393D01*
X132976617Y-110855329D01*
X132995830Y-110841079D01*
X133016347Y-110828782D01*
X133037971Y-110818554D01*
X133060493Y-110810496D01*
X133083697Y-110804684D01*
X133107358Y-110801174D01*
X133131250Y-110800000D01*
X133618750Y-110800000D01*
X133642642Y-110801174D01*
G37*
G04 #@! TD.AperFunction*
G04 #@! TA.AperFunction,SMDPad,CuDef*
G36*
X135517642Y-105801174D02*
G01*
X135541303Y-105804684D01*
X135564507Y-105810496D01*
X135587029Y-105818554D01*
X135608653Y-105828782D01*
X135629170Y-105841079D01*
X135648383Y-105855329D01*
X135666107Y-105871393D01*
X135682171Y-105889117D01*
X135696421Y-105908330D01*
X135708718Y-105928847D01*
X135718946Y-105950471D01*
X135727004Y-105972993D01*
X135732816Y-105996197D01*
X135736326Y-106019858D01*
X135737500Y-106043750D01*
X135737500Y-106956250D01*
X135736326Y-106980142D01*
X135732816Y-107003803D01*
X135727004Y-107027007D01*
X135718946Y-107049529D01*
X135708718Y-107071153D01*
X135696421Y-107091670D01*
X135682171Y-107110883D01*
X135666107Y-107128607D01*
X135648383Y-107144671D01*
X135629170Y-107158921D01*
X135608653Y-107171218D01*
X135587029Y-107181446D01*
X135564507Y-107189504D01*
X135541303Y-107195316D01*
X135517642Y-107198826D01*
X135493750Y-107200000D01*
X135006250Y-107200000D01*
X134982358Y-107198826D01*
X134958697Y-107195316D01*
X134935493Y-107189504D01*
X134912971Y-107181446D01*
X134891347Y-107171218D01*
X134870830Y-107158921D01*
X134851617Y-107144671D01*
X134833893Y-107128607D01*
X134817829Y-107110883D01*
X134803579Y-107091670D01*
X134791282Y-107071153D01*
X134781054Y-107049529D01*
X134772996Y-107027007D01*
X134767184Y-107003803D01*
X134763674Y-106980142D01*
X134762500Y-106956250D01*
X134762500Y-106043750D01*
X134763674Y-106019858D01*
X134767184Y-105996197D01*
X134772996Y-105972993D01*
X134781054Y-105950471D01*
X134791282Y-105928847D01*
X134803579Y-105908330D01*
X134817829Y-105889117D01*
X134833893Y-105871393D01*
X134851617Y-105855329D01*
X134870830Y-105841079D01*
X134891347Y-105828782D01*
X134912971Y-105818554D01*
X134935493Y-105810496D01*
X134958697Y-105804684D01*
X134982358Y-105801174D01*
X135006250Y-105800000D01*
X135493750Y-105800000D01*
X135517642Y-105801174D01*
G37*
G04 #@! TD.AperFunction*
G04 #@! TA.AperFunction,SMDPad,CuDef*
G36*
X133642642Y-105801174D02*
G01*
X133666303Y-105804684D01*
X133689507Y-105810496D01*
X133712029Y-105818554D01*
X133733653Y-105828782D01*
X133754170Y-105841079D01*
X133773383Y-105855329D01*
X133791107Y-105871393D01*
X133807171Y-105889117D01*
X133821421Y-105908330D01*
X133833718Y-105928847D01*
X133843946Y-105950471D01*
X133852004Y-105972993D01*
X133857816Y-105996197D01*
X133861326Y-106019858D01*
X133862500Y-106043750D01*
X133862500Y-106956250D01*
X133861326Y-106980142D01*
X133857816Y-107003803D01*
X133852004Y-107027007D01*
X133843946Y-107049529D01*
X133833718Y-107071153D01*
X133821421Y-107091670D01*
X133807171Y-107110883D01*
X133791107Y-107128607D01*
X133773383Y-107144671D01*
X133754170Y-107158921D01*
X133733653Y-107171218D01*
X133712029Y-107181446D01*
X133689507Y-107189504D01*
X133666303Y-107195316D01*
X133642642Y-107198826D01*
X133618750Y-107200000D01*
X133131250Y-107200000D01*
X133107358Y-107198826D01*
X133083697Y-107195316D01*
X133060493Y-107189504D01*
X133037971Y-107181446D01*
X133016347Y-107171218D01*
X132995830Y-107158921D01*
X132976617Y-107144671D01*
X132958893Y-107128607D01*
X132942829Y-107110883D01*
X132928579Y-107091670D01*
X132916282Y-107071153D01*
X132906054Y-107049529D01*
X132897996Y-107027007D01*
X132892184Y-107003803D01*
X132888674Y-106980142D01*
X132887500Y-106956250D01*
X132887500Y-106043750D01*
X132888674Y-106019858D01*
X132892184Y-105996197D01*
X132897996Y-105972993D01*
X132906054Y-105950471D01*
X132916282Y-105928847D01*
X132928579Y-105908330D01*
X132942829Y-105889117D01*
X132958893Y-105871393D01*
X132976617Y-105855329D01*
X132995830Y-105841079D01*
X133016347Y-105828782D01*
X133037971Y-105818554D01*
X133060493Y-105810496D01*
X133083697Y-105804684D01*
X133107358Y-105801174D01*
X133131250Y-105800000D01*
X133618750Y-105800000D01*
X133642642Y-105801174D01*
G37*
G04 #@! TD.AperFunction*
D11*
X131000000Y-106500000D03*
D12*
X131000000Y-109000000D03*
X131000000Y-111500000D03*
D13*
X138500000Y-103400000D03*
X138500000Y-114600000D03*
D12*
X145500000Y-106500000D03*
X145500000Y-111500000D03*
G04 #@! TA.AperFunction,SMDPad,CuDef*
D10*
G36*
X143642642Y-110801174D02*
G01*
X143666303Y-110804684D01*
X143689507Y-110810496D01*
X143712029Y-110818554D01*
X143733653Y-110828782D01*
X143754170Y-110841079D01*
X143773383Y-110855329D01*
X143791107Y-110871393D01*
X143807171Y-110889117D01*
X143821421Y-110908330D01*
X143833718Y-110928847D01*
X143843946Y-110950471D01*
X143852004Y-110972993D01*
X143857816Y-110996197D01*
X143861326Y-111019858D01*
X143862500Y-111043750D01*
X143862500Y-111956250D01*
X143861326Y-111980142D01*
X143857816Y-112003803D01*
X143852004Y-112027007D01*
X143843946Y-112049529D01*
X143833718Y-112071153D01*
X143821421Y-112091670D01*
X143807171Y-112110883D01*
X143791107Y-112128607D01*
X143773383Y-112144671D01*
X143754170Y-112158921D01*
X143733653Y-112171218D01*
X143712029Y-112181446D01*
X143689507Y-112189504D01*
X143666303Y-112195316D01*
X143642642Y-112198826D01*
X143618750Y-112200000D01*
X143131250Y-112200000D01*
X143107358Y-112198826D01*
X143083697Y-112195316D01*
X143060493Y-112189504D01*
X143037971Y-112181446D01*
X143016347Y-112171218D01*
X142995830Y-112158921D01*
X142976617Y-112144671D01*
X142958893Y-112128607D01*
X142942829Y-112110883D01*
X142928579Y-112091670D01*
X142916282Y-112071153D01*
X142906054Y-112049529D01*
X142897996Y-112027007D01*
X142892184Y-112003803D01*
X142888674Y-111980142D01*
X142887500Y-111956250D01*
X142887500Y-111043750D01*
X142888674Y-111019858D01*
X142892184Y-110996197D01*
X142897996Y-110972993D01*
X142906054Y-110950471D01*
X142916282Y-110928847D01*
X142928579Y-110908330D01*
X142942829Y-110889117D01*
X142958893Y-110871393D01*
X142976617Y-110855329D01*
X142995830Y-110841079D01*
X143016347Y-110828782D01*
X143037971Y-110818554D01*
X143060493Y-110810496D01*
X143083697Y-110804684D01*
X143107358Y-110801174D01*
X143131250Y-110800000D01*
X143618750Y-110800000D01*
X143642642Y-110801174D01*
G37*
G04 #@! TD.AperFunction*
G04 #@! TA.AperFunction,SMDPad,CuDef*
G36*
X141767642Y-110801174D02*
G01*
X141791303Y-110804684D01*
X141814507Y-110810496D01*
X141837029Y-110818554D01*
X141858653Y-110828782D01*
X141879170Y-110841079D01*
X141898383Y-110855329D01*
X141916107Y-110871393D01*
X141932171Y-110889117D01*
X141946421Y-110908330D01*
X141958718Y-110928847D01*
X141968946Y-110950471D01*
X141977004Y-110972993D01*
X141982816Y-110996197D01*
X141986326Y-111019858D01*
X141987500Y-111043750D01*
X141987500Y-111956250D01*
X141986326Y-111980142D01*
X141982816Y-112003803D01*
X141977004Y-112027007D01*
X141968946Y-112049529D01*
X141958718Y-112071153D01*
X141946421Y-112091670D01*
X141932171Y-112110883D01*
X141916107Y-112128607D01*
X141898383Y-112144671D01*
X141879170Y-112158921D01*
X141858653Y-112171218D01*
X141837029Y-112181446D01*
X141814507Y-112189504D01*
X141791303Y-112195316D01*
X141767642Y-112198826D01*
X141743750Y-112200000D01*
X141256250Y-112200000D01*
X141232358Y-112198826D01*
X141208697Y-112195316D01*
X141185493Y-112189504D01*
X141162971Y-112181446D01*
X141141347Y-112171218D01*
X141120830Y-112158921D01*
X141101617Y-112144671D01*
X141083893Y-112128607D01*
X141067829Y-112110883D01*
X141053579Y-112091670D01*
X141041282Y-112071153D01*
X141031054Y-112049529D01*
X141022996Y-112027007D01*
X141017184Y-112003803D01*
X141013674Y-111980142D01*
X141012500Y-111956250D01*
X141012500Y-111043750D01*
X141013674Y-111019858D01*
X141017184Y-110996197D01*
X141022996Y-110972993D01*
X141031054Y-110950471D01*
X141041282Y-110928847D01*
X141053579Y-110908330D01*
X141067829Y-110889117D01*
X141083893Y-110871393D01*
X141101617Y-110855329D01*
X141120830Y-110841079D01*
X141141347Y-110828782D01*
X141162971Y-110818554D01*
X141185493Y-110810496D01*
X141208697Y-110804684D01*
X141232358Y-110801174D01*
X141256250Y-110800000D01*
X141743750Y-110800000D01*
X141767642Y-110801174D01*
G37*
G04 #@! TD.AperFunction*
D14*
X142560000Y-120655000D03*
X137480000Y-120655000D03*
X140020000Y-117345000D03*
X134940000Y-117345000D03*
D15*
X136250000Y-109000000D02*
X137000000Y-108250000D01*
X131000000Y-109000000D02*
X136250000Y-109000000D01*
X136250000Y-109125000D02*
X137000000Y-109875000D01*
X136250000Y-109000000D02*
X136250000Y-109125000D01*
X139250000Y-109875000D02*
X139625000Y-109500000D01*
X137000000Y-109875000D02*
X139250000Y-109875000D01*
X144085787Y-106500000D02*
X145500000Y-106500000D01*
X141925000Y-106500000D02*
X144085787Y-106500000D01*
X139625000Y-108800000D02*
X141925000Y-106500000D01*
X139625000Y-109500000D02*
X139625000Y-108800000D01*
X142560000Y-120655000D02*
X142560000Y-119100000D01*
X142560000Y-119100000D02*
X144250000Y-117410000D01*
X144250000Y-117410000D02*
X144250000Y-115000000D01*
X146499999Y-107499999D02*
X145500000Y-106500000D01*
X144250000Y-115000000D02*
X146900001Y-112349999D01*
X146900001Y-112349999D02*
X146900001Y-107900001D01*
X146900001Y-107900001D02*
X146499999Y-107499999D01*
X141500000Y-109500000D02*
X141500000Y-111500000D01*
X141500000Y-112200000D02*
X141500000Y-111500000D01*
X141500000Y-115110000D02*
X141500000Y-112200000D01*
X140020000Y-116590000D02*
X141500000Y-115110000D01*
X140020000Y-117345000D02*
X140020000Y-116590000D01*
X136750000Y-111500000D02*
X137000000Y-111750000D01*
X135250000Y-111500000D02*
X136750000Y-111500000D01*
X137480000Y-120655000D02*
X137480000Y-116980000D01*
X135250000Y-114750000D02*
X135250000Y-111500000D01*
X137480000Y-116980000D02*
X135250000Y-114750000D01*
X136875000Y-106500000D02*
X137000000Y-106375000D01*
X135250000Y-106500000D02*
X136875000Y-106500000D01*
X134940000Y-115790000D02*
X132400000Y-113250000D01*
X134940000Y-117345000D02*
X134940000Y-115790000D01*
X136514473Y-105889473D02*
X137000000Y-106375000D01*
X135724999Y-105099999D02*
X136514473Y-105889473D01*
X129679999Y-105099999D02*
X135724999Y-105099999D01*
X129599999Y-105179999D02*
X129679999Y-105099999D01*
X129599999Y-112172001D02*
X129599999Y-105179999D01*
X130677998Y-113250000D02*
X129599999Y-112172001D01*
X132400000Y-113250000D02*
X130677998Y-113250000D01*
X143375000Y-111500000D02*
X145500000Y-111500000D01*
X131000000Y-106500000D02*
X133375000Y-106500000D01*
X131000000Y-111500000D02*
X133375000Y-111500000D01*
M02*
