G04 #@! TF.FileFunction,Copper,L2,Bot,Signal*
%FSLAX46Y46*%
G04 Gerber Fmt 4.6, Leading zero omitted, Abs format (unit mm)*
G04 Created by KiCad (PCBNEW 4.0.7+dfsg1-1) date Fri Aug  3 22:35:36 2018*
%MOMM*%
%LPD*%
G01*
G04 APERTURE LIST*
%ADD10C,0.100000*%
%ADD11C,2.000000*%
%ADD12C,0.250000*%
G04 APERTURE END LIST*
D10*
D11*
X158931428Y-76562857D02*
X157117142Y-77167619D01*
X156512381Y-77772381D01*
X155907619Y-78981905D01*
X155907619Y-80796190D01*
X156512381Y-82005714D01*
X157117142Y-82610476D01*
X158326666Y-83215238D01*
X163164761Y-83215238D01*
X163164761Y-70515238D01*
X158931428Y-70515238D01*
X157721904Y-71120000D01*
X157117142Y-71724762D01*
X156512381Y-72934286D01*
X156512381Y-74143810D01*
X157117142Y-75353333D01*
X157721904Y-75958095D01*
X158931428Y-76562857D01*
X163164761Y-76562857D01*
X145021904Y-83215238D02*
X145021904Y-76562857D01*
X145626666Y-75353333D01*
X146836190Y-74748571D01*
X149255238Y-74748571D01*
X150464761Y-75353333D01*
X145021904Y-82610476D02*
X146231428Y-83215238D01*
X149255238Y-83215238D01*
X150464761Y-82610476D01*
X151069523Y-81400952D01*
X151069523Y-80191429D01*
X150464761Y-78981905D01*
X149255238Y-78377143D01*
X146231428Y-78377143D01*
X145021904Y-77772381D01*
X133531428Y-82610476D02*
X134740952Y-83215238D01*
X137160000Y-83215238D01*
X138369524Y-82610476D01*
X138974285Y-82005714D01*
X139579047Y-80796190D01*
X139579047Y-77167619D01*
X138974285Y-75958095D01*
X138369524Y-75353333D01*
X137160000Y-74748571D01*
X134740952Y-74748571D01*
X133531428Y-75353333D01*
X128088571Y-83215238D02*
X128088571Y-70515238D01*
X126879048Y-78377143D02*
X123250476Y-83215238D01*
X123250476Y-74748571D02*
X128088571Y-79586667D01*
D12*
X165100000Y-85090000D02*
X167640000Y-82550000D01*
X167640000Y-85090000D02*
X165100000Y-82550000D01*
M02*
